G04 #@! TF.GenerationSoftware,KiCad,Pcbnew,(5.0.0)*
G04 #@! TF.CreationDate,2019-01-11T09:19:34-05:00*
G04 #@! TF.ProjectId,GSR_v1,4753525F76312E6B696361645F706362,rev?*
G04 #@! TF.SameCoordinates,Original*
G04 #@! TF.FileFunction,Legend,Top*
G04 #@! TF.FilePolarity,Positive*
%FSLAX46Y46*%
G04 Gerber Fmt 4.6, Leading zero omitted, Abs format (unit mm)*
G04 Created by KiCad (PCBNEW (5.0.0)) date 01/11/19 09:19:34*
%MOMM*%
%LPD*%
G01*
G04 APERTURE LIST*
%ADD10C,0.080000*%
%ADD11C,0.200000*%
%ADD12C,0.100000*%
%ADD13C,0.070000*%
%ADD14C,0.090000*%
%ADD15C,0.125000*%
%ADD16C,0.500000*%
%ADD17C,0.254000*%
%ADD18C,0.120000*%
%ADD19C,0.071120*%
%ADD20C,0.150000*%
%ADD21C,0.127000*%
%ADD22C,0.114300*%
%ADD23C,0.092000*%
%ADD24C,0.095000*%
G04 APERTURE END LIST*
D10*
X299767857Y-129600000D02*
X299705952Y-129569047D01*
X299613095Y-129569047D01*
X299520238Y-129600000D01*
X299458333Y-129661904D01*
X299427380Y-129723809D01*
X299396428Y-129847619D01*
X299396428Y-129940476D01*
X299427380Y-130064285D01*
X299458333Y-130126190D01*
X299520238Y-130188095D01*
X299613095Y-130219047D01*
X299675000Y-130219047D01*
X299767857Y-130188095D01*
X299798809Y-130157142D01*
X299798809Y-129940476D01*
X299675000Y-129940476D01*
X300046428Y-130188095D02*
X300139285Y-130219047D01*
X300294047Y-130219047D01*
X300355952Y-130188095D01*
X300386904Y-130157142D01*
X300417857Y-130095238D01*
X300417857Y-130033333D01*
X300386904Y-129971428D01*
X300355952Y-129940476D01*
X300294047Y-129909523D01*
X300170238Y-129878571D01*
X300108333Y-129847619D01*
X300077380Y-129816666D01*
X300046428Y-129754761D01*
X300046428Y-129692857D01*
X300077380Y-129630952D01*
X300108333Y-129600000D01*
X300170238Y-129569047D01*
X300325000Y-129569047D01*
X300417857Y-129600000D01*
X301067857Y-130219047D02*
X300851190Y-129909523D01*
X300696428Y-130219047D02*
X300696428Y-129569047D01*
X300944047Y-129569047D01*
X301005952Y-129600000D01*
X301036904Y-129630952D01*
X301067857Y-129692857D01*
X301067857Y-129785714D01*
X301036904Y-129847619D01*
X301005952Y-129878571D01*
X300944047Y-129909523D01*
X300696428Y-129909523D01*
X301191666Y-130280952D02*
X301686904Y-130280952D01*
X301841666Y-130219047D02*
X301841666Y-129569047D01*
X302151190Y-130219047D02*
X302151190Y-129569047D01*
X302522619Y-130219047D01*
X302522619Y-129569047D01*
D11*
X292180000Y-137590000D02*
X295420000Y-137590000D01*
X290440000Y-132350000D02*
X295070000Y-132350000D01*
D12*
X301425000Y-129196428D02*
X301389285Y-129267857D01*
X301389285Y-129375000D01*
X301425000Y-129482142D01*
X301496428Y-129553571D01*
X301567857Y-129589285D01*
X301710714Y-129625000D01*
X301817857Y-129625000D01*
X301960714Y-129589285D01*
X302032142Y-129553571D01*
X302103571Y-129482142D01*
X302139285Y-129375000D01*
X302139285Y-129303571D01*
X302103571Y-129196428D01*
X302067857Y-129160714D01*
X301817857Y-129160714D01*
X301817857Y-129303571D01*
X302139285Y-128839285D02*
X301389285Y-128839285D01*
X302139285Y-128410714D01*
X301389285Y-128410714D01*
X302139285Y-128053571D02*
X301389285Y-128053571D01*
X301389285Y-127875000D01*
X301425000Y-127767857D01*
X301496428Y-127696428D01*
X301567857Y-127660714D01*
X301710714Y-127625000D01*
X301817857Y-127625000D01*
X301960714Y-127660714D01*
X302032142Y-127696428D01*
X302103571Y-127767857D01*
X302139285Y-127875000D01*
X302139285Y-128053571D01*
D13*
X290637142Y-145482857D02*
X290665714Y-145397142D01*
X290694285Y-145368571D01*
X290751428Y-145340000D01*
X290837142Y-145340000D01*
X290894285Y-145368571D01*
X290922857Y-145397142D01*
X290951428Y-145454285D01*
X290951428Y-145682857D01*
X290351428Y-145682857D01*
X290351428Y-145482857D01*
X290380000Y-145425714D01*
X290408571Y-145397142D01*
X290465714Y-145368571D01*
X290522857Y-145368571D01*
X290580000Y-145397142D01*
X290608571Y-145425714D01*
X290637142Y-145482857D01*
X290637142Y-145682857D01*
X290780000Y-145111428D02*
X290780000Y-144825714D01*
X290951428Y-145168571D02*
X290351428Y-144968571D01*
X290951428Y-144768571D01*
X290351428Y-144654285D02*
X290351428Y-144311428D01*
X290951428Y-144482857D02*
X290351428Y-144482857D01*
X290351428Y-144197142D02*
X290351428Y-143854285D01*
X290951428Y-144025714D02*
X290351428Y-144025714D01*
X290722857Y-143654285D02*
X290722857Y-143197142D01*
X290951428Y-143425714D02*
X290494285Y-143425714D01*
D12*
X294029285Y-144712857D02*
X294029285Y-145070000D01*
X294386428Y-145105714D01*
X294350714Y-145070000D01*
X294315000Y-144998571D01*
X294315000Y-144820000D01*
X294350714Y-144748571D01*
X294386428Y-144712857D01*
X294457857Y-144677142D01*
X294636428Y-144677142D01*
X294707857Y-144712857D01*
X294743571Y-144748571D01*
X294779285Y-144820000D01*
X294779285Y-144998571D01*
X294743571Y-145070000D01*
X294707857Y-145105714D01*
X294029285Y-144462857D02*
X294779285Y-144212857D01*
X294029285Y-143962857D01*
X290205000Y-142221428D02*
X290169285Y-142292857D01*
X290169285Y-142400000D01*
X290205000Y-142507142D01*
X290276428Y-142578571D01*
X290347857Y-142614285D01*
X290490714Y-142650000D01*
X290597857Y-142650000D01*
X290740714Y-142614285D01*
X290812142Y-142578571D01*
X290883571Y-142507142D01*
X290919285Y-142400000D01*
X290919285Y-142328571D01*
X290883571Y-142221428D01*
X290847857Y-142185714D01*
X290597857Y-142185714D01*
X290597857Y-142328571D01*
X290919285Y-141864285D02*
X290169285Y-141864285D01*
X290919285Y-141435714D01*
X290169285Y-141435714D01*
X290919285Y-141078571D02*
X290169285Y-141078571D01*
X290169285Y-140900000D01*
X290205000Y-140792857D01*
X290276428Y-140721428D01*
X290347857Y-140685714D01*
X290490714Y-140650000D01*
X290597857Y-140650000D01*
X290740714Y-140685714D01*
X290812142Y-140721428D01*
X290883571Y-140792857D01*
X290919285Y-140900000D01*
X290919285Y-141078571D01*
D14*
X266484285Y-144201428D02*
X266827142Y-144201428D01*
X266655714Y-144801428D02*
X266655714Y-144201428D01*
X267027142Y-144801428D02*
X267027142Y-144201428D01*
X267255714Y-144201428D01*
X267312857Y-144230000D01*
X267341428Y-144258571D01*
X267370000Y-144315714D01*
X267370000Y-144401428D01*
X267341428Y-144458571D01*
X267312857Y-144487142D01*
X267255714Y-144515714D01*
X267027142Y-144515714D01*
X267598571Y-144772857D02*
X267684285Y-144801428D01*
X267827142Y-144801428D01*
X267884285Y-144772857D01*
X267912857Y-144744285D01*
X267941428Y-144687142D01*
X267941428Y-144630000D01*
X267912857Y-144572857D01*
X267884285Y-144544285D01*
X267827142Y-144515714D01*
X267712857Y-144487142D01*
X267655714Y-144458571D01*
X267627142Y-144430000D01*
X267598571Y-144372857D01*
X267598571Y-144315714D01*
X267627142Y-144258571D01*
X267655714Y-144230000D01*
X267712857Y-144201428D01*
X267855714Y-144201428D01*
X267941428Y-144230000D01*
X268455714Y-144201428D02*
X268341428Y-144201428D01*
X268284285Y-144230000D01*
X268255714Y-144258571D01*
X268198571Y-144344285D01*
X268170000Y-144458571D01*
X268170000Y-144687142D01*
X268198571Y-144744285D01*
X268227142Y-144772857D01*
X268284285Y-144801428D01*
X268398571Y-144801428D01*
X268455714Y-144772857D01*
X268484285Y-144744285D01*
X268512857Y-144687142D01*
X268512857Y-144544285D01*
X268484285Y-144487142D01*
X268455714Y-144458571D01*
X268398571Y-144430000D01*
X268284285Y-144430000D01*
X268227142Y-144458571D01*
X268198571Y-144487142D01*
X268170000Y-144544285D01*
X268712857Y-144201428D02*
X269084285Y-144201428D01*
X268884285Y-144430000D01*
X268970000Y-144430000D01*
X269027142Y-144458571D01*
X269055714Y-144487142D01*
X269084285Y-144544285D01*
X269084285Y-144687142D01*
X269055714Y-144744285D01*
X269027142Y-144772857D01*
X268970000Y-144801428D01*
X268798571Y-144801428D01*
X268741428Y-144772857D01*
X268712857Y-144744285D01*
X269455714Y-144201428D02*
X269512857Y-144201428D01*
X269570000Y-144230000D01*
X269598571Y-144258571D01*
X269627142Y-144315714D01*
X269655714Y-144430000D01*
X269655714Y-144572857D01*
X269627142Y-144687142D01*
X269598571Y-144744285D01*
X269570000Y-144772857D01*
X269512857Y-144801428D01*
X269455714Y-144801428D01*
X269398571Y-144772857D01*
X269370000Y-144744285D01*
X269341428Y-144687142D01*
X269312857Y-144572857D01*
X269312857Y-144430000D01*
X269341428Y-144315714D01*
X269370000Y-144258571D01*
X269398571Y-144230000D01*
X269455714Y-144201428D01*
X270027142Y-144201428D02*
X270084285Y-144201428D01*
X270141428Y-144230000D01*
X270170000Y-144258571D01*
X270198571Y-144315714D01*
X270227142Y-144430000D01*
X270227142Y-144572857D01*
X270198571Y-144687142D01*
X270170000Y-144744285D01*
X270141428Y-144772857D01*
X270084285Y-144801428D01*
X270027142Y-144801428D01*
X269970000Y-144772857D01*
X269941428Y-144744285D01*
X269912857Y-144687142D01*
X269884285Y-144572857D01*
X269884285Y-144430000D01*
X269912857Y-144315714D01*
X269941428Y-144258571D01*
X269970000Y-144230000D01*
X270027142Y-144201428D01*
X270798571Y-144801428D02*
X270455714Y-144801428D01*
X270627142Y-144801428D02*
X270627142Y-144201428D01*
X270570000Y-144287142D01*
X270512857Y-144344285D01*
X270455714Y-144372857D01*
D11*
X277550000Y-129140000D02*
X278460000Y-129140000D01*
X277980000Y-128770000D02*
X277980000Y-128700000D01*
X278000000Y-130530000D02*
X278000000Y-129530000D01*
D12*
X279976666Y-127633333D02*
X279276666Y-127633333D01*
X279243333Y-126800000D02*
X280143333Y-127400000D01*
X279276666Y-126433333D02*
X279276666Y-126300000D01*
X279310000Y-126233333D01*
X279376666Y-126166666D01*
X279510000Y-126133333D01*
X279743333Y-126133333D01*
X279876666Y-126166666D01*
X279943333Y-126233333D01*
X279976666Y-126300000D01*
X279976666Y-126433333D01*
X279943333Y-126500000D01*
X279876666Y-126566666D01*
X279743333Y-126600000D01*
X279510000Y-126600000D01*
X279376666Y-126566666D01*
X279310000Y-126500000D01*
X279276666Y-126433333D01*
D11*
X265900000Y-132000000D02*
X265900000Y-125500000D01*
X272400000Y-132000000D02*
X265900000Y-132000000D01*
X272400000Y-125500000D02*
X272400000Y-132000000D01*
X265900000Y-125500000D02*
X272400000Y-125500000D01*
D15*
X282254285Y-131504761D02*
X281587619Y-131504761D01*
X282159047Y-131504761D02*
X282206666Y-131552380D01*
X282254285Y-131647619D01*
X282254285Y-131790476D01*
X282206666Y-131885714D01*
X282111428Y-131933333D01*
X281587619Y-131933333D01*
X281587619Y-132980952D02*
X282063809Y-132647619D01*
X281587619Y-132409523D02*
X282587619Y-132409523D01*
X282587619Y-132790476D01*
X282540000Y-132885714D01*
X282492380Y-132933333D01*
X282397142Y-132980952D01*
X282254285Y-132980952D01*
X282159047Y-132933333D01*
X282111428Y-132885714D01*
X282063809Y-132790476D01*
X282063809Y-132409523D01*
X282111428Y-133742857D02*
X282111428Y-133409523D01*
X281587619Y-133409523D02*
X282587619Y-133409523D01*
X282587619Y-133885714D01*
X282587619Y-134742857D02*
X282587619Y-134266666D01*
X282111428Y-134219047D01*
X282159047Y-134266666D01*
X282206666Y-134361904D01*
X282206666Y-134600000D01*
X282159047Y-134695238D01*
X282111428Y-134742857D01*
X282016190Y-134790476D01*
X281778095Y-134790476D01*
X281682857Y-134742857D01*
X281635238Y-134695238D01*
X281587619Y-134600000D01*
X281587619Y-134361904D01*
X281635238Y-134266666D01*
X281682857Y-134219047D01*
X282492380Y-135171428D02*
X282540000Y-135219047D01*
X282587619Y-135314285D01*
X282587619Y-135552380D01*
X282540000Y-135647619D01*
X282492380Y-135695238D01*
X282397142Y-135742857D01*
X282301904Y-135742857D01*
X282159047Y-135695238D01*
X281587619Y-135123809D01*
X281587619Y-135742857D01*
D11*
X270243607Y-139655000D02*
G75*
G03X270243607Y-139655000I-223607J0D01*
G01*
X275033113Y-137010000D02*
G75*
G03X275033113Y-137010000I-403113J0D01*
G01*
D12*
X280000000Y-129816666D02*
X280033333Y-129850000D01*
X280066666Y-129950000D01*
X280066666Y-130016666D01*
X280033333Y-130116666D01*
X279966666Y-130183333D01*
X279900000Y-130216666D01*
X279766666Y-130250000D01*
X279666666Y-130250000D01*
X279533333Y-130216666D01*
X279466666Y-130183333D01*
X279400000Y-130116666D01*
X279366666Y-130016666D01*
X279366666Y-129950000D01*
X279400000Y-129850000D01*
X279433333Y-129816666D01*
X280066666Y-129183333D02*
X280066666Y-129516666D01*
X279366666Y-129516666D01*
X280066666Y-128950000D02*
X279366666Y-128950000D01*
X280066666Y-128550000D02*
X279666666Y-128850000D01*
X279366666Y-128550000D02*
X279766666Y-128950000D01*
X293875000Y-142491428D02*
X293839285Y-142562857D01*
X293839285Y-142670000D01*
X293875000Y-142777142D01*
X293946428Y-142848571D01*
X294017857Y-142884285D01*
X294160714Y-142920000D01*
X294267857Y-142920000D01*
X294410714Y-142884285D01*
X294482142Y-142848571D01*
X294553571Y-142777142D01*
X294589285Y-142670000D01*
X294589285Y-142598571D01*
X294553571Y-142491428D01*
X294517857Y-142455714D01*
X294267857Y-142455714D01*
X294267857Y-142598571D01*
X294589285Y-142134285D02*
X293839285Y-142134285D01*
X294589285Y-141705714D01*
X293839285Y-141705714D01*
X294589285Y-141348571D02*
X293839285Y-141348571D01*
X293839285Y-141170000D01*
X293875000Y-141062857D01*
X293946428Y-140991428D01*
X294017857Y-140955714D01*
X294160714Y-140920000D01*
X294267857Y-140920000D01*
X294410714Y-140955714D01*
X294482142Y-140991428D01*
X294553571Y-141062857D01*
X294589285Y-141170000D01*
X294589285Y-141348571D01*
X269199285Y-137921428D02*
X269949285Y-137671428D01*
X269199285Y-137421428D01*
X269949285Y-137171428D02*
X269199285Y-137171428D01*
X269949285Y-136814285D02*
X269199285Y-136814285D01*
X269949285Y-136385714D01*
X269199285Y-136385714D01*
D16*
X269900000Y-127673000D02*
X269320000Y-127673000D01*
D17*
G04 #@! TO.C,J1*
X286352000Y-125674000D02*
G75*
G03X286352000Y-125674000I-98000J0D01*
G01*
D11*
X298200000Y-110850000D02*
X298200000Y-112597000D01*
X298200000Y-115192000D02*
X298200000Y-120561000D01*
X282950000Y-112361000D02*
X282950000Y-124042000D01*
X298200000Y-125095000D02*
X283992000Y-125095000D01*
X298200000Y-110850000D02*
X290575000Y-110850000D01*
D18*
G04 #@! TO.C,P3*
X297350000Y-143210000D02*
X294690000Y-143210000D01*
X297350000Y-143210000D02*
X297350000Y-140610000D01*
X297350000Y-140610000D02*
X294690000Y-140610000D01*
X294690000Y-143210000D02*
X294690000Y-140610000D01*
X294690000Y-145810000D02*
X294690000Y-144480000D01*
X296020000Y-145810000D02*
X294690000Y-145810000D01*
G04 #@! TO.C,P2*
X281560000Y-130740000D02*
X280230000Y-130740000D01*
X280230000Y-130740000D02*
X280230000Y-129410000D01*
X280230000Y-128140000D02*
X280230000Y-125540000D01*
X282890000Y-125540000D02*
X280230000Y-125540000D01*
X282890000Y-128140000D02*
X282890000Y-125540000D01*
X282890000Y-128140000D02*
X280230000Y-128140000D01*
G04 #@! TO.C,P1*
X293750000Y-143210000D02*
X291090000Y-143210000D01*
X293750000Y-143210000D02*
X293750000Y-140610000D01*
X293750000Y-140610000D02*
X291090000Y-140610000D01*
X291090000Y-143210000D02*
X291090000Y-140610000D01*
X291090000Y-145810000D02*
X291090000Y-144480000D01*
X292420000Y-145810000D02*
X291090000Y-145810000D01*
D19*
G04 #@! TO.C,R18*
X291479000Y-129179000D02*
X291479000Y-129687000D01*
X291479000Y-129687000D02*
X292241000Y-129687000D01*
X292241000Y-129687000D02*
X292241000Y-129179000D01*
X291479000Y-128671000D02*
X291479000Y-128163000D01*
X291479000Y-128163000D02*
X292241000Y-128163000D01*
X292241000Y-128163000D02*
X292241000Y-128671000D01*
G04 #@! TO.C,R17*
X287819000Y-129203580D02*
X287819000Y-129711580D01*
X287819000Y-129711580D02*
X288581000Y-129711580D01*
X288581000Y-129711580D02*
X288581000Y-129203580D01*
X287819000Y-128695580D02*
X287819000Y-128187580D01*
X287819000Y-128187580D02*
X288581000Y-128187580D01*
X288581000Y-128187580D02*
X288581000Y-128695580D01*
G04 #@! TO.C,R16*
X286519000Y-129009000D02*
X286519000Y-129517000D01*
X286519000Y-129517000D02*
X287281000Y-129517000D01*
X287281000Y-129517000D02*
X287281000Y-129009000D01*
X286519000Y-128501000D02*
X286519000Y-127993000D01*
X286519000Y-127993000D02*
X287281000Y-127993000D01*
X287281000Y-127993000D02*
X287281000Y-128501000D01*
G04 #@! TO.C,C6*
X290674000Y-126616000D02*
X291182000Y-126616000D01*
X291182000Y-126616000D02*
X291182000Y-125854000D01*
X291182000Y-125854000D02*
X290674000Y-125854000D01*
X290166000Y-126616000D02*
X289658000Y-126616000D01*
X289658000Y-126616000D02*
X289658000Y-125854000D01*
X289658000Y-125854000D02*
X290166000Y-125854000D01*
G04 #@! TO.C,R15*
X287832800Y-137312400D02*
X287832800Y-136804400D01*
X287832800Y-136804400D02*
X287070800Y-136804400D01*
X287070800Y-136804400D02*
X287070800Y-137312400D01*
X287832800Y-137820400D02*
X287832800Y-138328400D01*
X287832800Y-138328400D02*
X287070800Y-138328400D01*
X287070800Y-138328400D02*
X287070800Y-137820400D01*
G04 #@! TO.C,R14*
X295386000Y-130669000D02*
X294878000Y-130669000D01*
X294878000Y-130669000D02*
X294878000Y-131431000D01*
X294878000Y-131431000D02*
X295386000Y-131431000D01*
X295894000Y-130669000D02*
X296402000Y-130669000D01*
X296402000Y-130669000D02*
X296402000Y-131431000D01*
X296402000Y-131431000D02*
X295894000Y-131431000D01*
G04 #@! TO.C,R13*
X289280600Y-139192000D02*
X289788600Y-139192000D01*
X289788600Y-139192000D02*
X289788600Y-138430000D01*
X289788600Y-138430000D02*
X289280600Y-138430000D01*
X288772600Y-139192000D02*
X288264600Y-139192000D01*
X288264600Y-139192000D02*
X288264600Y-138430000D01*
X288264600Y-138430000D02*
X288772600Y-138430000D01*
G04 #@! TO.C,R12*
X291922200Y-139293600D02*
X291922200Y-138785600D01*
X291922200Y-138785600D02*
X291160200Y-138785600D01*
X291160200Y-138785600D02*
X291160200Y-139293600D01*
X291922200Y-139801600D02*
X291922200Y-140309600D01*
X291922200Y-140309600D02*
X291160200Y-140309600D01*
X291160200Y-140309600D02*
X291160200Y-139801600D01*
G04 #@! TO.C,R11*
X293266420Y-130659000D02*
X292758420Y-130659000D01*
X292758420Y-130659000D02*
X292758420Y-131421000D01*
X292758420Y-131421000D02*
X293266420Y-131421000D01*
X293774420Y-130659000D02*
X294282420Y-130659000D01*
X294282420Y-130659000D02*
X294282420Y-131421000D01*
X294282420Y-131421000D02*
X293774420Y-131421000D01*
G04 #@! TO.C,R6*
X288696400Y-133934200D02*
X288188400Y-133934200D01*
X288188400Y-133934200D02*
X288188400Y-134696200D01*
X288188400Y-134696200D02*
X288696400Y-134696200D01*
X289204400Y-133934200D02*
X289712400Y-133934200D01*
X289712400Y-133934200D02*
X289712400Y-134696200D01*
X289712400Y-134696200D02*
X289204400Y-134696200D01*
G04 #@! TO.C,R4*
X288010600Y-132156200D02*
X288518600Y-132156200D01*
X288518600Y-132156200D02*
X288518600Y-131394200D01*
X288518600Y-131394200D02*
X288010600Y-131394200D01*
X287502600Y-132156200D02*
X286994600Y-132156200D01*
X286994600Y-132156200D02*
X286994600Y-131394200D01*
X286994600Y-131394200D02*
X287502600Y-131394200D01*
G04 #@! TO.C,R3*
X288163000Y-133502400D02*
X288671000Y-133502400D01*
X288671000Y-133502400D02*
X288671000Y-132740400D01*
X288671000Y-132740400D02*
X288163000Y-132740400D01*
X287655000Y-133502400D02*
X287147000Y-133502400D01*
X287147000Y-133502400D02*
X287147000Y-132740400D01*
X287147000Y-132740400D02*
X287655000Y-132740400D01*
G04 #@! TO.C,R2*
X287096200Y-135026400D02*
X287096200Y-135534400D01*
X287096200Y-135534400D02*
X287858200Y-135534400D01*
X287858200Y-135534400D02*
X287858200Y-135026400D01*
X287096200Y-134518400D02*
X287096200Y-134010400D01*
X287096200Y-134010400D02*
X287858200Y-134010400D01*
X287858200Y-134010400D02*
X287858200Y-134518400D01*
G04 #@! TO.C,R1*
X286664400Y-134594600D02*
X286664400Y-134086600D01*
X286664400Y-134086600D02*
X285902400Y-134086600D01*
X285902400Y-134086600D02*
X285902400Y-134594600D01*
X286664400Y-135102600D02*
X286664400Y-135610600D01*
X286664400Y-135610600D02*
X285902400Y-135610600D01*
X285902400Y-135610600D02*
X285902400Y-135102600D01*
G04 #@! TO.C,C5*
X286435800Y-136296400D02*
X286435800Y-135788400D01*
X286435800Y-135788400D02*
X285673800Y-135788400D01*
X285673800Y-135788400D02*
X285673800Y-136296400D01*
X286435800Y-136804400D02*
X286435800Y-137312400D01*
X286435800Y-137312400D02*
X285673800Y-137312400D01*
X285673800Y-137312400D02*
X285673800Y-136804400D01*
G04 #@! TO.C,C4*
X285191200Y-135483600D02*
X285191200Y-134975600D01*
X285191200Y-134975600D02*
X284429200Y-134975600D01*
X284429200Y-134975600D02*
X284429200Y-135483600D01*
X285191200Y-135991600D02*
X285191200Y-136499600D01*
X285191200Y-136499600D02*
X284429200Y-136499600D01*
X284429200Y-136499600D02*
X284429200Y-135991600D01*
G04 #@! TO.C,C3*
X285611000Y-133694740D02*
X285611000Y-133186740D01*
X285611000Y-133186740D02*
X284849000Y-133186740D01*
X284849000Y-133186740D02*
X284849000Y-133694740D01*
X285611000Y-134202740D02*
X285611000Y-134710740D01*
X285611000Y-134710740D02*
X284849000Y-134710740D01*
X284849000Y-134710740D02*
X284849000Y-134202740D01*
G04 #@! TO.C,R5*
X278676000Y-141909000D02*
X278168000Y-141909000D01*
X278168000Y-141909000D02*
X278168000Y-142671000D01*
X278168000Y-142671000D02*
X278676000Y-142671000D01*
X279184000Y-141909000D02*
X279692000Y-141909000D01*
X279692000Y-141909000D02*
X279692000Y-142671000D01*
X279692000Y-142671000D02*
X279184000Y-142671000D01*
D18*
G04 #@! TO.C,U5*
X274250000Y-143870000D02*
X276150000Y-143870000D01*
X275650000Y-141550000D02*
X274250000Y-141550000D01*
G04 #@! TO.C,D4*
X290020000Y-140880000D02*
X289020000Y-140880000D01*
X289020000Y-140880000D02*
X289020000Y-142980000D01*
X290020000Y-140880000D02*
X290020000Y-142980000D01*
D19*
G04 #@! TO.C,C18*
X288506000Y-143629000D02*
X287998000Y-143629000D01*
X287998000Y-143629000D02*
X287998000Y-144391000D01*
X287998000Y-144391000D02*
X288506000Y-144391000D01*
X289014000Y-143629000D02*
X289522000Y-143629000D01*
X289522000Y-143629000D02*
X289522000Y-144391000D01*
X289522000Y-144391000D02*
X289014000Y-144391000D01*
G04 #@! TO.C,R10*
X286726000Y-143629000D02*
X286218000Y-143629000D01*
X286218000Y-143629000D02*
X286218000Y-144391000D01*
X286218000Y-144391000D02*
X286726000Y-144391000D01*
X287234000Y-143629000D02*
X287742000Y-143629000D01*
X287742000Y-143629000D02*
X287742000Y-144391000D01*
X287742000Y-144391000D02*
X287234000Y-144391000D01*
G04 #@! TO.C,C16*
X285004000Y-144401000D02*
X285512000Y-144401000D01*
X285512000Y-144401000D02*
X285512000Y-143639000D01*
X285512000Y-143639000D02*
X285004000Y-143639000D01*
X284496000Y-144401000D02*
X283988000Y-144401000D01*
X283988000Y-144401000D02*
X283988000Y-143639000D01*
X283988000Y-143639000D02*
X284496000Y-143639000D01*
G04 #@! TO.C,R9*
X281759000Y-142444000D02*
X281759000Y-142952000D01*
X281759000Y-142952000D02*
X282521000Y-142952000D01*
X282521000Y-142952000D02*
X282521000Y-142444000D01*
X281759000Y-141936000D02*
X281759000Y-141428000D01*
X281759000Y-141428000D02*
X282521000Y-141428000D01*
X282521000Y-141428000D02*
X282521000Y-141936000D01*
G04 #@! TO.C,C17*
X287109000Y-141274000D02*
X287109000Y-141782000D01*
X287109000Y-141782000D02*
X287871000Y-141782000D01*
X287871000Y-141782000D02*
X287871000Y-141274000D01*
X287109000Y-140766000D02*
X287109000Y-140258000D01*
X287109000Y-140258000D02*
X287871000Y-140258000D01*
X287871000Y-140258000D02*
X287871000Y-140766000D01*
D18*
G04 #@! TO.C,D3*
X284340000Y-140550000D02*
X284340000Y-139550000D01*
X284340000Y-139550000D02*
X282240000Y-139550000D01*
X284340000Y-140550000D02*
X282240000Y-140550000D01*
D19*
G04 #@! TO.C,C22*
X282968400Y-136550800D02*
X282968400Y-136042800D01*
X282968400Y-136042800D02*
X282206400Y-136042800D01*
X282206400Y-136042800D02*
X282206400Y-136550800D01*
X282968400Y-137058800D02*
X282968400Y-137566800D01*
X282968400Y-137566800D02*
X282206400Y-137566800D01*
X282206400Y-137566800D02*
X282206400Y-137058800D01*
G04 #@! TO.C,R7*
X279184000Y-143651000D02*
X279692000Y-143651000D01*
X279692000Y-143651000D02*
X279692000Y-142889000D01*
X279692000Y-142889000D02*
X279184000Y-142889000D01*
X278676000Y-143651000D02*
X278168000Y-143651000D01*
X278168000Y-143651000D02*
X278168000Y-142889000D01*
X278168000Y-142889000D02*
X278676000Y-142889000D01*
G04 #@! TO.C,C14*
X276929000Y-143354000D02*
X276929000Y-143862000D01*
X276929000Y-143862000D02*
X277691000Y-143862000D01*
X277691000Y-143862000D02*
X277691000Y-143354000D01*
X276929000Y-142846000D02*
X276929000Y-142338000D01*
X276929000Y-142338000D02*
X277691000Y-142338000D01*
X277691000Y-142338000D02*
X277691000Y-142846000D01*
G04 #@! TO.C,C15*
X272654000Y-144641000D02*
X273162000Y-144641000D01*
X273162000Y-144641000D02*
X273162000Y-143879000D01*
X273162000Y-143879000D02*
X272654000Y-143879000D01*
X272146000Y-144641000D02*
X271638000Y-144641000D01*
X271638000Y-144641000D02*
X271638000Y-143879000D01*
X271638000Y-143879000D02*
X272146000Y-143879000D01*
D20*
G04 #@! TO.C,U1*
X266670000Y-140525000D02*
X266670000Y-142975000D01*
X269970000Y-139800000D02*
X269970000Y-142975000D01*
D19*
G04 #@! TO.C,L1*
X268186000Y-138589000D02*
X267678000Y-138589000D01*
X267678000Y-138589000D02*
X267678000Y-139351000D01*
X267678000Y-139351000D02*
X268186000Y-139351000D01*
X268694000Y-138589000D02*
X269202000Y-138589000D01*
X269202000Y-138589000D02*
X269202000Y-139351000D01*
X269202000Y-139351000D02*
X268694000Y-139351000D01*
G04 #@! TO.C,C21*
X273689000Y-138854000D02*
X273689000Y-139362000D01*
X273689000Y-139362000D02*
X274451000Y-139362000D01*
X274451000Y-139362000D02*
X274451000Y-138854000D01*
X273689000Y-138346000D02*
X273689000Y-137838000D01*
X273689000Y-137838000D02*
X274451000Y-137838000D01*
X274451000Y-137838000D02*
X274451000Y-138346000D01*
D18*
G04 #@! TO.C,F1*
X277470000Y-128250000D02*
X277470000Y-128750000D01*
X278530000Y-128750000D02*
X278530000Y-128250000D01*
D19*
G04 #@! TO.C,C34*
X275459000Y-129294000D02*
X275459000Y-129802000D01*
X275459000Y-129802000D02*
X276221000Y-129802000D01*
X276221000Y-129802000D02*
X276221000Y-129294000D01*
X275459000Y-128786000D02*
X275459000Y-128278000D01*
X275459000Y-128278000D02*
X276221000Y-128278000D01*
X276221000Y-128278000D02*
X276221000Y-128786000D01*
G04 #@! TO.C,C33*
X273346000Y-129069000D02*
X272838000Y-129069000D01*
X272838000Y-129069000D02*
X272838000Y-129831000D01*
X272838000Y-129831000D02*
X273346000Y-129831000D01*
X273854000Y-129069000D02*
X274362000Y-129069000D01*
X274362000Y-129069000D02*
X274362000Y-129831000D01*
X274362000Y-129831000D02*
X273854000Y-129831000D01*
G04 #@! TO.C,C11*
X285694000Y-139171000D02*
X286202000Y-139171000D01*
X286202000Y-139171000D02*
X286202000Y-138409000D01*
X286202000Y-138409000D02*
X285694000Y-138409000D01*
X285186000Y-139171000D02*
X284678000Y-139171000D01*
X284678000Y-139171000D02*
X284678000Y-138409000D01*
X284678000Y-138409000D02*
X285186000Y-138409000D01*
G04 #@! TO.C,C2*
X270659000Y-142704000D02*
X270659000Y-143212000D01*
X270659000Y-143212000D02*
X271421000Y-143212000D01*
X271421000Y-143212000D02*
X271421000Y-142704000D01*
X270659000Y-142196000D02*
X270659000Y-141688000D01*
X270659000Y-141688000D02*
X271421000Y-141688000D01*
X271421000Y-141688000D02*
X271421000Y-142196000D01*
G04 #@! TO.C,C1*
X271759000Y-142714000D02*
X271759000Y-143222000D01*
X271759000Y-143222000D02*
X272521000Y-143222000D01*
X272521000Y-143222000D02*
X272521000Y-142714000D01*
X271759000Y-142206000D02*
X271759000Y-141698000D01*
X271759000Y-141698000D02*
X272521000Y-141698000D01*
X272521000Y-141698000D02*
X272521000Y-142206000D01*
D21*
G04 #@! TO.C,L4*
X273313000Y-139255000D02*
X271027000Y-139255000D01*
X271027000Y-139255000D02*
X271027000Y-137985000D01*
X271027000Y-137985000D02*
X273313000Y-137985000D01*
X273313000Y-137985000D02*
X273313000Y-139255000D01*
D20*
G04 #@! TO.C,X1*
X272500000Y-134050000D02*
X272500000Y-134100000D01*
X272500000Y-134050000D02*
X272500000Y-134000000D01*
X270500000Y-134050000D02*
X270500000Y-134100000D01*
X270500000Y-134050000D02*
X270500000Y-134000000D01*
X271500000Y-134850000D02*
X271650000Y-134850000D01*
X271500000Y-134850000D02*
X271350000Y-134850000D01*
X271500000Y-133250000D02*
X271650000Y-133250000D01*
X271500000Y-133250000D02*
X271350000Y-133250000D01*
D19*
G04 #@! TO.C,C28*
X275831000Y-140296000D02*
X275831000Y-139788000D01*
X275831000Y-139788000D02*
X275069000Y-139788000D01*
X275069000Y-139788000D02*
X275069000Y-140296000D01*
X275831000Y-140804000D02*
X275831000Y-141312000D01*
X275831000Y-141312000D02*
X275069000Y-141312000D01*
X275069000Y-141312000D02*
X275069000Y-140804000D01*
G04 #@! TO.C,C26*
X273454000Y-140581000D02*
X273962000Y-140581000D01*
X273962000Y-140581000D02*
X273962000Y-139819000D01*
X273962000Y-139819000D02*
X273454000Y-139819000D01*
X272946000Y-140581000D02*
X272438000Y-140581000D01*
X272438000Y-140581000D02*
X272438000Y-139819000D01*
X272438000Y-139819000D02*
X272946000Y-139819000D01*
G04 #@! TO.C,C24*
X270181000Y-133946000D02*
X270181000Y-133438000D01*
X270181000Y-133438000D02*
X269419000Y-133438000D01*
X269419000Y-133438000D02*
X269419000Y-133946000D01*
X270181000Y-134454000D02*
X270181000Y-134962000D01*
X270181000Y-134962000D02*
X269419000Y-134962000D01*
X269419000Y-134962000D02*
X269419000Y-134454000D01*
G04 #@! TO.C,C25*
X272819000Y-134354000D02*
X272819000Y-134862000D01*
X272819000Y-134862000D02*
X273581000Y-134862000D01*
X273581000Y-134862000D02*
X273581000Y-134354000D01*
X272819000Y-133846000D02*
X272819000Y-133338000D01*
X272819000Y-133338000D02*
X273581000Y-133338000D01*
X273581000Y-133338000D02*
X273581000Y-133846000D01*
G04 #@! TO.C,C29*
X277231000Y-140296000D02*
X277231000Y-139788000D01*
X277231000Y-139788000D02*
X276469000Y-139788000D01*
X276469000Y-139788000D02*
X276469000Y-140296000D01*
X277231000Y-140804000D02*
X277231000Y-141312000D01*
X277231000Y-141312000D02*
X276469000Y-141312000D01*
X276469000Y-141312000D02*
X276469000Y-140804000D01*
D20*
G04 #@! TO.C,A1*
X266645000Y-126673000D02*
X271445000Y-126673000D01*
X271445000Y-126673000D02*
X271445000Y-128673000D01*
X271345000Y-128673000D02*
X266645000Y-128673000D01*
X266645000Y-128673000D02*
X266645000Y-126673000D01*
X271445000Y-128673000D02*
X271345000Y-128673000D01*
D19*
G04 #@! TO.C,L6*
X272654000Y-128081000D02*
X273162000Y-128081000D01*
X273162000Y-128081000D02*
X273162000Y-127319000D01*
X273162000Y-127319000D02*
X272654000Y-127319000D01*
X272146000Y-128081000D02*
X271638000Y-128081000D01*
X271638000Y-128081000D02*
X271638000Y-127319000D01*
X271638000Y-127319000D02*
X272146000Y-127319000D01*
G04 #@! TO.C,L5*
X274381000Y-127846000D02*
X274381000Y-127338000D01*
X274381000Y-127338000D02*
X273619000Y-127338000D01*
X273619000Y-127338000D02*
X273619000Y-127846000D01*
X274381000Y-128354000D02*
X274381000Y-128862000D01*
X274381000Y-128862000D02*
X273619000Y-128862000D01*
X273619000Y-128862000D02*
X273619000Y-128354000D01*
G04 #@! TO.C,C30*
X275854000Y-128081000D02*
X276362000Y-128081000D01*
X276362000Y-128081000D02*
X276362000Y-127319000D01*
X276362000Y-127319000D02*
X275854000Y-127319000D01*
X275346000Y-128081000D02*
X274838000Y-128081000D01*
X274838000Y-128081000D02*
X274838000Y-127319000D01*
X274838000Y-127319000D02*
X275346000Y-127319000D01*
G04 #@! TO.C,L3*
X271926000Y-136889000D02*
X271418000Y-136889000D01*
X271418000Y-136889000D02*
X271418000Y-137651000D01*
X271418000Y-137651000D02*
X271926000Y-137651000D01*
X272434000Y-136889000D02*
X272942000Y-136889000D01*
X272942000Y-136889000D02*
X272942000Y-137651000D01*
X272942000Y-137651000D02*
X272434000Y-137651000D01*
D21*
G04 #@! TO.C,C23*
X273643000Y-136635000D02*
X271357000Y-136635000D01*
X271357000Y-136635000D02*
X271357000Y-135365000D01*
X271357000Y-135365000D02*
X273643000Y-135365000D01*
X273643000Y-135365000D02*
X273643000Y-136635000D01*
D20*
G04 #@! TO.C,U3*
X274675000Y-130875000D02*
X275275000Y-130875000D01*
X280925000Y-137125000D02*
X280325000Y-137125000D01*
X280925000Y-130875000D02*
X280325000Y-130875000D01*
X274675000Y-137125000D02*
X274675000Y-136525000D01*
X280925000Y-137125000D02*
X280925000Y-136525000D01*
X280925000Y-130875000D02*
X280925000Y-131475000D01*
X274675000Y-130875000D02*
X274675000Y-131475000D01*
D18*
G04 #@! TO.C,X2*
X274950000Y-139650000D02*
X277350000Y-139650000D01*
X277350000Y-139650000D02*
X277350000Y-138050000D01*
X277350000Y-138050000D02*
X274950000Y-138050000D01*
D20*
G04 #@! TO.C,U6*
X285835000Y-141015000D02*
X283685000Y-141015000D01*
X286660000Y-143265000D02*
X283685000Y-143265000D01*
D12*
G04 #@! TO.C,Q1*
X288590000Y-143080000D02*
X288590000Y-142380000D01*
X288460000Y-143155000D02*
X287460000Y-143155000D01*
D20*
G04 #@! TO.C,U4*
X291160000Y-129140000D02*
X291160000Y-127690000D01*
X288960000Y-129865000D02*
X288960000Y-127690000D01*
D18*
G04 #@! TO.C,P4*
X297730000Y-128880000D02*
X297730000Y-130210000D01*
X297730000Y-130210000D02*
X296400000Y-130210000D01*
X295130000Y-130210000D02*
X292530000Y-130210000D01*
X292530000Y-127550000D02*
X292530000Y-130210000D01*
X295130000Y-127550000D02*
X292530000Y-127550000D01*
X295130000Y-127550000D02*
X295130000Y-130210000D01*
G04 #@! TO.C,J1*
D17*
X286559313Y-117148933D02*
X287466456Y-117148933D01*
X287647885Y-117209409D01*
X287768837Y-117330361D01*
X287829313Y-117511790D01*
X287829313Y-117632742D01*
X287829313Y-115878933D02*
X287829313Y-116604647D01*
X287829313Y-116241790D02*
X286559313Y-116241790D01*
X286740742Y-116362742D01*
X286861694Y-116483695D01*
X286922170Y-116604647D01*
G04 #@! TO.C,P3*
D10*
X295540952Y-146756190D02*
X295540952Y-146256190D01*
X295731428Y-146256190D01*
X295779047Y-146280000D01*
X295802857Y-146303809D01*
X295826666Y-146351428D01*
X295826666Y-146422857D01*
X295802857Y-146470476D01*
X295779047Y-146494285D01*
X295731428Y-146518095D01*
X295540952Y-146518095D01*
X295993333Y-146256190D02*
X296302857Y-146256190D01*
X296136190Y-146446666D01*
X296207619Y-146446666D01*
X296255238Y-146470476D01*
X296279047Y-146494285D01*
X296302857Y-146541904D01*
X296302857Y-146660952D01*
X296279047Y-146708571D01*
X296255238Y-146732380D01*
X296207619Y-146756190D01*
X296064761Y-146756190D01*
X296017142Y-146732380D01*
X295993333Y-146708571D01*
G04 #@! TO.C,P2*
X281080952Y-131686190D02*
X281080952Y-131186190D01*
X281271428Y-131186190D01*
X281319047Y-131210000D01*
X281342857Y-131233809D01*
X281366666Y-131281428D01*
X281366666Y-131352857D01*
X281342857Y-131400476D01*
X281319047Y-131424285D01*
X281271428Y-131448095D01*
X281080952Y-131448095D01*
X281557142Y-131233809D02*
X281580952Y-131210000D01*
X281628571Y-131186190D01*
X281747619Y-131186190D01*
X281795238Y-131210000D01*
X281819047Y-131233809D01*
X281842857Y-131281428D01*
X281842857Y-131329047D01*
X281819047Y-131400476D01*
X281533333Y-131686190D01*
X281842857Y-131686190D01*
G04 #@! TO.C,P1*
X291940952Y-146756190D02*
X291940952Y-146256190D01*
X292131428Y-146256190D01*
X292179047Y-146280000D01*
X292202857Y-146303809D01*
X292226666Y-146351428D01*
X292226666Y-146422857D01*
X292202857Y-146470476D01*
X292179047Y-146494285D01*
X292131428Y-146518095D01*
X291940952Y-146518095D01*
X292702857Y-146756190D02*
X292417142Y-146756190D01*
X292560000Y-146756190D02*
X292560000Y-146256190D01*
X292512380Y-146327619D01*
X292464761Y-146375238D01*
X292417142Y-146399047D01*
G04 #@! TO.C,R18*
D19*
X291664057Y-129093568D02*
X291562457Y-128926654D01*
X291489885Y-129093568D02*
X291489885Y-128743048D01*
X291606000Y-128743048D01*
X291635028Y-128759740D01*
X291649542Y-128776431D01*
X291664057Y-128809814D01*
X291664057Y-128859888D01*
X291649542Y-128893271D01*
X291635028Y-128909962D01*
X291606000Y-128926654D01*
X291489885Y-128926654D01*
X291954342Y-129093568D02*
X291780171Y-129093568D01*
X291867257Y-129093568D02*
X291867257Y-128743048D01*
X291838228Y-128793122D01*
X291809200Y-128826505D01*
X291780171Y-128843197D01*
X292128514Y-128893271D02*
X292099485Y-128876580D01*
X292084971Y-128859888D01*
X292070457Y-128826505D01*
X292070457Y-128809814D01*
X292084971Y-128776431D01*
X292099485Y-128759740D01*
X292128514Y-128743048D01*
X292186571Y-128743048D01*
X292215600Y-128759740D01*
X292230114Y-128776431D01*
X292244628Y-128809814D01*
X292244628Y-128826505D01*
X292230114Y-128859888D01*
X292215600Y-128876580D01*
X292186571Y-128893271D01*
X292128514Y-128893271D01*
X292099485Y-128909962D01*
X292084971Y-128926654D01*
X292070457Y-128960037D01*
X292070457Y-129026802D01*
X292084971Y-129060185D01*
X292099485Y-129076877D01*
X292128514Y-129093568D01*
X292186571Y-129093568D01*
X292215600Y-129076877D01*
X292230114Y-129060185D01*
X292244628Y-129026802D01*
X292244628Y-128960037D01*
X292230114Y-128926654D01*
X292215600Y-128909962D01*
X292186571Y-128893271D01*
G04 #@! TO.C,R17*
X288004057Y-129118148D02*
X287902457Y-128951234D01*
X287829885Y-129118148D02*
X287829885Y-128767628D01*
X287946000Y-128767628D01*
X287975028Y-128784320D01*
X287989542Y-128801011D01*
X288004057Y-128834394D01*
X288004057Y-128884468D01*
X287989542Y-128917851D01*
X287975028Y-128934542D01*
X287946000Y-128951234D01*
X287829885Y-128951234D01*
X288294342Y-129118148D02*
X288120171Y-129118148D01*
X288207257Y-129118148D02*
X288207257Y-128767628D01*
X288178228Y-128817702D01*
X288149200Y-128851085D01*
X288120171Y-128867777D01*
X288395942Y-128767628D02*
X288599142Y-128767628D01*
X288468514Y-129118148D01*
G04 #@! TO.C,R16*
X286704057Y-128923568D02*
X286602457Y-128756654D01*
X286529885Y-128923568D02*
X286529885Y-128573048D01*
X286646000Y-128573048D01*
X286675028Y-128589740D01*
X286689542Y-128606431D01*
X286704057Y-128639814D01*
X286704057Y-128689888D01*
X286689542Y-128723271D01*
X286675028Y-128739962D01*
X286646000Y-128756654D01*
X286529885Y-128756654D01*
X286994342Y-128923568D02*
X286820171Y-128923568D01*
X286907257Y-128923568D02*
X286907257Y-128573048D01*
X286878228Y-128623122D01*
X286849200Y-128656505D01*
X286820171Y-128673197D01*
X287255600Y-128573048D02*
X287197542Y-128573048D01*
X287168514Y-128589740D01*
X287154000Y-128606431D01*
X287124971Y-128656505D01*
X287110457Y-128723271D01*
X287110457Y-128856802D01*
X287124971Y-128890185D01*
X287139485Y-128906877D01*
X287168514Y-128923568D01*
X287226571Y-128923568D01*
X287255600Y-128906877D01*
X287270114Y-128890185D01*
X287284628Y-128856802D01*
X287284628Y-128773345D01*
X287270114Y-128739962D01*
X287255600Y-128723271D01*
X287226571Y-128706580D01*
X287168514Y-128706580D01*
X287139485Y-128723271D01*
X287124971Y-128739962D01*
X287110457Y-128773345D01*
G04 #@! TO.C,C6*
X290555185Y-126285800D02*
X290571877Y-126300314D01*
X290588568Y-126343857D01*
X290588568Y-126372885D01*
X290571877Y-126416428D01*
X290538494Y-126445457D01*
X290505111Y-126459971D01*
X290438345Y-126474485D01*
X290388271Y-126474485D01*
X290321505Y-126459971D01*
X290288122Y-126445457D01*
X290254740Y-126416428D01*
X290238048Y-126372885D01*
X290238048Y-126343857D01*
X290254740Y-126300314D01*
X290271431Y-126285800D01*
X290238048Y-126024542D02*
X290238048Y-126082600D01*
X290254740Y-126111628D01*
X290271431Y-126126142D01*
X290321505Y-126155171D01*
X290388271Y-126169685D01*
X290521802Y-126169685D01*
X290555185Y-126155171D01*
X290571877Y-126140657D01*
X290588568Y-126111628D01*
X290588568Y-126053571D01*
X290571877Y-126024542D01*
X290555185Y-126010028D01*
X290521802Y-125995514D01*
X290438345Y-125995514D01*
X290404962Y-126010028D01*
X290388271Y-126024542D01*
X290371580Y-126053571D01*
X290371580Y-126111628D01*
X290388271Y-126140657D01*
X290404962Y-126155171D01*
X290438345Y-126169685D01*
G04 #@! TO.C,R15*
X287255857Y-137714968D02*
X287154257Y-137548054D01*
X287081685Y-137714968D02*
X287081685Y-137364448D01*
X287197800Y-137364448D01*
X287226828Y-137381140D01*
X287241342Y-137397831D01*
X287255857Y-137431214D01*
X287255857Y-137481288D01*
X287241342Y-137514671D01*
X287226828Y-137531362D01*
X287197800Y-137548054D01*
X287081685Y-137548054D01*
X287546142Y-137714968D02*
X287371971Y-137714968D01*
X287459057Y-137714968D02*
X287459057Y-137364448D01*
X287430028Y-137414522D01*
X287401000Y-137447905D01*
X287371971Y-137464597D01*
X287821914Y-137364448D02*
X287676771Y-137364448D01*
X287662257Y-137531362D01*
X287676771Y-137514671D01*
X287705800Y-137497980D01*
X287778371Y-137497980D01*
X287807400Y-137514671D01*
X287821914Y-137531362D01*
X287836428Y-137564745D01*
X287836428Y-137648202D01*
X287821914Y-137681585D01*
X287807400Y-137698277D01*
X287778371Y-137714968D01*
X287705800Y-137714968D01*
X287676771Y-137698277D01*
X287662257Y-137681585D01*
G04 #@! TO.C,R14*
X295471431Y-130854057D02*
X295638345Y-130752457D01*
X295471431Y-130679885D02*
X295821951Y-130679885D01*
X295821951Y-130796000D01*
X295805260Y-130825028D01*
X295788568Y-130839542D01*
X295755185Y-130854057D01*
X295705111Y-130854057D01*
X295671728Y-130839542D01*
X295655037Y-130825028D01*
X295638345Y-130796000D01*
X295638345Y-130679885D01*
X295471431Y-131144342D02*
X295471431Y-130970171D01*
X295471431Y-131057257D02*
X295821951Y-131057257D01*
X295771877Y-131028228D01*
X295738494Y-130999200D01*
X295721802Y-130970171D01*
X295705111Y-131405600D02*
X295471431Y-131405600D01*
X295838642Y-131333028D02*
X295588271Y-131260457D01*
X295588271Y-131449142D01*
G04 #@! TO.C,R13*
X289195168Y-139006942D02*
X289028254Y-139108542D01*
X289195168Y-139181114D02*
X288844648Y-139181114D01*
X288844648Y-139065000D01*
X288861340Y-139035971D01*
X288878031Y-139021457D01*
X288911414Y-139006942D01*
X288961488Y-139006942D01*
X288994871Y-139021457D01*
X289011562Y-139035971D01*
X289028254Y-139065000D01*
X289028254Y-139181114D01*
X289195168Y-138716657D02*
X289195168Y-138890828D01*
X289195168Y-138803742D02*
X288844648Y-138803742D01*
X288894722Y-138832771D01*
X288928105Y-138861800D01*
X288944797Y-138890828D01*
X288844648Y-138615057D02*
X288844648Y-138426371D01*
X288978180Y-138527971D01*
X288978180Y-138484428D01*
X288994871Y-138455400D01*
X289011562Y-138440885D01*
X289044945Y-138426371D01*
X289128402Y-138426371D01*
X289161785Y-138440885D01*
X289178477Y-138455400D01*
X289195168Y-138484428D01*
X289195168Y-138571514D01*
X289178477Y-138600542D01*
X289161785Y-138615057D01*
G04 #@! TO.C,R12*
X291345257Y-139696168D02*
X291243657Y-139529254D01*
X291171085Y-139696168D02*
X291171085Y-139345648D01*
X291287200Y-139345648D01*
X291316228Y-139362340D01*
X291330742Y-139379031D01*
X291345257Y-139412414D01*
X291345257Y-139462488D01*
X291330742Y-139495871D01*
X291316228Y-139512562D01*
X291287200Y-139529254D01*
X291171085Y-139529254D01*
X291635542Y-139696168D02*
X291461371Y-139696168D01*
X291548457Y-139696168D02*
X291548457Y-139345648D01*
X291519428Y-139395722D01*
X291490400Y-139429105D01*
X291461371Y-139445797D01*
X291751657Y-139379031D02*
X291766171Y-139362340D01*
X291795200Y-139345648D01*
X291867771Y-139345648D01*
X291896800Y-139362340D01*
X291911314Y-139379031D01*
X291925828Y-139412414D01*
X291925828Y-139445797D01*
X291911314Y-139495871D01*
X291737142Y-139696168D01*
X291925828Y-139696168D01*
G04 #@! TO.C,R11*
X293668988Y-131235942D02*
X293502074Y-131337542D01*
X293668988Y-131410114D02*
X293318468Y-131410114D01*
X293318468Y-131294000D01*
X293335160Y-131264971D01*
X293351851Y-131250457D01*
X293385234Y-131235942D01*
X293435308Y-131235942D01*
X293468691Y-131250457D01*
X293485382Y-131264971D01*
X293502074Y-131294000D01*
X293502074Y-131410114D01*
X293668988Y-130945657D02*
X293668988Y-131119828D01*
X293668988Y-131032742D02*
X293318468Y-131032742D01*
X293368542Y-131061771D01*
X293401925Y-131090800D01*
X293418617Y-131119828D01*
X293668988Y-130655371D02*
X293668988Y-130829542D01*
X293668988Y-130742457D02*
X293318468Y-130742457D01*
X293368542Y-130771485D01*
X293401925Y-130800514D01*
X293418617Y-130829542D01*
G04 #@! TO.C,R6*
X289098968Y-134366000D02*
X288932054Y-134467600D01*
X289098968Y-134540171D02*
X288748448Y-134540171D01*
X288748448Y-134424057D01*
X288765140Y-134395028D01*
X288781831Y-134380514D01*
X288815214Y-134366000D01*
X288865288Y-134366000D01*
X288898671Y-134380514D01*
X288915362Y-134395028D01*
X288932054Y-134424057D01*
X288932054Y-134540171D01*
X288748448Y-134104742D02*
X288748448Y-134162800D01*
X288765140Y-134191828D01*
X288781831Y-134206342D01*
X288831905Y-134235371D01*
X288898671Y-134249885D01*
X289032202Y-134249885D01*
X289065585Y-134235371D01*
X289082277Y-134220857D01*
X289098968Y-134191828D01*
X289098968Y-134133771D01*
X289082277Y-134104742D01*
X289065585Y-134090228D01*
X289032202Y-134075714D01*
X288948745Y-134075714D01*
X288915362Y-134090228D01*
X288898671Y-134104742D01*
X288881980Y-134133771D01*
X288881980Y-134191828D01*
X288898671Y-134220857D01*
X288915362Y-134235371D01*
X288948745Y-134249885D01*
G04 #@! TO.C,R4*
X287925168Y-131826000D02*
X287758254Y-131927600D01*
X287925168Y-132000171D02*
X287574648Y-132000171D01*
X287574648Y-131884057D01*
X287591340Y-131855028D01*
X287608031Y-131840514D01*
X287641414Y-131826000D01*
X287691488Y-131826000D01*
X287724871Y-131840514D01*
X287741562Y-131855028D01*
X287758254Y-131884057D01*
X287758254Y-132000171D01*
X287691488Y-131564742D02*
X287925168Y-131564742D01*
X287557957Y-131637314D02*
X287808328Y-131709885D01*
X287808328Y-131521200D01*
G04 #@! TO.C,R3*
X288077568Y-133172200D02*
X287910654Y-133273800D01*
X288077568Y-133346371D02*
X287727048Y-133346371D01*
X287727048Y-133230257D01*
X287743740Y-133201228D01*
X287760431Y-133186714D01*
X287793814Y-133172200D01*
X287843888Y-133172200D01*
X287877271Y-133186714D01*
X287893962Y-133201228D01*
X287910654Y-133230257D01*
X287910654Y-133346371D01*
X287727048Y-133070600D02*
X287727048Y-132881914D01*
X287860580Y-132983514D01*
X287860580Y-132939971D01*
X287877271Y-132910942D01*
X287893962Y-132896428D01*
X287927345Y-132881914D01*
X288010802Y-132881914D01*
X288044185Y-132896428D01*
X288060877Y-132910942D01*
X288077568Y-132939971D01*
X288077568Y-133027057D01*
X288060877Y-133056085D01*
X288044185Y-133070600D01*
G04 #@! TO.C,R2*
X287426400Y-134940968D02*
X287324800Y-134774054D01*
X287252228Y-134940968D02*
X287252228Y-134590448D01*
X287368342Y-134590448D01*
X287397371Y-134607140D01*
X287411885Y-134623831D01*
X287426400Y-134657214D01*
X287426400Y-134707288D01*
X287411885Y-134740671D01*
X287397371Y-134757362D01*
X287368342Y-134774054D01*
X287252228Y-134774054D01*
X287542514Y-134623831D02*
X287557028Y-134607140D01*
X287586057Y-134590448D01*
X287658628Y-134590448D01*
X287687657Y-134607140D01*
X287702171Y-134623831D01*
X287716685Y-134657214D01*
X287716685Y-134690597D01*
X287702171Y-134740671D01*
X287528000Y-134940968D01*
X287716685Y-134940968D01*
G04 #@! TO.C,R1*
X286232600Y-134997168D02*
X286131000Y-134830254D01*
X286058428Y-134997168D02*
X286058428Y-134646648D01*
X286174542Y-134646648D01*
X286203571Y-134663340D01*
X286218085Y-134680031D01*
X286232600Y-134713414D01*
X286232600Y-134763488D01*
X286218085Y-134796871D01*
X286203571Y-134813562D01*
X286174542Y-134830254D01*
X286058428Y-134830254D01*
X286522885Y-134997168D02*
X286348714Y-134997168D01*
X286435800Y-134997168D02*
X286435800Y-134646648D01*
X286406771Y-134696722D01*
X286377742Y-134730105D01*
X286348714Y-134746797D01*
G04 #@! TO.C,C5*
X286004000Y-136665585D02*
X285989485Y-136682277D01*
X285945942Y-136698968D01*
X285916914Y-136698968D01*
X285873371Y-136682277D01*
X285844342Y-136648894D01*
X285829828Y-136615511D01*
X285815314Y-136548745D01*
X285815314Y-136498671D01*
X285829828Y-136431905D01*
X285844342Y-136398522D01*
X285873371Y-136365140D01*
X285916914Y-136348448D01*
X285945942Y-136348448D01*
X285989485Y-136365140D01*
X286004000Y-136381831D01*
X286279771Y-136348448D02*
X286134628Y-136348448D01*
X286120114Y-136515362D01*
X286134628Y-136498671D01*
X286163657Y-136481980D01*
X286236228Y-136481980D01*
X286265257Y-136498671D01*
X286279771Y-136515362D01*
X286294285Y-136548745D01*
X286294285Y-136632202D01*
X286279771Y-136665585D01*
X286265257Y-136682277D01*
X286236228Y-136698968D01*
X286163657Y-136698968D01*
X286134628Y-136682277D01*
X286120114Y-136665585D01*
G04 #@! TO.C,C4*
X284759400Y-135852785D02*
X284744885Y-135869477D01*
X284701342Y-135886168D01*
X284672314Y-135886168D01*
X284628771Y-135869477D01*
X284599742Y-135836094D01*
X284585228Y-135802711D01*
X284570714Y-135735945D01*
X284570714Y-135685871D01*
X284585228Y-135619105D01*
X284599742Y-135585722D01*
X284628771Y-135552340D01*
X284672314Y-135535648D01*
X284701342Y-135535648D01*
X284744885Y-135552340D01*
X284759400Y-135569031D01*
X285020657Y-135652488D02*
X285020657Y-135886168D01*
X284948085Y-135518957D02*
X284875514Y-135769328D01*
X285064200Y-135769328D01*
G04 #@! TO.C,C3*
X285179200Y-134063925D02*
X285164685Y-134080617D01*
X285121142Y-134097308D01*
X285092114Y-134097308D01*
X285048571Y-134080617D01*
X285019542Y-134047234D01*
X285005028Y-134013851D01*
X284990514Y-133947085D01*
X284990514Y-133897011D01*
X285005028Y-133830245D01*
X285019542Y-133796862D01*
X285048571Y-133763480D01*
X285092114Y-133746788D01*
X285121142Y-133746788D01*
X285164685Y-133763480D01*
X285179200Y-133780171D01*
X285280800Y-133746788D02*
X285469485Y-133746788D01*
X285367885Y-133880320D01*
X285411428Y-133880320D01*
X285440457Y-133897011D01*
X285454971Y-133913702D01*
X285469485Y-133947085D01*
X285469485Y-134030542D01*
X285454971Y-134063925D01*
X285440457Y-134080617D01*
X285411428Y-134097308D01*
X285324342Y-134097308D01*
X285295314Y-134080617D01*
X285280800Y-134063925D01*
G04 #@! TO.C,R5*
X279108568Y-142370800D02*
X278941654Y-142472400D01*
X279108568Y-142544971D02*
X278758048Y-142544971D01*
X278758048Y-142428857D01*
X278774740Y-142399828D01*
X278791431Y-142385314D01*
X278824814Y-142370800D01*
X278874888Y-142370800D01*
X278908271Y-142385314D01*
X278924962Y-142399828D01*
X278941654Y-142428857D01*
X278941654Y-142544971D01*
X278758048Y-142095028D02*
X278758048Y-142240171D01*
X278924962Y-142254685D01*
X278908271Y-142240171D01*
X278891580Y-142211142D01*
X278891580Y-142138571D01*
X278908271Y-142109542D01*
X278924962Y-142095028D01*
X278958345Y-142080514D01*
X279041802Y-142080514D01*
X279075185Y-142095028D01*
X279091877Y-142109542D01*
X279108568Y-142138571D01*
X279108568Y-142211142D01*
X279091877Y-142240171D01*
X279075185Y-142254685D01*
G04 #@! TO.C,U5*
D14*
X273589047Y-142456190D02*
X273589047Y-142860952D01*
X273612857Y-142908571D01*
X273636666Y-142932380D01*
X273684285Y-142956190D01*
X273779523Y-142956190D01*
X273827142Y-142932380D01*
X273850952Y-142908571D01*
X273874761Y-142860952D01*
X273874761Y-142456190D01*
X274350952Y-142456190D02*
X274112857Y-142456190D01*
X274089047Y-142694285D01*
X274112857Y-142670476D01*
X274160476Y-142646666D01*
X274279523Y-142646666D01*
X274327142Y-142670476D01*
X274350952Y-142694285D01*
X274374761Y-142741904D01*
X274374761Y-142860952D01*
X274350952Y-142908571D01*
X274327142Y-142932380D01*
X274279523Y-142956190D01*
X274160476Y-142956190D01*
X274112857Y-142932380D01*
X274089047Y-142908571D01*
G04 #@! TO.C,D4*
D12*
X289150952Y-142456190D02*
X289150952Y-141956190D01*
X289270000Y-141956190D01*
X289341428Y-141980000D01*
X289389047Y-142027619D01*
X289412857Y-142075238D01*
X289436666Y-142170476D01*
X289436666Y-142241904D01*
X289412857Y-142337142D01*
X289389047Y-142384761D01*
X289341428Y-142432380D01*
X289270000Y-142456190D01*
X289150952Y-142456190D01*
X289865238Y-142122857D02*
X289865238Y-142456190D01*
X289746190Y-141932380D02*
X289627142Y-142289523D01*
X289936666Y-142289523D01*
G04 #@! TO.C,C18*
D19*
X288935185Y-144205942D02*
X288951877Y-144220457D01*
X288968568Y-144264000D01*
X288968568Y-144293028D01*
X288951877Y-144336571D01*
X288918494Y-144365600D01*
X288885111Y-144380114D01*
X288818345Y-144394628D01*
X288768271Y-144394628D01*
X288701505Y-144380114D01*
X288668122Y-144365600D01*
X288634740Y-144336571D01*
X288618048Y-144293028D01*
X288618048Y-144264000D01*
X288634740Y-144220457D01*
X288651431Y-144205942D01*
X288968568Y-143915657D02*
X288968568Y-144089828D01*
X288968568Y-144002742D02*
X288618048Y-144002742D01*
X288668122Y-144031771D01*
X288701505Y-144060800D01*
X288718197Y-144089828D01*
X288768271Y-143741485D02*
X288751580Y-143770514D01*
X288734888Y-143785028D01*
X288701505Y-143799542D01*
X288684814Y-143799542D01*
X288651431Y-143785028D01*
X288634740Y-143770514D01*
X288618048Y-143741485D01*
X288618048Y-143683428D01*
X288634740Y-143654400D01*
X288651431Y-143639885D01*
X288684814Y-143625371D01*
X288701505Y-143625371D01*
X288734888Y-143639885D01*
X288751580Y-143654400D01*
X288768271Y-143683428D01*
X288768271Y-143741485D01*
X288784962Y-143770514D01*
X288801654Y-143785028D01*
X288835037Y-143799542D01*
X288901802Y-143799542D01*
X288935185Y-143785028D01*
X288951877Y-143770514D01*
X288968568Y-143741485D01*
X288968568Y-143683428D01*
X288951877Y-143654400D01*
X288935185Y-143639885D01*
X288901802Y-143625371D01*
X288835037Y-143625371D01*
X288801654Y-143639885D01*
X288784962Y-143654400D01*
X288768271Y-143683428D01*
G04 #@! TO.C,R10*
X287188568Y-144205942D02*
X287021654Y-144307542D01*
X287188568Y-144380114D02*
X286838048Y-144380114D01*
X286838048Y-144264000D01*
X286854740Y-144234971D01*
X286871431Y-144220457D01*
X286904814Y-144205942D01*
X286954888Y-144205942D01*
X286988271Y-144220457D01*
X287004962Y-144234971D01*
X287021654Y-144264000D01*
X287021654Y-144380114D01*
X287188568Y-143915657D02*
X287188568Y-144089828D01*
X287188568Y-144002742D02*
X286838048Y-144002742D01*
X286888122Y-144031771D01*
X286921505Y-144060800D01*
X286938197Y-144089828D01*
X286838048Y-143726971D02*
X286838048Y-143697942D01*
X286854740Y-143668914D01*
X286871431Y-143654400D01*
X286904814Y-143639885D01*
X286971580Y-143625371D01*
X287055037Y-143625371D01*
X287121802Y-143639885D01*
X287155185Y-143654400D01*
X287171877Y-143668914D01*
X287188568Y-143697942D01*
X287188568Y-143726971D01*
X287171877Y-143756000D01*
X287155185Y-143770514D01*
X287121802Y-143785028D01*
X287055037Y-143799542D01*
X286971580Y-143799542D01*
X286904814Y-143785028D01*
X286871431Y-143770514D01*
X286854740Y-143756000D01*
X286838048Y-143726971D01*
G04 #@! TO.C,C16*
X284875185Y-144175942D02*
X284891877Y-144190457D01*
X284908568Y-144234000D01*
X284908568Y-144263028D01*
X284891877Y-144306571D01*
X284858494Y-144335600D01*
X284825111Y-144350114D01*
X284758345Y-144364628D01*
X284708271Y-144364628D01*
X284641505Y-144350114D01*
X284608122Y-144335600D01*
X284574740Y-144306571D01*
X284558048Y-144263028D01*
X284558048Y-144234000D01*
X284574740Y-144190457D01*
X284591431Y-144175942D01*
X284908568Y-143885657D02*
X284908568Y-144059828D01*
X284908568Y-143972742D02*
X284558048Y-143972742D01*
X284608122Y-144001771D01*
X284641505Y-144030800D01*
X284658197Y-144059828D01*
X284558048Y-143624400D02*
X284558048Y-143682457D01*
X284574740Y-143711485D01*
X284591431Y-143726000D01*
X284641505Y-143755028D01*
X284708271Y-143769542D01*
X284841802Y-143769542D01*
X284875185Y-143755028D01*
X284891877Y-143740514D01*
X284908568Y-143711485D01*
X284908568Y-143653428D01*
X284891877Y-143624400D01*
X284875185Y-143609885D01*
X284841802Y-143595371D01*
X284758345Y-143595371D01*
X284724962Y-143609885D01*
X284708271Y-143624400D01*
X284691580Y-143653428D01*
X284691580Y-143711485D01*
X284708271Y-143740514D01*
X284724962Y-143755028D01*
X284758345Y-143769542D01*
G04 #@! TO.C,R9*
X282089200Y-142298568D02*
X281987600Y-142131654D01*
X281915028Y-142298568D02*
X281915028Y-141948048D01*
X282031142Y-141948048D01*
X282060171Y-141964740D01*
X282074685Y-141981431D01*
X282089200Y-142014814D01*
X282089200Y-142064888D01*
X282074685Y-142098271D01*
X282060171Y-142114962D01*
X282031142Y-142131654D01*
X281915028Y-142131654D01*
X282234342Y-142298568D02*
X282292400Y-142298568D01*
X282321428Y-142281877D01*
X282335942Y-142265185D01*
X282364971Y-142215111D01*
X282379485Y-142148345D01*
X282379485Y-142014814D01*
X282364971Y-141981431D01*
X282350457Y-141964740D01*
X282321428Y-141948048D01*
X282263371Y-141948048D01*
X282234342Y-141964740D01*
X282219828Y-141981431D01*
X282205314Y-142014814D01*
X282205314Y-142098271D01*
X282219828Y-142131654D01*
X282234342Y-142148345D01*
X282263371Y-142165037D01*
X282321428Y-142165037D01*
X282350457Y-142148345D01*
X282364971Y-142131654D01*
X282379485Y-142098271D01*
G04 #@! TO.C,C17*
X287334057Y-141145185D02*
X287319542Y-141161877D01*
X287276000Y-141178568D01*
X287246971Y-141178568D01*
X287203428Y-141161877D01*
X287174400Y-141128494D01*
X287159885Y-141095111D01*
X287145371Y-141028345D01*
X287145371Y-140978271D01*
X287159885Y-140911505D01*
X287174400Y-140878122D01*
X287203428Y-140844740D01*
X287246971Y-140828048D01*
X287276000Y-140828048D01*
X287319542Y-140844740D01*
X287334057Y-140861431D01*
X287624342Y-141178568D02*
X287450171Y-141178568D01*
X287537257Y-141178568D02*
X287537257Y-140828048D01*
X287508228Y-140878122D01*
X287479200Y-140911505D01*
X287450171Y-140928197D01*
X287725942Y-140828048D02*
X287929142Y-140828048D01*
X287798514Y-141178568D01*
G04 #@! TO.C,D3*
D12*
X283216190Y-140419047D02*
X282716190Y-140419047D01*
X282716190Y-140300000D01*
X282740000Y-140228571D01*
X282787619Y-140180952D01*
X282835238Y-140157142D01*
X282930476Y-140133333D01*
X283001904Y-140133333D01*
X283097142Y-140157142D01*
X283144761Y-140180952D01*
X283192380Y-140228571D01*
X283216190Y-140300000D01*
X283216190Y-140419047D01*
X282716190Y-139966666D02*
X282716190Y-139657142D01*
X282906666Y-139823809D01*
X282906666Y-139752380D01*
X282930476Y-139704761D01*
X282954285Y-139680952D01*
X283001904Y-139657142D01*
X283120952Y-139657142D01*
X283168571Y-139680952D01*
X283192380Y-139704761D01*
X283216190Y-139752380D01*
X283216190Y-139895238D01*
X283192380Y-139942857D01*
X283168571Y-139966666D01*
G04 #@! TO.C,C22*
D19*
X282371457Y-136929985D02*
X282356942Y-136946677D01*
X282313400Y-136963368D01*
X282284371Y-136963368D01*
X282240828Y-136946677D01*
X282211800Y-136913294D01*
X282197285Y-136879911D01*
X282182771Y-136813145D01*
X282182771Y-136763071D01*
X282197285Y-136696305D01*
X282211800Y-136662922D01*
X282240828Y-136629540D01*
X282284371Y-136612848D01*
X282313400Y-136612848D01*
X282356942Y-136629540D01*
X282371457Y-136646231D01*
X282487571Y-136646231D02*
X282502085Y-136629540D01*
X282531114Y-136612848D01*
X282603685Y-136612848D01*
X282632714Y-136629540D01*
X282647228Y-136646231D01*
X282661742Y-136679614D01*
X282661742Y-136712997D01*
X282647228Y-136763071D01*
X282473057Y-136963368D01*
X282661742Y-136963368D01*
X282777857Y-136646231D02*
X282792371Y-136629540D01*
X282821400Y-136612848D01*
X282893971Y-136612848D01*
X282923000Y-136629540D01*
X282937514Y-136646231D01*
X282952028Y-136679614D01*
X282952028Y-136712997D01*
X282937514Y-136763071D01*
X282763342Y-136963368D01*
X282952028Y-136963368D01*
G04 #@! TO.C,R7*
X279118568Y-143330800D02*
X278951654Y-143432400D01*
X279118568Y-143504971D02*
X278768048Y-143504971D01*
X278768048Y-143388857D01*
X278784740Y-143359828D01*
X278801431Y-143345314D01*
X278834814Y-143330800D01*
X278884888Y-143330800D01*
X278918271Y-143345314D01*
X278934962Y-143359828D01*
X278951654Y-143388857D01*
X278951654Y-143504971D01*
X278768048Y-143229200D02*
X278768048Y-143026000D01*
X279118568Y-143156628D01*
G04 #@! TO.C,C14*
X277154057Y-143225185D02*
X277139542Y-143241877D01*
X277096000Y-143258568D01*
X277066971Y-143258568D01*
X277023428Y-143241877D01*
X276994400Y-143208494D01*
X276979885Y-143175111D01*
X276965371Y-143108345D01*
X276965371Y-143058271D01*
X276979885Y-142991505D01*
X276994400Y-142958122D01*
X277023428Y-142924740D01*
X277066971Y-142908048D01*
X277096000Y-142908048D01*
X277139542Y-142924740D01*
X277154057Y-142941431D01*
X277444342Y-143258568D02*
X277270171Y-143258568D01*
X277357257Y-143258568D02*
X277357257Y-142908048D01*
X277328228Y-142958122D01*
X277299200Y-142991505D01*
X277270171Y-143008197D01*
X277705600Y-143024888D02*
X277705600Y-143258568D01*
X277633028Y-142891357D02*
X277560457Y-143141728D01*
X277749142Y-143141728D01*
G04 #@! TO.C,C15*
X272525185Y-144415942D02*
X272541877Y-144430457D01*
X272558568Y-144474000D01*
X272558568Y-144503028D01*
X272541877Y-144546571D01*
X272508494Y-144575600D01*
X272475111Y-144590114D01*
X272408345Y-144604628D01*
X272358271Y-144604628D01*
X272291505Y-144590114D01*
X272258122Y-144575600D01*
X272224740Y-144546571D01*
X272208048Y-144503028D01*
X272208048Y-144474000D01*
X272224740Y-144430457D01*
X272241431Y-144415942D01*
X272558568Y-144125657D02*
X272558568Y-144299828D01*
X272558568Y-144212742D02*
X272208048Y-144212742D01*
X272258122Y-144241771D01*
X272291505Y-144270800D01*
X272308197Y-144299828D01*
X272208048Y-143849885D02*
X272208048Y-143995028D01*
X272374962Y-144009542D01*
X272358271Y-143995028D01*
X272341580Y-143966000D01*
X272341580Y-143893428D01*
X272358271Y-143864400D01*
X272374962Y-143849885D01*
X272408345Y-143835371D01*
X272491802Y-143835371D01*
X272525185Y-143849885D01*
X272541877Y-143864400D01*
X272558568Y-143893428D01*
X272558568Y-143966000D01*
X272541877Y-143995028D01*
X272525185Y-144009542D01*
G04 #@! TO.C,U1*
D10*
X266241428Y-140247142D02*
X266727142Y-140247142D01*
X266784285Y-140218571D01*
X266812857Y-140190000D01*
X266841428Y-140132857D01*
X266841428Y-140018571D01*
X266812857Y-139961428D01*
X266784285Y-139932857D01*
X266727142Y-139904285D01*
X266241428Y-139904285D01*
X266841428Y-139304285D02*
X266841428Y-139647142D01*
X266841428Y-139475714D02*
X266241428Y-139475714D01*
X266327142Y-139532857D01*
X266384285Y-139590000D01*
X266412857Y-139647142D01*
G04 #@! TO.C,L1*
D19*
X267598568Y-139020800D02*
X267598568Y-139165942D01*
X267248048Y-139165942D01*
X267598568Y-138759542D02*
X267598568Y-138933714D01*
X267598568Y-138846628D02*
X267248048Y-138846628D01*
X267298122Y-138875657D01*
X267331505Y-138904685D01*
X267348197Y-138933714D01*
G04 #@! TO.C,C21*
X273874057Y-138745185D02*
X273859542Y-138761877D01*
X273816000Y-138778568D01*
X273786971Y-138778568D01*
X273743428Y-138761877D01*
X273714400Y-138728494D01*
X273699885Y-138695111D01*
X273685371Y-138628345D01*
X273685371Y-138578271D01*
X273699885Y-138511505D01*
X273714400Y-138478122D01*
X273743428Y-138444740D01*
X273786971Y-138428048D01*
X273816000Y-138428048D01*
X273859542Y-138444740D01*
X273874057Y-138461431D01*
X273990171Y-138461431D02*
X274004685Y-138444740D01*
X274033714Y-138428048D01*
X274106285Y-138428048D01*
X274135314Y-138444740D01*
X274149828Y-138461431D01*
X274164342Y-138494814D01*
X274164342Y-138528197D01*
X274149828Y-138578271D01*
X273975657Y-138778568D01*
X274164342Y-138778568D01*
X274454628Y-138778568D02*
X274280457Y-138778568D01*
X274367542Y-138778568D02*
X274367542Y-138428048D01*
X274338514Y-138478122D01*
X274309485Y-138511505D01*
X274280457Y-138528197D01*
G04 #@! TO.C,F1*
D12*
X277843333Y-127064285D02*
X277676666Y-127064285D01*
X277676666Y-127326190D02*
X277676666Y-126826190D01*
X277914761Y-126826190D01*
X278367142Y-127326190D02*
X278081428Y-127326190D01*
X278224285Y-127326190D02*
X278224285Y-126826190D01*
X278176666Y-126897619D01*
X278129047Y-126945238D01*
X278081428Y-126969047D01*
G04 #@! TO.C,C34*
D19*
X275644057Y-129165185D02*
X275629542Y-129181877D01*
X275586000Y-129198568D01*
X275556971Y-129198568D01*
X275513428Y-129181877D01*
X275484400Y-129148494D01*
X275469885Y-129115111D01*
X275455371Y-129048345D01*
X275455371Y-128998271D01*
X275469885Y-128931505D01*
X275484400Y-128898122D01*
X275513428Y-128864740D01*
X275556971Y-128848048D01*
X275586000Y-128848048D01*
X275629542Y-128864740D01*
X275644057Y-128881431D01*
X275745657Y-128848048D02*
X275934342Y-128848048D01*
X275832742Y-128981580D01*
X275876285Y-128981580D01*
X275905314Y-128998271D01*
X275919828Y-129014962D01*
X275934342Y-129048345D01*
X275934342Y-129131802D01*
X275919828Y-129165185D01*
X275905314Y-129181877D01*
X275876285Y-129198568D01*
X275789200Y-129198568D01*
X275760171Y-129181877D01*
X275745657Y-129165185D01*
X276195600Y-128964888D02*
X276195600Y-129198568D01*
X276123028Y-128831357D02*
X276050457Y-129081728D01*
X276239142Y-129081728D01*
G04 #@! TO.C,C33*
X273714057Y-130275185D02*
X273699542Y-130291877D01*
X273656000Y-130308568D01*
X273626971Y-130308568D01*
X273583428Y-130291877D01*
X273554400Y-130258494D01*
X273539885Y-130225111D01*
X273525371Y-130158345D01*
X273525371Y-130108271D01*
X273539885Y-130041505D01*
X273554400Y-130008122D01*
X273583428Y-129974740D01*
X273626971Y-129958048D01*
X273656000Y-129958048D01*
X273699542Y-129974740D01*
X273714057Y-129991431D01*
X273815657Y-129958048D02*
X274004342Y-129958048D01*
X273902742Y-130091580D01*
X273946285Y-130091580D01*
X273975314Y-130108271D01*
X273989828Y-130124962D01*
X274004342Y-130158345D01*
X274004342Y-130241802D01*
X273989828Y-130275185D01*
X273975314Y-130291877D01*
X273946285Y-130308568D01*
X273859200Y-130308568D01*
X273830171Y-130291877D01*
X273815657Y-130275185D01*
X274105942Y-129958048D02*
X274294628Y-129958048D01*
X274193028Y-130091580D01*
X274236571Y-130091580D01*
X274265600Y-130108271D01*
X274280114Y-130124962D01*
X274294628Y-130158345D01*
X274294628Y-130241802D01*
X274280114Y-130275185D01*
X274265600Y-130291877D01*
X274236571Y-130308568D01*
X274149485Y-130308568D01*
X274120457Y-130291877D01*
X274105942Y-130275185D01*
G04 #@! TO.C,C11*
X285575185Y-138985942D02*
X285591877Y-139000457D01*
X285608568Y-139044000D01*
X285608568Y-139073028D01*
X285591877Y-139116571D01*
X285558494Y-139145600D01*
X285525111Y-139160114D01*
X285458345Y-139174628D01*
X285408271Y-139174628D01*
X285341505Y-139160114D01*
X285308122Y-139145600D01*
X285274740Y-139116571D01*
X285258048Y-139073028D01*
X285258048Y-139044000D01*
X285274740Y-139000457D01*
X285291431Y-138985942D01*
X285608568Y-138695657D02*
X285608568Y-138869828D01*
X285608568Y-138782742D02*
X285258048Y-138782742D01*
X285308122Y-138811771D01*
X285341505Y-138840800D01*
X285358197Y-138869828D01*
X285608568Y-138405371D02*
X285608568Y-138579542D01*
X285608568Y-138492457D02*
X285258048Y-138492457D01*
X285308122Y-138521485D01*
X285341505Y-138550514D01*
X285358197Y-138579542D01*
G04 #@! TO.C,C2*
X271019200Y-142535185D02*
X271004685Y-142551877D01*
X270961142Y-142568568D01*
X270932114Y-142568568D01*
X270888571Y-142551877D01*
X270859542Y-142518494D01*
X270845028Y-142485111D01*
X270830514Y-142418345D01*
X270830514Y-142368271D01*
X270845028Y-142301505D01*
X270859542Y-142268122D01*
X270888571Y-142234740D01*
X270932114Y-142218048D01*
X270961142Y-142218048D01*
X271004685Y-142234740D01*
X271019200Y-142251431D01*
X271135314Y-142251431D02*
X271149828Y-142234740D01*
X271178857Y-142218048D01*
X271251428Y-142218048D01*
X271280457Y-142234740D01*
X271294971Y-142251431D01*
X271309485Y-142284814D01*
X271309485Y-142318197D01*
X271294971Y-142368271D01*
X271120800Y-142568568D01*
X271309485Y-142568568D01*
G04 #@! TO.C,C1*
X272079200Y-142615185D02*
X272064685Y-142631877D01*
X272021142Y-142648568D01*
X271992114Y-142648568D01*
X271948571Y-142631877D01*
X271919542Y-142598494D01*
X271905028Y-142565111D01*
X271890514Y-142498345D01*
X271890514Y-142448271D01*
X271905028Y-142381505D01*
X271919542Y-142348122D01*
X271948571Y-142314740D01*
X271992114Y-142298048D01*
X272021142Y-142298048D01*
X272064685Y-142314740D01*
X272079200Y-142331431D01*
X272369485Y-142648568D02*
X272195314Y-142648568D01*
X272282400Y-142648568D02*
X272282400Y-142298048D01*
X272253371Y-142348122D01*
X272224342Y-142381505D01*
X272195314Y-142398197D01*
G04 #@! TO.C,L4*
D22*
X270799809Y-138696200D02*
X270799809Y-138913914D01*
X270291809Y-138913914D01*
X270461142Y-138347857D02*
X270799809Y-138347857D01*
X270267619Y-138456714D02*
X270630476Y-138565571D01*
X270630476Y-138282542D01*
G04 #@! TO.C,X1*
D23*
X270445238Y-132476190D02*
X270778571Y-132976190D01*
X270778571Y-132476190D02*
X270445238Y-132976190D01*
X271230952Y-132976190D02*
X270945238Y-132976190D01*
X271088095Y-132976190D02*
X271088095Y-132476190D01*
X271040476Y-132547619D01*
X270992857Y-132595238D01*
X270945238Y-132619047D01*
G04 #@! TO.C,C28*
D19*
X274925185Y-140745942D02*
X274941877Y-140760457D01*
X274958568Y-140804000D01*
X274958568Y-140833028D01*
X274941877Y-140876571D01*
X274908494Y-140905600D01*
X274875111Y-140920114D01*
X274808345Y-140934628D01*
X274758271Y-140934628D01*
X274691505Y-140920114D01*
X274658122Y-140905600D01*
X274624740Y-140876571D01*
X274608048Y-140833028D01*
X274608048Y-140804000D01*
X274624740Y-140760457D01*
X274641431Y-140745942D01*
X274641431Y-140629828D02*
X274624740Y-140615314D01*
X274608048Y-140586285D01*
X274608048Y-140513714D01*
X274624740Y-140484685D01*
X274641431Y-140470171D01*
X274674814Y-140455657D01*
X274708197Y-140455657D01*
X274758271Y-140470171D01*
X274958568Y-140644342D01*
X274958568Y-140455657D01*
X274758271Y-140281485D02*
X274741580Y-140310514D01*
X274724888Y-140325028D01*
X274691505Y-140339542D01*
X274674814Y-140339542D01*
X274641431Y-140325028D01*
X274624740Y-140310514D01*
X274608048Y-140281485D01*
X274608048Y-140223428D01*
X274624740Y-140194400D01*
X274641431Y-140179885D01*
X274674814Y-140165371D01*
X274691505Y-140165371D01*
X274724888Y-140179885D01*
X274741580Y-140194400D01*
X274758271Y-140223428D01*
X274758271Y-140281485D01*
X274774962Y-140310514D01*
X274791654Y-140325028D01*
X274825037Y-140339542D01*
X274891802Y-140339542D01*
X274925185Y-140325028D01*
X274941877Y-140310514D01*
X274958568Y-140281485D01*
X274958568Y-140223428D01*
X274941877Y-140194400D01*
X274925185Y-140179885D01*
X274891802Y-140165371D01*
X274825037Y-140165371D01*
X274791654Y-140179885D01*
X274774962Y-140194400D01*
X274758271Y-140223428D01*
G04 #@! TO.C,C26*
X273265185Y-140395942D02*
X273281877Y-140410457D01*
X273298568Y-140454000D01*
X273298568Y-140483028D01*
X273281877Y-140526571D01*
X273248494Y-140555600D01*
X273215111Y-140570114D01*
X273148345Y-140584628D01*
X273098271Y-140584628D01*
X273031505Y-140570114D01*
X272998122Y-140555600D01*
X272964740Y-140526571D01*
X272948048Y-140483028D01*
X272948048Y-140454000D01*
X272964740Y-140410457D01*
X272981431Y-140395942D01*
X272981431Y-140279828D02*
X272964740Y-140265314D01*
X272948048Y-140236285D01*
X272948048Y-140163714D01*
X272964740Y-140134685D01*
X272981431Y-140120171D01*
X273014814Y-140105657D01*
X273048197Y-140105657D01*
X273098271Y-140120171D01*
X273298568Y-140294342D01*
X273298568Y-140105657D01*
X272948048Y-139844400D02*
X272948048Y-139902457D01*
X272964740Y-139931485D01*
X272981431Y-139946000D01*
X273031505Y-139975028D01*
X273098271Y-139989542D01*
X273231802Y-139989542D01*
X273265185Y-139975028D01*
X273281877Y-139960514D01*
X273298568Y-139931485D01*
X273298568Y-139873428D01*
X273281877Y-139844400D01*
X273265185Y-139829885D01*
X273231802Y-139815371D01*
X273148345Y-139815371D01*
X273114962Y-139829885D01*
X273098271Y-139844400D01*
X273081580Y-139873428D01*
X273081580Y-139931485D01*
X273098271Y-139960514D01*
X273114962Y-139975028D01*
X273148345Y-139989542D01*
G04 #@! TO.C,C24*
X269925185Y-133095942D02*
X269941877Y-133110457D01*
X269958568Y-133154000D01*
X269958568Y-133183028D01*
X269941877Y-133226571D01*
X269908494Y-133255600D01*
X269875111Y-133270114D01*
X269808345Y-133284628D01*
X269758271Y-133284628D01*
X269691505Y-133270114D01*
X269658122Y-133255600D01*
X269624740Y-133226571D01*
X269608048Y-133183028D01*
X269608048Y-133154000D01*
X269624740Y-133110457D01*
X269641431Y-133095942D01*
X269641431Y-132979828D02*
X269624740Y-132965314D01*
X269608048Y-132936285D01*
X269608048Y-132863714D01*
X269624740Y-132834685D01*
X269641431Y-132820171D01*
X269674814Y-132805657D01*
X269708197Y-132805657D01*
X269758271Y-132820171D01*
X269958568Y-132994342D01*
X269958568Y-132805657D01*
X269724888Y-132544400D02*
X269958568Y-132544400D01*
X269591357Y-132616971D02*
X269841728Y-132689542D01*
X269841728Y-132500857D01*
G04 #@! TO.C,C25*
X273325185Y-132995942D02*
X273341877Y-133010457D01*
X273358568Y-133054000D01*
X273358568Y-133083028D01*
X273341877Y-133126571D01*
X273308494Y-133155600D01*
X273275111Y-133170114D01*
X273208345Y-133184628D01*
X273158271Y-133184628D01*
X273091505Y-133170114D01*
X273058122Y-133155600D01*
X273024740Y-133126571D01*
X273008048Y-133083028D01*
X273008048Y-133054000D01*
X273024740Y-133010457D01*
X273041431Y-132995942D01*
X273041431Y-132879828D02*
X273024740Y-132865314D01*
X273008048Y-132836285D01*
X273008048Y-132763714D01*
X273024740Y-132734685D01*
X273041431Y-132720171D01*
X273074814Y-132705657D01*
X273108197Y-132705657D01*
X273158271Y-132720171D01*
X273358568Y-132894342D01*
X273358568Y-132705657D01*
X273008048Y-132429885D02*
X273008048Y-132575028D01*
X273174962Y-132589542D01*
X273158271Y-132575028D01*
X273141580Y-132546000D01*
X273141580Y-132473428D01*
X273158271Y-132444400D01*
X273174962Y-132429885D01*
X273208345Y-132415371D01*
X273291802Y-132415371D01*
X273325185Y-132429885D01*
X273341877Y-132444400D01*
X273358568Y-132473428D01*
X273358568Y-132546000D01*
X273341877Y-132575028D01*
X273325185Y-132589542D01*
G04 #@! TO.C,C29*
X276614057Y-140675185D02*
X276599542Y-140691877D01*
X276556000Y-140708568D01*
X276526971Y-140708568D01*
X276483428Y-140691877D01*
X276454400Y-140658494D01*
X276439885Y-140625111D01*
X276425371Y-140558345D01*
X276425371Y-140508271D01*
X276439885Y-140441505D01*
X276454400Y-140408122D01*
X276483428Y-140374740D01*
X276526971Y-140358048D01*
X276556000Y-140358048D01*
X276599542Y-140374740D01*
X276614057Y-140391431D01*
X276730171Y-140391431D02*
X276744685Y-140374740D01*
X276773714Y-140358048D01*
X276846285Y-140358048D01*
X276875314Y-140374740D01*
X276889828Y-140391431D01*
X276904342Y-140424814D01*
X276904342Y-140458197D01*
X276889828Y-140508271D01*
X276715657Y-140708568D01*
X276904342Y-140708568D01*
X277049485Y-140708568D02*
X277107542Y-140708568D01*
X277136571Y-140691877D01*
X277151085Y-140675185D01*
X277180114Y-140625111D01*
X277194628Y-140558345D01*
X277194628Y-140424814D01*
X277180114Y-140391431D01*
X277165600Y-140374740D01*
X277136571Y-140358048D01*
X277078514Y-140358048D01*
X277049485Y-140374740D01*
X277034971Y-140391431D01*
X277020457Y-140424814D01*
X277020457Y-140508271D01*
X277034971Y-140541654D01*
X277049485Y-140558345D01*
X277078514Y-140575037D01*
X277136571Y-140575037D01*
X277165600Y-140558345D01*
X277180114Y-140541654D01*
X277194628Y-140508271D01*
G04 #@! TO.C,L6*
X271899200Y-128558568D02*
X271754057Y-128558568D01*
X271754057Y-128208048D01*
X272131428Y-128208048D02*
X272073371Y-128208048D01*
X272044342Y-128224740D01*
X272029828Y-128241431D01*
X272000800Y-128291505D01*
X271986285Y-128358271D01*
X271986285Y-128491802D01*
X272000800Y-128525185D01*
X272015314Y-128541877D01*
X272044342Y-128558568D01*
X272102400Y-128558568D01*
X272131428Y-128541877D01*
X272145942Y-128525185D01*
X272160457Y-128491802D01*
X272160457Y-128408345D01*
X272145942Y-128374962D01*
X272131428Y-128358271D01*
X272102400Y-128341580D01*
X272044342Y-128341580D01*
X272015314Y-128358271D01*
X272000800Y-128374962D01*
X271986285Y-128408345D01*
G04 #@! TO.C,L5*
X273969200Y-127248568D02*
X273824057Y-127248568D01*
X273824057Y-126898048D01*
X274215942Y-126898048D02*
X274070800Y-126898048D01*
X274056285Y-127064962D01*
X274070800Y-127048271D01*
X274099828Y-127031580D01*
X274172400Y-127031580D01*
X274201428Y-127048271D01*
X274215942Y-127064962D01*
X274230457Y-127098345D01*
X274230457Y-127181802D01*
X274215942Y-127215185D01*
X274201428Y-127231877D01*
X274172400Y-127248568D01*
X274099828Y-127248568D01*
X274070800Y-127231877D01*
X274056285Y-127215185D01*
G04 #@! TO.C,C30*
X275404057Y-127165185D02*
X275389542Y-127181877D01*
X275346000Y-127198568D01*
X275316971Y-127198568D01*
X275273428Y-127181877D01*
X275244400Y-127148494D01*
X275229885Y-127115111D01*
X275215371Y-127048345D01*
X275215371Y-126998271D01*
X275229885Y-126931505D01*
X275244400Y-126898122D01*
X275273428Y-126864740D01*
X275316971Y-126848048D01*
X275346000Y-126848048D01*
X275389542Y-126864740D01*
X275404057Y-126881431D01*
X275505657Y-126848048D02*
X275694342Y-126848048D01*
X275592742Y-126981580D01*
X275636285Y-126981580D01*
X275665314Y-126998271D01*
X275679828Y-127014962D01*
X275694342Y-127048345D01*
X275694342Y-127131802D01*
X275679828Y-127165185D01*
X275665314Y-127181877D01*
X275636285Y-127198568D01*
X275549200Y-127198568D01*
X275520171Y-127181877D01*
X275505657Y-127165185D01*
X275883028Y-126848048D02*
X275912057Y-126848048D01*
X275941085Y-126864740D01*
X275955600Y-126881431D01*
X275970114Y-126914814D01*
X275984628Y-126981580D01*
X275984628Y-127065037D01*
X275970114Y-127131802D01*
X275955600Y-127165185D01*
X275941085Y-127181877D01*
X275912057Y-127198568D01*
X275883028Y-127198568D01*
X275854000Y-127181877D01*
X275839485Y-127165185D01*
X275824971Y-127131802D01*
X275810457Y-127065037D01*
X275810457Y-126981580D01*
X275824971Y-126914814D01*
X275839485Y-126881431D01*
X275854000Y-126864740D01*
X275883028Y-126848048D01*
G04 #@! TO.C,L3*
X271288568Y-137270800D02*
X271288568Y-137415942D01*
X270938048Y-137415942D01*
X270938048Y-137198228D02*
X270938048Y-137009542D01*
X271071580Y-137111142D01*
X271071580Y-137067600D01*
X271088271Y-137038571D01*
X271104962Y-137024057D01*
X271138345Y-137009542D01*
X271221802Y-137009542D01*
X271255185Y-137024057D01*
X271271877Y-137038571D01*
X271288568Y-137067600D01*
X271288568Y-137154685D01*
X271271877Y-137183714D01*
X271255185Y-137198228D01*
G04 #@! TO.C,C23*
D22*
X271151428Y-136313914D02*
X271175619Y-136335685D01*
X271199809Y-136401000D01*
X271199809Y-136444542D01*
X271175619Y-136509857D01*
X271127238Y-136553400D01*
X271078857Y-136575171D01*
X270982095Y-136596942D01*
X270909523Y-136596942D01*
X270812761Y-136575171D01*
X270764380Y-136553400D01*
X270716000Y-136509857D01*
X270691809Y-136444542D01*
X270691809Y-136401000D01*
X270716000Y-136335685D01*
X270740190Y-136313914D01*
X270740190Y-136139742D02*
X270716000Y-136117971D01*
X270691809Y-136074428D01*
X270691809Y-135965571D01*
X270716000Y-135922028D01*
X270740190Y-135900257D01*
X270788571Y-135878485D01*
X270836952Y-135878485D01*
X270909523Y-135900257D01*
X271199809Y-136161514D01*
X271199809Y-135878485D01*
X270691809Y-135726085D02*
X270691809Y-135443057D01*
X270885333Y-135595457D01*
X270885333Y-135530142D01*
X270909523Y-135486600D01*
X270933714Y-135464828D01*
X270982095Y-135443057D01*
X271103047Y-135443057D01*
X271151428Y-135464828D01*
X271175619Y-135486600D01*
X271199809Y-135530142D01*
X271199809Y-135660771D01*
X271175619Y-135704314D01*
X271151428Y-135726085D01*
G04 #@! TO.C,U3*
D24*
X273696190Y-131730952D02*
X274100952Y-131730952D01*
X274148571Y-131707142D01*
X274172380Y-131683333D01*
X274196190Y-131635714D01*
X274196190Y-131540476D01*
X274172380Y-131492857D01*
X274148571Y-131469047D01*
X274100952Y-131445238D01*
X273696190Y-131445238D01*
X273696190Y-131254761D02*
X273696190Y-130945238D01*
X273886666Y-131111904D01*
X273886666Y-131040476D01*
X273910476Y-130992857D01*
X273934285Y-130969047D01*
X273981904Y-130945238D01*
X274100952Y-130945238D01*
X274148571Y-130969047D01*
X274172380Y-130992857D01*
X274196190Y-131040476D01*
X274196190Y-131183333D01*
X274172380Y-131230952D01*
X274148571Y-131254761D01*
G04 #@! TO.C,X2*
D12*
X275930952Y-139223809D02*
X276330952Y-138957142D01*
X275930952Y-138957142D02*
X276330952Y-139223809D01*
X275969047Y-138823809D02*
X275950000Y-138804761D01*
X275930952Y-138766666D01*
X275930952Y-138671428D01*
X275950000Y-138633333D01*
X275969047Y-138614285D01*
X276007142Y-138595238D01*
X276045238Y-138595238D01*
X276102380Y-138614285D01*
X276330952Y-138842857D01*
X276330952Y-138595238D01*
G04 #@! TO.C,U6*
D10*
X285722857Y-143391428D02*
X285722857Y-143877142D01*
X285751428Y-143934285D01*
X285780000Y-143962857D01*
X285837142Y-143991428D01*
X285951428Y-143991428D01*
X286008571Y-143962857D01*
X286037142Y-143934285D01*
X286065714Y-143877142D01*
X286065714Y-143391428D01*
X286608571Y-143391428D02*
X286494285Y-143391428D01*
X286437142Y-143420000D01*
X286408571Y-143448571D01*
X286351428Y-143534285D01*
X286322857Y-143648571D01*
X286322857Y-143877142D01*
X286351428Y-143934285D01*
X286380000Y-143962857D01*
X286437142Y-143991428D01*
X286551428Y-143991428D01*
X286608571Y-143962857D01*
X286637142Y-143934285D01*
X286665714Y-143877142D01*
X286665714Y-143734285D01*
X286637142Y-143677142D01*
X286608571Y-143648571D01*
X286551428Y-143620000D01*
X286437142Y-143620000D01*
X286380000Y-143648571D01*
X286351428Y-143677142D01*
X286322857Y-143734285D01*
G04 #@! TO.C,Q1*
X288362380Y-142163809D02*
X288314761Y-142140000D01*
X288267142Y-142092380D01*
X288195714Y-142020952D01*
X288148095Y-141997142D01*
X288100476Y-141997142D01*
X288124285Y-142116190D02*
X288076666Y-142092380D01*
X288029047Y-142044761D01*
X288005238Y-141949523D01*
X288005238Y-141782857D01*
X288029047Y-141687619D01*
X288076666Y-141640000D01*
X288124285Y-141616190D01*
X288219523Y-141616190D01*
X288267142Y-141640000D01*
X288314761Y-141687619D01*
X288338571Y-141782857D01*
X288338571Y-141949523D01*
X288314761Y-142044761D01*
X288267142Y-142092380D01*
X288219523Y-142116190D01*
X288124285Y-142116190D01*
X288814761Y-142116190D02*
X288529047Y-142116190D01*
X288671904Y-142116190D02*
X288671904Y-141616190D01*
X288624285Y-141687619D01*
X288576666Y-141735238D01*
X288529047Y-141759047D01*
G04 #@! TO.C,U4*
D20*
X287782380Y-127686904D02*
X288591904Y-127686904D01*
X288687142Y-127639285D01*
X288734761Y-127591666D01*
X288782380Y-127496428D01*
X288782380Y-127305952D01*
X288734761Y-127210714D01*
X288687142Y-127163095D01*
X288591904Y-127115476D01*
X287782380Y-127115476D01*
X288115714Y-126210714D02*
X288782380Y-126210714D01*
X287734761Y-126448809D02*
X288449047Y-126686904D01*
X288449047Y-126067857D01*
G04 #@! TO.C,U2*
X293038095Y-133972380D02*
X293038095Y-134781904D01*
X293085714Y-134877142D01*
X293133333Y-134924761D01*
X293228571Y-134972380D01*
X293419047Y-134972380D01*
X293514285Y-134924761D01*
X293561904Y-134877142D01*
X293609523Y-134781904D01*
X293609523Y-133972380D01*
X294038095Y-134067619D02*
X294085714Y-134020000D01*
X294180952Y-133972380D01*
X294419047Y-133972380D01*
X294514285Y-134020000D01*
X294561904Y-134067619D01*
X294609523Y-134162857D01*
X294609523Y-134258095D01*
X294561904Y-134400952D01*
X293990476Y-134972380D01*
X294609523Y-134972380D01*
G04 #@! TO.C,P4*
D10*
X298676190Y-129359047D02*
X298176190Y-129359047D01*
X298176190Y-129168571D01*
X298200000Y-129120952D01*
X298223809Y-129097142D01*
X298271428Y-129073333D01*
X298342857Y-129073333D01*
X298390476Y-129097142D01*
X298414285Y-129120952D01*
X298438095Y-129168571D01*
X298438095Y-129359047D01*
X298342857Y-128644761D02*
X298676190Y-128644761D01*
X298152380Y-128763809D02*
X298509523Y-128882857D01*
X298509523Y-128573333D01*
G04 #@! TD*
M02*
