G04 #@! TF.GenerationSoftware,KiCad,Pcbnew,(5.0.0)*
G04 #@! TF.CreationDate,2018-09-03T23:14:55-04:00*
G04 #@! TF.ProjectId,GSR_v1,4753525F76312E6B696361645F706362,rev?*
G04 #@! TF.SameCoordinates,Original*
G04 #@! TF.FileFunction,Legend,Bot*
G04 #@! TF.FilePolarity,Positive*
%FSLAX46Y46*%
G04 Gerber Fmt 4.6, Leading zero omitted, Abs format (unit mm)*
G04 Created by KiCad (PCBNEW (5.0.0)) date 09/03/18 23:14:55*
%MOMM*%
%LPD*%
G01*
G04 APERTURE LIST*
%ADD10C,0.127000*%
G04 APERTURE END LIST*
D10*
X279837000Y-139946714D02*
X279837000Y-140454714D01*
X279837000Y-140019285D02*
X279800714Y-139983000D01*
X279728142Y-139946714D01*
X279619285Y-139946714D01*
X279546714Y-139983000D01*
X279510428Y-140055571D01*
X279510428Y-140454714D01*
X278712142Y-140454714D02*
X278966142Y-140091857D01*
X279147571Y-140454714D02*
X279147571Y-139692714D01*
X278857285Y-139692714D01*
X278784714Y-139729000D01*
X278748428Y-139765285D01*
X278712142Y-139837857D01*
X278712142Y-139946714D01*
X278748428Y-140019285D01*
X278784714Y-140055571D01*
X278857285Y-140091857D01*
X279147571Y-140091857D01*
X278131571Y-140055571D02*
X278385571Y-140055571D01*
X278385571Y-140454714D02*
X278385571Y-139692714D01*
X278022714Y-139692714D01*
X277369571Y-139692714D02*
X277732428Y-139692714D01*
X277768714Y-140055571D01*
X277732428Y-140019285D01*
X277659857Y-139983000D01*
X277478428Y-139983000D01*
X277405857Y-140019285D01*
X277369571Y-140055571D01*
X277333285Y-140128142D01*
X277333285Y-140309571D01*
X277369571Y-140382142D01*
X277405857Y-140418428D01*
X277478428Y-140454714D01*
X277659857Y-140454714D01*
X277732428Y-140418428D01*
X277768714Y-140382142D01*
X277043000Y-139765285D02*
X277006714Y-139729000D01*
X276934142Y-139692714D01*
X276752714Y-139692714D01*
X276680142Y-139729000D01*
X276643857Y-139765285D01*
X276607571Y-139837857D01*
X276607571Y-139910428D01*
X276643857Y-140019285D01*
X277079285Y-140454714D01*
X276607571Y-140454714D01*
X276281000Y-140164428D02*
X275700428Y-140164428D01*
X274938428Y-139729000D02*
X275011000Y-139692714D01*
X275119857Y-139692714D01*
X275228714Y-139729000D01*
X275301285Y-139801571D01*
X275337571Y-139874142D01*
X275373857Y-140019285D01*
X275373857Y-140128142D01*
X275337571Y-140273285D01*
X275301285Y-140345857D01*
X275228714Y-140418428D01*
X275119857Y-140454714D01*
X275047285Y-140454714D01*
X274938428Y-140418428D01*
X274902142Y-140382142D01*
X274902142Y-140128142D01*
X275047285Y-140128142D01*
X274611857Y-140418428D02*
X274503000Y-140454714D01*
X274321571Y-140454714D01*
X274249000Y-140418428D01*
X274212714Y-140382142D01*
X274176428Y-140309571D01*
X274176428Y-140237000D01*
X274212714Y-140164428D01*
X274249000Y-140128142D01*
X274321571Y-140091857D01*
X274466714Y-140055571D01*
X274539285Y-140019285D01*
X274575571Y-139983000D01*
X274611857Y-139910428D01*
X274611857Y-139837857D01*
X274575571Y-139765285D01*
X274539285Y-139729000D01*
X274466714Y-139692714D01*
X274285285Y-139692714D01*
X274176428Y-139729000D01*
X273414428Y-140454714D02*
X273668428Y-140091857D01*
X273849857Y-140454714D02*
X273849857Y-139692714D01*
X273559571Y-139692714D01*
X273487000Y-139729000D01*
X273450714Y-139765285D01*
X273414428Y-139837857D01*
X273414428Y-139946714D01*
X273450714Y-140019285D01*
X273487000Y-140055571D01*
X273559571Y-140091857D01*
X273849857Y-140091857D01*
X272507285Y-140454714D02*
X272507285Y-139692714D01*
X272217000Y-139692714D01*
X272144428Y-139729000D01*
X272108142Y-139765285D01*
X272071857Y-139837857D01*
X272071857Y-139946714D01*
X272108142Y-140019285D01*
X272144428Y-140055571D01*
X272217000Y-140091857D01*
X272507285Y-140091857D01*
X271745285Y-140454714D02*
X271745285Y-139946714D01*
X271745285Y-140091857D02*
X271709000Y-140019285D01*
X271672714Y-139983000D01*
X271600142Y-139946714D01*
X271527571Y-139946714D01*
X271164714Y-140454714D02*
X271237285Y-140418428D01*
X271273571Y-140382142D01*
X271309857Y-140309571D01*
X271309857Y-140091857D01*
X271273571Y-140019285D01*
X271237285Y-139983000D01*
X271164714Y-139946714D01*
X271055857Y-139946714D01*
X270983285Y-139983000D01*
X270947000Y-140019285D01*
X270910714Y-140091857D01*
X270910714Y-140309571D01*
X270947000Y-140382142D01*
X270983285Y-140418428D01*
X271055857Y-140454714D01*
X271164714Y-140454714D01*
X270693000Y-139946714D02*
X270402714Y-139946714D01*
X270584142Y-139692714D02*
X270584142Y-140345857D01*
X270547857Y-140418428D01*
X270475285Y-140454714D01*
X270402714Y-140454714D01*
X270039857Y-140454714D02*
X270112428Y-140418428D01*
X270148714Y-140382142D01*
X270185000Y-140309571D01*
X270185000Y-140091857D01*
X270148714Y-140019285D01*
X270112428Y-139983000D01*
X270039857Y-139946714D01*
X269931000Y-139946714D01*
X269858428Y-139983000D01*
X269822142Y-140019285D01*
X269785857Y-140091857D01*
X269785857Y-140309571D01*
X269822142Y-140382142D01*
X269858428Y-140418428D01*
X269931000Y-140454714D01*
X270039857Y-140454714D01*
X269568142Y-139946714D02*
X269277857Y-139946714D01*
X269459285Y-139692714D02*
X269459285Y-140345857D01*
X269423000Y-140418428D01*
X269350428Y-140454714D01*
X269277857Y-140454714D01*
X269096428Y-139946714D02*
X268915000Y-140454714D01*
X268733571Y-139946714D02*
X268915000Y-140454714D01*
X268987571Y-140636142D01*
X269023857Y-140672428D01*
X269096428Y-140708714D01*
X268443285Y-139946714D02*
X268443285Y-140708714D01*
X268443285Y-139983000D02*
X268370714Y-139946714D01*
X268225571Y-139946714D01*
X268153000Y-139983000D01*
X268116714Y-140019285D01*
X268080428Y-140091857D01*
X268080428Y-140309571D01*
X268116714Y-140382142D01*
X268153000Y-140418428D01*
X268225571Y-140454714D01*
X268370714Y-140454714D01*
X268443285Y-140418428D01*
X267463571Y-140418428D02*
X267536142Y-140454714D01*
X267681285Y-140454714D01*
X267753857Y-140418428D01*
X267790142Y-140345857D01*
X267790142Y-140055571D01*
X267753857Y-139983000D01*
X267681285Y-139946714D01*
X267536142Y-139946714D01*
X267463571Y-139983000D01*
X267427285Y-140055571D01*
X267427285Y-140128142D01*
X267790142Y-140200714D01*
X276008857Y-140962714D02*
X275936285Y-140962714D01*
X275863714Y-140999000D01*
X275827428Y-141035285D01*
X275791142Y-141107857D01*
X275754857Y-141253000D01*
X275754857Y-141434428D01*
X275791142Y-141579571D01*
X275827428Y-141652142D01*
X275863714Y-141688428D01*
X275936285Y-141724714D01*
X276008857Y-141724714D01*
X276081428Y-141688428D01*
X276117714Y-141652142D01*
X276154000Y-141579571D01*
X276190285Y-141434428D01*
X276190285Y-141253000D01*
X276154000Y-141107857D01*
X276117714Y-141035285D01*
X276081428Y-140999000D01*
X276008857Y-140962714D01*
X275392000Y-141724714D02*
X275246857Y-141724714D01*
X275174285Y-141688428D01*
X275138000Y-141652142D01*
X275065428Y-141543285D01*
X275029142Y-141398142D01*
X275029142Y-141107857D01*
X275065428Y-141035285D01*
X275101714Y-140999000D01*
X275174285Y-140962714D01*
X275319428Y-140962714D01*
X275392000Y-140999000D01*
X275428285Y-141035285D01*
X275464571Y-141107857D01*
X275464571Y-141289285D01*
X275428285Y-141361857D01*
X275392000Y-141398142D01*
X275319428Y-141434428D01*
X275174285Y-141434428D01*
X275101714Y-141398142D01*
X275065428Y-141361857D01*
X275029142Y-141289285D01*
X274158285Y-140926428D02*
X274811428Y-141906142D01*
X273759142Y-140962714D02*
X273686571Y-140962714D01*
X273614000Y-140999000D01*
X273577714Y-141035285D01*
X273541428Y-141107857D01*
X273505142Y-141253000D01*
X273505142Y-141434428D01*
X273541428Y-141579571D01*
X273577714Y-141652142D01*
X273614000Y-141688428D01*
X273686571Y-141724714D01*
X273759142Y-141724714D01*
X273831714Y-141688428D01*
X273868000Y-141652142D01*
X273904285Y-141579571D01*
X273940571Y-141434428D01*
X273940571Y-141253000D01*
X273904285Y-141107857D01*
X273868000Y-141035285D01*
X273831714Y-140999000D01*
X273759142Y-140962714D01*
X273251142Y-140962714D02*
X272779428Y-140962714D01*
X273033428Y-141253000D01*
X272924571Y-141253000D01*
X272852000Y-141289285D01*
X272815714Y-141325571D01*
X272779428Y-141398142D01*
X272779428Y-141579571D01*
X272815714Y-141652142D01*
X272852000Y-141688428D01*
X272924571Y-141724714D01*
X273142285Y-141724714D01*
X273214857Y-141688428D01*
X273251142Y-141652142D01*
X271908571Y-140926428D02*
X272561714Y-141906142D01*
X271255428Y-141724714D02*
X271690857Y-141724714D01*
X271473142Y-141724714D02*
X271473142Y-140962714D01*
X271545714Y-141071571D01*
X271618285Y-141144142D01*
X271690857Y-141180428D01*
X270820000Y-141289285D02*
X270892571Y-141253000D01*
X270928857Y-141216714D01*
X270965142Y-141144142D01*
X270965142Y-141107857D01*
X270928857Y-141035285D01*
X270892571Y-140999000D01*
X270820000Y-140962714D01*
X270674857Y-140962714D01*
X270602285Y-140999000D01*
X270566000Y-141035285D01*
X270529714Y-141107857D01*
X270529714Y-141144142D01*
X270566000Y-141216714D01*
X270602285Y-141253000D01*
X270674857Y-141289285D01*
X270820000Y-141289285D01*
X270892571Y-141325571D01*
X270928857Y-141361857D01*
X270965142Y-141434428D01*
X270965142Y-141579571D01*
X270928857Y-141652142D01*
X270892571Y-141688428D01*
X270820000Y-141724714D01*
X270674857Y-141724714D01*
X270602285Y-141688428D01*
X270566000Y-141652142D01*
X270529714Y-141579571D01*
X270529714Y-141434428D01*
X270566000Y-141361857D01*
X270602285Y-141325571D01*
X270674857Y-141289285D01*
X279038714Y-142631857D02*
X279038714Y-142994714D01*
X279292714Y-142232714D02*
X279038714Y-142631857D01*
X278784714Y-142232714D01*
X278240428Y-142958428D02*
X278313000Y-142994714D01*
X278458142Y-142994714D01*
X278530714Y-142958428D01*
X278567000Y-142885857D01*
X278567000Y-142595571D01*
X278530714Y-142523000D01*
X278458142Y-142486714D01*
X278313000Y-142486714D01*
X278240428Y-142523000D01*
X278204142Y-142595571D01*
X278204142Y-142668142D01*
X278567000Y-142740714D01*
X277768714Y-142994714D02*
X277841285Y-142958428D01*
X277877571Y-142922142D01*
X277913857Y-142849571D01*
X277913857Y-142631857D01*
X277877571Y-142559285D01*
X277841285Y-142523000D01*
X277768714Y-142486714D01*
X277659857Y-142486714D01*
X277587285Y-142523000D01*
X277551000Y-142559285D01*
X277514714Y-142631857D01*
X277514714Y-142849571D01*
X277551000Y-142922142D01*
X277587285Y-142958428D01*
X277659857Y-142994714D01*
X277768714Y-142994714D01*
X276208428Y-142269000D02*
X276281000Y-142232714D01*
X276389857Y-142232714D01*
X276498714Y-142269000D01*
X276571285Y-142341571D01*
X276607571Y-142414142D01*
X276643857Y-142559285D01*
X276643857Y-142668142D01*
X276607571Y-142813285D01*
X276571285Y-142885857D01*
X276498714Y-142958428D01*
X276389857Y-142994714D01*
X276317285Y-142994714D01*
X276208428Y-142958428D01*
X276172142Y-142922142D01*
X276172142Y-142668142D01*
X276317285Y-142668142D01*
X275519000Y-142994714D02*
X275519000Y-142595571D01*
X275555285Y-142523000D01*
X275627857Y-142486714D01*
X275773000Y-142486714D01*
X275845571Y-142523000D01*
X275519000Y-142958428D02*
X275591571Y-142994714D01*
X275773000Y-142994714D01*
X275845571Y-142958428D01*
X275881857Y-142885857D01*
X275881857Y-142813285D01*
X275845571Y-142740714D01*
X275773000Y-142704428D01*
X275591571Y-142704428D01*
X275519000Y-142668142D01*
X275265000Y-142232714D02*
X274829571Y-142232714D01*
X275047285Y-142994714D02*
X275047285Y-142232714D01*
X274285285Y-142958428D02*
X274357857Y-142994714D01*
X274503000Y-142994714D01*
X274575571Y-142958428D01*
X274611857Y-142885857D01*
X274611857Y-142595571D01*
X274575571Y-142523000D01*
X274503000Y-142486714D01*
X274357857Y-142486714D01*
X274285285Y-142523000D01*
X274249000Y-142595571D01*
X274249000Y-142668142D01*
X274611857Y-142740714D01*
X273595857Y-142958428D02*
X273668428Y-142994714D01*
X273813571Y-142994714D01*
X273886142Y-142958428D01*
X273922428Y-142922142D01*
X273958714Y-142849571D01*
X273958714Y-142631857D01*
X273922428Y-142559285D01*
X273886142Y-142523000D01*
X273813571Y-142486714D01*
X273668428Y-142486714D01*
X273595857Y-142523000D01*
X273269285Y-142994714D02*
X273269285Y-142232714D01*
X272942714Y-142994714D02*
X272942714Y-142595571D01*
X272979000Y-142523000D01*
X273051571Y-142486714D01*
X273160428Y-142486714D01*
X273233000Y-142523000D01*
X273269285Y-142559285D01*
X271745285Y-142595571D02*
X271636428Y-142631857D01*
X271600142Y-142668142D01*
X271563857Y-142740714D01*
X271563857Y-142849571D01*
X271600142Y-142922142D01*
X271636428Y-142958428D01*
X271709000Y-142994714D01*
X271999285Y-142994714D01*
X271999285Y-142232714D01*
X271745285Y-142232714D01*
X271672714Y-142269000D01*
X271636428Y-142305285D01*
X271600142Y-142377857D01*
X271600142Y-142450428D01*
X271636428Y-142523000D01*
X271672714Y-142559285D01*
X271745285Y-142595571D01*
X271999285Y-142595571D01*
X271237285Y-142994714D02*
X271237285Y-142232714D01*
X270801857Y-142994714D01*
X270801857Y-142232714D01*
X270439000Y-142595571D02*
X270185000Y-142595571D01*
X270076142Y-142994714D02*
X270439000Y-142994714D01*
X270439000Y-142232714D01*
X270076142Y-142232714D01*
X268806142Y-142994714D02*
X269169000Y-142994714D01*
X269169000Y-142232714D01*
X268225571Y-142994714D02*
X268225571Y-142595571D01*
X268261857Y-142523000D01*
X268334428Y-142486714D01*
X268479571Y-142486714D01*
X268552142Y-142523000D01*
X268225571Y-142958428D02*
X268298142Y-142994714D01*
X268479571Y-142994714D01*
X268552142Y-142958428D01*
X268588428Y-142885857D01*
X268588428Y-142813285D01*
X268552142Y-142740714D01*
X268479571Y-142704428D01*
X268298142Y-142704428D01*
X268225571Y-142668142D01*
X267862714Y-142994714D02*
X267862714Y-142232714D01*
X267862714Y-142523000D02*
X267790142Y-142486714D01*
X267645000Y-142486714D01*
X267572428Y-142523000D01*
X267536142Y-142559285D01*
X267499857Y-142631857D01*
X267499857Y-142849571D01*
X267536142Y-142922142D01*
X267572428Y-142958428D01*
X267645000Y-142994714D01*
X267790142Y-142994714D01*
X267862714Y-142958428D01*
M02*
