G04 #@! TF.GenerationSoftware,KiCad,Pcbnew,(5.0.0)*
G04 #@! TF.CreationDate,2018-09-03T23:17:12-04:00*
G04 #@! TF.ProjectId,GSR_v1,4753525F76312E6B696361645F706362,rev?*
G04 #@! TF.SameCoordinates,Original*
G04 #@! TF.FileFunction,Copper,L2,Bot,Signal*
G04 #@! TF.FilePolarity,Positive*
%FSLAX46Y46*%
G04 Gerber Fmt 4.6, Leading zero omitted, Abs format (unit mm)*
G04 Created by KiCad (PCBNEW (5.0.0)) date 09/03/18 23:17:12*
%MOMM*%
%LPD*%
G01*
G04 APERTURE LIST*
G04 #@! TA.AperFunction,ComponentPad*
%ADD10R,1.700000X1.700000*%
G04 #@! TD*
G04 #@! TA.AperFunction,ComponentPad*
%ADD11O,1.700000X1.700000*%
G04 #@! TD*
G04 #@! TA.AperFunction,ComponentPad*
%ADD12R,1.524000X1.524000*%
G04 #@! TD*
G04 #@! TA.AperFunction,ComponentPad*
%ADD13C,1.524000*%
G04 #@! TD*
G04 #@! TA.AperFunction,ViaPad*
%ADD14C,0.508000*%
G04 #@! TD*
G04 #@! TA.AperFunction,Conductor*
%ADD15C,0.152000*%
G04 #@! TD*
G04 #@! TA.AperFunction,Conductor*
%ADD16C,0.457200*%
G04 #@! TD*
G04 #@! TA.AperFunction,Conductor*
%ADD17C,0.229000*%
G04 #@! TD*
G04 #@! TA.AperFunction,Conductor*
%ADD18C,0.254000*%
G04 #@! TD*
G04 APERTURE END LIST*
D10*
G04 #@! TO.P,P3,1*
G04 #@! TO.N,5V_in_charge*
X295990000Y-144510000D03*
D11*
G04 #@! TO.P,P3,2*
G04 #@! TO.N,DGND*
X295990000Y-141970000D03*
G04 #@! TD*
D12*
G04 #@! TO.P,P2,1*
G04 #@! TO.N,/SWDCLK*
X281500000Y-129560000D03*
D13*
G04 #@! TO.P,P2,2*
G04 #@! TO.N,/SWDIO*
X281500000Y-127020000D03*
G04 #@! TD*
D12*
G04 #@! TO.P,P1,1*
G04 #@! TO.N,/BATT_IN*
X292380000Y-144450000D03*
D13*
G04 #@! TO.P,P1,2*
G04 #@! TO.N,DGND*
X292380000Y-141910000D03*
G04 #@! TD*
D10*
G04 #@! TO.P,P4,1*
G04 #@! TO.N,/ELECTRODE_INPUT*
X294360600Y-127863600D03*
D11*
G04 #@! TO.P,P4,2*
G04 #@! TO.N,DGND*
X291820600Y-127863600D03*
G04 #@! TD*
D14*
G04 #@! TO.N,DVDD*
X284800000Y-129600000D03*
X283718000Y-127000000D03*
X270070000Y-140110000D03*
X280880000Y-137160000D03*
X274640000Y-137010000D03*
X275120000Y-130980000D03*
X274580000Y-129450000D03*
X281025000Y-140037600D03*
X289060000Y-135500000D03*
G04 #@! TO.N,VCC*
X274870000Y-143370000D03*
X289520000Y-140520000D03*
X289860000Y-144040000D03*
G04 #@! TO.N,DGND*
X283750000Y-138380000D03*
X284750000Y-132000000D03*
X287740000Y-139830000D03*
X281100000Y-141780000D03*
X280000000Y-143270000D03*
X271200000Y-144600000D03*
X268940000Y-142137500D03*
X279070000Y-128500000D03*
X268986000Y-135610000D03*
X276820000Y-128420000D03*
X288077600Y-127550000D03*
X295380000Y-132930000D03*
X283750000Y-133460000D03*
G04 #@! TO.N,/BATT_IN*
X290000000Y-145010000D03*
X288340000Y-141140000D03*
G04 #@! TO.N,/GSR_AIN*
X285950000Y-137800000D03*
X282520000Y-138840000D03*
G04 #@! TO.N,/ELECTRODE_INPUT*
X292400000Y-135660000D03*
X290660000Y-131720000D03*
G04 #@! TO.N,Net-(R12-Pad1)*
X292510000Y-139070000D03*
X292410000Y-136830000D03*
G04 #@! TO.N,Net-(R12-Pad2)*
X295250000Y-135140000D03*
X292580000Y-140000000D03*
G04 #@! TO.N,Net-(R14-Pad2)*
X296703400Y-137780000D03*
X296710000Y-131960000D03*
G04 #@! TD*
D15*
G04 #@! TO.N,DVDD*
X283716000Y-131066000D02*
X283716000Y-130684000D01*
X283716000Y-130684000D02*
X284800000Y-129600000D01*
D16*
X280880000Y-137160000D02*
X280880000Y-133902000D01*
X280880000Y-133902000D02*
X283716000Y-131066000D01*
X283716000Y-131066000D02*
X283718000Y-131064000D01*
X283718000Y-131064000D02*
X283718000Y-127000000D01*
X273170000Y-137010000D02*
X274640000Y-137010000D01*
X270070000Y-140110000D02*
X273170000Y-137010000D01*
X280730000Y-137010000D02*
X280880000Y-137160000D01*
X274640000Y-137010000D02*
X279270000Y-137010000D01*
X279270000Y-137010000D02*
X280730000Y-137010000D01*
X275120000Y-130980000D02*
X275120000Y-136450000D01*
X275120000Y-136450000D02*
X274640000Y-137010000D01*
X275120000Y-129990000D02*
X275120000Y-130980000D01*
X274580000Y-129450000D02*
X275120000Y-129990000D01*
D15*
X281025000Y-137305000D02*
X280880000Y-137160000D01*
X281025000Y-140037600D02*
X281025000Y-137305000D01*
X289060000Y-135140790D02*
X285730000Y-131810790D01*
X289060000Y-135500000D02*
X289060000Y-135140790D01*
X285730000Y-130530000D02*
X284800000Y-129600000D01*
X285730000Y-131810790D02*
X285730000Y-130530000D01*
G04 #@! TO.N,VCC*
X280390000Y-140520000D02*
X289520000Y-140520000D01*
X277780000Y-143130000D02*
X280390000Y-140520000D01*
X275110000Y-143130000D02*
X277780000Y-143130000D01*
X274870000Y-143370000D02*
X275110000Y-143130000D01*
X289520000Y-140520000D02*
X289860000Y-140860000D01*
X289860000Y-140860000D02*
X289860000Y-144040000D01*
D16*
G04 #@! TO.N,DGND*
X284750000Y-132000000D02*
X283750000Y-133000000D01*
D17*
X290000000Y-139530000D02*
X292380000Y-141910000D01*
X288040000Y-139530000D02*
X290000000Y-139530000D01*
X287740000Y-139830000D02*
X288040000Y-139530000D01*
D16*
X280000000Y-143270000D02*
X280000000Y-142880000D01*
X280000000Y-142880000D02*
X281100000Y-141780000D01*
D17*
X278670000Y-144600000D02*
X271200000Y-144600000D01*
X280000000Y-143270000D02*
X278670000Y-144600000D01*
D15*
X268940000Y-142340000D02*
X268940000Y-142137500D01*
X271200000Y-144600000D02*
X268940000Y-142340000D01*
D16*
X268986000Y-135610000D02*
X268986000Y-142091500D01*
D15*
X268986000Y-142091500D02*
X268940000Y-142137500D01*
X279070000Y-128500000D02*
X279040000Y-128500000D01*
X268986000Y-135610000D02*
X268990000Y-135610000D01*
X276810000Y-128430000D02*
X276800000Y-128430000D01*
X276820000Y-128420000D02*
X276810000Y-128430000D01*
X288391200Y-127863600D02*
X291820600Y-127863600D01*
X288077600Y-127550000D02*
X288391200Y-127863600D01*
D16*
X283750000Y-133460000D02*
X283750000Y-138380000D01*
X283750000Y-133000000D02*
X283750000Y-133460000D01*
D15*
X295380000Y-132930000D02*
X294650000Y-132930000D01*
X291820600Y-130100600D02*
X291820600Y-127863600D01*
X294650000Y-132930000D02*
X291820600Y-130100600D01*
G04 #@! TO.N,/BATT_IN*
X290000000Y-145010000D02*
X289940000Y-144950000D01*
X289940000Y-144950000D02*
X289370000Y-144960000D01*
X289370000Y-144960000D02*
X288340000Y-143930000D01*
X288340000Y-143930000D02*
X288340000Y-141140000D01*
G04 #@! TO.N,/GSR_AIN*
X285950000Y-137800000D02*
X284650000Y-139100000D01*
X284650000Y-139100000D02*
X282780000Y-139100000D01*
X282780000Y-139100000D02*
X282520000Y-138840000D01*
G04 #@! TO.N,/ELECTRODE_INPUT*
X292400000Y-135660000D02*
X290660000Y-133920000D01*
X290660000Y-133920000D02*
X290660000Y-131720000D01*
G04 #@! TO.N,Net-(R12-Pad1)*
X292510000Y-139070000D02*
X292510000Y-136930000D01*
X292510000Y-136930000D02*
X292410000Y-136830000D01*
G04 #@! TO.N,Net-(R12-Pad2)*
X295250000Y-135140000D02*
X294940000Y-134830000D01*
X294940000Y-134830000D02*
X294940000Y-137640000D01*
X294940000Y-137640000D02*
X292580000Y-140000000D01*
D17*
G04 #@! TO.N,Net-(R14-Pad2)*
X296703400Y-137780000D02*
X296703400Y-131966600D01*
X296703400Y-131966600D02*
X296710000Y-131960000D01*
G04 #@! TD*
D18*
G04 #@! TO.N,DGND*
G36*
X280315680Y-126228663D02*
X280103000Y-126742119D01*
X280103000Y-127297881D01*
X280315680Y-127811337D01*
X280668690Y-128164347D01*
X280490235Y-128199843D01*
X280280191Y-128340191D01*
X280139843Y-128550235D01*
X280090560Y-128798000D01*
X280090560Y-130322000D01*
X280139843Y-130569765D01*
X280280191Y-130779809D01*
X280490235Y-130920157D01*
X280738000Y-130969440D01*
X282262000Y-130969440D01*
X282509765Y-130920157D01*
X282719809Y-130779809D01*
X282854400Y-130578381D01*
X282854400Y-130706285D01*
X280329487Y-133231200D01*
X280257381Y-133279380D01*
X280209202Y-133351485D01*
X280066507Y-133565041D01*
X279999483Y-133902000D01*
X280016401Y-133987054D01*
X280016400Y-136146400D01*
X275983600Y-136146400D01*
X275983600Y-131218154D01*
X276009000Y-131156833D01*
X276009000Y-130803167D01*
X275983600Y-130741846D01*
X275983600Y-130075047D01*
X276000517Y-129989999D01*
X275983600Y-129904951D01*
X275983600Y-129904947D01*
X275933493Y-129653040D01*
X275742620Y-129367380D01*
X275670514Y-129319200D01*
X275359059Y-129007746D01*
X275333658Y-128946422D01*
X275083578Y-128696342D01*
X274756833Y-128561000D01*
X274403167Y-128561000D01*
X274076422Y-128696342D01*
X273826342Y-128946422D01*
X273691000Y-129273167D01*
X273691000Y-129626833D01*
X273826342Y-129953578D01*
X274076422Y-130203658D01*
X274137746Y-130229059D01*
X274256400Y-130347714D01*
X274256401Y-130741844D01*
X274231000Y-130803167D01*
X274231000Y-131156833D01*
X274256400Y-131218154D01*
X274256401Y-136130534D01*
X274242802Y-136146400D01*
X273255048Y-136146400D01*
X273169999Y-136129483D01*
X273084950Y-136146400D01*
X273084947Y-136146400D01*
X272833040Y-136196507D01*
X272547380Y-136387380D01*
X272499200Y-136459486D01*
X269627746Y-139330941D01*
X269566422Y-139356342D01*
X269316342Y-139606422D01*
X269181000Y-139933167D01*
X269181000Y-140286833D01*
X269316342Y-140613578D01*
X269566422Y-140863658D01*
X269893167Y-140999000D01*
X270246833Y-140999000D01*
X270573578Y-140863658D01*
X270823658Y-140613578D01*
X270849059Y-140552254D01*
X273527714Y-137873600D01*
X274401846Y-137873600D01*
X274463167Y-137899000D01*
X274816833Y-137899000D01*
X274878154Y-137873600D01*
X280314001Y-137873600D01*
X280314000Y-139491364D01*
X280271342Y-139534022D01*
X280142849Y-139844233D01*
X280112582Y-139850253D01*
X280112580Y-139850254D01*
X280112581Y-139850254D01*
X279949831Y-139959000D01*
X279877398Y-140007398D01*
X279837733Y-140066761D01*
X277485495Y-142419000D01*
X275180020Y-142419000D01*
X275109999Y-142405072D01*
X275039979Y-142419000D01*
X275039974Y-142419000D01*
X274832582Y-142460253D01*
X274801532Y-142481000D01*
X274693167Y-142481000D01*
X274366422Y-142616342D01*
X274116342Y-142866422D01*
X273981000Y-143193167D01*
X273981000Y-143546833D01*
X274116342Y-143873578D01*
X274366422Y-144123658D01*
X274693167Y-144259000D01*
X275046833Y-144259000D01*
X275373578Y-144123658D01*
X275623658Y-143873578D01*
X275637152Y-143841000D01*
X277709979Y-143841000D01*
X277780000Y-143854928D01*
X277850021Y-143841000D01*
X277850026Y-143841000D01*
X278057418Y-143799747D01*
X278292602Y-143642602D01*
X278332269Y-143583236D01*
X280684506Y-141231000D01*
X287451000Y-141231000D01*
X287451000Y-141316833D01*
X287586342Y-141643578D01*
X287629001Y-141686237D01*
X287629000Y-143859979D01*
X287615072Y-143930000D01*
X287629000Y-144000021D01*
X287629000Y-144000025D01*
X287670253Y-144207417D01*
X287827398Y-144442601D01*
X287886762Y-144482267D01*
X288699494Y-145295000D01*
X266585000Y-145295000D01*
X266585000Y-132127000D01*
X272550000Y-132127000D01*
X272598601Y-132117333D01*
X272639803Y-132089803D01*
X272667333Y-132048601D01*
X272677000Y-132000000D01*
X272677000Y-126185000D01*
X280359343Y-126185000D01*
X280315680Y-126228663D01*
X280315680Y-126228663D01*
G37*
X280315680Y-126228663D02*
X280103000Y-126742119D01*
X280103000Y-127297881D01*
X280315680Y-127811337D01*
X280668690Y-128164347D01*
X280490235Y-128199843D01*
X280280191Y-128340191D01*
X280139843Y-128550235D01*
X280090560Y-128798000D01*
X280090560Y-130322000D01*
X280139843Y-130569765D01*
X280280191Y-130779809D01*
X280490235Y-130920157D01*
X280738000Y-130969440D01*
X282262000Y-130969440D01*
X282509765Y-130920157D01*
X282719809Y-130779809D01*
X282854400Y-130578381D01*
X282854400Y-130706285D01*
X280329487Y-133231200D01*
X280257381Y-133279380D01*
X280209202Y-133351485D01*
X280066507Y-133565041D01*
X279999483Y-133902000D01*
X280016401Y-133987054D01*
X280016400Y-136146400D01*
X275983600Y-136146400D01*
X275983600Y-131218154D01*
X276009000Y-131156833D01*
X276009000Y-130803167D01*
X275983600Y-130741846D01*
X275983600Y-130075047D01*
X276000517Y-129989999D01*
X275983600Y-129904951D01*
X275983600Y-129904947D01*
X275933493Y-129653040D01*
X275742620Y-129367380D01*
X275670514Y-129319200D01*
X275359059Y-129007746D01*
X275333658Y-128946422D01*
X275083578Y-128696342D01*
X274756833Y-128561000D01*
X274403167Y-128561000D01*
X274076422Y-128696342D01*
X273826342Y-128946422D01*
X273691000Y-129273167D01*
X273691000Y-129626833D01*
X273826342Y-129953578D01*
X274076422Y-130203658D01*
X274137746Y-130229059D01*
X274256400Y-130347714D01*
X274256401Y-130741844D01*
X274231000Y-130803167D01*
X274231000Y-131156833D01*
X274256400Y-131218154D01*
X274256401Y-136130534D01*
X274242802Y-136146400D01*
X273255048Y-136146400D01*
X273169999Y-136129483D01*
X273084950Y-136146400D01*
X273084947Y-136146400D01*
X272833040Y-136196507D01*
X272547380Y-136387380D01*
X272499200Y-136459486D01*
X269627746Y-139330941D01*
X269566422Y-139356342D01*
X269316342Y-139606422D01*
X269181000Y-139933167D01*
X269181000Y-140286833D01*
X269316342Y-140613578D01*
X269566422Y-140863658D01*
X269893167Y-140999000D01*
X270246833Y-140999000D01*
X270573578Y-140863658D01*
X270823658Y-140613578D01*
X270849059Y-140552254D01*
X273527714Y-137873600D01*
X274401846Y-137873600D01*
X274463167Y-137899000D01*
X274816833Y-137899000D01*
X274878154Y-137873600D01*
X280314001Y-137873600D01*
X280314000Y-139491364D01*
X280271342Y-139534022D01*
X280142849Y-139844233D01*
X280112582Y-139850253D01*
X280112580Y-139850254D01*
X280112581Y-139850254D01*
X279949831Y-139959000D01*
X279877398Y-140007398D01*
X279837733Y-140066761D01*
X277485495Y-142419000D01*
X275180020Y-142419000D01*
X275109999Y-142405072D01*
X275039979Y-142419000D01*
X275039974Y-142419000D01*
X274832582Y-142460253D01*
X274801532Y-142481000D01*
X274693167Y-142481000D01*
X274366422Y-142616342D01*
X274116342Y-142866422D01*
X273981000Y-143193167D01*
X273981000Y-143546833D01*
X274116342Y-143873578D01*
X274366422Y-144123658D01*
X274693167Y-144259000D01*
X275046833Y-144259000D01*
X275373578Y-144123658D01*
X275623658Y-143873578D01*
X275637152Y-143841000D01*
X277709979Y-143841000D01*
X277780000Y-143854928D01*
X277850021Y-143841000D01*
X277850026Y-143841000D01*
X278057418Y-143799747D01*
X278292602Y-143642602D01*
X278332269Y-143583236D01*
X280684506Y-141231000D01*
X287451000Y-141231000D01*
X287451000Y-141316833D01*
X287586342Y-141643578D01*
X287629001Y-141686237D01*
X287629000Y-143859979D01*
X287615072Y-143930000D01*
X287629000Y-144000021D01*
X287629000Y-144000025D01*
X287670253Y-144207417D01*
X287827398Y-144442601D01*
X287886762Y-144482267D01*
X288699494Y-145295000D01*
X266585000Y-145295000D01*
X266585000Y-132127000D01*
X272550000Y-132127000D01*
X272598601Y-132117333D01*
X272639803Y-132089803D01*
X272667333Y-132048601D01*
X272677000Y-132000000D01*
X272677000Y-126185000D01*
X280359343Y-126185000D01*
X280315680Y-126228663D01*
G36*
X297415001Y-131407765D02*
X297213578Y-131206342D01*
X296886833Y-131071000D01*
X296533167Y-131071000D01*
X296206422Y-131206342D01*
X295956342Y-131456422D01*
X295821000Y-131783167D01*
X295821000Y-132136833D01*
X295953901Y-132457685D01*
X295953901Y-134586665D01*
X295753578Y-134386342D01*
X295426833Y-134251000D01*
X295353230Y-134251000D01*
X295217418Y-134160254D01*
X295217419Y-134160254D01*
X295217417Y-134160253D01*
X294940000Y-134105071D01*
X294662582Y-134160253D01*
X294544990Y-134238826D01*
X294427398Y-134317398D01*
X294361608Y-134415861D01*
X294270253Y-134552583D01*
X294229000Y-134759975D01*
X294229000Y-134759979D01*
X294215072Y-134830000D01*
X294229000Y-134900021D01*
X294229001Y-137345493D01*
X293221000Y-138353495D01*
X293221000Y-137195142D01*
X293299000Y-137006833D01*
X293299000Y-136653167D01*
X293163658Y-136326422D01*
X293077236Y-136240000D01*
X293153658Y-136163578D01*
X293289000Y-135836833D01*
X293289000Y-135483167D01*
X293153658Y-135156422D01*
X292903578Y-134906342D01*
X292576833Y-134771000D01*
X292516506Y-134771000D01*
X291371000Y-133625495D01*
X291371000Y-132266236D01*
X291413658Y-132223578D01*
X291549000Y-131896833D01*
X291549000Y-131543167D01*
X291413658Y-131216422D01*
X291163578Y-130966342D01*
X290836833Y-130831000D01*
X290483167Y-130831000D01*
X290156422Y-130966342D01*
X289906342Y-131216422D01*
X289771000Y-131543167D01*
X289771000Y-131896833D01*
X289906342Y-132223578D01*
X289949001Y-132266237D01*
X289949000Y-133849979D01*
X289935072Y-133920000D01*
X289949000Y-133990021D01*
X289949000Y-133990025D01*
X289990253Y-134197417D01*
X290147398Y-134432601D01*
X290206762Y-134472267D01*
X291511000Y-135776506D01*
X291511000Y-135836833D01*
X291646342Y-136163578D01*
X291732764Y-136250000D01*
X291656342Y-136326422D01*
X291521000Y-136653167D01*
X291521000Y-137006833D01*
X291656342Y-137333578D01*
X291799001Y-137476237D01*
X291799000Y-138523764D01*
X291756342Y-138566422D01*
X291621000Y-138893167D01*
X291621000Y-139246833D01*
X291756342Y-139573578D01*
X291783241Y-139600477D01*
X291691000Y-139823167D01*
X291691000Y-140176833D01*
X291826342Y-140503578D01*
X291904483Y-140581719D01*
X291648857Y-140687603D01*
X291579392Y-140929787D01*
X292380000Y-141730395D01*
X293180608Y-140929787D01*
X293119722Y-140717514D01*
X293333658Y-140503578D01*
X293469000Y-140176833D01*
X293469000Y-140116505D01*
X295393239Y-138192267D01*
X295452602Y-138152602D01*
X295609747Y-137917418D01*
X295651000Y-137710026D01*
X295651000Y-137710022D01*
X295664928Y-137640001D01*
X295651000Y-137569980D01*
X295651000Y-135936147D01*
X295753578Y-135893658D01*
X295953900Y-135693336D01*
X295953900Y-137272264D01*
X295949742Y-137276422D01*
X295814400Y-137603167D01*
X295814400Y-137956833D01*
X295949742Y-138283578D01*
X296199822Y-138533658D01*
X296526567Y-138669000D01*
X296880233Y-138669000D01*
X297206978Y-138533658D01*
X297415000Y-138325636D01*
X297415000Y-141573331D01*
X297261645Y-141203076D01*
X296871358Y-140774817D01*
X296346892Y-140528514D01*
X296117000Y-140649181D01*
X296117000Y-141843000D01*
X296137000Y-141843000D01*
X296137000Y-142097000D01*
X296117000Y-142097000D01*
X296117000Y-142117000D01*
X295863000Y-142117000D01*
X295863000Y-142097000D01*
X294669845Y-142097000D01*
X294548524Y-142326890D01*
X294718355Y-142736924D01*
X294995708Y-143041261D01*
X294892235Y-143061843D01*
X294682191Y-143202191D01*
X294541843Y-143412235D01*
X294492560Y-143660000D01*
X294492560Y-145295000D01*
X293772930Y-145295000D01*
X293789440Y-145212000D01*
X293789440Y-143688000D01*
X293740157Y-143440235D01*
X293599809Y-143230191D01*
X293389765Y-143089843D01*
X293142000Y-143040560D01*
X293137484Y-143040560D01*
X293180608Y-142890213D01*
X292380000Y-142089605D01*
X291579392Y-142890213D01*
X291622516Y-143040560D01*
X291618000Y-143040560D01*
X291370235Y-143089843D01*
X291160191Y-143230191D01*
X291019843Y-143440235D01*
X290970560Y-143688000D01*
X290970560Y-145212000D01*
X290987070Y-145295000D01*
X290844196Y-145295000D01*
X290889000Y-145186833D01*
X290889000Y-144833167D01*
X290753658Y-144506422D01*
X290665546Y-144418310D01*
X290749000Y-144216833D01*
X290749000Y-143863167D01*
X290613658Y-143536422D01*
X290571000Y-143493764D01*
X290571000Y-141702302D01*
X290970856Y-141702302D01*
X290998638Y-142257368D01*
X291157603Y-142641143D01*
X291399787Y-142710608D01*
X292200395Y-141910000D01*
X292559605Y-141910000D01*
X293360213Y-142710608D01*
X293602397Y-142641143D01*
X293789144Y-142117698D01*
X293763889Y-141613110D01*
X294548524Y-141613110D01*
X294669845Y-141843000D01*
X295863000Y-141843000D01*
X295863000Y-140649181D01*
X295633108Y-140528514D01*
X295108642Y-140774817D01*
X294718355Y-141203076D01*
X294548524Y-141613110D01*
X293763889Y-141613110D01*
X293761362Y-141562632D01*
X293602397Y-141178857D01*
X293360213Y-141109392D01*
X292559605Y-141910000D01*
X292200395Y-141910000D01*
X291399787Y-141109392D01*
X291157603Y-141178857D01*
X290970856Y-141702302D01*
X290571000Y-141702302D01*
X290571000Y-140930022D01*
X290584928Y-140860000D01*
X290571000Y-140789978D01*
X290571000Y-140789974D01*
X290529747Y-140582582D01*
X290529747Y-140582581D01*
X290412269Y-140406764D01*
X290412267Y-140406762D01*
X290409000Y-140401873D01*
X290409000Y-140343167D01*
X290273658Y-140016422D01*
X290023578Y-139766342D01*
X289696833Y-139631000D01*
X289343167Y-139631000D01*
X289016422Y-139766342D01*
X288973764Y-139809000D01*
X284730081Y-139809000D01*
X284927418Y-139769747D01*
X285162602Y-139612602D01*
X285202269Y-139553236D01*
X286066506Y-138689000D01*
X286126833Y-138689000D01*
X286453578Y-138553658D01*
X286703658Y-138303578D01*
X286839000Y-137976833D01*
X286839000Y-137623167D01*
X286703658Y-137296422D01*
X286453578Y-137046342D01*
X286126833Y-136911000D01*
X285773167Y-136911000D01*
X285446422Y-137046342D01*
X285196342Y-137296422D01*
X285061000Y-137623167D01*
X285061000Y-137683494D01*
X284355495Y-138389000D01*
X283295436Y-138389000D01*
X283273658Y-138336422D01*
X283023578Y-138086342D01*
X282696833Y-137951000D01*
X282343167Y-137951000D01*
X282016422Y-138086342D01*
X281766342Y-138336422D01*
X281736000Y-138409674D01*
X281736000Y-137416502D01*
X281769000Y-137336833D01*
X281769000Y-136983167D01*
X281743600Y-136921846D01*
X281743600Y-134259713D01*
X284268517Y-131734798D01*
X284340620Y-131686620D01*
X284531493Y-131400960D01*
X284581600Y-131149053D01*
X284581600Y-131149049D01*
X284598517Y-131064001D01*
X284581600Y-130978953D01*
X284581600Y-130823905D01*
X284800000Y-130605506D01*
X285019001Y-130824506D01*
X285019000Y-131740769D01*
X285005072Y-131810790D01*
X285019000Y-131880811D01*
X285019000Y-131880815D01*
X285060253Y-132088207D01*
X285217398Y-132323391D01*
X285276762Y-132363057D01*
X288190293Y-135276589D01*
X288171000Y-135323167D01*
X288171000Y-135676833D01*
X288306342Y-136003578D01*
X288556422Y-136253658D01*
X288883167Y-136389000D01*
X289236833Y-136389000D01*
X289563578Y-136253658D01*
X289813658Y-136003578D01*
X289949000Y-135676833D01*
X289949000Y-135323167D01*
X289813658Y-134996422D01*
X289741948Y-134924712D01*
X289729747Y-134863372D01*
X289572602Y-134628188D01*
X289513239Y-134588523D01*
X286441000Y-131516285D01*
X286441000Y-130600022D01*
X286454928Y-130530000D01*
X286441000Y-130459978D01*
X286441000Y-130459974D01*
X286399747Y-130252582D01*
X286399747Y-130252581D01*
X286282269Y-130076763D01*
X286282267Y-130076761D01*
X286242602Y-130017398D01*
X286183238Y-129977732D01*
X285689000Y-129483495D01*
X285689000Y-129423167D01*
X285553658Y-129096422D01*
X285303578Y-128846342D01*
X284976833Y-128711000D01*
X284623167Y-128711000D01*
X284581600Y-128728218D01*
X284581600Y-128220492D01*
X290379114Y-128220492D01*
X290625417Y-128744958D01*
X291053676Y-129135245D01*
X291463710Y-129305076D01*
X291693600Y-129183755D01*
X291693600Y-127990600D01*
X290499781Y-127990600D01*
X290379114Y-128220492D01*
X284581600Y-128220492D01*
X284581600Y-127506708D01*
X290379114Y-127506708D01*
X290499781Y-127736600D01*
X291693600Y-127736600D01*
X291693600Y-126543445D01*
X291947600Y-126543445D01*
X291947600Y-127736600D01*
X291967600Y-127736600D01*
X291967600Y-127990600D01*
X291947600Y-127990600D01*
X291947600Y-129183755D01*
X292177490Y-129305076D01*
X292587524Y-129135245D01*
X292891861Y-128857892D01*
X292912443Y-128961365D01*
X293052791Y-129171409D01*
X293262835Y-129311757D01*
X293510600Y-129361040D01*
X295210600Y-129361040D01*
X295458365Y-129311757D01*
X295668409Y-129171409D01*
X295808757Y-128961365D01*
X295858040Y-128713600D01*
X295858040Y-127013600D01*
X295808757Y-126765835D01*
X295668409Y-126555791D01*
X295458365Y-126415443D01*
X295210600Y-126366160D01*
X293510600Y-126366160D01*
X293262835Y-126415443D01*
X293052791Y-126555791D01*
X292912443Y-126765835D01*
X292891861Y-126869308D01*
X292587524Y-126591955D01*
X292177490Y-126422124D01*
X291947600Y-126543445D01*
X291693600Y-126543445D01*
X291463710Y-126422124D01*
X291053676Y-126591955D01*
X290625417Y-126982242D01*
X290379114Y-127506708D01*
X284581600Y-127506708D01*
X284581600Y-127238154D01*
X284607000Y-127176833D01*
X284607000Y-126823167D01*
X284471658Y-126496422D01*
X284221578Y-126246342D01*
X284073485Y-126185000D01*
X297415001Y-126185000D01*
X297415001Y-131407765D01*
X297415001Y-131407765D01*
G37*
X297415001Y-131407765D02*
X297213578Y-131206342D01*
X296886833Y-131071000D01*
X296533167Y-131071000D01*
X296206422Y-131206342D01*
X295956342Y-131456422D01*
X295821000Y-131783167D01*
X295821000Y-132136833D01*
X295953901Y-132457685D01*
X295953901Y-134586665D01*
X295753578Y-134386342D01*
X295426833Y-134251000D01*
X295353230Y-134251000D01*
X295217418Y-134160254D01*
X295217419Y-134160254D01*
X295217417Y-134160253D01*
X294940000Y-134105071D01*
X294662582Y-134160253D01*
X294544990Y-134238826D01*
X294427398Y-134317398D01*
X294361608Y-134415861D01*
X294270253Y-134552583D01*
X294229000Y-134759975D01*
X294229000Y-134759979D01*
X294215072Y-134830000D01*
X294229000Y-134900021D01*
X294229001Y-137345493D01*
X293221000Y-138353495D01*
X293221000Y-137195142D01*
X293299000Y-137006833D01*
X293299000Y-136653167D01*
X293163658Y-136326422D01*
X293077236Y-136240000D01*
X293153658Y-136163578D01*
X293289000Y-135836833D01*
X293289000Y-135483167D01*
X293153658Y-135156422D01*
X292903578Y-134906342D01*
X292576833Y-134771000D01*
X292516506Y-134771000D01*
X291371000Y-133625495D01*
X291371000Y-132266236D01*
X291413658Y-132223578D01*
X291549000Y-131896833D01*
X291549000Y-131543167D01*
X291413658Y-131216422D01*
X291163578Y-130966342D01*
X290836833Y-130831000D01*
X290483167Y-130831000D01*
X290156422Y-130966342D01*
X289906342Y-131216422D01*
X289771000Y-131543167D01*
X289771000Y-131896833D01*
X289906342Y-132223578D01*
X289949001Y-132266237D01*
X289949000Y-133849979D01*
X289935072Y-133920000D01*
X289949000Y-133990021D01*
X289949000Y-133990025D01*
X289990253Y-134197417D01*
X290147398Y-134432601D01*
X290206762Y-134472267D01*
X291511000Y-135776506D01*
X291511000Y-135836833D01*
X291646342Y-136163578D01*
X291732764Y-136250000D01*
X291656342Y-136326422D01*
X291521000Y-136653167D01*
X291521000Y-137006833D01*
X291656342Y-137333578D01*
X291799001Y-137476237D01*
X291799000Y-138523764D01*
X291756342Y-138566422D01*
X291621000Y-138893167D01*
X291621000Y-139246833D01*
X291756342Y-139573578D01*
X291783241Y-139600477D01*
X291691000Y-139823167D01*
X291691000Y-140176833D01*
X291826342Y-140503578D01*
X291904483Y-140581719D01*
X291648857Y-140687603D01*
X291579392Y-140929787D01*
X292380000Y-141730395D01*
X293180608Y-140929787D01*
X293119722Y-140717514D01*
X293333658Y-140503578D01*
X293469000Y-140176833D01*
X293469000Y-140116505D01*
X295393239Y-138192267D01*
X295452602Y-138152602D01*
X295609747Y-137917418D01*
X295651000Y-137710026D01*
X295651000Y-137710022D01*
X295664928Y-137640001D01*
X295651000Y-137569980D01*
X295651000Y-135936147D01*
X295753578Y-135893658D01*
X295953900Y-135693336D01*
X295953900Y-137272264D01*
X295949742Y-137276422D01*
X295814400Y-137603167D01*
X295814400Y-137956833D01*
X295949742Y-138283578D01*
X296199822Y-138533658D01*
X296526567Y-138669000D01*
X296880233Y-138669000D01*
X297206978Y-138533658D01*
X297415000Y-138325636D01*
X297415000Y-141573331D01*
X297261645Y-141203076D01*
X296871358Y-140774817D01*
X296346892Y-140528514D01*
X296117000Y-140649181D01*
X296117000Y-141843000D01*
X296137000Y-141843000D01*
X296137000Y-142097000D01*
X296117000Y-142097000D01*
X296117000Y-142117000D01*
X295863000Y-142117000D01*
X295863000Y-142097000D01*
X294669845Y-142097000D01*
X294548524Y-142326890D01*
X294718355Y-142736924D01*
X294995708Y-143041261D01*
X294892235Y-143061843D01*
X294682191Y-143202191D01*
X294541843Y-143412235D01*
X294492560Y-143660000D01*
X294492560Y-145295000D01*
X293772930Y-145295000D01*
X293789440Y-145212000D01*
X293789440Y-143688000D01*
X293740157Y-143440235D01*
X293599809Y-143230191D01*
X293389765Y-143089843D01*
X293142000Y-143040560D01*
X293137484Y-143040560D01*
X293180608Y-142890213D01*
X292380000Y-142089605D01*
X291579392Y-142890213D01*
X291622516Y-143040560D01*
X291618000Y-143040560D01*
X291370235Y-143089843D01*
X291160191Y-143230191D01*
X291019843Y-143440235D01*
X290970560Y-143688000D01*
X290970560Y-145212000D01*
X290987070Y-145295000D01*
X290844196Y-145295000D01*
X290889000Y-145186833D01*
X290889000Y-144833167D01*
X290753658Y-144506422D01*
X290665546Y-144418310D01*
X290749000Y-144216833D01*
X290749000Y-143863167D01*
X290613658Y-143536422D01*
X290571000Y-143493764D01*
X290571000Y-141702302D01*
X290970856Y-141702302D01*
X290998638Y-142257368D01*
X291157603Y-142641143D01*
X291399787Y-142710608D01*
X292200395Y-141910000D01*
X292559605Y-141910000D01*
X293360213Y-142710608D01*
X293602397Y-142641143D01*
X293789144Y-142117698D01*
X293763889Y-141613110D01*
X294548524Y-141613110D01*
X294669845Y-141843000D01*
X295863000Y-141843000D01*
X295863000Y-140649181D01*
X295633108Y-140528514D01*
X295108642Y-140774817D01*
X294718355Y-141203076D01*
X294548524Y-141613110D01*
X293763889Y-141613110D01*
X293761362Y-141562632D01*
X293602397Y-141178857D01*
X293360213Y-141109392D01*
X292559605Y-141910000D01*
X292200395Y-141910000D01*
X291399787Y-141109392D01*
X291157603Y-141178857D01*
X290970856Y-141702302D01*
X290571000Y-141702302D01*
X290571000Y-140930022D01*
X290584928Y-140860000D01*
X290571000Y-140789978D01*
X290571000Y-140789974D01*
X290529747Y-140582582D01*
X290529747Y-140582581D01*
X290412269Y-140406764D01*
X290412267Y-140406762D01*
X290409000Y-140401873D01*
X290409000Y-140343167D01*
X290273658Y-140016422D01*
X290023578Y-139766342D01*
X289696833Y-139631000D01*
X289343167Y-139631000D01*
X289016422Y-139766342D01*
X288973764Y-139809000D01*
X284730081Y-139809000D01*
X284927418Y-139769747D01*
X285162602Y-139612602D01*
X285202269Y-139553236D01*
X286066506Y-138689000D01*
X286126833Y-138689000D01*
X286453578Y-138553658D01*
X286703658Y-138303578D01*
X286839000Y-137976833D01*
X286839000Y-137623167D01*
X286703658Y-137296422D01*
X286453578Y-137046342D01*
X286126833Y-136911000D01*
X285773167Y-136911000D01*
X285446422Y-137046342D01*
X285196342Y-137296422D01*
X285061000Y-137623167D01*
X285061000Y-137683494D01*
X284355495Y-138389000D01*
X283295436Y-138389000D01*
X283273658Y-138336422D01*
X283023578Y-138086342D01*
X282696833Y-137951000D01*
X282343167Y-137951000D01*
X282016422Y-138086342D01*
X281766342Y-138336422D01*
X281736000Y-138409674D01*
X281736000Y-137416502D01*
X281769000Y-137336833D01*
X281769000Y-136983167D01*
X281743600Y-136921846D01*
X281743600Y-134259713D01*
X284268517Y-131734798D01*
X284340620Y-131686620D01*
X284531493Y-131400960D01*
X284581600Y-131149053D01*
X284581600Y-131149049D01*
X284598517Y-131064001D01*
X284581600Y-130978953D01*
X284581600Y-130823905D01*
X284800000Y-130605506D01*
X285019001Y-130824506D01*
X285019000Y-131740769D01*
X285005072Y-131810790D01*
X285019000Y-131880811D01*
X285019000Y-131880815D01*
X285060253Y-132088207D01*
X285217398Y-132323391D01*
X285276762Y-132363057D01*
X288190293Y-135276589D01*
X288171000Y-135323167D01*
X288171000Y-135676833D01*
X288306342Y-136003578D01*
X288556422Y-136253658D01*
X288883167Y-136389000D01*
X289236833Y-136389000D01*
X289563578Y-136253658D01*
X289813658Y-136003578D01*
X289949000Y-135676833D01*
X289949000Y-135323167D01*
X289813658Y-134996422D01*
X289741948Y-134924712D01*
X289729747Y-134863372D01*
X289572602Y-134628188D01*
X289513239Y-134588523D01*
X286441000Y-131516285D01*
X286441000Y-130600022D01*
X286454928Y-130530000D01*
X286441000Y-130459978D01*
X286441000Y-130459974D01*
X286399747Y-130252582D01*
X286399747Y-130252581D01*
X286282269Y-130076763D01*
X286282267Y-130076761D01*
X286242602Y-130017398D01*
X286183238Y-129977732D01*
X285689000Y-129483495D01*
X285689000Y-129423167D01*
X285553658Y-129096422D01*
X285303578Y-128846342D01*
X284976833Y-128711000D01*
X284623167Y-128711000D01*
X284581600Y-128728218D01*
X284581600Y-128220492D01*
X290379114Y-128220492D01*
X290625417Y-128744958D01*
X291053676Y-129135245D01*
X291463710Y-129305076D01*
X291693600Y-129183755D01*
X291693600Y-127990600D01*
X290499781Y-127990600D01*
X290379114Y-128220492D01*
X284581600Y-128220492D01*
X284581600Y-127506708D01*
X290379114Y-127506708D01*
X290499781Y-127736600D01*
X291693600Y-127736600D01*
X291693600Y-126543445D01*
X291947600Y-126543445D01*
X291947600Y-127736600D01*
X291967600Y-127736600D01*
X291967600Y-127990600D01*
X291947600Y-127990600D01*
X291947600Y-129183755D01*
X292177490Y-129305076D01*
X292587524Y-129135245D01*
X292891861Y-128857892D01*
X292912443Y-128961365D01*
X293052791Y-129171409D01*
X293262835Y-129311757D01*
X293510600Y-129361040D01*
X295210600Y-129361040D01*
X295458365Y-129311757D01*
X295668409Y-129171409D01*
X295808757Y-128961365D01*
X295858040Y-128713600D01*
X295858040Y-127013600D01*
X295808757Y-126765835D01*
X295668409Y-126555791D01*
X295458365Y-126415443D01*
X295210600Y-126366160D01*
X293510600Y-126366160D01*
X293262835Y-126415443D01*
X293052791Y-126555791D01*
X292912443Y-126765835D01*
X292891861Y-126869308D01*
X292587524Y-126591955D01*
X292177490Y-126422124D01*
X291947600Y-126543445D01*
X291693600Y-126543445D01*
X291463710Y-126422124D01*
X291053676Y-126591955D01*
X290625417Y-126982242D01*
X290379114Y-127506708D01*
X284581600Y-127506708D01*
X284581600Y-127238154D01*
X284607000Y-127176833D01*
X284607000Y-126823167D01*
X284471658Y-126496422D01*
X284221578Y-126246342D01*
X284073485Y-126185000D01*
X297415001Y-126185000D01*
X297415001Y-131407765D01*
G04 #@! TD*
M02*
