M48
;DRILL file {KiCad (5.0.0)} date 05/02/19 19:16:34
;FORMAT={-:-/ absolute / inch / decimal}
FMAT,2
INCH,TZ
T1C0.0130
%
G90
G05
M72
T1
X10.5882Y-5.596
X10.59Y-5.339
X10.6051Y-4.6823
X10.6327Y-5.5161
X10.6447Y-4.4872
X10.6465Y-4.6039
X10.6472Y-5.6635
X10.679Y-5.6816
X10.8102Y-5.0965
X10.8126Y-5.3941
X10.8315Y-5.1567
X10.8984Y-5.0559
X10.9852Y-5.0935
X10.987Y-5.0591
X11.0189Y-5.6713
X11.0563Y-5.6236
X11.0583Y-5.4
X11.0669Y-5.5819
X11.0945Y-4.6742
X11.0955Y-4.7972
X11.0972Y-5.2552
X11.0987Y-5.194
X11.1187Y-5.2289
X11.1198Y-5.1729
X11.1599Y-5.1726
X11.1683Y-4.6634
X11.174Y-5.428
X11.178Y-5.0602
X11.1791Y-4.7421
X11.1807Y-4.9752
X11.1882Y-5.3417
X11.2098Y-4.872
X11.2327Y-5.3965
X11.3008Y-5.0217
X11.3142Y-5.1744
X11.3169Y-4.8732
X11.3283Y-5.5051
X11.3378Y-5.31
X11.3409Y-5.2008
X11.3461Y-4.9504
X11.3476Y-5.3654
X11.352Y-5.5567
X11.3783Y-4.7768
X11.3803Y-5.3346
X11.3984Y-5.5323
X11.4118Y-5.6709
X11.4173Y-5.7091
X11.4185Y-4.8268
X11.4185Y-5.1673
X11.4433Y-5.1858
X11.4488Y-4.7382
X11.4691Y-4.3928
X11.4756Y-5.0512
X11.511Y-5.587
X11.5118Y-5.3409
X11.5122Y-5.387
X11.5161Y-5.4752
X11.5177Y-4.4429
X11.5189Y-5.5118
X11.5226Y-4.5177
X11.5783Y-4.6244
X11.5969Y-4.9701
X11.6205Y-5.2531
X11.624Y-5.3205
X11.6812Y-5.4244
X11.6815Y-5.1953
T0
M30
