M48
;DRILL file {KiCad (5.0.0)} date 09/03/18 22:45:51
;FORMAT={-:-/ absolute / inch / decimal}
FMAT,2
INCH,TZ
T1C0.0130
T2C0.0394
T3C0.0400
%
G90
G05
M72
T1
X10.5882Y-5.596
X10.59Y-5.339
X10.6327Y-5.5161
X10.6772Y-5.6929
X10.8102Y-5.0965
X10.8126Y-5.3941
X10.8217Y-5.6445
X10.8315Y-5.1567
X10.8984Y-5.0559
X10.987Y-5.0591
X11.0236Y-5.6406
X11.0583Y-5.4
X11.064Y-5.5133
X11.0669Y-5.5819
X11.1228Y-5.4661
X11.17Y-5.
X11.1713Y-5.2543
X11.1713Y-5.448
X11.2106Y-5.1969
X11.2126Y-5.1024
X11.2579Y-5.4252
X11.3283Y-5.5051
X11.3416Y-5.0217
X11.352Y-5.5567
X11.3803Y-5.3346
X11.3984Y-5.5323
X11.4118Y-5.6709
X11.4173Y-5.7091
X11.4433Y-5.1858
X11.5118Y-5.3409
X11.5122Y-5.387
X11.5161Y-5.4752
X11.5189Y-5.5118
X11.624Y-5.3205
X11.6291Y-5.2335
X11.6812Y-5.4244
X11.6815Y-5.1953
T2
X11.6531Y-5.5894
X11.6531Y-5.6894
X11.489Y-5.034
X11.589Y-5.034
T3
X11.0827Y-5.0008
X11.0827Y-5.1008
X11.511Y-5.587
X11.511Y-5.687
T0
M30
