G04 #@! TF.GenerationSoftware,KiCad,Pcbnew,(5.0.0)*
G04 #@! TF.CreationDate,2019-05-02T19:16:33-04:00*
G04 #@! TF.ProjectId,GSR_v1,4753525F76312E6B696361645F706362,rev?*
G04 #@! TF.SameCoordinates,Original*
G04 #@! TF.FileFunction,Legend,Bot*
G04 #@! TF.FilePolarity,Positive*
%FSLAX46Y46*%
G04 Gerber Fmt 4.6, Leading zero omitted, Abs format (unit mm)*
G04 Created by KiCad (PCBNEW (5.0.0)) date 05/02/19 19:16:33*
%MOMM*%
%LPD*%
G01*
G04 APERTURE LIST*
%ADD10C,0.127000*%
G04 APERTURE END LIST*
D10*
X282278428Y-138641714D02*
X282278428Y-139149714D01*
X282278428Y-138714285D02*
X282242142Y-138678000D01*
X282169571Y-138641714D01*
X282060714Y-138641714D01*
X281988142Y-138678000D01*
X281951857Y-138750571D01*
X281951857Y-139149714D01*
X281153571Y-139149714D02*
X281407571Y-138786857D01*
X281589000Y-139149714D02*
X281589000Y-138387714D01*
X281298714Y-138387714D01*
X281226142Y-138424000D01*
X281189857Y-138460285D01*
X281153571Y-138532857D01*
X281153571Y-138641714D01*
X281189857Y-138714285D01*
X281226142Y-138750571D01*
X281298714Y-138786857D01*
X281589000Y-138786857D01*
X280573000Y-138750571D02*
X280827000Y-138750571D01*
X280827000Y-139149714D02*
X280827000Y-138387714D01*
X280464142Y-138387714D01*
X279811000Y-138387714D02*
X280173857Y-138387714D01*
X280210142Y-138750571D01*
X280173857Y-138714285D01*
X280101285Y-138678000D01*
X279919857Y-138678000D01*
X279847285Y-138714285D01*
X279811000Y-138750571D01*
X279774714Y-138823142D01*
X279774714Y-139004571D01*
X279811000Y-139077142D01*
X279847285Y-139113428D01*
X279919857Y-139149714D01*
X280101285Y-139149714D01*
X280173857Y-139113428D01*
X280210142Y-139077142D01*
X279484428Y-138460285D02*
X279448142Y-138424000D01*
X279375571Y-138387714D01*
X279194142Y-138387714D01*
X279121571Y-138424000D01*
X279085285Y-138460285D01*
X279049000Y-138532857D01*
X279049000Y-138605428D01*
X279085285Y-138714285D01*
X279520714Y-139149714D01*
X279049000Y-139149714D01*
X278722428Y-138859428D02*
X278141857Y-138859428D01*
X277379857Y-138424000D02*
X277452428Y-138387714D01*
X277561285Y-138387714D01*
X277670142Y-138424000D01*
X277742714Y-138496571D01*
X277779000Y-138569142D01*
X277815285Y-138714285D01*
X277815285Y-138823142D01*
X277779000Y-138968285D01*
X277742714Y-139040857D01*
X277670142Y-139113428D01*
X277561285Y-139149714D01*
X277488714Y-139149714D01*
X277379857Y-139113428D01*
X277343571Y-139077142D01*
X277343571Y-138823142D01*
X277488714Y-138823142D01*
X277053285Y-139113428D02*
X276944428Y-139149714D01*
X276763000Y-139149714D01*
X276690428Y-139113428D01*
X276654142Y-139077142D01*
X276617857Y-139004571D01*
X276617857Y-138932000D01*
X276654142Y-138859428D01*
X276690428Y-138823142D01*
X276763000Y-138786857D01*
X276908142Y-138750571D01*
X276980714Y-138714285D01*
X277017000Y-138678000D01*
X277053285Y-138605428D01*
X277053285Y-138532857D01*
X277017000Y-138460285D01*
X276980714Y-138424000D01*
X276908142Y-138387714D01*
X276726714Y-138387714D01*
X276617857Y-138424000D01*
X275855857Y-139149714D02*
X276109857Y-138786857D01*
X276291285Y-139149714D02*
X276291285Y-138387714D01*
X276001000Y-138387714D01*
X275928428Y-138424000D01*
X275892142Y-138460285D01*
X275855857Y-138532857D01*
X275855857Y-138641714D01*
X275892142Y-138714285D01*
X275928428Y-138750571D01*
X276001000Y-138786857D01*
X276291285Y-138786857D01*
X274731000Y-139440000D02*
X274767285Y-139403714D01*
X274839857Y-139294857D01*
X274876142Y-139222285D01*
X274912428Y-139113428D01*
X274948714Y-138932000D01*
X274948714Y-138786857D01*
X274912428Y-138605428D01*
X274876142Y-138496571D01*
X274839857Y-138424000D01*
X274767285Y-138315142D01*
X274731000Y-138278857D01*
X274513285Y-138641714D02*
X274331857Y-139149714D01*
X274150428Y-138641714D01*
X273533571Y-138387714D02*
X273678714Y-138387714D01*
X273751285Y-138424000D01*
X273787571Y-138460285D01*
X273860142Y-138569142D01*
X273896428Y-138714285D01*
X273896428Y-139004571D01*
X273860142Y-139077142D01*
X273823857Y-139113428D01*
X273751285Y-139149714D01*
X273606142Y-139149714D01*
X273533571Y-139113428D01*
X273497285Y-139077142D01*
X273461000Y-139004571D01*
X273461000Y-138823142D01*
X273497285Y-138750571D01*
X273533571Y-138714285D01*
X273606142Y-138678000D01*
X273751285Y-138678000D01*
X273823857Y-138714285D01*
X273860142Y-138750571D01*
X273896428Y-138823142D01*
X273207000Y-139440000D02*
X273170714Y-139403714D01*
X273098142Y-139294857D01*
X273061857Y-139222285D01*
X273025571Y-139113428D01*
X272989285Y-138932000D01*
X272989285Y-138786857D01*
X273025571Y-138605428D01*
X273061857Y-138496571D01*
X273098142Y-138424000D01*
X273170714Y-138315142D01*
X273207000Y-138278857D01*
X272045857Y-139149714D02*
X272045857Y-138387714D01*
X271755571Y-138387714D01*
X271683000Y-138424000D01*
X271646714Y-138460285D01*
X271610428Y-138532857D01*
X271610428Y-138641714D01*
X271646714Y-138714285D01*
X271683000Y-138750571D01*
X271755571Y-138786857D01*
X272045857Y-138786857D01*
X271283857Y-139149714D02*
X271283857Y-138641714D01*
X271283857Y-138786857D02*
X271247571Y-138714285D01*
X271211285Y-138678000D01*
X271138714Y-138641714D01*
X271066142Y-138641714D01*
X270703285Y-139149714D02*
X270775857Y-139113428D01*
X270812142Y-139077142D01*
X270848428Y-139004571D01*
X270848428Y-138786857D01*
X270812142Y-138714285D01*
X270775857Y-138678000D01*
X270703285Y-138641714D01*
X270594428Y-138641714D01*
X270521857Y-138678000D01*
X270485571Y-138714285D01*
X270449285Y-138786857D01*
X270449285Y-139004571D01*
X270485571Y-139077142D01*
X270521857Y-139113428D01*
X270594428Y-139149714D01*
X270703285Y-139149714D01*
X270231571Y-138641714D02*
X269941285Y-138641714D01*
X270122714Y-138387714D02*
X270122714Y-139040857D01*
X270086428Y-139113428D01*
X270013857Y-139149714D01*
X269941285Y-139149714D01*
X269578428Y-139149714D02*
X269651000Y-139113428D01*
X269687285Y-139077142D01*
X269723571Y-139004571D01*
X269723571Y-138786857D01*
X269687285Y-138714285D01*
X269651000Y-138678000D01*
X269578428Y-138641714D01*
X269469571Y-138641714D01*
X269397000Y-138678000D01*
X269360714Y-138714285D01*
X269324428Y-138786857D01*
X269324428Y-139004571D01*
X269360714Y-139077142D01*
X269397000Y-139113428D01*
X269469571Y-139149714D01*
X269578428Y-139149714D01*
X269106714Y-138641714D02*
X268816428Y-138641714D01*
X268997857Y-138387714D02*
X268997857Y-139040857D01*
X268961571Y-139113428D01*
X268889000Y-139149714D01*
X268816428Y-139149714D01*
X268635000Y-138641714D02*
X268453571Y-139149714D01*
X268272142Y-138641714D02*
X268453571Y-139149714D01*
X268526142Y-139331142D01*
X268562428Y-139367428D01*
X268635000Y-139403714D01*
X267981857Y-138641714D02*
X267981857Y-139403714D01*
X267981857Y-138678000D02*
X267909285Y-138641714D01*
X267764142Y-138641714D01*
X267691571Y-138678000D01*
X267655285Y-138714285D01*
X267619000Y-138786857D01*
X267619000Y-139004571D01*
X267655285Y-139077142D01*
X267691571Y-139113428D01*
X267764142Y-139149714D01*
X267909285Y-139149714D01*
X267981857Y-139113428D01*
X267002142Y-139113428D02*
X267074714Y-139149714D01*
X267219857Y-139149714D01*
X267292428Y-139113428D01*
X267328714Y-139040857D01*
X267328714Y-138750571D01*
X267292428Y-138678000D01*
X267219857Y-138641714D01*
X267074714Y-138641714D01*
X267002142Y-138678000D01*
X266965857Y-138750571D01*
X266965857Y-138823142D01*
X267328714Y-138895714D01*
X277724571Y-139657714D02*
X277652000Y-139657714D01*
X277579428Y-139694000D01*
X277543142Y-139730285D01*
X277506857Y-139802857D01*
X277470571Y-139948000D01*
X277470571Y-140129428D01*
X277506857Y-140274571D01*
X277543142Y-140347142D01*
X277579428Y-140383428D01*
X277652000Y-140419714D01*
X277724571Y-140419714D01*
X277797142Y-140383428D01*
X277833428Y-140347142D01*
X277869714Y-140274571D01*
X277906000Y-140129428D01*
X277906000Y-139948000D01*
X277869714Y-139802857D01*
X277833428Y-139730285D01*
X277797142Y-139694000D01*
X277724571Y-139657714D01*
X276781142Y-139657714D02*
X277144000Y-139657714D01*
X277180285Y-140020571D01*
X277144000Y-139984285D01*
X277071428Y-139948000D01*
X276890000Y-139948000D01*
X276817428Y-139984285D01*
X276781142Y-140020571D01*
X276744857Y-140093142D01*
X276744857Y-140274571D01*
X276781142Y-140347142D01*
X276817428Y-140383428D01*
X276890000Y-140419714D01*
X277071428Y-140419714D01*
X277144000Y-140383428D01*
X277180285Y-140347142D01*
X275874000Y-139621428D02*
X276527142Y-140601142D01*
X275474857Y-139657714D02*
X275402285Y-139657714D01*
X275329714Y-139694000D01*
X275293428Y-139730285D01*
X275257142Y-139802857D01*
X275220857Y-139948000D01*
X275220857Y-140129428D01*
X275257142Y-140274571D01*
X275293428Y-140347142D01*
X275329714Y-140383428D01*
X275402285Y-140419714D01*
X275474857Y-140419714D01*
X275547428Y-140383428D01*
X275583714Y-140347142D01*
X275620000Y-140274571D01*
X275656285Y-140129428D01*
X275656285Y-139948000D01*
X275620000Y-139802857D01*
X275583714Y-139730285D01*
X275547428Y-139694000D01*
X275474857Y-139657714D01*
X274930571Y-139730285D02*
X274894285Y-139694000D01*
X274821714Y-139657714D01*
X274640285Y-139657714D01*
X274567714Y-139694000D01*
X274531428Y-139730285D01*
X274495142Y-139802857D01*
X274495142Y-139875428D01*
X274531428Y-139984285D01*
X274966857Y-140419714D01*
X274495142Y-140419714D01*
X273624285Y-139621428D02*
X274277428Y-140601142D01*
X273406571Y-139730285D02*
X273370285Y-139694000D01*
X273297714Y-139657714D01*
X273116285Y-139657714D01*
X273043714Y-139694000D01*
X273007428Y-139730285D01*
X272971142Y-139802857D01*
X272971142Y-139875428D01*
X273007428Y-139984285D01*
X273442857Y-140419714D01*
X272971142Y-140419714D01*
X272499428Y-139657714D02*
X272426857Y-139657714D01*
X272354285Y-139694000D01*
X272318000Y-139730285D01*
X272281714Y-139802857D01*
X272245428Y-139948000D01*
X272245428Y-140129428D01*
X272281714Y-140274571D01*
X272318000Y-140347142D01*
X272354285Y-140383428D01*
X272426857Y-140419714D01*
X272499428Y-140419714D01*
X272572000Y-140383428D01*
X272608285Y-140347142D01*
X272644571Y-140274571D01*
X272680857Y-140129428D01*
X272680857Y-139948000D01*
X272644571Y-139802857D01*
X272608285Y-139730285D01*
X272572000Y-139694000D01*
X272499428Y-139657714D01*
X271519714Y-140419714D02*
X271955142Y-140419714D01*
X271737428Y-140419714D02*
X271737428Y-139657714D01*
X271810000Y-139766571D01*
X271882571Y-139839142D01*
X271955142Y-139875428D01*
X271156857Y-140419714D02*
X271011714Y-140419714D01*
X270939142Y-140383428D01*
X270902857Y-140347142D01*
X270830285Y-140238285D01*
X270794000Y-140093142D01*
X270794000Y-139802857D01*
X270830285Y-139730285D01*
X270866571Y-139694000D01*
X270939142Y-139657714D01*
X271084285Y-139657714D01*
X271156857Y-139694000D01*
X271193142Y-139730285D01*
X271229428Y-139802857D01*
X271229428Y-139984285D01*
X271193142Y-140056857D01*
X271156857Y-140093142D01*
X271084285Y-140129428D01*
X270939142Y-140129428D01*
X270866571Y-140093142D01*
X270830285Y-140056857D01*
X270794000Y-139984285D01*
X280028714Y-141326857D02*
X280028714Y-141689714D01*
X280282714Y-140927714D02*
X280028714Y-141326857D01*
X279774714Y-140927714D01*
X279230428Y-141653428D02*
X279303000Y-141689714D01*
X279448142Y-141689714D01*
X279520714Y-141653428D01*
X279557000Y-141580857D01*
X279557000Y-141290571D01*
X279520714Y-141218000D01*
X279448142Y-141181714D01*
X279303000Y-141181714D01*
X279230428Y-141218000D01*
X279194142Y-141290571D01*
X279194142Y-141363142D01*
X279557000Y-141435714D01*
X278758714Y-141689714D02*
X278831285Y-141653428D01*
X278867571Y-141617142D01*
X278903857Y-141544571D01*
X278903857Y-141326857D01*
X278867571Y-141254285D01*
X278831285Y-141218000D01*
X278758714Y-141181714D01*
X278649857Y-141181714D01*
X278577285Y-141218000D01*
X278541000Y-141254285D01*
X278504714Y-141326857D01*
X278504714Y-141544571D01*
X278541000Y-141617142D01*
X278577285Y-141653428D01*
X278649857Y-141689714D01*
X278758714Y-141689714D01*
X277198428Y-140964000D02*
X277271000Y-140927714D01*
X277379857Y-140927714D01*
X277488714Y-140964000D01*
X277561285Y-141036571D01*
X277597571Y-141109142D01*
X277633857Y-141254285D01*
X277633857Y-141363142D01*
X277597571Y-141508285D01*
X277561285Y-141580857D01*
X277488714Y-141653428D01*
X277379857Y-141689714D01*
X277307285Y-141689714D01*
X277198428Y-141653428D01*
X277162142Y-141617142D01*
X277162142Y-141363142D01*
X277307285Y-141363142D01*
X276509000Y-141689714D02*
X276509000Y-141290571D01*
X276545285Y-141218000D01*
X276617857Y-141181714D01*
X276763000Y-141181714D01*
X276835571Y-141218000D01*
X276509000Y-141653428D02*
X276581571Y-141689714D01*
X276763000Y-141689714D01*
X276835571Y-141653428D01*
X276871857Y-141580857D01*
X276871857Y-141508285D01*
X276835571Y-141435714D01*
X276763000Y-141399428D01*
X276581571Y-141399428D01*
X276509000Y-141363142D01*
X276255000Y-140927714D02*
X275819571Y-140927714D01*
X276037285Y-141689714D02*
X276037285Y-140927714D01*
X275275285Y-141653428D02*
X275347857Y-141689714D01*
X275493000Y-141689714D01*
X275565571Y-141653428D01*
X275601857Y-141580857D01*
X275601857Y-141290571D01*
X275565571Y-141218000D01*
X275493000Y-141181714D01*
X275347857Y-141181714D01*
X275275285Y-141218000D01*
X275239000Y-141290571D01*
X275239000Y-141363142D01*
X275601857Y-141435714D01*
X274585857Y-141653428D02*
X274658428Y-141689714D01*
X274803571Y-141689714D01*
X274876142Y-141653428D01*
X274912428Y-141617142D01*
X274948714Y-141544571D01*
X274948714Y-141326857D01*
X274912428Y-141254285D01*
X274876142Y-141218000D01*
X274803571Y-141181714D01*
X274658428Y-141181714D01*
X274585857Y-141218000D01*
X274259285Y-141689714D02*
X274259285Y-140927714D01*
X273932714Y-141689714D02*
X273932714Y-141290571D01*
X273969000Y-141218000D01*
X274041571Y-141181714D01*
X274150428Y-141181714D01*
X274223000Y-141218000D01*
X274259285Y-141254285D01*
X272735285Y-141290571D02*
X272626428Y-141326857D01*
X272590142Y-141363142D01*
X272553857Y-141435714D01*
X272553857Y-141544571D01*
X272590142Y-141617142D01*
X272626428Y-141653428D01*
X272699000Y-141689714D01*
X272989285Y-141689714D01*
X272989285Y-140927714D01*
X272735285Y-140927714D01*
X272662714Y-140964000D01*
X272626428Y-141000285D01*
X272590142Y-141072857D01*
X272590142Y-141145428D01*
X272626428Y-141218000D01*
X272662714Y-141254285D01*
X272735285Y-141290571D01*
X272989285Y-141290571D01*
X272227285Y-141689714D02*
X272227285Y-140927714D01*
X271791857Y-141689714D01*
X271791857Y-140927714D01*
X271429000Y-141290571D02*
X271175000Y-141290571D01*
X271066142Y-141689714D02*
X271429000Y-141689714D01*
X271429000Y-140927714D01*
X271066142Y-140927714D01*
X269796142Y-141689714D02*
X270159000Y-141689714D01*
X270159000Y-140927714D01*
X269215571Y-141689714D02*
X269215571Y-141290571D01*
X269251857Y-141218000D01*
X269324428Y-141181714D01*
X269469571Y-141181714D01*
X269542142Y-141218000D01*
X269215571Y-141653428D02*
X269288142Y-141689714D01*
X269469571Y-141689714D01*
X269542142Y-141653428D01*
X269578428Y-141580857D01*
X269578428Y-141508285D01*
X269542142Y-141435714D01*
X269469571Y-141399428D01*
X269288142Y-141399428D01*
X269215571Y-141363142D01*
X268852714Y-141689714D02*
X268852714Y-140927714D01*
X268852714Y-141218000D02*
X268780142Y-141181714D01*
X268635000Y-141181714D01*
X268562428Y-141218000D01*
X268526142Y-141254285D01*
X268489857Y-141326857D01*
X268489857Y-141544571D01*
X268526142Y-141617142D01*
X268562428Y-141653428D01*
X268635000Y-141689714D01*
X268780142Y-141689714D01*
X268852714Y-141653428D01*
M02*
