G04 #@! TF.GenerationSoftware,KiCad,Pcbnew,(5.0.0)*
G04 #@! TF.CreationDate,2019-04-01T16:27:23-04:00*
G04 #@! TF.ProjectId,GSR_v1,4753525F76312E6B696361645F706362,rev?*
G04 #@! TF.SameCoordinates,Original*
G04 #@! TF.FileFunction,Copper,L1,Top,Signal*
G04 #@! TF.FilePolarity,Positive*
%FSLAX46Y46*%
G04 Gerber Fmt 4.6, Leading zero omitted, Abs format (unit mm)*
G04 Created by KiCad (PCBNEW (5.0.0)) date 04/01/19 16:27:23*
%MOMM*%
%LPD*%
G01*
G04 APERTURE LIST*
G04 #@! TA.AperFunction,SMDPad,CuDef*
%ADD10R,0.599440X0.398780*%
G04 #@! TD*
G04 #@! TA.AperFunction,SMDPad,CuDef*
%ADD11R,1.070000X1.070000*%
G04 #@! TD*
G04 #@! TA.AperFunction,SMDPad,CuDef*
%ADD12O,0.280000X0.800000*%
G04 #@! TD*
G04 #@! TA.AperFunction,SMDPad,CuDef*
%ADD13O,0.800000X0.280000*%
G04 #@! TD*
G04 #@! TA.AperFunction,SMDPad,CuDef*
%ADD14O,1.700000X1.700000*%
G04 #@! TD*
G04 #@! TA.AperFunction,SMDPad,CuDef*
%ADD15R,1.700000X1.700000*%
G04 #@! TD*
G04 #@! TA.AperFunction,SMDPad,CuDef*
%ADD16R,0.398780X0.599440*%
G04 #@! TD*
G04 #@! TA.AperFunction,SMDPad,CuDef*
%ADD17R,0.650000X0.350000*%
G04 #@! TD*
G04 #@! TA.AperFunction,SMDPad,CuDef*
%ADD18R,1.000000X0.800000*%
G04 #@! TD*
G04 #@! TA.AperFunction,SMDPad,CuDef*
%ADD19R,4.630000X0.500000*%
G04 #@! TD*
G04 #@! TA.AperFunction,SMDPad,CuDef*
%ADD20R,0.850000X1.200000*%
G04 #@! TD*
G04 #@! TA.AperFunction,SMDPad,CuDef*
%ADD21R,0.750000X0.650000*%
G04 #@! TD*
G04 #@! TA.AperFunction,SMDPad,CuDef*
%ADD22R,0.850000X0.950000*%
G04 #@! TD*
G04 #@! TA.AperFunction,SMDPad,CuDef*
%ADD23R,1.150000X0.745000*%
G04 #@! TD*
G04 #@! TA.AperFunction,SMDPad,CuDef*
%ADD24R,0.700000X0.700000*%
G04 #@! TD*
G04 #@! TA.AperFunction,SMDPad,CuDef*
%ADD25R,0.635000X1.143000*%
G04 #@! TD*
G04 #@! TA.AperFunction,SMDPad,CuDef*
%ADD26R,0.650000X0.400000*%
G04 #@! TD*
G04 #@! TA.AperFunction,SMDPad,CuDef*
%ADD27R,0.800000X0.800000*%
G04 #@! TD*
G04 #@! TA.AperFunction,SMDPad,CuDef*
%ADD28R,0.300000X0.650000*%
G04 #@! TD*
G04 #@! TA.AperFunction,SMDPad,CuDef*
%ADD29R,1.240000X0.775000*%
G04 #@! TD*
G04 #@! TA.AperFunction,SMDPad,CuDef*
%ADD30R,0.700000X0.300000*%
G04 #@! TD*
G04 #@! TA.AperFunction,SMDPad,CuDef*
%ADD31R,0.600000X0.600000*%
G04 #@! TD*
G04 #@! TA.AperFunction,SMDPad,CuDef*
%ADD32R,0.900000X0.800000*%
G04 #@! TD*
G04 #@! TA.AperFunction,SMDPad,CuDef*
%ADD33R,0.800000X1.600000*%
G04 #@! TD*
G04 #@! TA.AperFunction,SMDPad,CuDef*
%ADD34R,0.200000X0.800000*%
G04 #@! TD*
G04 #@! TA.AperFunction,SMDPad,CuDef*
%ADD35R,0.800000X0.200000*%
G04 #@! TD*
G04 #@! TA.AperFunction,SMDPad,CuDef*
%ADD36R,1.112500X1.112500*%
G04 #@! TD*
G04 #@! TA.AperFunction,SMDPad,CuDef*
%ADD37R,0.600000X1.100000*%
G04 #@! TD*
G04 #@! TA.AperFunction,SMDPad,CuDef*
%ADD38R,0.750000X0.300000*%
G04 #@! TD*
G04 #@! TA.AperFunction,SMDPad,CuDef*
%ADD39R,0.875000X0.725000*%
G04 #@! TD*
G04 #@! TA.AperFunction,SMDPad,CuDef*
%ADD40R,0.400000X0.700000*%
G04 #@! TD*
G04 #@! TA.AperFunction,SMDPad,CuDef*
%ADD41R,0.400000X0.250000*%
G04 #@! TD*
G04 #@! TA.AperFunction,Conductor*
%ADD42C,0.150000*%
G04 #@! TD*
G04 #@! TA.AperFunction,SMDPad,CuDef*
%ADD43C,0.300000*%
G04 #@! TD*
G04 #@! TA.AperFunction,SMDPad,CuDef*
%ADD44R,0.450000X1.475000*%
G04 #@! TD*
G04 #@! TA.AperFunction,SMDPad,CuDef*
%ADD45R,0.400000X0.650000*%
G04 #@! TD*
G04 #@! TA.AperFunction,SMDPad,CuDef*
%ADD46R,0.900000X0.700000*%
G04 #@! TD*
G04 #@! TA.AperFunction,SMDPad,CuDef*
%ADD47R,0.600000X0.510000*%
G04 #@! TD*
G04 #@! TA.AperFunction,ViaPad*
%ADD48C,0.508000*%
G04 #@! TD*
G04 #@! TA.AperFunction,Conductor*
%ADD49C,0.152000*%
G04 #@! TD*
G04 #@! TA.AperFunction,Conductor*
%ADD50C,0.457200*%
G04 #@! TD*
G04 #@! TA.AperFunction,Conductor*
%ADD51C,0.460000*%
G04 #@! TD*
G04 #@! TA.AperFunction,Conductor*
%ADD52C,0.229000*%
G04 #@! TD*
G04 #@! TA.AperFunction,Conductor*
%ADD53C,0.152400*%
G04 #@! TD*
G04 #@! TA.AperFunction,Conductor*
%ADD54C,0.254000*%
G04 #@! TD*
G04 APERTURE END LIST*
D10*
G04 #@! TO.P,R19,1*
G04 #@! TO.N,/AD5242_SCL*
X290940000Y-122259580D03*
G04 #@! TO.P,R19,2*
G04 #@! TO.N,DVDD*
X290940000Y-121360420D03*
G04 #@! TD*
G04 #@! TO.P,R4,2*
G04 #@! TO.N,DVDD*
X289990000Y-120820420D03*
G04 #@! TO.P,R4,1*
G04 #@! TO.N,/AD5242_SDA*
X289990000Y-121719580D03*
G04 #@! TD*
D11*
G04 #@! TO.P,U7,17*
G04 #@! TO.N,DGND*
X285160000Y-129540000D03*
X285160000Y-130610000D03*
X286230000Y-129540000D03*
X286230000Y-130610000D03*
D12*
G04 #@! TO.P,U7,16*
G04 #@! TO.N,/SPI_~CS*
X286445000Y-131825000D03*
G04 #@! TO.P,U7,15*
G04 #@! TO.N,/SPI_SCLK*
X285945000Y-131825000D03*
G04 #@! TO.P,U7,14*
G04 #@! TO.N,/DIN*
X285445000Y-131825000D03*
G04 #@! TO.P,U7,13*
G04 #@! TO.N,/DOUT*
X284945000Y-131825000D03*
D13*
G04 #@! TO.P,U7,12*
G04 #@! TO.N,/~DRDY*
X283945000Y-130825000D03*
G04 #@! TO.P,U7,11*
G04 #@! TO.N,DVDD*
X283945000Y-130325000D03*
G04 #@! TO.P,U7,10*
G04 #@! TO.N,AVDD*
X283945000Y-129825000D03*
G04 #@! TO.P,U7,9*
G04 #@! TO.N,/ADC_AIN0*
X283945000Y-129325000D03*
D12*
G04 #@! TO.P,U7,8*
G04 #@! TO.N,DGND*
X284945000Y-128325000D03*
G04 #@! TO.P,U7,7*
G04 #@! TO.N,Net-(U7-Pad7)*
X285445000Y-128325000D03*
G04 #@! TO.P,U7,6*
G04 #@! TO.N,Net-(U7-Pad6)*
X285945000Y-128325000D03*
G04 #@! TO.P,U7,5*
G04 #@! TO.N,Net-(U7-Pad5)*
X286445000Y-128325000D03*
D13*
G04 #@! TO.P,U7,4*
G04 #@! TO.N,Net-(U7-Pad4)*
X287445000Y-129325000D03*
G04 #@! TO.P,U7,3*
G04 #@! TO.N,DGND*
X287445000Y-129825000D03*
G04 #@! TO.P,U7,2*
X287445000Y-130325000D03*
G04 #@! TO.P,U7,1*
X287445000Y-130825000D03*
G04 #@! TD*
D14*
G04 #@! TO.P,P4,2*
G04 #@! TO.N,DGND*
X297810000Y-127240000D03*
D15*
G04 #@! TO.P,P4,1*
G04 #@! TO.N,/ELECTRODE_INPUT*
X297810000Y-129780000D03*
G04 #@! TD*
D10*
G04 #@! TO.P,C14,1*
G04 #@! TO.N,Net-(C14-Pad1)*
X277190000Y-143120000D03*
G04 #@! TO.P,C14,2*
G04 #@! TO.N,DGND*
X277190000Y-142220840D03*
G04 #@! TD*
D16*
G04 #@! TO.P,R5,1*
G04 #@! TO.N,/AIN_BAT_DIV_VOLTAGE*
X278150840Y-140150000D03*
G04 #@! TO.P,R5,2*
G04 #@! TO.N,Net-(C14-Pad1)*
X279050000Y-140150000D03*
G04 #@! TD*
D17*
G04 #@! TO.P,U4,1*
G04 #@! TO.N,/TMP_SCL*
X287680000Y-123160000D03*
G04 #@! TO.P,U4,2*
G04 #@! TO.N,DGND*
X287680000Y-122510000D03*
G04 #@! TO.P,U4,3*
G04 #@! TO.N,/TMP_ALERT*
X287680000Y-121860000D03*
G04 #@! TO.P,U4,4*
G04 #@! TO.N,DGND*
X285580000Y-121860000D03*
G04 #@! TO.P,U4,5*
G04 #@! TO.N,DVDD*
X285580000Y-122510000D03*
G04 #@! TO.P,U4,6*
G04 #@! TO.N,/TMP_SDA*
X285580000Y-123160000D03*
D18*
G04 #@! TO.P,U4,7*
G04 #@! TO.N,DGND*
X286630000Y-122110000D03*
X286630000Y-122910000D03*
G04 #@! TD*
D19*
G04 #@! TO.P,J1,17*
G04 #@! TO.N,N/C*
X271285000Y-110622500D03*
D20*
G04 #@! TO.P,J1,16*
X281245000Y-123717500D03*
D21*
G04 #@! TO.P,J1,15*
X281295000Y-120580000D03*
G04 #@! TO.P,J1,14*
X281295000Y-114230000D03*
D20*
G04 #@! TO.P,J1,13*
X281245000Y-112992500D03*
D22*
G04 #@! TO.P,J1,12*
X266595000Y-124280000D03*
D23*
G04 #@! TO.P,J1,11*
G04 #@! TO.N,DGND*
X266645000Y-111245000D03*
D24*
G04 #@! TO.P,J1,10*
X268170000Y-118430000D03*
G04 #@! TO.P,J1,9*
X268170000Y-114430000D03*
G04 #@! TO.P,J1,8*
G04 #@! TO.N,/DAT1_UNUSED*
X269370000Y-112930000D03*
G04 #@! TO.P,J1,7*
G04 #@! TO.N,/DAT0_MISO*
X269370000Y-113930000D03*
G04 #@! TO.P,J1,6*
G04 #@! TO.N,DGND*
X269370000Y-114930000D03*
G04 #@! TO.P,J1,5*
G04 #@! TO.N,/uSD_CLK*
X269370000Y-115930000D03*
G04 #@! TO.P,J1,4*
G04 #@! TO.N,DVDD*
X269370000Y-116930000D03*
G04 #@! TO.P,J1,3*
G04 #@! TO.N,/CMD_MOSI*
X269370000Y-117930000D03*
G04 #@! TO.P,J1,2*
G04 #@! TO.N,/DAT3_CS*
X269370000Y-118930000D03*
G04 #@! TO.P,J1,1*
G04 #@! TO.N,/DAT2_UNUSED*
X269370000Y-119930000D03*
G04 #@! TD*
D16*
G04 #@! TO.P,C8,1*
G04 #@! TO.N,AVDD*
X283670420Y-126960000D03*
G04 #@! TO.P,C8,2*
G04 #@! TO.N,DGND*
X284569580Y-126960000D03*
G04 #@! TD*
D10*
G04 #@! TO.P,C7,1*
G04 #@! TO.N,DVDD*
X285710000Y-126130000D03*
G04 #@! TO.P,C7,2*
G04 #@! TO.N,DGND*
X285710000Y-127029160D03*
G04 #@! TD*
G04 #@! TO.P,C10,2*
G04 #@! TO.N,DGND*
X287830000Y-126930840D03*
G04 #@! TO.P,C10,1*
G04 #@! TO.N,AVDD*
X287830000Y-127830000D03*
G04 #@! TD*
D16*
G04 #@! TO.P,C9,2*
G04 #@! TO.N,DGND*
X289281268Y-125776074D03*
G04 #@! TO.P,C9,1*
G04 #@! TO.N,VCC*
X290180428Y-125776074D03*
G04 #@! TD*
D25*
G04 #@! TO.P,L2,2*
G04 #@! TO.N,VCC*
X290041268Y-130246074D03*
G04 #@! TO.P,L2,1*
G04 #@! TO.N,Net-(L2-Pad1)*
X288517268Y-130246074D03*
G04 #@! TD*
D15*
G04 #@! TO.P,P3,1*
G04 #@! TO.N,5V_in_charge*
X296020000Y-144480000D03*
D14*
G04 #@! TO.P,P3,2*
G04 #@! TO.N,DGND*
X296020000Y-141940000D03*
G04 #@! TD*
G04 #@! TO.P,P2,2*
G04 #@! TO.N,/SWDIO*
X281560000Y-126870000D03*
D15*
G04 #@! TO.P,P2,1*
G04 #@! TO.N,/SWDCLK*
X281560000Y-129410000D03*
G04 #@! TD*
G04 #@! TO.P,P1,1*
G04 #@! TO.N,/BATT_IN*
X292420000Y-144480000D03*
D14*
G04 #@! TO.P,P1,2*
G04 #@! TO.N,DGND*
X292420000Y-141940000D03*
G04 #@! TD*
D10*
G04 #@! TO.P,R18,1*
G04 #@! TO.N,/TMP_ALERT*
X288230000Y-124280840D03*
G04 #@! TO.P,R18,2*
G04 #@! TO.N,DVDD*
X288230000Y-125180000D03*
G04 #@! TD*
G04 #@! TO.P,R17,1*
G04 #@! TO.N,/TMP_SCL*
X286880000Y-124250000D03*
G04 #@! TO.P,R17,2*
G04 #@! TO.N,DVDD*
X286880000Y-125149160D03*
G04 #@! TD*
G04 #@! TO.P,R16,1*
G04 #@! TO.N,/TMP_SDA*
X285570000Y-124300000D03*
G04 #@! TO.P,R16,2*
G04 #@! TO.N,DVDD*
X285570000Y-125199160D03*
G04 #@! TD*
G04 #@! TO.P,C6,1*
G04 #@! TO.N,DGND*
X284270420Y-121920420D03*
G04 #@! TO.P,C6,2*
G04 #@! TO.N,DVDD*
X284270420Y-122819580D03*
G04 #@! TD*
G04 #@! TO.P,R15,1*
G04 #@! TO.N,/ADC_AIN0*
X287451800Y-137116820D03*
G04 #@! TO.P,R15,2*
G04 #@! TO.N,Net-(R14-Pad2)*
X287451800Y-138015980D03*
G04 #@! TD*
D16*
G04 #@! TO.P,R14,1*
G04 #@! TO.N,Net-(R11-Pad2)*
X295190420Y-131050000D03*
G04 #@! TO.P,R14,2*
G04 #@! TO.N,Net-(R14-Pad2)*
X296089580Y-131050000D03*
G04 #@! TD*
G04 #@! TO.P,R13,1*
G04 #@! TO.N,Net-(R12-Pad2)*
X289476180Y-138811000D03*
G04 #@! TO.P,R13,2*
G04 #@! TO.N,DGND*
X288577020Y-138811000D03*
G04 #@! TD*
D10*
G04 #@! TO.P,R12,1*
G04 #@! TO.N,Net-(R12-Pad1)*
X291541200Y-139098020D03*
G04 #@! TO.P,R12,2*
G04 #@! TO.N,Net-(R12-Pad2)*
X291541200Y-139997180D03*
G04 #@! TD*
D16*
G04 #@! TO.P,R11,1*
G04 #@! TO.N,Net-(R11-Pad1)*
X293070840Y-131040000D03*
G04 #@! TO.P,R11,2*
G04 #@! TO.N,Net-(R11-Pad2)*
X293970000Y-131040000D03*
G04 #@! TD*
G04 #@! TO.P,R6,1*
G04 #@! TO.N,DGND*
X288500820Y-134315200D03*
G04 #@! TO.P,R6,2*
G04 #@! TO.N,Net-(R3-Pad1)*
X289399980Y-134315200D03*
G04 #@! TD*
G04 #@! TO.P,R3,1*
G04 #@! TO.N,Net-(R3-Pad1)*
X288358580Y-133121400D03*
G04 #@! TO.P,R3,2*
G04 #@! TO.N,/RT_1*
X287459420Y-133121400D03*
G04 #@! TD*
D10*
G04 #@! TO.P,R2,1*
G04 #@! TO.N,DGND*
X287477200Y-135221980D03*
G04 #@! TO.P,R2,2*
G04 #@! TO.N,/RT_1*
X287477200Y-134322820D03*
G04 #@! TD*
G04 #@! TO.P,R1,1*
G04 #@! TO.N,/RT_1*
X286283400Y-134399020D03*
G04 #@! TO.P,R1,2*
G04 #@! TO.N,DVDD*
X286283400Y-135298180D03*
G04 #@! TD*
G04 #@! TO.P,C5,1*
G04 #@! TO.N,DGND*
X286054800Y-136100820D03*
G04 #@! TO.P,C5,2*
G04 #@! TO.N,/ADC_AIN0*
X286054800Y-136999980D03*
G04 #@! TD*
G04 #@! TO.P,C4,1*
G04 #@! TO.N,DVDD*
X283720000Y-136340840D03*
G04 #@! TO.P,C4,2*
G04 #@! TO.N,DGND*
X283720000Y-137240000D03*
G04 #@! TD*
G04 #@! TO.P,C3,1*
G04 #@! TO.N,DGND*
X285070000Y-135809580D03*
G04 #@! TO.P,C3,2*
G04 #@! TO.N,/RT_1*
X285070000Y-134910420D03*
G04 #@! TD*
D26*
G04 #@! TO.P,U5,1*
G04 #@! TO.N,Net-(C14-Pad1)*
X275900000Y-143360000D03*
G04 #@! TO.P,U5,3*
G04 #@! TO.N,Net-(R8-Pad1)*
X275900000Y-142060000D03*
G04 #@! TO.P,U5,2*
G04 #@! TO.N,DGND*
X275900000Y-142710000D03*
G04 #@! TO.P,U5,4*
G04 #@! TO.N,/LOAD_SW_CTRL*
X274000000Y-142060000D03*
G04 #@! TO.P,U5,5*
G04 #@! TO.N,/LOAD_IN*
X274000000Y-143360000D03*
G04 #@! TD*
D27*
G04 #@! TO.P,D4,2*
G04 #@! TO.N,5V_in_charge*
X289520000Y-142980000D03*
G04 #@! TO.P,D4,1*
G04 #@! TO.N,/LOAD_IN*
X289520000Y-141380000D03*
G04 #@! TD*
D16*
G04 #@! TO.P,C18,1*
G04 #@! TO.N,DGND*
X288310420Y-144010000D03*
G04 #@! TO.P,C18,2*
G04 #@! TO.N,/LOAD_IN*
X289209580Y-144010000D03*
G04 #@! TD*
G04 #@! TO.P,R10,1*
G04 #@! TO.N,5V_in_charge*
X286530420Y-144010000D03*
G04 #@! TO.P,R10,2*
G04 #@! TO.N,DGND*
X287429580Y-144010000D03*
G04 #@! TD*
G04 #@! TO.P,C16,1*
G04 #@! TO.N,5V_in_charge*
X285590000Y-144010000D03*
G04 #@! TO.P,C16,2*
G04 #@! TO.N,DGND*
X284690840Y-144010000D03*
G04 #@! TD*
D10*
G04 #@! TO.P,R9,1*
G04 #@! TO.N,Net-(R9-Pad1)*
X282140000Y-142639580D03*
G04 #@! TO.P,R9,2*
G04 #@! TO.N,DGND*
X282140000Y-141740420D03*
G04 #@! TD*
G04 #@! TO.P,C17,1*
G04 #@! TO.N,/BATT_IN*
X287490000Y-141469580D03*
G04 #@! TO.P,C17,2*
G04 #@! TO.N,DGND*
X287490000Y-140570420D03*
G04 #@! TD*
D27*
G04 #@! TO.P,D3,2*
G04 #@! TO.N,DVDD*
X282240000Y-140050000D03*
G04 #@! TO.P,D3,1*
G04 #@! TO.N,Net-(D3-Pad1)*
X283840000Y-140050000D03*
G04 #@! TD*
D10*
G04 #@! TO.P,C22,1*
G04 #@! TO.N,DVDD*
X282587400Y-136355220D03*
G04 #@! TO.P,C22,2*
G04 #@! TO.N,DGND*
X282587400Y-137254380D03*
G04 #@! TD*
D16*
G04 #@! TO.P,R7,1*
G04 #@! TO.N,DGND*
X279050000Y-141110000D03*
G04 #@! TO.P,R7,2*
G04 #@! TO.N,/AIN_BAT_DIV_VOLTAGE*
X278150840Y-141110000D03*
G04 #@! TD*
G04 #@! TO.P,C15,1*
G04 #@! TO.N,/LOAD_IN*
X272849580Y-144260000D03*
G04 #@! TO.P,C15,2*
G04 #@! TO.N,DGND*
X271950420Y-144260000D03*
G04 #@! TD*
D28*
G04 #@! TO.P,U1,1*
G04 #@! TO.N,DVDD*
X269320000Y-140200000D03*
G04 #@! TO.P,U1,2*
G04 #@! TO.N,Net-(L1-Pad2)*
X268820000Y-140200000D03*
G04 #@! TO.P,U1,3*
G04 #@! TO.N,DGND*
X268320000Y-140200000D03*
G04 #@! TO.P,U1,4*
G04 #@! TO.N,Net-(L1-Pad1)*
X267820000Y-140200000D03*
G04 #@! TO.P,U1,5*
G04 #@! TO.N,VCC*
X267320000Y-140200000D03*
G04 #@! TO.P,U1,6*
X267320000Y-143300000D03*
G04 #@! TO.P,U1,7*
X267820000Y-143300000D03*
G04 #@! TO.P,U1,8*
X268320000Y-143300000D03*
G04 #@! TO.P,U1,9*
G04 #@! TO.N,DGND*
X268820000Y-143300000D03*
G04 #@! TO.P,U1,10*
G04 #@! TO.N,DVDD*
X269320000Y-143300000D03*
D29*
G04 #@! TO.P,U1,11*
G04 #@! TO.N,DGND*
X267700000Y-142137500D03*
X268940000Y-142137500D03*
X267700000Y-141362500D03*
X268940000Y-141362500D03*
G04 #@! TD*
D16*
G04 #@! TO.P,L1,1*
G04 #@! TO.N,Net-(L1-Pad1)*
X267990420Y-138970000D03*
G04 #@! TO.P,L1,2*
G04 #@! TO.N,Net-(L1-Pad2)*
X268889580Y-138970000D03*
G04 #@! TD*
D10*
G04 #@! TO.P,C21,1*
G04 #@! TO.N,DGND*
X274070000Y-139049580D03*
G04 #@! TO.P,C21,2*
G04 #@! TO.N,DVDD*
X274070000Y-138150420D03*
G04 #@! TD*
D30*
G04 #@! TO.P,F1,1*
G04 #@! TO.N,DGND*
X278326500Y-128500000D03*
D31*
G04 #@! TO.P,F1,2*
G04 #@! TO.N,Net-(F1-Pad2)*
X278000000Y-129112500D03*
G04 #@! TO.P,F1,4*
G04 #@! TO.N,/RF*
X278000000Y-127887500D03*
D30*
G04 #@! TO.P,F1,3*
G04 #@! TO.N,DGND*
X277637500Y-128500000D03*
G04 #@! TD*
D10*
G04 #@! TO.P,C34,1*
G04 #@! TO.N,/DEC3*
X275840000Y-129489580D03*
G04 #@! TO.P,C34,2*
G04 #@! TO.N,DGND*
X275840000Y-128590420D03*
G04 #@! TD*
D16*
G04 #@! TO.P,C33,1*
G04 #@! TO.N,DGND*
X273150420Y-129450000D03*
G04 #@! TO.P,C33,2*
G04 #@! TO.N,DVDD*
X274049580Y-129450000D03*
G04 #@! TD*
D10*
G04 #@! TO.P,C2,1*
G04 #@! TO.N,DVDD*
X271040000Y-142899580D03*
G04 #@! TO.P,C2,2*
G04 #@! TO.N,DGND*
X271040000Y-142000420D03*
G04 #@! TD*
G04 #@! TO.P,C1,1*
G04 #@! TO.N,VCC*
X272140000Y-142909580D03*
G04 #@! TO.P,C1,2*
G04 #@! TO.N,DGND*
X272140000Y-142010420D03*
G04 #@! TD*
D25*
G04 #@! TO.P,L4,1*
G04 #@! TO.N,Net-(L4-Pad1)*
X272932000Y-138620000D03*
G04 #@! TO.P,L4,2*
G04 #@! TO.N,Net-(L3-Pad1)*
X271408000Y-138620000D03*
G04 #@! TD*
D32*
G04 #@! TO.P,X1,4*
G04 #@! TO.N,DGND*
X270800000Y-133500000D03*
G04 #@! TO.P,X1,3*
G04 #@! TO.N,Net-(C25-Pad2)*
X272200000Y-133500000D03*
G04 #@! TO.P,X1,1*
G04 #@! TO.N,Net-(C24-Pad2)*
X270800000Y-134600000D03*
G04 #@! TO.P,X1,2*
G04 #@! TO.N,DGND*
X272200000Y-134600000D03*
G04 #@! TD*
D10*
G04 #@! TO.P,C28,1*
G04 #@! TO.N,Net-(C28-Pad1)*
X275450000Y-140100420D03*
G04 #@! TO.P,C28,2*
G04 #@! TO.N,DGND*
X275450000Y-140999580D03*
G04 #@! TD*
D16*
G04 #@! TO.P,C26,1*
G04 #@! TO.N,/DEC1*
X273649580Y-140200000D03*
G04 #@! TO.P,C26,2*
G04 #@! TO.N,DGND*
X272750420Y-140200000D03*
G04 #@! TD*
D10*
G04 #@! TO.P,C24,1*
G04 #@! TO.N,DGND*
X269800000Y-133750420D03*
G04 #@! TO.P,C24,2*
G04 #@! TO.N,Net-(C24-Pad2)*
X269800000Y-134649580D03*
G04 #@! TD*
G04 #@! TO.P,C25,1*
G04 #@! TO.N,DGND*
X273200000Y-134549580D03*
G04 #@! TO.P,C25,2*
G04 #@! TO.N,Net-(C25-Pad2)*
X273200000Y-133650420D03*
G04 #@! TD*
G04 #@! TO.P,C29,1*
G04 #@! TO.N,Net-(C29-Pad1)*
X276850000Y-140100420D03*
G04 #@! TO.P,C29,2*
G04 #@! TO.N,DGND*
X276850000Y-140999580D03*
G04 #@! TD*
D33*
G04 #@! TO.P,A1,1*
G04 #@! TO.N,Net-(A1-Pad1)*
X270745000Y-127673000D03*
G04 #@! TO.P,A1,2*
G04 #@! TO.N,Net-(A1-Pad2)*
X267345000Y-127673000D03*
G04 #@! TD*
D16*
G04 #@! TO.P,L6,1*
G04 #@! TO.N,Net-(C30-Pad2)*
X272849580Y-127700000D03*
G04 #@! TO.P,L6,2*
G04 #@! TO.N,Net-(A1-Pad1)*
X271950420Y-127700000D03*
G04 #@! TD*
D10*
G04 #@! TO.P,L5,1*
G04 #@! TO.N,Net-(C30-Pad2)*
X274000000Y-127650420D03*
G04 #@! TO.P,L5,2*
G04 #@! TO.N,DGND*
X274000000Y-128549580D03*
G04 #@! TD*
D16*
G04 #@! TO.P,C30,1*
G04 #@! TO.N,/RF*
X276049580Y-127700000D03*
G04 #@! TO.P,C30,2*
G04 #@! TO.N,Net-(C30-Pad2)*
X275150420Y-127700000D03*
G04 #@! TD*
G04 #@! TO.P,L3,1*
G04 #@! TO.N,Net-(L3-Pad1)*
X271730420Y-137270000D03*
G04 #@! TO.P,L3,2*
G04 #@! TO.N,Net-(C23-Pad1)*
X272629580Y-137270000D03*
G04 #@! TD*
D25*
G04 #@! TO.P,C23,1*
G04 #@! TO.N,Net-(C23-Pad1)*
X273262000Y-136000000D03*
G04 #@! TO.P,C23,2*
G04 #@! TO.N,DGND*
X271738000Y-136000000D03*
G04 #@! TD*
D34*
G04 #@! TO.P,U3,1*
G04 #@! TO.N,/DEC1*
X275600000Y-137000000D03*
G04 #@! TO.P,U3,2*
G04 #@! TO.N,Net-(C28-Pad1)*
X276000000Y-137000000D03*
G04 #@! TO.P,U3,3*
G04 #@! TO.N,Net-(C29-Pad1)*
X276400000Y-137000000D03*
G04 #@! TO.P,U3,4*
G04 #@! TO.N,Net-(U3-Pad4)*
X276800000Y-137000000D03*
G04 #@! TO.P,U3,5*
G04 #@! TO.N,/LOAD_SW_CTRL*
X277200000Y-137000000D03*
G04 #@! TO.P,U3,6*
G04 #@! TO.N,/AIN_BAT_DIV_VOLTAGE*
X277600000Y-137000000D03*
G04 #@! TO.P,U3,7*
G04 #@! TO.N,Net-(U3-Pad7)*
X278000000Y-137000000D03*
G04 #@! TO.P,U3,8*
G04 #@! TO.N,Net-(U3-Pad8)*
X278400000Y-137000000D03*
G04 #@! TO.P,U3,9*
G04 #@! TO.N,Net-(U3-Pad9)*
X278800000Y-137000000D03*
G04 #@! TO.P,U3,10*
G04 #@! TO.N,Net-(U3-Pad10)*
X279200000Y-137000000D03*
G04 #@! TO.P,U3,11*
G04 #@! TO.N,Net-(U3-Pad11)*
X279600000Y-137000000D03*
G04 #@! TO.P,U3,12*
G04 #@! TO.N,Net-(U3-Pad12)*
X280000000Y-137000000D03*
D35*
G04 #@! TO.P,U3,13*
G04 #@! TO.N,DVDD*
X280800000Y-136200000D03*
G04 #@! TO.P,U3,14*
G04 #@! TO.N,/SPI_~CS*
X280800000Y-135800000D03*
G04 #@! TO.P,U3,15*
G04 #@! TO.N,/SPI_SCLK*
X280800000Y-135400000D03*
G04 #@! TO.P,U3,16*
G04 #@! TO.N,/DIN*
X280800000Y-135000000D03*
G04 #@! TO.P,U3,17*
G04 #@! TO.N,/DOUT*
X280800000Y-134600000D03*
G04 #@! TO.P,U3,18*
G04 #@! TO.N,/~DRDY*
X280800000Y-134200000D03*
G04 #@! TO.P,U3,19*
G04 #@! TO.N,Net-(U3-Pad19)*
X280800000Y-133800000D03*
G04 #@! TO.P,U3,20*
G04 #@! TO.N,/AD5242_SDA*
X280800000Y-133400000D03*
G04 #@! TO.P,U3,21*
G04 #@! TO.N,/AD5242_SCL*
X280800000Y-133000000D03*
G04 #@! TO.P,U3,22*
G04 #@! TO.N,/TMP_SCL*
X280800000Y-132600000D03*
G04 #@! TO.P,U3,23*
G04 #@! TO.N,/TMP_SDA*
X280800000Y-132200000D03*
G04 #@! TO.P,U3,24*
G04 #@! TO.N,/DAT0_MISO*
X280800000Y-131800000D03*
D34*
G04 #@! TO.P,U3,25*
G04 #@! TO.N,/SWDCLK*
X280000000Y-131000000D03*
G04 #@! TO.P,U3,26*
G04 #@! TO.N,/SWDIO*
X279600000Y-131000000D03*
G04 #@! TO.P,U3,27*
G04 #@! TO.N,/uSD_CLK*
X279200000Y-131000000D03*
G04 #@! TO.P,U3,28*
G04 #@! TO.N,/CMD_MOSI*
X278800000Y-131000000D03*
G04 #@! TO.P,U3,29*
G04 #@! TO.N,/DAT3_CS*
X278400000Y-131000000D03*
G04 #@! TO.P,U3,30*
G04 #@! TO.N,Net-(F1-Pad2)*
X278000000Y-131000000D03*
G04 #@! TO.P,U3,31*
G04 #@! TO.N,DGND*
X277600000Y-131000000D03*
G04 #@! TO.P,U3,32*
G04 #@! TO.N,/DEC2*
X277200000Y-131000000D03*
G04 #@! TO.P,U3,33*
G04 #@! TO.N,/DEC3*
X276800000Y-131000000D03*
G04 #@! TO.P,U3,34*
G04 #@! TO.N,Net-(C24-Pad2)*
X276400000Y-131000000D03*
G04 #@! TO.P,U3,35*
G04 #@! TO.N,Net-(C25-Pad2)*
X276000000Y-131000000D03*
G04 #@! TO.P,U3,36*
G04 #@! TO.N,DVDD*
X275600000Y-131000000D03*
D35*
G04 #@! TO.P,U3,37*
G04 #@! TO.N,Net-(U3-Pad37)*
X274800000Y-131800000D03*
G04 #@! TO.P,U3,38*
G04 #@! TO.N,Net-(U3-Pad38)*
X274800000Y-132200000D03*
G04 #@! TO.P,U3,39*
G04 #@! TO.N,Net-(U3-Pad39)*
X274800000Y-132600000D03*
G04 #@! TO.P,U3,40*
G04 #@! TO.N,Net-(U3-Pad40)*
X274800000Y-133000000D03*
G04 #@! TO.P,U3,41*
G04 #@! TO.N,Net-(U3-Pad41)*
X274800000Y-133400000D03*
G04 #@! TO.P,U3,42*
G04 #@! TO.N,Net-(U3-Pad42)*
X274800000Y-133800000D03*
G04 #@! TO.P,U3,43*
G04 #@! TO.N,Net-(U3-Pad43)*
X274800000Y-134200000D03*
G04 #@! TO.P,U3,44*
G04 #@! TO.N,Net-(U3-Pad44)*
X274800000Y-134600000D03*
G04 #@! TO.P,U3,45*
G04 #@! TO.N,DGND*
X274800000Y-135000000D03*
G04 #@! TO.P,U3,46*
G04 #@! TO.N,Net-(C23-Pad1)*
X274800000Y-135400000D03*
G04 #@! TO.P,U3,47*
G04 #@! TO.N,Net-(L4-Pad1)*
X274800000Y-135800000D03*
G04 #@! TO.P,U3,48*
G04 #@! TO.N,DVDD*
X274800000Y-136200000D03*
D36*
G04 #@! TO.P,U3,49*
G04 #@! TO.N,DGND*
X279468750Y-132331250D03*
X278356250Y-132331250D03*
X277243750Y-132331250D03*
X276131250Y-132331250D03*
X279468750Y-133443750D03*
X278356250Y-133443750D03*
X277243750Y-133443750D03*
X276131250Y-133443750D03*
X279468750Y-134556250D03*
X278356250Y-134556250D03*
X277243750Y-134556250D03*
X276131250Y-134556250D03*
X279468750Y-135668750D03*
X278356250Y-135668750D03*
X277243750Y-135668750D03*
X276131250Y-135668750D03*
G04 #@! TD*
D37*
G04 #@! TO.P,X2,1*
G04 #@! TO.N,Net-(C29-Pad1)*
X276850000Y-138850000D03*
G04 #@! TO.P,X2,2*
G04 #@! TO.N,Net-(C28-Pad1)*
X275450000Y-138850000D03*
G04 #@! TD*
D38*
G04 #@! TO.P,U6,1*
G04 #@! TO.N,5V_in_charge*
X286210000Y-142890000D03*
G04 #@! TO.P,U6,2*
X286210000Y-142390000D03*
G04 #@! TO.P,U6,3*
G04 #@! TO.N,/BATT_IN*
X286210000Y-141890000D03*
G04 #@! TO.P,U6,4*
X286210000Y-141390000D03*
G04 #@! TO.P,U6,5*
G04 #@! TO.N,Net-(D3-Pad1)*
X283310000Y-141390000D03*
G04 #@! TO.P,U6,6*
G04 #@! TO.N,DGND*
X283310000Y-141890000D03*
G04 #@! TO.P,U6,7*
G04 #@! TO.N,Net-(U6-Pad7)*
X283310000Y-142390000D03*
G04 #@! TO.P,U6,8*
G04 #@! TO.N,Net-(R9-Pad1)*
X283310000Y-142890000D03*
D39*
G04 #@! TO.P,U6,9*
G04 #@! TO.N,DGND*
X284322500Y-141777500D03*
X284322500Y-142502500D03*
X285197500Y-141777500D03*
X285197500Y-142502500D03*
G04 #@! TD*
D40*
G04 #@! TO.P,Q1,2*
G04 #@! TO.N,/BATT_IN*
X287610000Y-142730000D03*
D41*
G04 #@! TO.P,Q1,1*
G04 #@! TO.N,5V_in_charge*
X288310000Y-142955000D03*
G04 #@! TO.P,Q1,3*
G04 #@! TO.N,/LOAD_IN*
X288310000Y-142505000D03*
G04 #@! TD*
D42*
G04 #@! TO.N,Net-(R11-Pad1)*
G04 #@! TO.C,U2*
G36*
X291760751Y-132901361D02*
X291768032Y-132902441D01*
X291775171Y-132904229D01*
X291782101Y-132906709D01*
X291788755Y-132909856D01*
X291795068Y-132913640D01*
X291800979Y-132918024D01*
X291806433Y-132922967D01*
X291811376Y-132928421D01*
X291815760Y-132934332D01*
X291819544Y-132940645D01*
X291822691Y-132947299D01*
X291825171Y-132954229D01*
X291826959Y-132961368D01*
X291828039Y-132968649D01*
X291828400Y-132976000D01*
X291828400Y-133126000D01*
X291828039Y-133133351D01*
X291826959Y-133140632D01*
X291825171Y-133147771D01*
X291822691Y-133154701D01*
X291819544Y-133161355D01*
X291815760Y-133167668D01*
X291811376Y-133173579D01*
X291806433Y-133179033D01*
X291800979Y-133183976D01*
X291795068Y-133188360D01*
X291788755Y-133192144D01*
X291782101Y-133195291D01*
X291775171Y-133197771D01*
X291768032Y-133199559D01*
X291760751Y-133200639D01*
X291753400Y-133201000D01*
X290453400Y-133201000D01*
X290446049Y-133200639D01*
X290438768Y-133199559D01*
X290431629Y-133197771D01*
X290424699Y-133195291D01*
X290418045Y-133192144D01*
X290411732Y-133188360D01*
X290405821Y-133183976D01*
X290400367Y-133179033D01*
X290395424Y-133173579D01*
X290391040Y-133167668D01*
X290387256Y-133161355D01*
X290384109Y-133154701D01*
X290381629Y-133147771D01*
X290379841Y-133140632D01*
X290378761Y-133133351D01*
X290378400Y-133126000D01*
X290378400Y-132976000D01*
X290378761Y-132968649D01*
X290379841Y-132961368D01*
X290381629Y-132954229D01*
X290384109Y-132947299D01*
X290387256Y-132940645D01*
X290391040Y-132934332D01*
X290395424Y-132928421D01*
X290400367Y-132922967D01*
X290405821Y-132918024D01*
X290411732Y-132913640D01*
X290418045Y-132909856D01*
X290424699Y-132906709D01*
X290431629Y-132904229D01*
X290438768Y-132902441D01*
X290446049Y-132901361D01*
X290453400Y-132901000D01*
X291753400Y-132901000D01*
X291760751Y-132901361D01*
X291760751Y-132901361D01*
G37*
D43*
G04 #@! TD*
G04 #@! TO.P,U2,1*
G04 #@! TO.N,Net-(R11-Pad1)*
X291103400Y-133051000D03*
D42*
G04 #@! TO.N,Net-(R11-Pad1)*
G04 #@! TO.C,U2*
G36*
X291760751Y-133551361D02*
X291768032Y-133552441D01*
X291775171Y-133554229D01*
X291782101Y-133556709D01*
X291788755Y-133559856D01*
X291795068Y-133563640D01*
X291800979Y-133568024D01*
X291806433Y-133572967D01*
X291811376Y-133578421D01*
X291815760Y-133584332D01*
X291819544Y-133590645D01*
X291822691Y-133597299D01*
X291825171Y-133604229D01*
X291826959Y-133611368D01*
X291828039Y-133618649D01*
X291828400Y-133626000D01*
X291828400Y-133776000D01*
X291828039Y-133783351D01*
X291826959Y-133790632D01*
X291825171Y-133797771D01*
X291822691Y-133804701D01*
X291819544Y-133811355D01*
X291815760Y-133817668D01*
X291811376Y-133823579D01*
X291806433Y-133829033D01*
X291800979Y-133833976D01*
X291795068Y-133838360D01*
X291788755Y-133842144D01*
X291782101Y-133845291D01*
X291775171Y-133847771D01*
X291768032Y-133849559D01*
X291760751Y-133850639D01*
X291753400Y-133851000D01*
X290453400Y-133851000D01*
X290446049Y-133850639D01*
X290438768Y-133849559D01*
X290431629Y-133847771D01*
X290424699Y-133845291D01*
X290418045Y-133842144D01*
X290411732Y-133838360D01*
X290405821Y-133833976D01*
X290400367Y-133829033D01*
X290395424Y-133823579D01*
X290391040Y-133817668D01*
X290387256Y-133811355D01*
X290384109Y-133804701D01*
X290381629Y-133797771D01*
X290379841Y-133790632D01*
X290378761Y-133783351D01*
X290378400Y-133776000D01*
X290378400Y-133626000D01*
X290378761Y-133618649D01*
X290379841Y-133611368D01*
X290381629Y-133604229D01*
X290384109Y-133597299D01*
X290387256Y-133590645D01*
X290391040Y-133584332D01*
X290395424Y-133578421D01*
X290400367Y-133572967D01*
X290405821Y-133568024D01*
X290411732Y-133563640D01*
X290418045Y-133559856D01*
X290424699Y-133556709D01*
X290431629Y-133554229D01*
X290438768Y-133552441D01*
X290446049Y-133551361D01*
X290453400Y-133551000D01*
X291753400Y-133551000D01*
X291760751Y-133551361D01*
X291760751Y-133551361D01*
G37*
D43*
G04 #@! TD*
G04 #@! TO.P,U2,2*
G04 #@! TO.N,Net-(R11-Pad1)*
X291103400Y-133701000D03*
D42*
G04 #@! TO.N,Net-(R3-Pad1)*
G04 #@! TO.C,U2*
G36*
X291760751Y-134201361D02*
X291768032Y-134202441D01*
X291775171Y-134204229D01*
X291782101Y-134206709D01*
X291788755Y-134209856D01*
X291795068Y-134213640D01*
X291800979Y-134218024D01*
X291806433Y-134222967D01*
X291811376Y-134228421D01*
X291815760Y-134234332D01*
X291819544Y-134240645D01*
X291822691Y-134247299D01*
X291825171Y-134254229D01*
X291826959Y-134261368D01*
X291828039Y-134268649D01*
X291828400Y-134276000D01*
X291828400Y-134426000D01*
X291828039Y-134433351D01*
X291826959Y-134440632D01*
X291825171Y-134447771D01*
X291822691Y-134454701D01*
X291819544Y-134461355D01*
X291815760Y-134467668D01*
X291811376Y-134473579D01*
X291806433Y-134479033D01*
X291800979Y-134483976D01*
X291795068Y-134488360D01*
X291788755Y-134492144D01*
X291782101Y-134495291D01*
X291775171Y-134497771D01*
X291768032Y-134499559D01*
X291760751Y-134500639D01*
X291753400Y-134501000D01*
X290453400Y-134501000D01*
X290446049Y-134500639D01*
X290438768Y-134499559D01*
X290431629Y-134497771D01*
X290424699Y-134495291D01*
X290418045Y-134492144D01*
X290411732Y-134488360D01*
X290405821Y-134483976D01*
X290400367Y-134479033D01*
X290395424Y-134473579D01*
X290391040Y-134467668D01*
X290387256Y-134461355D01*
X290384109Y-134454701D01*
X290381629Y-134447771D01*
X290379841Y-134440632D01*
X290378761Y-134433351D01*
X290378400Y-134426000D01*
X290378400Y-134276000D01*
X290378761Y-134268649D01*
X290379841Y-134261368D01*
X290381629Y-134254229D01*
X290384109Y-134247299D01*
X290387256Y-134240645D01*
X290391040Y-134234332D01*
X290395424Y-134228421D01*
X290400367Y-134222967D01*
X290405821Y-134218024D01*
X290411732Y-134213640D01*
X290418045Y-134209856D01*
X290424699Y-134206709D01*
X290431629Y-134204229D01*
X290438768Y-134202441D01*
X290446049Y-134201361D01*
X290453400Y-134201000D01*
X291753400Y-134201000D01*
X291760751Y-134201361D01*
X291760751Y-134201361D01*
G37*
D43*
G04 #@! TD*
G04 #@! TO.P,U2,3*
G04 #@! TO.N,Net-(R3-Pad1)*
X291103400Y-134351000D03*
D42*
G04 #@! TO.N,N/C*
G04 #@! TO.C,U2*
G36*
X297360751Y-132901361D02*
X297368032Y-132902441D01*
X297375171Y-132904229D01*
X297382101Y-132906709D01*
X297388755Y-132909856D01*
X297395068Y-132913640D01*
X297400979Y-132918024D01*
X297406433Y-132922967D01*
X297411376Y-132928421D01*
X297415760Y-132934332D01*
X297419544Y-132940645D01*
X297422691Y-132947299D01*
X297425171Y-132954229D01*
X297426959Y-132961368D01*
X297428039Y-132968649D01*
X297428400Y-132976000D01*
X297428400Y-133126000D01*
X297428039Y-133133351D01*
X297426959Y-133140632D01*
X297425171Y-133147771D01*
X297422691Y-133154701D01*
X297419544Y-133161355D01*
X297415760Y-133167668D01*
X297411376Y-133173579D01*
X297406433Y-133179033D01*
X297400979Y-133183976D01*
X297395068Y-133188360D01*
X297388755Y-133192144D01*
X297382101Y-133195291D01*
X297375171Y-133197771D01*
X297368032Y-133199559D01*
X297360751Y-133200639D01*
X297353400Y-133201000D01*
X296053400Y-133201000D01*
X296046049Y-133200639D01*
X296038768Y-133199559D01*
X296031629Y-133197771D01*
X296024699Y-133195291D01*
X296018045Y-133192144D01*
X296011732Y-133188360D01*
X296005821Y-133183976D01*
X296000367Y-133179033D01*
X295995424Y-133173579D01*
X295991040Y-133167668D01*
X295987256Y-133161355D01*
X295984109Y-133154701D01*
X295981629Y-133147771D01*
X295979841Y-133140632D01*
X295978761Y-133133351D01*
X295978400Y-133126000D01*
X295978400Y-132976000D01*
X295978761Y-132968649D01*
X295979841Y-132961368D01*
X295981629Y-132954229D01*
X295984109Y-132947299D01*
X295987256Y-132940645D01*
X295991040Y-132934332D01*
X295995424Y-132928421D01*
X296000367Y-132922967D01*
X296005821Y-132918024D01*
X296011732Y-132913640D01*
X296018045Y-132909856D01*
X296024699Y-132906709D01*
X296031629Y-132904229D01*
X296038768Y-132902441D01*
X296046049Y-132901361D01*
X296053400Y-132901000D01*
X297353400Y-132901000D01*
X297360751Y-132901361D01*
X297360751Y-132901361D01*
G37*
D43*
G04 #@! TD*
G04 #@! TO.P,U2,14*
G04 #@! TO.N,N/C*
X296703400Y-133051000D03*
D42*
G04 #@! TO.N,N/C*
G04 #@! TO.C,U2*
G36*
X297360751Y-133551361D02*
X297368032Y-133552441D01*
X297375171Y-133554229D01*
X297382101Y-133556709D01*
X297388755Y-133559856D01*
X297395068Y-133563640D01*
X297400979Y-133568024D01*
X297406433Y-133572967D01*
X297411376Y-133578421D01*
X297415760Y-133584332D01*
X297419544Y-133590645D01*
X297422691Y-133597299D01*
X297425171Y-133604229D01*
X297426959Y-133611368D01*
X297428039Y-133618649D01*
X297428400Y-133626000D01*
X297428400Y-133776000D01*
X297428039Y-133783351D01*
X297426959Y-133790632D01*
X297425171Y-133797771D01*
X297422691Y-133804701D01*
X297419544Y-133811355D01*
X297415760Y-133817668D01*
X297411376Y-133823579D01*
X297406433Y-133829033D01*
X297400979Y-133833976D01*
X297395068Y-133838360D01*
X297388755Y-133842144D01*
X297382101Y-133845291D01*
X297375171Y-133847771D01*
X297368032Y-133849559D01*
X297360751Y-133850639D01*
X297353400Y-133851000D01*
X296053400Y-133851000D01*
X296046049Y-133850639D01*
X296038768Y-133849559D01*
X296031629Y-133847771D01*
X296024699Y-133845291D01*
X296018045Y-133842144D01*
X296011732Y-133838360D01*
X296005821Y-133833976D01*
X296000367Y-133829033D01*
X295995424Y-133823579D01*
X295991040Y-133817668D01*
X295987256Y-133811355D01*
X295984109Y-133804701D01*
X295981629Y-133797771D01*
X295979841Y-133790632D01*
X295978761Y-133783351D01*
X295978400Y-133776000D01*
X295978400Y-133626000D01*
X295978761Y-133618649D01*
X295979841Y-133611368D01*
X295981629Y-133604229D01*
X295984109Y-133597299D01*
X295987256Y-133590645D01*
X295991040Y-133584332D01*
X295995424Y-133578421D01*
X296000367Y-133572967D01*
X296005821Y-133568024D01*
X296011732Y-133563640D01*
X296018045Y-133559856D01*
X296024699Y-133556709D01*
X296031629Y-133554229D01*
X296038768Y-133552441D01*
X296046049Y-133551361D01*
X296053400Y-133551000D01*
X297353400Y-133551000D01*
X297360751Y-133551361D01*
X297360751Y-133551361D01*
G37*
D43*
G04 #@! TD*
G04 #@! TO.P,U2,13*
G04 #@! TO.N,N/C*
X296703400Y-133701000D03*
D42*
G04 #@! TO.N,N/C*
G04 #@! TO.C,U2*
G36*
X297360751Y-134201361D02*
X297368032Y-134202441D01*
X297375171Y-134204229D01*
X297382101Y-134206709D01*
X297388755Y-134209856D01*
X297395068Y-134213640D01*
X297400979Y-134218024D01*
X297406433Y-134222967D01*
X297411376Y-134228421D01*
X297415760Y-134234332D01*
X297419544Y-134240645D01*
X297422691Y-134247299D01*
X297425171Y-134254229D01*
X297426959Y-134261368D01*
X297428039Y-134268649D01*
X297428400Y-134276000D01*
X297428400Y-134426000D01*
X297428039Y-134433351D01*
X297426959Y-134440632D01*
X297425171Y-134447771D01*
X297422691Y-134454701D01*
X297419544Y-134461355D01*
X297415760Y-134467668D01*
X297411376Y-134473579D01*
X297406433Y-134479033D01*
X297400979Y-134483976D01*
X297395068Y-134488360D01*
X297388755Y-134492144D01*
X297382101Y-134495291D01*
X297375171Y-134497771D01*
X297368032Y-134499559D01*
X297360751Y-134500639D01*
X297353400Y-134501000D01*
X296053400Y-134501000D01*
X296046049Y-134500639D01*
X296038768Y-134499559D01*
X296031629Y-134497771D01*
X296024699Y-134495291D01*
X296018045Y-134492144D01*
X296011732Y-134488360D01*
X296005821Y-134483976D01*
X296000367Y-134479033D01*
X295995424Y-134473579D01*
X295991040Y-134467668D01*
X295987256Y-134461355D01*
X295984109Y-134454701D01*
X295981629Y-134447771D01*
X295979841Y-134440632D01*
X295978761Y-134433351D01*
X295978400Y-134426000D01*
X295978400Y-134276000D01*
X295978761Y-134268649D01*
X295979841Y-134261368D01*
X295981629Y-134254229D01*
X295984109Y-134247299D01*
X295987256Y-134240645D01*
X295991040Y-134234332D01*
X295995424Y-134228421D01*
X296000367Y-134222967D01*
X296005821Y-134218024D01*
X296011732Y-134213640D01*
X296018045Y-134209856D01*
X296024699Y-134206709D01*
X296031629Y-134204229D01*
X296038768Y-134202441D01*
X296046049Y-134201361D01*
X296053400Y-134201000D01*
X297353400Y-134201000D01*
X297360751Y-134201361D01*
X297360751Y-134201361D01*
G37*
D43*
G04 #@! TD*
G04 #@! TO.P,U2,12*
G04 #@! TO.N,N/C*
X296703400Y-134351000D03*
D42*
G04 #@! TO.N,DGND*
G04 #@! TO.C,U2*
G36*
X297360751Y-134851361D02*
X297368032Y-134852441D01*
X297375171Y-134854229D01*
X297382101Y-134856709D01*
X297388755Y-134859856D01*
X297395068Y-134863640D01*
X297400979Y-134868024D01*
X297406433Y-134872967D01*
X297411376Y-134878421D01*
X297415760Y-134884332D01*
X297419544Y-134890645D01*
X297422691Y-134897299D01*
X297425171Y-134904229D01*
X297426959Y-134911368D01*
X297428039Y-134918649D01*
X297428400Y-134926000D01*
X297428400Y-135076000D01*
X297428039Y-135083351D01*
X297426959Y-135090632D01*
X297425171Y-135097771D01*
X297422691Y-135104701D01*
X297419544Y-135111355D01*
X297415760Y-135117668D01*
X297411376Y-135123579D01*
X297406433Y-135129033D01*
X297400979Y-135133976D01*
X297395068Y-135138360D01*
X297388755Y-135142144D01*
X297382101Y-135145291D01*
X297375171Y-135147771D01*
X297368032Y-135149559D01*
X297360751Y-135150639D01*
X297353400Y-135151000D01*
X296053400Y-135151000D01*
X296046049Y-135150639D01*
X296038768Y-135149559D01*
X296031629Y-135147771D01*
X296024699Y-135145291D01*
X296018045Y-135142144D01*
X296011732Y-135138360D01*
X296005821Y-135133976D01*
X296000367Y-135129033D01*
X295995424Y-135123579D01*
X295991040Y-135117668D01*
X295987256Y-135111355D01*
X295984109Y-135104701D01*
X295981629Y-135097771D01*
X295979841Y-135090632D01*
X295978761Y-135083351D01*
X295978400Y-135076000D01*
X295978400Y-134926000D01*
X295978761Y-134918649D01*
X295979841Y-134911368D01*
X295981629Y-134904229D01*
X295984109Y-134897299D01*
X295987256Y-134890645D01*
X295991040Y-134884332D01*
X295995424Y-134878421D01*
X296000367Y-134872967D01*
X296005821Y-134868024D01*
X296011732Y-134863640D01*
X296018045Y-134859856D01*
X296024699Y-134856709D01*
X296031629Y-134854229D01*
X296038768Y-134852441D01*
X296046049Y-134851361D01*
X296053400Y-134851000D01*
X297353400Y-134851000D01*
X297360751Y-134851361D01*
X297360751Y-134851361D01*
G37*
D43*
G04 #@! TD*
G04 #@! TO.P,U2,11*
G04 #@! TO.N,DGND*
X296703400Y-135001000D03*
D42*
G04 #@! TO.N,Net-(R12-Pad2)*
G04 #@! TO.C,U2*
G36*
X297360751Y-135501361D02*
X297368032Y-135502441D01*
X297375171Y-135504229D01*
X297382101Y-135506709D01*
X297388755Y-135509856D01*
X297395068Y-135513640D01*
X297400979Y-135518024D01*
X297406433Y-135522967D01*
X297411376Y-135528421D01*
X297415760Y-135534332D01*
X297419544Y-135540645D01*
X297422691Y-135547299D01*
X297425171Y-135554229D01*
X297426959Y-135561368D01*
X297428039Y-135568649D01*
X297428400Y-135576000D01*
X297428400Y-135726000D01*
X297428039Y-135733351D01*
X297426959Y-135740632D01*
X297425171Y-135747771D01*
X297422691Y-135754701D01*
X297419544Y-135761355D01*
X297415760Y-135767668D01*
X297411376Y-135773579D01*
X297406433Y-135779033D01*
X297400979Y-135783976D01*
X297395068Y-135788360D01*
X297388755Y-135792144D01*
X297382101Y-135795291D01*
X297375171Y-135797771D01*
X297368032Y-135799559D01*
X297360751Y-135800639D01*
X297353400Y-135801000D01*
X296053400Y-135801000D01*
X296046049Y-135800639D01*
X296038768Y-135799559D01*
X296031629Y-135797771D01*
X296024699Y-135795291D01*
X296018045Y-135792144D01*
X296011732Y-135788360D01*
X296005821Y-135783976D01*
X296000367Y-135779033D01*
X295995424Y-135773579D01*
X295991040Y-135767668D01*
X295987256Y-135761355D01*
X295984109Y-135754701D01*
X295981629Y-135747771D01*
X295979841Y-135740632D01*
X295978761Y-135733351D01*
X295978400Y-135726000D01*
X295978400Y-135576000D01*
X295978761Y-135568649D01*
X295979841Y-135561368D01*
X295981629Y-135554229D01*
X295984109Y-135547299D01*
X295987256Y-135540645D01*
X295991040Y-135534332D01*
X295995424Y-135528421D01*
X296000367Y-135522967D01*
X296005821Y-135518024D01*
X296011732Y-135513640D01*
X296018045Y-135509856D01*
X296024699Y-135506709D01*
X296031629Y-135504229D01*
X296038768Y-135502441D01*
X296046049Y-135501361D01*
X296053400Y-135501000D01*
X297353400Y-135501000D01*
X297360751Y-135501361D01*
X297360751Y-135501361D01*
G37*
D43*
G04 #@! TD*
G04 #@! TO.P,U2,10*
G04 #@! TO.N,Net-(R12-Pad2)*
X296703400Y-135651000D03*
D42*
G04 #@! TO.N,Net-(R11-Pad2)*
G04 #@! TO.C,U2*
G36*
X297360751Y-136151361D02*
X297368032Y-136152441D01*
X297375171Y-136154229D01*
X297382101Y-136156709D01*
X297388755Y-136159856D01*
X297395068Y-136163640D01*
X297400979Y-136168024D01*
X297406433Y-136172967D01*
X297411376Y-136178421D01*
X297415760Y-136184332D01*
X297419544Y-136190645D01*
X297422691Y-136197299D01*
X297425171Y-136204229D01*
X297426959Y-136211368D01*
X297428039Y-136218649D01*
X297428400Y-136226000D01*
X297428400Y-136376000D01*
X297428039Y-136383351D01*
X297426959Y-136390632D01*
X297425171Y-136397771D01*
X297422691Y-136404701D01*
X297419544Y-136411355D01*
X297415760Y-136417668D01*
X297411376Y-136423579D01*
X297406433Y-136429033D01*
X297400979Y-136433976D01*
X297395068Y-136438360D01*
X297388755Y-136442144D01*
X297382101Y-136445291D01*
X297375171Y-136447771D01*
X297368032Y-136449559D01*
X297360751Y-136450639D01*
X297353400Y-136451000D01*
X296053400Y-136451000D01*
X296046049Y-136450639D01*
X296038768Y-136449559D01*
X296031629Y-136447771D01*
X296024699Y-136445291D01*
X296018045Y-136442144D01*
X296011732Y-136438360D01*
X296005821Y-136433976D01*
X296000367Y-136429033D01*
X295995424Y-136423579D01*
X295991040Y-136417668D01*
X295987256Y-136411355D01*
X295984109Y-136404701D01*
X295981629Y-136397771D01*
X295979841Y-136390632D01*
X295978761Y-136383351D01*
X295978400Y-136376000D01*
X295978400Y-136226000D01*
X295978761Y-136218649D01*
X295979841Y-136211368D01*
X295981629Y-136204229D01*
X295984109Y-136197299D01*
X295987256Y-136190645D01*
X295991040Y-136184332D01*
X295995424Y-136178421D01*
X296000367Y-136172967D01*
X296005821Y-136168024D01*
X296011732Y-136163640D01*
X296018045Y-136159856D01*
X296024699Y-136156709D01*
X296031629Y-136154229D01*
X296038768Y-136152441D01*
X296046049Y-136151361D01*
X296053400Y-136151000D01*
X297353400Y-136151000D01*
X297360751Y-136151361D01*
X297360751Y-136151361D01*
G37*
D43*
G04 #@! TD*
G04 #@! TO.P,U2,9*
G04 #@! TO.N,Net-(R11-Pad2)*
X296703400Y-136301000D03*
D42*
G04 #@! TO.N,Net-(R14-Pad2)*
G04 #@! TO.C,U2*
G36*
X297360751Y-136801361D02*
X297368032Y-136802441D01*
X297375171Y-136804229D01*
X297382101Y-136806709D01*
X297388755Y-136809856D01*
X297395068Y-136813640D01*
X297400979Y-136818024D01*
X297406433Y-136822967D01*
X297411376Y-136828421D01*
X297415760Y-136834332D01*
X297419544Y-136840645D01*
X297422691Y-136847299D01*
X297425171Y-136854229D01*
X297426959Y-136861368D01*
X297428039Y-136868649D01*
X297428400Y-136876000D01*
X297428400Y-137026000D01*
X297428039Y-137033351D01*
X297426959Y-137040632D01*
X297425171Y-137047771D01*
X297422691Y-137054701D01*
X297419544Y-137061355D01*
X297415760Y-137067668D01*
X297411376Y-137073579D01*
X297406433Y-137079033D01*
X297400979Y-137083976D01*
X297395068Y-137088360D01*
X297388755Y-137092144D01*
X297382101Y-137095291D01*
X297375171Y-137097771D01*
X297368032Y-137099559D01*
X297360751Y-137100639D01*
X297353400Y-137101000D01*
X296053400Y-137101000D01*
X296046049Y-137100639D01*
X296038768Y-137099559D01*
X296031629Y-137097771D01*
X296024699Y-137095291D01*
X296018045Y-137092144D01*
X296011732Y-137088360D01*
X296005821Y-137083976D01*
X296000367Y-137079033D01*
X295995424Y-137073579D01*
X295991040Y-137067668D01*
X295987256Y-137061355D01*
X295984109Y-137054701D01*
X295981629Y-137047771D01*
X295979841Y-137040632D01*
X295978761Y-137033351D01*
X295978400Y-137026000D01*
X295978400Y-136876000D01*
X295978761Y-136868649D01*
X295979841Y-136861368D01*
X295981629Y-136854229D01*
X295984109Y-136847299D01*
X295987256Y-136840645D01*
X295991040Y-136834332D01*
X295995424Y-136828421D01*
X296000367Y-136822967D01*
X296005821Y-136818024D01*
X296011732Y-136813640D01*
X296018045Y-136809856D01*
X296024699Y-136806709D01*
X296031629Y-136804229D01*
X296038768Y-136802441D01*
X296046049Y-136801361D01*
X296053400Y-136801000D01*
X297353400Y-136801000D01*
X297360751Y-136801361D01*
X297360751Y-136801361D01*
G37*
D43*
G04 #@! TD*
G04 #@! TO.P,U2,8*
G04 #@! TO.N,Net-(R14-Pad2)*
X296703400Y-136951000D03*
D42*
G04 #@! TO.N,Net-(R12-Pad1)*
G04 #@! TO.C,U2*
G36*
X291760751Y-136801361D02*
X291768032Y-136802441D01*
X291775171Y-136804229D01*
X291782101Y-136806709D01*
X291788755Y-136809856D01*
X291795068Y-136813640D01*
X291800979Y-136818024D01*
X291806433Y-136822967D01*
X291811376Y-136828421D01*
X291815760Y-136834332D01*
X291819544Y-136840645D01*
X291822691Y-136847299D01*
X291825171Y-136854229D01*
X291826959Y-136861368D01*
X291828039Y-136868649D01*
X291828400Y-136876000D01*
X291828400Y-137026000D01*
X291828039Y-137033351D01*
X291826959Y-137040632D01*
X291825171Y-137047771D01*
X291822691Y-137054701D01*
X291819544Y-137061355D01*
X291815760Y-137067668D01*
X291811376Y-137073579D01*
X291806433Y-137079033D01*
X291800979Y-137083976D01*
X291795068Y-137088360D01*
X291788755Y-137092144D01*
X291782101Y-137095291D01*
X291775171Y-137097771D01*
X291768032Y-137099559D01*
X291760751Y-137100639D01*
X291753400Y-137101000D01*
X290453400Y-137101000D01*
X290446049Y-137100639D01*
X290438768Y-137099559D01*
X290431629Y-137097771D01*
X290424699Y-137095291D01*
X290418045Y-137092144D01*
X290411732Y-137088360D01*
X290405821Y-137083976D01*
X290400367Y-137079033D01*
X290395424Y-137073579D01*
X290391040Y-137067668D01*
X290387256Y-137061355D01*
X290384109Y-137054701D01*
X290381629Y-137047771D01*
X290379841Y-137040632D01*
X290378761Y-137033351D01*
X290378400Y-137026000D01*
X290378400Y-136876000D01*
X290378761Y-136868649D01*
X290379841Y-136861368D01*
X290381629Y-136854229D01*
X290384109Y-136847299D01*
X290387256Y-136840645D01*
X290391040Y-136834332D01*
X290395424Y-136828421D01*
X290400367Y-136822967D01*
X290405821Y-136818024D01*
X290411732Y-136813640D01*
X290418045Y-136809856D01*
X290424699Y-136806709D01*
X290431629Y-136804229D01*
X290438768Y-136802441D01*
X290446049Y-136801361D01*
X290453400Y-136801000D01*
X291753400Y-136801000D01*
X291760751Y-136801361D01*
X291760751Y-136801361D01*
G37*
D43*
G04 #@! TD*
G04 #@! TO.P,U2,7*
G04 #@! TO.N,Net-(R12-Pad1)*
X291103400Y-136951000D03*
D42*
G04 #@! TO.N,Net-(R12-Pad1)*
G04 #@! TO.C,U2*
G36*
X291760751Y-136151361D02*
X291768032Y-136152441D01*
X291775171Y-136154229D01*
X291782101Y-136156709D01*
X291788755Y-136159856D01*
X291795068Y-136163640D01*
X291800979Y-136168024D01*
X291806433Y-136172967D01*
X291811376Y-136178421D01*
X291815760Y-136184332D01*
X291819544Y-136190645D01*
X291822691Y-136197299D01*
X291825171Y-136204229D01*
X291826959Y-136211368D01*
X291828039Y-136218649D01*
X291828400Y-136226000D01*
X291828400Y-136376000D01*
X291828039Y-136383351D01*
X291826959Y-136390632D01*
X291825171Y-136397771D01*
X291822691Y-136404701D01*
X291819544Y-136411355D01*
X291815760Y-136417668D01*
X291811376Y-136423579D01*
X291806433Y-136429033D01*
X291800979Y-136433976D01*
X291795068Y-136438360D01*
X291788755Y-136442144D01*
X291782101Y-136445291D01*
X291775171Y-136447771D01*
X291768032Y-136449559D01*
X291760751Y-136450639D01*
X291753400Y-136451000D01*
X290453400Y-136451000D01*
X290446049Y-136450639D01*
X290438768Y-136449559D01*
X290431629Y-136447771D01*
X290424699Y-136445291D01*
X290418045Y-136442144D01*
X290411732Y-136438360D01*
X290405821Y-136433976D01*
X290400367Y-136429033D01*
X290395424Y-136423579D01*
X290391040Y-136417668D01*
X290387256Y-136411355D01*
X290384109Y-136404701D01*
X290381629Y-136397771D01*
X290379841Y-136390632D01*
X290378761Y-136383351D01*
X290378400Y-136376000D01*
X290378400Y-136226000D01*
X290378761Y-136218649D01*
X290379841Y-136211368D01*
X290381629Y-136204229D01*
X290384109Y-136197299D01*
X290387256Y-136190645D01*
X290391040Y-136184332D01*
X290395424Y-136178421D01*
X290400367Y-136172967D01*
X290405821Y-136168024D01*
X290411732Y-136163640D01*
X290418045Y-136159856D01*
X290424699Y-136156709D01*
X290431629Y-136154229D01*
X290438768Y-136152441D01*
X290446049Y-136151361D01*
X290453400Y-136151000D01*
X291753400Y-136151000D01*
X291760751Y-136151361D01*
X291760751Y-136151361D01*
G37*
D43*
G04 #@! TD*
G04 #@! TO.P,U2,6*
G04 #@! TO.N,Net-(R12-Pad1)*
X291103400Y-136301000D03*
D42*
G04 #@! TO.N,/ELECTRODE_INPUT*
G04 #@! TO.C,U2*
G36*
X291760751Y-135501361D02*
X291768032Y-135502441D01*
X291775171Y-135504229D01*
X291782101Y-135506709D01*
X291788755Y-135509856D01*
X291795068Y-135513640D01*
X291800979Y-135518024D01*
X291806433Y-135522967D01*
X291811376Y-135528421D01*
X291815760Y-135534332D01*
X291819544Y-135540645D01*
X291822691Y-135547299D01*
X291825171Y-135554229D01*
X291826959Y-135561368D01*
X291828039Y-135568649D01*
X291828400Y-135576000D01*
X291828400Y-135726000D01*
X291828039Y-135733351D01*
X291826959Y-135740632D01*
X291825171Y-135747771D01*
X291822691Y-135754701D01*
X291819544Y-135761355D01*
X291815760Y-135767668D01*
X291811376Y-135773579D01*
X291806433Y-135779033D01*
X291800979Y-135783976D01*
X291795068Y-135788360D01*
X291788755Y-135792144D01*
X291782101Y-135795291D01*
X291775171Y-135797771D01*
X291768032Y-135799559D01*
X291760751Y-135800639D01*
X291753400Y-135801000D01*
X290453400Y-135801000D01*
X290446049Y-135800639D01*
X290438768Y-135799559D01*
X290431629Y-135797771D01*
X290424699Y-135795291D01*
X290418045Y-135792144D01*
X290411732Y-135788360D01*
X290405821Y-135783976D01*
X290400367Y-135779033D01*
X290395424Y-135773579D01*
X290391040Y-135767668D01*
X290387256Y-135761355D01*
X290384109Y-135754701D01*
X290381629Y-135747771D01*
X290379841Y-135740632D01*
X290378761Y-135733351D01*
X290378400Y-135726000D01*
X290378400Y-135576000D01*
X290378761Y-135568649D01*
X290379841Y-135561368D01*
X290381629Y-135554229D01*
X290384109Y-135547299D01*
X290387256Y-135540645D01*
X290391040Y-135534332D01*
X290395424Y-135528421D01*
X290400367Y-135522967D01*
X290405821Y-135518024D01*
X290411732Y-135513640D01*
X290418045Y-135509856D01*
X290424699Y-135506709D01*
X290431629Y-135504229D01*
X290438768Y-135502441D01*
X290446049Y-135501361D01*
X290453400Y-135501000D01*
X291753400Y-135501000D01*
X291760751Y-135501361D01*
X291760751Y-135501361D01*
G37*
D43*
G04 #@! TD*
G04 #@! TO.P,U2,5*
G04 #@! TO.N,/ELECTRODE_INPUT*
X291103400Y-135651000D03*
D42*
G04 #@! TO.N,DVDD*
G04 #@! TO.C,U2*
G36*
X291760751Y-134851361D02*
X291768032Y-134852441D01*
X291775171Y-134854229D01*
X291782101Y-134856709D01*
X291788755Y-134859856D01*
X291795068Y-134863640D01*
X291800979Y-134868024D01*
X291806433Y-134872967D01*
X291811376Y-134878421D01*
X291815760Y-134884332D01*
X291819544Y-134890645D01*
X291822691Y-134897299D01*
X291825171Y-134904229D01*
X291826959Y-134911368D01*
X291828039Y-134918649D01*
X291828400Y-134926000D01*
X291828400Y-135076000D01*
X291828039Y-135083351D01*
X291826959Y-135090632D01*
X291825171Y-135097771D01*
X291822691Y-135104701D01*
X291819544Y-135111355D01*
X291815760Y-135117668D01*
X291811376Y-135123579D01*
X291806433Y-135129033D01*
X291800979Y-135133976D01*
X291795068Y-135138360D01*
X291788755Y-135142144D01*
X291782101Y-135145291D01*
X291775171Y-135147771D01*
X291768032Y-135149559D01*
X291760751Y-135150639D01*
X291753400Y-135151000D01*
X290453400Y-135151000D01*
X290446049Y-135150639D01*
X290438768Y-135149559D01*
X290431629Y-135147771D01*
X290424699Y-135145291D01*
X290418045Y-135142144D01*
X290411732Y-135138360D01*
X290405821Y-135133976D01*
X290400367Y-135129033D01*
X290395424Y-135123579D01*
X290391040Y-135117668D01*
X290387256Y-135111355D01*
X290384109Y-135104701D01*
X290381629Y-135097771D01*
X290379841Y-135090632D01*
X290378761Y-135083351D01*
X290378400Y-135076000D01*
X290378400Y-134926000D01*
X290378761Y-134918649D01*
X290379841Y-134911368D01*
X290381629Y-134904229D01*
X290384109Y-134897299D01*
X290387256Y-134890645D01*
X290391040Y-134884332D01*
X290395424Y-134878421D01*
X290400367Y-134872967D01*
X290405821Y-134868024D01*
X290411732Y-134863640D01*
X290418045Y-134859856D01*
X290424699Y-134856709D01*
X290431629Y-134854229D01*
X290438768Y-134852441D01*
X290446049Y-134851361D01*
X290453400Y-134851000D01*
X291753400Y-134851000D01*
X291760751Y-134851361D01*
X291760751Y-134851361D01*
G37*
D43*
G04 #@! TD*
G04 #@! TO.P,U2,4*
G04 #@! TO.N,DVDD*
X291103400Y-135001000D03*
D44*
G04 #@! TO.P,IC1,1*
G04 #@! TO.N,Net-(IC1-Pad1)*
X292015000Y-124998000D03*
G04 #@! TO.P,IC1,2*
G04 #@! TO.N,/RT_1*
X292665000Y-124998000D03*
G04 #@! TO.P,IC1,3*
G04 #@! TO.N,/ELECTRODE_INPUT*
X293315000Y-124998000D03*
G04 #@! TO.P,IC1,4*
G04 #@! TO.N,DGND*
X293965000Y-124998000D03*
G04 #@! TO.P,IC1,5*
G04 #@! TO.N,DVDD*
X294615000Y-124998000D03*
G04 #@! TO.P,IC1,6*
X295265000Y-124998000D03*
G04 #@! TO.P,IC1,7*
G04 #@! TO.N,/AD5242_SCL*
X295915000Y-124998000D03*
G04 #@! TO.P,IC1,8*
G04 #@! TO.N,/AD5242_SDA*
X296565000Y-124998000D03*
G04 #@! TO.P,IC1,9*
G04 #@! TO.N,DGND*
X296565000Y-119122000D03*
G04 #@! TO.P,IC1,10*
X295915000Y-119122000D03*
G04 #@! TO.P,IC1,11*
X295265000Y-119122000D03*
G04 #@! TO.P,IC1,12*
X294615000Y-119122000D03*
G04 #@! TO.P,IC1,13*
G04 #@! TO.N,Net-(IC1-Pad13)*
X293965000Y-119122000D03*
G04 #@! TO.P,IC1,14*
G04 #@! TO.N,Net-(IC1-Pad14)*
X293315000Y-119122000D03*
G04 #@! TO.P,IC1,15*
G04 #@! TO.N,Net-(IC1-Pad15)*
X292665000Y-119122000D03*
G04 #@! TO.P,IC1,16*
G04 #@! TO.N,Net-(IC1-Pad16)*
X292015000Y-119122000D03*
G04 #@! TD*
D45*
G04 #@! TO.P,U8,1*
G04 #@! TO.N,VCC*
X290241268Y-126946074D03*
G04 #@! TO.P,U8,3*
G04 #@! TO.N,DGND*
X288941268Y-126946074D03*
G04 #@! TO.P,U8,5*
G04 #@! TO.N,Net-(L2-Pad1)*
X289591268Y-128846074D03*
G04 #@! TO.P,U8,2*
G04 #@! TO.N,AVDD*
X289591268Y-126946074D03*
G04 #@! TO.P,U8,4*
X288941268Y-128846074D03*
G04 #@! TO.P,U8,6*
G04 #@! TO.N,VCC*
X290241268Y-128846074D03*
G04 #@! TD*
D46*
G04 #@! TO.P,S1,5*
G04 #@! TO.N,DGND*
X283670000Y-144775000D03*
G04 #@! TO.P,S1,4*
X277670000Y-144775000D03*
D47*
G04 #@! TO.P,S1,1*
G04 #@! TO.N,/LOAD_IN*
X279670000Y-143420000D03*
G04 #@! TO.P,S1,2*
G04 #@! TO.N,Net-(S1-Pad2)*
X281670000Y-143420000D03*
G04 #@! TO.P,S1,3*
G04 #@! TO.N,VCC*
X280670000Y-143420000D03*
G04 #@! TD*
D48*
G04 #@! TO.N,DVDD*
X270070000Y-140110000D03*
X280880000Y-137160000D03*
X274640000Y-137010000D03*
X275120000Y-130980000D03*
X274580000Y-129450000D03*
X289060000Y-135500000D03*
X288190000Y-125740000D03*
X294560000Y-126240000D03*
X270420000Y-116940000D03*
X283462600Y-131384353D03*
X284180000Y-135680000D03*
G04 #@! TO.N,VCC*
X280830000Y-142840000D03*
X270440000Y-143853401D03*
X290030000Y-131250000D03*
G04 #@! TO.N,DGND*
X287740000Y-139830000D03*
X281100000Y-141780000D03*
X268940000Y-142137500D03*
X279070000Y-128500000D03*
X268986000Y-135610000D03*
X276820000Y-128420000D03*
X292380000Y-141910000D03*
X271246995Y-144311511D03*
X295160000Y-133430000D03*
X288230000Y-136282400D03*
X287980000Y-134874234D03*
X287380000Y-131430000D03*
X283820000Y-137870000D03*
X294090000Y-117460000D03*
G04 #@! TO.N,/BATT_IN*
X290000000Y-145010000D03*
X288340000Y-141140000D03*
G04 #@! TO.N,/ELECTRODE_INPUT*
X292400000Y-135660000D03*
X290660000Y-131720000D03*
G04 #@! TO.N,Net-(R12-Pad1)*
X292510000Y-139070000D03*
X292410000Y-136830000D03*
G04 #@! TO.N,Net-(R12-Pad2)*
X292580000Y-140000000D03*
X295250000Y-135140000D03*
G04 #@! TO.N,Net-(R14-Pad2)*
X296703400Y-137780000D03*
X296710000Y-131960000D03*
G04 #@! TO.N,/DAT3_CS*
X279060000Y-125990000D03*
X278813891Y-129623891D03*
G04 #@! TO.N,/RT_1*
X291480000Y-128300000D03*
X288060000Y-132100000D03*
G04 #@! TO.N,/ADC_AIN0*
X283920000Y-128530000D03*
X285310000Y-137070000D03*
G04 #@! TO.N,/AD5242_SCL*
X282415195Y-132815195D03*
X290030000Y-122600000D03*
G04 #@! TO.N,/AD5242_SDA*
X281870000Y-133482400D03*
X289010000Y-121330000D03*
G04 #@! TO.N,/TMP_SDA*
X281905980Y-131928238D03*
X284730000Y-123750000D03*
G04 #@! TO.N,/TMP_SCL*
X282442109Y-131392109D03*
X287450000Y-123780000D03*
G04 #@! TO.N,AVDD*
X283990000Y-126370000D03*
X287040000Y-127550000D03*
G04 #@! TO.N,/LOAD_IN*
X289520000Y-140520000D03*
X289860000Y-144040000D03*
X279880000Y-144050000D03*
G04 #@! TD*
D49*
G04 #@! TO.N,/DEC1*
X274100000Y-140200000D02*
X273649580Y-140200000D01*
X274730000Y-139570000D02*
X274100000Y-140200000D01*
X274730000Y-138010000D02*
X274730000Y-139570000D01*
X275600000Y-137140000D02*
X274730000Y-138010000D01*
X275600000Y-137000000D02*
X275600000Y-137140000D01*
X275600000Y-137000000D02*
X275550000Y-137000000D01*
D50*
G04 #@! TO.N,/RF*
X276049580Y-127700000D02*
X277800000Y-127700000D01*
X277800000Y-127700000D02*
X278000000Y-127900000D01*
D49*
G04 #@! TO.N,/SWDCLK*
X280000000Y-131000000D02*
X280920000Y-131000000D01*
X281500000Y-130420000D02*
X281500000Y-129560000D01*
X280920000Y-131000000D02*
X281500000Y-130420000D01*
G04 #@! TO.N,/SWDIO*
X279600000Y-131000000D02*
X279600000Y-130480000D01*
X280360000Y-128160000D02*
X281500000Y-127020000D01*
X280360000Y-129720000D02*
X280360000Y-128160000D01*
X279600000Y-130480000D02*
X280360000Y-129720000D01*
D51*
G04 #@! TO.N,Net-(A1-Pad1)*
X271950420Y-127700000D02*
X270772000Y-127700000D01*
X270772000Y-127700000D02*
X270745000Y-127673000D01*
D49*
G04 #@! TO.N,Net-(L3-Pad1)*
X271408000Y-138620000D02*
X271408000Y-137592420D01*
X271408000Y-137592420D02*
X271730420Y-137270000D01*
G04 #@! TO.N,DVDD*
X282240000Y-140050000D02*
X282040000Y-140050000D01*
X282587400Y-136355220D02*
X281827820Y-136355220D01*
X281040420Y-137320420D02*
X280880000Y-137160000D01*
X269320000Y-140200000D02*
X269980000Y-140200000D01*
X269980000Y-140200000D02*
X270070000Y-140110000D01*
X269320000Y-143300000D02*
X270639580Y-143300000D01*
X270639580Y-143300000D02*
X271040000Y-142899580D01*
D52*
X269320000Y-140200000D02*
X269560000Y-140200000D01*
D49*
X269900000Y-142720000D02*
X269320000Y-143300000D01*
X269900000Y-140540000D02*
X269900000Y-142720000D01*
X269560000Y-140200000D02*
X269900000Y-140540000D01*
X280880000Y-137160000D02*
X280880000Y-136970000D01*
X280880000Y-136970000D02*
X280800000Y-136890000D01*
X274070000Y-138150420D02*
X274070000Y-137580000D01*
X274070000Y-137580000D02*
X274640000Y-137010000D01*
X274660000Y-136990000D02*
X274800000Y-136200000D01*
X274640000Y-137010000D02*
X274660000Y-136990000D01*
X274049580Y-129450000D02*
X274580000Y-129450000D01*
X275140000Y-131000000D02*
X275600000Y-131000000D01*
X275120000Y-130980000D02*
X275140000Y-131000000D01*
X280800000Y-136200000D02*
X280800000Y-136890000D01*
X286273240Y-135288020D02*
X286283400Y-135298180D01*
X280800000Y-136200000D02*
X281525000Y-136200000D01*
X281680220Y-136355220D02*
X281827820Y-136355220D01*
X281525000Y-136200000D02*
X281680220Y-136355220D01*
X290882690Y-134780290D02*
X290139710Y-134780290D01*
X291103400Y-135001000D02*
X290882690Y-134780290D01*
X290139710Y-134780290D02*
X289420000Y-135500000D01*
X289420000Y-135500000D02*
X289060000Y-135500000D01*
D50*
X280880000Y-138690000D02*
X282240000Y-140050000D01*
X280880000Y-137160000D02*
X280880000Y-138690000D01*
D49*
X286383730Y-135298180D02*
X286283400Y-135298180D01*
X286885550Y-135800000D02*
X286383730Y-135298180D01*
X288760000Y-135800000D02*
X286885550Y-135800000D01*
X289060000Y-135500000D02*
X288760000Y-135800000D01*
X284580000Y-122510000D02*
X285580000Y-122510000D01*
X284270420Y-122819580D02*
X284580000Y-122510000D01*
X284270420Y-123170970D02*
X284270420Y-122819580D01*
X283818700Y-123622690D02*
X284270420Y-123170970D01*
X283818700Y-123899580D02*
X283818700Y-123622690D01*
X285118280Y-125199160D02*
X283818700Y-123899580D01*
X285570000Y-125199160D02*
X285118280Y-125199160D01*
X286830000Y-125199160D02*
X286880000Y-125149160D01*
X285570000Y-125199160D02*
X286830000Y-125199160D01*
X288199160Y-125149160D02*
X288230000Y-125180000D01*
X286880000Y-125149160D02*
X288199160Y-125149160D01*
X288230000Y-125180000D02*
X288230000Y-125700000D01*
X288230000Y-125700000D02*
X288190000Y-125740000D01*
X294560000Y-125053000D02*
X294615000Y-124998000D01*
X294560000Y-126240000D02*
X294560000Y-125053000D01*
D52*
X269380000Y-116940000D02*
X269370000Y-116930000D01*
X270420000Y-116940000D02*
X269380000Y-116940000D01*
D50*
X295265000Y-124998000D02*
X294615000Y-124998000D01*
D49*
X285720000Y-125349160D02*
X285570000Y-125199160D01*
X283705620Y-136355220D02*
X283720000Y-136340840D01*
X282587400Y-136355220D02*
X283705620Y-136355220D01*
X283316590Y-131238343D02*
X283462600Y-131384353D01*
X283316590Y-130401410D02*
X283316590Y-131238343D01*
X283945000Y-130325000D02*
X283393000Y-130325000D01*
X283393000Y-130325000D02*
X283316590Y-130401410D01*
X283720000Y-136340840D02*
X283720000Y-136140000D01*
X283720000Y-136140000D02*
X284180000Y-135680000D01*
X285710000Y-125339160D02*
X285570000Y-125199160D01*
X285710000Y-126130000D02*
X285710000Y-125339160D01*
X285831680Y-135298180D02*
X286283400Y-135298180D01*
X285749860Y-135380000D02*
X285831680Y-135298180D01*
X284480000Y-135380000D02*
X285749860Y-135380000D01*
X284180000Y-135680000D02*
X284480000Y-135380000D01*
X290400000Y-120820420D02*
X290940000Y-121360420D01*
X289990000Y-120820420D02*
X290400000Y-120820420D01*
X283742299Y-121538309D02*
X283742299Y-122782299D01*
X289990000Y-120820420D02*
X284460188Y-120820420D01*
X284460188Y-120820420D02*
X283742299Y-121538309D01*
X283779580Y-122819580D02*
X284270420Y-122819580D01*
X283742299Y-122782299D02*
X283779580Y-122819580D01*
G04 #@! TO.N,VCC*
X267910420Y-143390420D02*
X267820000Y-143300000D01*
X268320000Y-143300000D02*
X267820000Y-143300000D01*
X267320000Y-143300000D02*
X267820000Y-143300000D01*
X267320000Y-140200000D02*
X267320000Y-140240000D01*
X267320000Y-140240000D02*
X266660000Y-140900000D01*
X267100000Y-143300000D02*
X267320000Y-143300000D01*
X266660000Y-142860000D02*
X267100000Y-143300000D01*
X266660000Y-140900000D02*
X266660000Y-142860000D01*
X280670000Y-143420000D02*
X280670000Y-143000000D01*
X280670000Y-143000000D02*
X280830000Y-142840000D01*
X272039670Y-142909580D02*
X272140000Y-142909580D01*
X271095849Y-143853401D02*
X272039670Y-142909580D01*
X268320000Y-143777000D02*
X268396401Y-143853401D01*
X268320000Y-143300000D02*
X268320000Y-143777000D01*
X270440000Y-143853401D02*
X271095849Y-143853401D01*
X268396401Y-143853401D02*
X270440000Y-143853401D01*
D52*
X290030000Y-130257342D02*
X290041268Y-130246074D01*
X290030000Y-131250000D02*
X290030000Y-130257342D01*
X290241268Y-130046074D02*
X290241268Y-128846074D01*
X290041268Y-130246074D02*
X290241268Y-130046074D01*
X290241268Y-126946074D02*
X290241268Y-128846074D01*
X290241268Y-125836914D02*
X290180428Y-125776074D01*
X290241268Y-126946074D02*
X290241268Y-125836914D01*
D51*
G04 #@! TO.N,Net-(C30-Pad2)*
X274000000Y-127699580D02*
X272850000Y-127699580D01*
X272850000Y-127699580D02*
X272849580Y-127700000D01*
X275150420Y-127700000D02*
X274000420Y-127700000D01*
X274000420Y-127700000D02*
X274000000Y-127699580D01*
D52*
G04 #@! TO.N,Net-(L1-Pad1)*
X267820000Y-140200000D02*
X267820000Y-139140420D01*
X267820000Y-139140420D02*
X267990420Y-138970000D01*
D49*
G04 #@! TO.N,Net-(C23-Pad1)*
X272629580Y-137270000D02*
X272629580Y-136632420D01*
X272629580Y-136632420D02*
X273262000Y-136000000D01*
X273262000Y-136000000D02*
X273350000Y-136000000D01*
X273350000Y-136000000D02*
X273950000Y-135400000D01*
X273950000Y-135400000D02*
X274800000Y-135400000D01*
G04 #@! TO.N,Net-(C24-Pad2)*
X275000000Y-130040000D02*
X274720163Y-130049375D01*
X274720163Y-130049375D02*
X272760000Y-132040000D01*
X272760000Y-132040000D02*
X272770000Y-132030000D01*
X272770000Y-132030000D02*
X272770000Y-132830000D01*
X272770000Y-132830000D02*
X271600000Y-132830000D01*
X271600000Y-132830000D02*
X271490000Y-132940000D01*
X271490000Y-132940000D02*
X271490000Y-134310000D01*
X271490000Y-134310000D02*
X271200000Y-134600000D01*
X276400000Y-131000000D02*
X276400000Y-130330490D01*
X275395598Y-130045598D02*
X275000000Y-130040000D01*
X276115108Y-130045598D02*
X275395598Y-130045598D01*
X276400000Y-130330490D02*
X276115108Y-130045598D01*
X271200000Y-134600000D02*
X270800000Y-134600000D01*
X269800000Y-134649580D02*
X270750420Y-134649580D01*
X270800000Y-134600000D02*
X270950000Y-134600000D01*
X270750420Y-134649580D02*
X270800000Y-134600000D01*
D53*
X271050000Y-134650000D02*
X270800000Y-134650000D01*
X270799580Y-134649580D02*
X270800000Y-134650000D01*
D49*
G04 #@! TO.N,Net-(C25-Pad2)*
X276000000Y-131000000D02*
X276000000Y-130450000D01*
X276000000Y-130450000D02*
X275900000Y-130350000D01*
X275900000Y-130350000D02*
X274900000Y-130350000D01*
X274900000Y-130350000D02*
X273200000Y-132050000D01*
X273200000Y-132050000D02*
X273200000Y-133650420D01*
X272200000Y-133500000D02*
X273049580Y-133500000D01*
X273049580Y-133500000D02*
X273200000Y-133650420D01*
G04 #@! TO.N,Net-(C28-Pad1)*
X275450000Y-140100420D02*
X275450000Y-138850000D01*
X275450000Y-138850000D02*
X276000000Y-138300000D01*
X276000000Y-138300000D02*
X276000000Y-137000000D01*
G04 #@! TO.N,Net-(C29-Pad1)*
X276850000Y-140100420D02*
X276850000Y-138850000D01*
X276400000Y-137000000D02*
X276400000Y-138400000D01*
X276400000Y-138400000D02*
X276850000Y-138850000D01*
G04 #@! TO.N,Net-(L4-Pad1)*
X274800000Y-135800000D02*
X274240000Y-135800000D01*
X273200000Y-137640000D02*
X273200000Y-138352000D01*
X273840000Y-137000000D02*
X273200000Y-137640000D01*
X273840000Y-136200000D02*
X273840000Y-137000000D01*
X274240000Y-135800000D02*
X273840000Y-136200000D01*
X273200000Y-138352000D02*
X272932000Y-138620000D01*
D52*
G04 #@! TO.N,Net-(F1-Pad2)*
X278000000Y-129100000D02*
X278000000Y-131000000D01*
D49*
G04 #@! TO.N,/DEC3*
X276800000Y-131000000D02*
X276800000Y-129850000D01*
X276439580Y-129489580D02*
X275840000Y-129489580D01*
X276800000Y-129850000D02*
X276439580Y-129489580D01*
G04 #@! TO.N,DGND*
X287490000Y-140570420D02*
X287490000Y-140080000D01*
X287490000Y-140080000D02*
X287740000Y-139830000D01*
X285197500Y-141777500D02*
X285197500Y-141042500D01*
X285669580Y-140570420D02*
X287490000Y-140570420D01*
X285197500Y-141042500D02*
X285669580Y-140570420D01*
D50*
X281139580Y-141740420D02*
X282140000Y-141740420D01*
X281100000Y-141780000D02*
X281139580Y-141740420D01*
D49*
X283310000Y-141890000D02*
X284210000Y-141890000D01*
X284210000Y-141890000D02*
X284322500Y-141777500D01*
X284322500Y-141777500D02*
X284322500Y-142502500D01*
X285197500Y-142502500D02*
X284322500Y-142502500D01*
X284322500Y-141777500D02*
X285197500Y-141777500D01*
X295990000Y-141970000D02*
X292440000Y-141970000D01*
X292440000Y-141970000D02*
X292380000Y-141910000D01*
X288310420Y-144010000D02*
X287429580Y-144010000D01*
X282140000Y-141740420D02*
X282440420Y-141740420D01*
X282440420Y-141740420D02*
X282590000Y-141890000D01*
X282590000Y-141890000D02*
X283310000Y-141890000D01*
X275959580Y-142650420D02*
X275900000Y-142710000D01*
X275900000Y-142710000D02*
X273520000Y-142710000D01*
X272569580Y-142440000D02*
X272140000Y-142010420D01*
X273250000Y-142440000D02*
X272569580Y-142440000D01*
X273520000Y-142710000D02*
X273250000Y-142440000D01*
X275840000Y-128590420D02*
X274800840Y-128590420D01*
X274800840Y-128590420D02*
X274760000Y-128549580D01*
X276820000Y-128420000D02*
X276010420Y-128420000D01*
X276010420Y-128420000D02*
X275840000Y-128590420D01*
X275909580Y-128800000D02*
X275729580Y-128620000D01*
X272140000Y-142010420D02*
X271050000Y-142010420D01*
X271050000Y-142010420D02*
X271040000Y-142000420D01*
X271040000Y-142000420D02*
X271040000Y-141910420D01*
X271040000Y-141910420D02*
X272750420Y-140200000D01*
X268820000Y-143300000D02*
X268820000Y-142257500D01*
X268820000Y-142257500D02*
X268940000Y-142137500D01*
X268809580Y-143310420D02*
X268820000Y-143300000D01*
X268940000Y-142137500D02*
X267700000Y-142137500D01*
X267700000Y-141362500D02*
X267700000Y-142137500D01*
X268940000Y-141362500D02*
X267700000Y-141362500D01*
X268320000Y-140200000D02*
X268320000Y-140742500D01*
X268320000Y-140742500D02*
X268940000Y-141362500D01*
X278326500Y-128500000D02*
X279070000Y-128500000D01*
D52*
X275450000Y-140999580D02*
X272999580Y-140999580D01*
X272750420Y-140750420D02*
X272750420Y-140200000D01*
X272999580Y-140999580D02*
X272750420Y-140750420D01*
D50*
X270230000Y-137508000D02*
X271738000Y-136000000D01*
X270230000Y-139280000D02*
X270230000Y-137508000D01*
D49*
X272750420Y-140200000D02*
X272750420Y-139709580D01*
X272750420Y-139709580D02*
X272950000Y-139510000D01*
X272950000Y-139510000D02*
X273609580Y-139510000D01*
X273609580Y-139510000D02*
X274070000Y-139049580D01*
D50*
X274000000Y-128549580D02*
X274760000Y-128549580D01*
X274760000Y-128549580D02*
X274830420Y-128620000D01*
D49*
X276900000Y-128500000D02*
X276820000Y-128420000D01*
X277637500Y-128500000D02*
X276900000Y-128500000D01*
X277637500Y-128500000D02*
X278326500Y-128500000D01*
X272750420Y-140200000D02*
X272750420Y-140375840D01*
D50*
X273150420Y-129450000D02*
X273150420Y-128799580D01*
X273400420Y-128549580D02*
X274000000Y-128549580D01*
X273150420Y-128799580D02*
X273400420Y-128549580D01*
X271150000Y-140200000D02*
X272750420Y-140200000D01*
X270230000Y-139280000D02*
X271150000Y-140200000D01*
D49*
X273200000Y-134549580D02*
X273449580Y-134549580D01*
X273449580Y-134549580D02*
X273900000Y-135000000D01*
X273900000Y-135000000D02*
X274800000Y-135000000D01*
X277600000Y-131000000D02*
X277600000Y-129700000D01*
X277350000Y-129450000D02*
X277350000Y-128500000D01*
X277600000Y-129700000D02*
X277350000Y-129450000D01*
X278356250Y-132331250D02*
X278356250Y-133443750D01*
X277243750Y-135668750D02*
X276131250Y-135668750D01*
X278356250Y-135668750D02*
X277243750Y-135668750D01*
X279468750Y-135668750D02*
X278356250Y-135668750D01*
X279468750Y-134556250D02*
X279468750Y-135668750D01*
X278356250Y-134556250D02*
X279468750Y-134556250D01*
X277243750Y-134556250D02*
X278356250Y-134556250D01*
X276131250Y-134556250D02*
X277243750Y-134556250D01*
X276131250Y-133443750D02*
X276131250Y-134556250D01*
X277243750Y-133443750D02*
X276131250Y-133443750D01*
X278356250Y-133443750D02*
X277243750Y-133443750D01*
X279468750Y-132331250D02*
X279468750Y-133443750D01*
X278356250Y-132331250D02*
X279468750Y-132331250D01*
X277243750Y-132331250D02*
X278356250Y-132331250D01*
X276131250Y-132331250D02*
X277243750Y-132331250D01*
X274800000Y-135000000D02*
X275687500Y-135000000D01*
X275687500Y-135000000D02*
X276131250Y-134556250D01*
X277600000Y-131000000D02*
X277600000Y-131975000D01*
X277600000Y-131975000D02*
X277243750Y-132331250D01*
D50*
X275450000Y-140999580D02*
X276100000Y-140999580D01*
X276100000Y-140999580D02*
X276850000Y-140999580D01*
D49*
X270800000Y-133500000D02*
X270050420Y-133500000D01*
X270050420Y-133500000D02*
X269800000Y-133750420D01*
X273200000Y-134549580D02*
X272250420Y-134549580D01*
X272250420Y-134549580D02*
X272200000Y-134600000D01*
X269800000Y-133750420D02*
X269093580Y-133750420D01*
X269093580Y-133750420D02*
X268986000Y-133858000D01*
X268986000Y-133858000D02*
X268986000Y-135610000D01*
X268986000Y-135610000D02*
X268986000Y-135636000D01*
X268986000Y-135636000D02*
X272034000Y-135636000D01*
X272034000Y-135636000D02*
X272200000Y-135470000D01*
X272200000Y-135470000D02*
X272200000Y-134650000D01*
D53*
X272300420Y-134549580D02*
X272200000Y-134650000D01*
D49*
X287477200Y-135221980D02*
X287594040Y-135221980D01*
X285968440Y-136187180D02*
X286054800Y-136100820D01*
X287740000Y-139830000D02*
X287740000Y-138985000D01*
X287914000Y-138811000D02*
X288577020Y-138811000D01*
X287740000Y-138985000D02*
X287914000Y-138811000D01*
D50*
X268170000Y-115237200D02*
X268170000Y-114430000D01*
X267654999Y-115752201D02*
X268170000Y-115237200D01*
X267654999Y-117914999D02*
X267654999Y-115752201D01*
X268170000Y-118430000D02*
X267654999Y-117914999D01*
X268477200Y-114930000D02*
X268170000Y-115237200D01*
X269370000Y-114930000D02*
X268477200Y-114930000D01*
X266645000Y-112905000D02*
X268170000Y-114430000D01*
X266645000Y-111245000D02*
X266645000Y-112905000D01*
D49*
X268170000Y-118932000D02*
X268170000Y-118430000D01*
X268170000Y-119841122D02*
X268170000Y-118932000D01*
X268837279Y-120508401D02*
X268170000Y-119841122D01*
X271632023Y-120508401D02*
X268837279Y-120508401D01*
X279070000Y-127946378D02*
X271632023Y-120508401D01*
X279070000Y-128500000D02*
X279070000Y-127946378D01*
X277089670Y-142220840D02*
X277190000Y-142220840D01*
X276738280Y-142572230D02*
X277089670Y-142220840D01*
X276738280Y-142672560D02*
X276738280Y-142572230D01*
X276700840Y-142710000D02*
X276738280Y-142672560D01*
X275900000Y-142710000D02*
X276700840Y-142710000D01*
X283925840Y-144775000D02*
X284690840Y-144010000D01*
X283670000Y-144775000D02*
X283925840Y-144775000D01*
X284690840Y-142870840D02*
X284322500Y-142502500D01*
X284690840Y-144010000D02*
X284690840Y-142870840D01*
X283913401Y-143222721D02*
X283913401Y-142057279D01*
X272467469Y-144788121D02*
X282348001Y-144788121D01*
X276738280Y-142220840D02*
X276266911Y-142692209D01*
X277190000Y-142220840D02*
X276738280Y-142220840D01*
X276266911Y-142692209D02*
X273507139Y-142692209D01*
X273507139Y-142692209D02*
X272421789Y-143777559D01*
X282348001Y-144788121D02*
X283913401Y-143222721D01*
X272421789Y-144742441D02*
X272467469Y-144788121D01*
X271950420Y-144260000D02*
X271298506Y-144260000D01*
X271298506Y-144260000D02*
X271246995Y-144311511D01*
X272351810Y-144310000D02*
X272421789Y-144310000D01*
X272301810Y-144260000D02*
X272351810Y-144310000D01*
X271950420Y-144260000D02*
X272301810Y-144260000D01*
X272421789Y-143777559D02*
X272421789Y-144310000D01*
X272421789Y-144310000D02*
X272421789Y-144742441D01*
D52*
X288941268Y-126116074D02*
X289281268Y-125776074D01*
X288941268Y-126946074D02*
X288941268Y-126116074D01*
D49*
X295160000Y-133961688D02*
X295160000Y-133430000D01*
X295160000Y-134282600D02*
X295160000Y-133961688D01*
X296703400Y-135001000D02*
X295878400Y-135001000D01*
X295878400Y-135001000D02*
X295160000Y-134282600D01*
D50*
X279720000Y-141780000D02*
X279050000Y-141110000D01*
X281100000Y-141780000D02*
X279720000Y-141780000D01*
D49*
X286688100Y-136282400D02*
X288230000Y-136282400D01*
X286054800Y-136100820D02*
X286506520Y-136100820D01*
X286506520Y-136100820D02*
X286688100Y-136282400D01*
X287966020Y-134860254D02*
X287980000Y-134874234D01*
X287966020Y-134850000D02*
X287966020Y-134860254D01*
X287966020Y-134850000D02*
X288500820Y-134315200D01*
X287594040Y-135221980D02*
X287966020Y-134850000D01*
X287030000Y-122510000D02*
X286630000Y-122910000D01*
X287680000Y-122510000D02*
X287030000Y-122510000D01*
X286380000Y-121860000D02*
X286630000Y-122110000D01*
X285580000Y-121860000D02*
X286380000Y-121860000D01*
X285519580Y-121920420D02*
X285580000Y-121860000D01*
X284270420Y-121920420D02*
X285519580Y-121920420D01*
X288941268Y-125756864D02*
X288941268Y-126116074D01*
X288941268Y-122213768D02*
X288941268Y-125756864D01*
X288184099Y-121456599D02*
X288941268Y-122213768D01*
X286731401Y-121456599D02*
X288184099Y-121456599D01*
X286630000Y-121558000D02*
X286731401Y-121456599D01*
X286630000Y-122110000D02*
X286630000Y-121558000D01*
X293965000Y-124108500D02*
X293965000Y-124998000D01*
X293888599Y-124032099D02*
X293965000Y-124108500D01*
X290573523Y-124032099D02*
X293888599Y-124032099D01*
X289281268Y-125324354D02*
X290573523Y-124032099D01*
X289281268Y-125776074D02*
X289281268Y-125324354D01*
X294615000Y-119122000D02*
X295265000Y-119122000D01*
X287429580Y-144110330D02*
X287429580Y-144010000D01*
X286764910Y-144775000D02*
X287429580Y-144110330D01*
X283670000Y-144775000D02*
X286764910Y-144775000D01*
X293965000Y-125887500D02*
X293965000Y-124998000D01*
X293965000Y-126358954D02*
X293965000Y-125887500D01*
X294846046Y-127240000D02*
X293965000Y-126358954D01*
X297810000Y-127240000D02*
X294846046Y-127240000D01*
X284665000Y-127055420D02*
X284569580Y-126960000D01*
X285720000Y-127008190D02*
X285720000Y-127359580D01*
X285671810Y-126960000D02*
X285720000Y-127008190D01*
X284569580Y-126960000D02*
X285671810Y-126960000D01*
X287445000Y-129825000D02*
X287445000Y-130325000D01*
X287445000Y-130325000D02*
X287445000Y-130825000D01*
X286515000Y-130325000D02*
X286230000Y-130610000D01*
X287445000Y-130325000D02*
X286515000Y-130325000D01*
X286230000Y-130610000D02*
X285160000Y-130610000D01*
X285160000Y-130610000D02*
X285160000Y-129540000D01*
X285160000Y-129540000D02*
X286230000Y-129540000D01*
X284945000Y-129325000D02*
X284945000Y-128325000D01*
X285160000Y-129540000D02*
X284945000Y-129325000D01*
X283705620Y-137254380D02*
X283720000Y-137240000D01*
X282587400Y-137254380D02*
X283705620Y-137254380D01*
X286054800Y-136100820D02*
X285931240Y-136100820D01*
X287445000Y-130825000D02*
X287445000Y-131365000D01*
X287445000Y-131365000D02*
X287380000Y-131430000D01*
X285279250Y-127359580D02*
X285720000Y-127359580D01*
X284945000Y-127693830D02*
X285279250Y-127359580D01*
X284945000Y-128325000D02*
X284945000Y-127693830D01*
X283720000Y-137240000D02*
X283820330Y-137240000D01*
X288926034Y-126930840D02*
X288941268Y-126946074D01*
X287830000Y-126930840D02*
X288926034Y-126930840D01*
X287731680Y-127029160D02*
X287830000Y-126930840D01*
X285710000Y-127029160D02*
X287731680Y-127029160D01*
X285361240Y-136100820D02*
X285070000Y-135809580D01*
X286054800Y-136100820D02*
X285361240Y-136100820D01*
X283720000Y-137240000D02*
X283720000Y-137770000D01*
X283720000Y-137770000D02*
X283820000Y-137870000D01*
D50*
X295915000Y-119122000D02*
X295265000Y-119122000D01*
X296565000Y-119122000D02*
X295915000Y-119122000D01*
D49*
X294615000Y-119122000D02*
X294615000Y-117985000D01*
X294615000Y-117985000D02*
X294090000Y-117460000D01*
D52*
G04 #@! TO.N,Net-(L1-Pad2)*
X268820000Y-140200000D02*
X268820000Y-139039580D01*
X268820000Y-139039580D02*
X268889580Y-138970000D01*
D49*
G04 #@! TO.N,Net-(R3-Pad1)*
X288358580Y-133173470D02*
X288358580Y-133121400D01*
X289399980Y-134214870D02*
X288358580Y-133173470D01*
X289399980Y-134315200D02*
X289399980Y-134214870D01*
X291067600Y-134315200D02*
X291103400Y-134351000D01*
X289399980Y-134315200D02*
X291067600Y-134315200D01*
G04 #@! TO.N,Net-(C14-Pad1)*
X276950000Y-143360000D02*
X275900000Y-143360000D01*
X277190000Y-143120000D02*
X276950000Y-143360000D01*
X277290330Y-143120000D02*
X277190000Y-143120000D01*
X278578631Y-141831699D02*
X277290330Y-143120000D01*
X278578631Y-140269979D02*
X278578631Y-141831699D01*
X278698610Y-140150000D02*
X278578631Y-140269979D01*
X279050000Y-140150000D02*
X278698610Y-140150000D01*
G04 #@! TO.N,/AIN_BAT_DIV_VOLTAGE*
X278150840Y-139698280D02*
X278150840Y-140150000D01*
X278150840Y-138340340D02*
X278150840Y-139698280D01*
X277600000Y-137789500D02*
X278150840Y-138340340D01*
X277600000Y-137000000D02*
X277600000Y-137789500D01*
X278150840Y-141110000D02*
X278150840Y-140150000D01*
G04 #@! TO.N,/LOAD_SW_CTRL*
X274000000Y-142060000D02*
X274740000Y-142060000D01*
X277200000Y-137820000D02*
X277200000Y-137000000D01*
X277570000Y-138190000D02*
X277200000Y-137820000D01*
X277570000Y-141370000D02*
X277570000Y-138190000D01*
X277440000Y-141500000D02*
X277570000Y-141370000D01*
X275300000Y-141500000D02*
X277440000Y-141500000D01*
X274740000Y-142060000D02*
X275300000Y-141500000D01*
G04 #@! TO.N,5V_in_charge*
X288310000Y-142955000D02*
X289495000Y-142955000D01*
X289495000Y-142955000D02*
X289520000Y-142980000D01*
X286530420Y-144010000D02*
X286530420Y-143719580D01*
X286530420Y-143719580D02*
X286880000Y-143370000D01*
X287895000Y-143370000D02*
X288310000Y-142955000D01*
X286880000Y-143370000D02*
X287895000Y-143370000D01*
X289520000Y-142980000D02*
X291740000Y-142980000D01*
X294720000Y-143240000D02*
X295990000Y-144510000D01*
X292000000Y-143240000D02*
X294720000Y-143240000D01*
X291740000Y-142980000D02*
X292000000Y-143240000D01*
X286530420Y-144010000D02*
X286530420Y-143210420D01*
X286530420Y-143210420D02*
X286210000Y-142890000D01*
X286210000Y-142390000D02*
X286210000Y-142890000D01*
X285590000Y-144010000D02*
X286530420Y-144010000D01*
G04 #@! TO.N,Net-(D3-Pad1)*
X283310000Y-141390000D02*
X283310000Y-141240000D01*
X283310000Y-141240000D02*
X283840000Y-140710000D01*
X283840000Y-140710000D02*
X283840000Y-140050000D01*
G04 #@! TO.N,Net-(R9-Pad1)*
X283310000Y-142890000D02*
X282390420Y-142890000D01*
X282390420Y-142890000D02*
X282140000Y-142639580D01*
G04 #@! TO.N,/BATT_IN*
X287490000Y-141469580D02*
X288010420Y-141469580D01*
X290930000Y-144450000D02*
X290000000Y-145010000D01*
X290930000Y-144450000D02*
X292380000Y-144450000D01*
X288010420Y-141469580D02*
X288340000Y-141140000D01*
X287490000Y-141469580D02*
X287490000Y-142610000D01*
X286210000Y-141890000D02*
X286210000Y-141390000D01*
X286210000Y-141390000D02*
X287410420Y-141390000D01*
X287410420Y-141390000D02*
X287490000Y-141469580D01*
X287490000Y-142610000D02*
X287610000Y-142730000D01*
G04 #@! TO.N,/ELECTRODE_INPUT*
X292391000Y-135651000D02*
X292400000Y-135660000D01*
X291103400Y-135651000D02*
X292391000Y-135651000D01*
X290913999Y-131466001D02*
X290913999Y-129836001D01*
X290660000Y-131720000D02*
X290913999Y-131466001D01*
X293315000Y-127435000D02*
X293315000Y-124998000D01*
X290913999Y-129836001D02*
X293315000Y-127435000D01*
X294463000Y-127435000D02*
X293315000Y-127435000D01*
X296808000Y-129780000D02*
X294463000Y-127435000D01*
X297810000Y-129780000D02*
X296808000Y-129780000D01*
G04 #@! TO.N,Net-(R11-Pad1)*
X291324110Y-132830290D02*
X291324110Y-132335890D01*
X291103400Y-133051000D02*
X291324110Y-132830290D01*
X292620000Y-131040000D02*
X293070840Y-131040000D01*
X291324110Y-132335890D02*
X292620000Y-131040000D01*
X291103400Y-133701000D02*
X291103400Y-133051000D01*
G04 #@! TO.N,Net-(R11-Pad2)*
X295180420Y-131040000D02*
X295190420Y-131050000D01*
X296482690Y-136521710D02*
X295801710Y-136521710D01*
X296703400Y-136301000D02*
X296482690Y-136521710D01*
X294530000Y-135250000D02*
X294530000Y-131040000D01*
X295801710Y-136521710D02*
X294530000Y-135250000D01*
X293970000Y-131040000D02*
X294530000Y-131040000D01*
X294530000Y-131040000D02*
X295180420Y-131040000D01*
G04 #@! TO.N,Net-(R12-Pad1)*
X291103400Y-136301000D02*
X291103400Y-136951000D01*
X291541200Y-139098020D02*
X292481980Y-139098020D01*
X292481980Y-139098020D02*
X292510000Y-139070000D01*
X291224400Y-136830000D02*
X291103400Y-136951000D01*
X292410000Y-136830000D02*
X291224400Y-136830000D01*
G04 #@! TO.N,Net-(R12-Pad2)*
X289476180Y-138911330D02*
X289476180Y-138811000D01*
X290562030Y-139997180D02*
X289476180Y-138911330D01*
X291541200Y-139997180D02*
X290562030Y-139997180D01*
X291544020Y-140000000D02*
X291541200Y-139997180D01*
X292580000Y-140000000D02*
X291544020Y-140000000D01*
X295430000Y-135290000D02*
X295400000Y-135290000D01*
X296703400Y-135651000D02*
X296482690Y-135871710D01*
X296482690Y-135871710D02*
X296011710Y-135871710D01*
X296011710Y-135871710D02*
X295430000Y-135290000D01*
X295400000Y-135290000D02*
X295250000Y-135140000D01*
G04 #@! TO.N,Net-(R14-Pad2)*
X287451800Y-138015980D02*
X290161980Y-138015980D01*
X290161980Y-138015980D02*
X290652200Y-138506200D01*
X290652200Y-138506200D02*
X296519600Y-138506200D01*
X296519600Y-138506200D02*
X296703400Y-138322400D01*
X296703400Y-137780000D02*
X296703400Y-136951000D01*
X296703400Y-138322400D02*
X296703400Y-137780000D01*
D52*
X296710000Y-131670420D02*
X296089580Y-131050000D01*
X296710000Y-131960000D02*
X296710000Y-131670420D01*
D49*
G04 #@! TO.N,/DAT0_MISO*
X280900000Y-131800000D02*
X280950000Y-131800000D01*
D53*
X280900000Y-131800000D02*
X281100000Y-131800000D01*
D49*
X281352000Y-131800000D02*
X280800000Y-131800000D01*
X282638401Y-130513599D02*
X281352000Y-131800000D01*
X282638401Y-118366721D02*
X282638401Y-130513599D01*
X278201680Y-113930000D02*
X282638401Y-118366721D01*
X269370000Y-113930000D02*
X278201680Y-113930000D01*
G04 #@! TO.N,/uSD_CLK*
X280055590Y-129592410D02*
X280055590Y-116214410D01*
X279200000Y-131000000D02*
X279200000Y-130448000D01*
X279200000Y-130448000D02*
X280055590Y-129592410D01*
X279771180Y-115930000D02*
X269370000Y-115930000D01*
X280055590Y-116214410D02*
X279771180Y-115930000D01*
G04 #@! TO.N,/CMD_MOSI*
X278800000Y-131000000D02*
X278800000Y-130320000D01*
X279552401Y-129567599D02*
X279552401Y-119232401D01*
X278800000Y-130320000D02*
X279552401Y-129567599D01*
X278250000Y-117930000D02*
X269370000Y-117930000D01*
X279552401Y-119232401D02*
X278250000Y-117930000D01*
G04 #@! TO.N,/DAT3_CS*
X269370000Y-118930000D02*
X277110000Y-118930000D01*
X277110000Y-118930000D02*
X279060000Y-120880000D01*
X279060000Y-120880000D02*
X279060000Y-125990000D01*
X278400000Y-130037782D02*
X278400000Y-131000000D01*
X278813891Y-129623891D02*
X278400000Y-130037782D01*
G04 #@! TO.N,/RT_1*
X287477200Y-133139180D02*
X287459420Y-133121400D01*
X287477200Y-134322820D02*
X287477200Y-133139180D01*
X286282700Y-134398320D02*
X286283400Y-134399020D01*
X287401000Y-134399020D02*
X287477200Y-134322820D01*
X286283400Y-134399020D02*
X287401000Y-134399020D01*
X292665000Y-124998000D02*
X292665000Y-127115000D01*
X292665000Y-127115000D02*
X291480000Y-128300000D01*
X288060000Y-132520820D02*
X287459420Y-133121400D01*
X288060000Y-132100000D02*
X288060000Y-132520820D01*
X286283400Y-134399020D02*
X286183070Y-134399020D01*
X285772000Y-134910420D02*
X286283400Y-134399020D01*
X285070000Y-134910420D02*
X285772000Y-134910420D01*
G04 #@! TO.N,/ADC_AIN0*
X286171640Y-137116820D02*
X286054800Y-136999980D01*
X287451800Y-137116820D02*
X286171640Y-137116820D01*
X283945000Y-129325000D02*
X283945000Y-128555000D01*
X283945000Y-128555000D02*
X283920000Y-128530000D01*
X285984780Y-137070000D02*
X286054800Y-136999980D01*
X285310000Y-137070000D02*
X285984780Y-137070000D01*
G04 #@! TO.N,/AD5242_SCL*
X280800000Y-133000000D02*
X282230390Y-133000000D01*
X282230390Y-133000000D02*
X282415195Y-132815195D01*
X290599580Y-122600000D02*
X290940000Y-122259580D01*
X290030000Y-122600000D02*
X290599580Y-122600000D01*
X295915000Y-124108500D02*
X295915000Y-124998000D01*
X294066080Y-122259580D02*
X295915000Y-124108500D01*
X290940000Y-122259580D02*
X294066080Y-122259580D01*
G04 #@! TO.N,/AD5242_SDA*
X280800000Y-133400000D02*
X281787600Y-133400000D01*
X281787600Y-133400000D02*
X281870000Y-133482400D01*
X289600420Y-121330000D02*
X289990000Y-121719580D01*
X289010000Y-121330000D02*
X289600420Y-121330000D01*
X296565000Y-124108500D02*
X296565000Y-124998000D01*
X294288289Y-121831789D02*
X296565000Y-124108500D01*
X290553929Y-121831789D02*
X294288289Y-121831789D01*
X290441720Y-121719580D02*
X290553929Y-121831789D01*
X289990000Y-121719580D02*
X290441720Y-121719580D01*
G04 #@! TO.N,/TMP_SDA*
X285190000Y-124300000D02*
X284640000Y-123750000D01*
X285570000Y-124300000D02*
X285190000Y-124300000D01*
X284990000Y-123750000D02*
X285580000Y-123160000D01*
X280800000Y-132200000D02*
X281634218Y-132200000D01*
X281634218Y-132200000D02*
X281905980Y-131928238D01*
X284640000Y-123750000D02*
X284730000Y-123750000D01*
X284730000Y-123750000D02*
X284990000Y-123750000D01*
G04 #@! TO.N,/TMP_SCL*
X287050000Y-124080000D02*
X286880000Y-124250000D01*
X287450000Y-124080000D02*
X287050000Y-124080000D01*
X287450000Y-123390000D02*
X287680000Y-123160000D01*
X282442109Y-132106063D02*
X282442109Y-131392109D01*
X280800000Y-132600000D02*
X281948172Y-132600000D01*
X281948172Y-132600000D02*
X282442109Y-132106063D01*
X287450000Y-124080000D02*
X287450000Y-123780000D01*
X287450000Y-123780000D02*
X287450000Y-123390000D01*
D52*
G04 #@! TO.N,AVDD*
X288941268Y-128292074D02*
X288941268Y-128846074D01*
X288941268Y-128150074D02*
X288941268Y-128292074D01*
X289591268Y-127500074D02*
X288941268Y-128150074D01*
X289591268Y-126946074D02*
X289591268Y-127500074D01*
D49*
X283670420Y-127411720D02*
X283670420Y-126960000D01*
X283316590Y-127765550D02*
X283670420Y-127411720D01*
X283316590Y-129477600D02*
X283316590Y-127765550D01*
X283663990Y-129825000D02*
X283316590Y-129477600D01*
X283945000Y-129825000D02*
X283663990Y-129825000D01*
X288941268Y-128721074D02*
X288941268Y-128846074D01*
X288050194Y-127830000D02*
X288941268Y-128721074D01*
X287830000Y-127830000D02*
X288050194Y-127830000D01*
X283670420Y-126960000D02*
X283670420Y-126689580D01*
X283670420Y-126689580D02*
X283990000Y-126370000D01*
X287830000Y-127830000D02*
X287320000Y-127830000D01*
X287320000Y-127830000D02*
X287040000Y-127550000D01*
G04 #@! TO.N,/~DRDY*
X283945000Y-131117000D02*
X283945000Y-130825000D01*
X281963954Y-134200000D02*
X283945000Y-132218954D01*
X280800000Y-134200000D02*
X281963954Y-134200000D01*
X283945000Y-132218954D02*
X283945000Y-131117000D01*
G04 #@! TO.N,/DOUT*
X280800000Y-134600000D02*
X283090000Y-134600000D01*
X284945000Y-132745000D02*
X284945000Y-131825000D01*
X283090000Y-134600000D02*
X284945000Y-132745000D01*
G04 #@! TO.N,/DIN*
X285445000Y-132377000D02*
X285445000Y-131825000D01*
X285445000Y-132675500D02*
X285445000Y-132377000D01*
X283120500Y-135000000D02*
X285445000Y-132675500D01*
X280800000Y-135000000D02*
X283120500Y-135000000D01*
G04 #@! TO.N,/SPI_SCLK*
X285945000Y-132377000D02*
X285945000Y-131825000D01*
X285945000Y-132655188D02*
X285945000Y-132377000D01*
X283200188Y-135400000D02*
X285945000Y-132655188D01*
X280800000Y-135400000D02*
X283200188Y-135400000D01*
G04 #@! TO.N,/SPI_~CS*
X286445000Y-132377000D02*
X286445000Y-131825000D01*
X286445000Y-132585688D02*
X286445000Y-132377000D01*
X283230688Y-135800000D02*
X286445000Y-132585688D01*
X280800000Y-135800000D02*
X283230688Y-135800000D01*
G04 #@! TO.N,Net-(L2-Pad1)*
X289591268Y-129323074D02*
X289591268Y-128846074D01*
X289391768Y-129522574D02*
X289591268Y-129323074D01*
X288986768Y-129522574D02*
X289391768Y-129522574D01*
X288517268Y-129992074D02*
X288986768Y-129522574D01*
X288517268Y-130246074D02*
X288517268Y-129992074D01*
G04 #@! TO.N,/LOAD_IN*
X289520000Y-141380000D02*
X289520000Y-140520000D01*
X289830000Y-144010000D02*
X289209580Y-144010000D01*
X289860000Y-144040000D02*
X289830000Y-144010000D01*
X288310000Y-142505000D02*
X288310000Y-141930000D01*
X288860000Y-141380000D02*
X289520000Y-141380000D01*
X288310000Y-141930000D02*
X288860000Y-141380000D01*
X273649250Y-143360000D02*
X274000000Y-143360000D01*
X272849580Y-144159670D02*
X273649250Y-143360000D01*
X272849580Y-144260000D02*
X272849580Y-144159670D01*
X279218000Y-143420000D02*
X278698000Y-143940000D01*
X279670000Y-143420000D02*
X279218000Y-143420000D01*
X274477000Y-143360000D02*
X274000000Y-143360000D01*
X275057000Y-143940000D02*
X274477000Y-143360000D01*
X278698000Y-143940000D02*
X275057000Y-143940000D01*
X279670000Y-143420000D02*
X279670000Y-143840000D01*
X279670000Y-143840000D02*
X279880000Y-144050000D01*
G04 #@! TO.N,/TMP_ALERT*
X288157000Y-121860000D02*
X287680000Y-121860000D01*
X288233401Y-121936401D02*
X288157000Y-121860000D01*
X288233401Y-123926049D02*
X288233401Y-121936401D01*
X288230000Y-123929450D02*
X288233401Y-123926049D01*
X288230000Y-124280840D02*
X288230000Y-123929450D01*
G04 #@! TD*
D54*
G04 #@! TO.N,DGND*
G36*
X297927389Y-145295000D02*
X297517440Y-145295000D01*
X297517440Y-143630000D01*
X297468157Y-143382235D01*
X297327809Y-143172191D01*
X297117765Y-143031843D01*
X297014292Y-143011261D01*
X297291645Y-142706924D01*
X297461476Y-142296890D01*
X297340155Y-142067000D01*
X296147000Y-142067000D01*
X296147000Y-142087000D01*
X295893000Y-142087000D01*
X295893000Y-142067000D01*
X294699845Y-142067000D01*
X294578524Y-142296890D01*
X294672782Y-142524464D01*
X294649979Y-142529000D01*
X293765339Y-142529000D01*
X293861476Y-142296890D01*
X293740155Y-142067000D01*
X292547000Y-142067000D01*
X292547000Y-142087000D01*
X292293000Y-142087000D01*
X292293000Y-142067000D01*
X291099845Y-142067000D01*
X290993243Y-142269000D01*
X290475904Y-142269000D01*
X290416436Y-142180000D01*
X290518157Y-142027765D01*
X290567440Y-141780000D01*
X290567440Y-140980000D01*
X290518157Y-140732235D01*
X290503628Y-140710491D01*
X290562030Y-140722108D01*
X290632051Y-140708180D01*
X290864189Y-140708180D01*
X290993715Y-140794727D01*
X291241480Y-140844010D01*
X291448244Y-140844010D01*
X291148355Y-141173076D01*
X290978524Y-141583110D01*
X291099845Y-141813000D01*
X292293000Y-141813000D01*
X292293000Y-141793000D01*
X292547000Y-141793000D01*
X292547000Y-141813000D01*
X293740155Y-141813000D01*
X293861476Y-141583110D01*
X294578524Y-141583110D01*
X294699845Y-141813000D01*
X295893000Y-141813000D01*
X295893000Y-140619181D01*
X296147000Y-140619181D01*
X296147000Y-141813000D01*
X297340155Y-141813000D01*
X297461476Y-141583110D01*
X297291645Y-141173076D01*
X296901358Y-140744817D01*
X296376892Y-140498514D01*
X296147000Y-140619181D01*
X295893000Y-140619181D01*
X295663108Y-140498514D01*
X295138642Y-140744817D01*
X294748355Y-141173076D01*
X294578524Y-141583110D01*
X293861476Y-141583110D01*
X293691645Y-141173076D01*
X293301358Y-140744817D01*
X293159186Y-140678050D01*
X293333658Y-140503578D01*
X293469000Y-140176833D01*
X293469000Y-139823167D01*
X293333658Y-139496422D01*
X293306759Y-139469523D01*
X293399000Y-139246833D01*
X293399000Y-139217200D01*
X296449579Y-139217200D01*
X296519600Y-139231128D01*
X296589621Y-139217200D01*
X296589626Y-139217200D01*
X296797018Y-139175947D01*
X297032202Y-139018802D01*
X297071869Y-138959436D01*
X297156638Y-138874667D01*
X297216001Y-138835002D01*
X297373147Y-138599818D01*
X297414400Y-138392426D01*
X297414400Y-138392421D01*
X297428328Y-138322401D01*
X297426653Y-138313983D01*
X297457058Y-138283578D01*
X297592400Y-137956833D01*
X297592400Y-137700900D01*
X297629866Y-137693448D01*
X297864242Y-137536842D01*
X297945545Y-137415164D01*
X297927389Y-145295000D01*
X297927389Y-145295000D01*
G37*
X297927389Y-145295000D02*
X297517440Y-145295000D01*
X297517440Y-143630000D01*
X297468157Y-143382235D01*
X297327809Y-143172191D01*
X297117765Y-143031843D01*
X297014292Y-143011261D01*
X297291645Y-142706924D01*
X297461476Y-142296890D01*
X297340155Y-142067000D01*
X296147000Y-142067000D01*
X296147000Y-142087000D01*
X295893000Y-142087000D01*
X295893000Y-142067000D01*
X294699845Y-142067000D01*
X294578524Y-142296890D01*
X294672782Y-142524464D01*
X294649979Y-142529000D01*
X293765339Y-142529000D01*
X293861476Y-142296890D01*
X293740155Y-142067000D01*
X292547000Y-142067000D01*
X292547000Y-142087000D01*
X292293000Y-142087000D01*
X292293000Y-142067000D01*
X291099845Y-142067000D01*
X290993243Y-142269000D01*
X290475904Y-142269000D01*
X290416436Y-142180000D01*
X290518157Y-142027765D01*
X290567440Y-141780000D01*
X290567440Y-140980000D01*
X290518157Y-140732235D01*
X290503628Y-140710491D01*
X290562030Y-140722108D01*
X290632051Y-140708180D01*
X290864189Y-140708180D01*
X290993715Y-140794727D01*
X291241480Y-140844010D01*
X291448244Y-140844010D01*
X291148355Y-141173076D01*
X290978524Y-141583110D01*
X291099845Y-141813000D01*
X292293000Y-141813000D01*
X292293000Y-141793000D01*
X292547000Y-141793000D01*
X292547000Y-141813000D01*
X293740155Y-141813000D01*
X293861476Y-141583110D01*
X294578524Y-141583110D01*
X294699845Y-141813000D01*
X295893000Y-141813000D01*
X295893000Y-140619181D01*
X296147000Y-140619181D01*
X296147000Y-141813000D01*
X297340155Y-141813000D01*
X297461476Y-141583110D01*
X297291645Y-141173076D01*
X296901358Y-140744817D01*
X296376892Y-140498514D01*
X296147000Y-140619181D01*
X295893000Y-140619181D01*
X295663108Y-140498514D01*
X295138642Y-140744817D01*
X294748355Y-141173076D01*
X294578524Y-141583110D01*
X293861476Y-141583110D01*
X293691645Y-141173076D01*
X293301358Y-140744817D01*
X293159186Y-140678050D01*
X293333658Y-140503578D01*
X293469000Y-140176833D01*
X293469000Y-139823167D01*
X293333658Y-139496422D01*
X293306759Y-139469523D01*
X293399000Y-139246833D01*
X293399000Y-139217200D01*
X296449579Y-139217200D01*
X296519600Y-139231128D01*
X296589621Y-139217200D01*
X296589626Y-139217200D01*
X296797018Y-139175947D01*
X297032202Y-139018802D01*
X297071869Y-138959436D01*
X297156638Y-138874667D01*
X297216001Y-138835002D01*
X297373147Y-138599818D01*
X297414400Y-138392426D01*
X297414400Y-138392421D01*
X297428328Y-138322401D01*
X297426653Y-138313983D01*
X297457058Y-138283578D01*
X297592400Y-137956833D01*
X297592400Y-137700900D01*
X297629866Y-137693448D01*
X297864242Y-137536842D01*
X297945545Y-137415164D01*
X297927389Y-145295000D01*
G36*
X282687235Y-143638157D02*
X282935000Y-143687440D01*
X283685000Y-143687440D01*
X283856450Y-143653337D01*
X283856450Y-143724250D01*
X283938975Y-143806775D01*
X283862752Y-143882998D01*
X283856450Y-143882998D01*
X283856450Y-143889300D01*
X283797000Y-143948750D01*
X283797000Y-144648000D01*
X283944251Y-144648000D01*
X283953123Y-144669419D01*
X284131752Y-144848047D01*
X284262006Y-144902000D01*
X283797000Y-144902000D01*
X283797000Y-144922000D01*
X283543000Y-144922000D01*
X283543000Y-144902000D01*
X282743750Y-144902000D01*
X282585000Y-145060750D01*
X282585000Y-145251309D01*
X282603097Y-145295000D01*
X278736903Y-145295000D01*
X278755000Y-145251309D01*
X278755000Y-145060750D01*
X278596250Y-144902000D01*
X277797000Y-144902000D01*
X277797000Y-144922000D01*
X277543000Y-144922000D01*
X277543000Y-144902000D01*
X276743750Y-144902000D01*
X276585000Y-145060750D01*
X276585000Y-145251309D01*
X276603097Y-145295000D01*
X266585000Y-145295000D01*
X266585000Y-143892456D01*
X266712191Y-144082809D01*
X266922235Y-144223157D01*
X267170000Y-144272440D01*
X267470000Y-144272440D01*
X267570000Y-144252549D01*
X267670000Y-144272440D01*
X267795932Y-144272440D01*
X267807399Y-144289602D01*
X267853196Y-144320203D01*
X267883799Y-144366003D01*
X268118983Y-144523148D01*
X268326375Y-144564401D01*
X268326380Y-144564401D01*
X268396400Y-144578329D01*
X268466421Y-144564401D01*
X269893764Y-144564401D01*
X269936422Y-144607059D01*
X270263167Y-144742401D01*
X270616833Y-144742401D01*
X270943578Y-144607059D01*
X270986236Y-144564401D01*
X271025828Y-144564401D01*
X271095849Y-144578329D01*
X271116030Y-144574315D01*
X271116030Y-144686030D01*
X271212703Y-144919419D01*
X271391332Y-145098047D01*
X271624721Y-145194720D01*
X271691975Y-145194720D01*
X271850725Y-145035970D01*
X271850725Y-144387000D01*
X271803420Y-144387000D01*
X271803420Y-144151335D01*
X271821755Y-144133000D01*
X271850725Y-144133000D01*
X271850725Y-144113000D01*
X272002750Y-144113000D01*
X272002750Y-144559720D01*
X272050115Y-144797842D01*
X272050115Y-145035970D01*
X272208865Y-145194720D01*
X272276119Y-145194720D01*
X272388128Y-145148324D01*
X272402425Y-145157877D01*
X272650190Y-145207160D01*
X273048970Y-145207160D01*
X273296735Y-145157877D01*
X273506779Y-145017529D01*
X273647127Y-144807485D01*
X273696410Y-144559720D01*
X273696410Y-144318345D01*
X273807316Y-144207440D01*
X274318935Y-144207440D01*
X274504731Y-144393236D01*
X274544398Y-144452602D01*
X274779582Y-144609747D01*
X274986974Y-144651000D01*
X274986979Y-144651000D01*
X275057000Y-144664928D01*
X275127021Y-144651000D01*
X278627979Y-144651000D01*
X278698000Y-144664928D01*
X278768021Y-144651000D01*
X278768026Y-144651000D01*
X278975418Y-144609747D01*
X279111848Y-144518587D01*
X279126342Y-144553578D01*
X279376422Y-144803658D01*
X279703167Y-144939000D01*
X280056833Y-144939000D01*
X280383578Y-144803658D01*
X280633658Y-144553578D01*
X280729398Y-144322440D01*
X280970000Y-144322440D01*
X281170000Y-144282658D01*
X281370000Y-144322440D01*
X281970000Y-144322440D01*
X282089395Y-144298691D01*
X282585000Y-144298691D01*
X282585000Y-144489250D01*
X282743750Y-144648000D01*
X283543000Y-144648000D01*
X283543000Y-143948750D01*
X283384250Y-143790000D01*
X283093690Y-143790000D01*
X282860301Y-143886673D01*
X282681673Y-144065302D01*
X282585000Y-144298691D01*
X282089395Y-144298691D01*
X282217765Y-144273157D01*
X282427809Y-144132809D01*
X282568157Y-143922765D01*
X282617440Y-143675000D01*
X282617440Y-143601000D01*
X282631626Y-143601000D01*
X282687235Y-143638157D01*
X282687235Y-143638157D01*
G37*
X282687235Y-143638157D02*
X282935000Y-143687440D01*
X283685000Y-143687440D01*
X283856450Y-143653337D01*
X283856450Y-143724250D01*
X283938975Y-143806775D01*
X283862752Y-143882998D01*
X283856450Y-143882998D01*
X283856450Y-143889300D01*
X283797000Y-143948750D01*
X283797000Y-144648000D01*
X283944251Y-144648000D01*
X283953123Y-144669419D01*
X284131752Y-144848047D01*
X284262006Y-144902000D01*
X283797000Y-144902000D01*
X283797000Y-144922000D01*
X283543000Y-144922000D01*
X283543000Y-144902000D01*
X282743750Y-144902000D01*
X282585000Y-145060750D01*
X282585000Y-145251309D01*
X282603097Y-145295000D01*
X278736903Y-145295000D01*
X278755000Y-145251309D01*
X278755000Y-145060750D01*
X278596250Y-144902000D01*
X277797000Y-144902000D01*
X277797000Y-144922000D01*
X277543000Y-144922000D01*
X277543000Y-144902000D01*
X276743750Y-144902000D01*
X276585000Y-145060750D01*
X276585000Y-145251309D01*
X276603097Y-145295000D01*
X266585000Y-145295000D01*
X266585000Y-143892456D01*
X266712191Y-144082809D01*
X266922235Y-144223157D01*
X267170000Y-144272440D01*
X267470000Y-144272440D01*
X267570000Y-144252549D01*
X267670000Y-144272440D01*
X267795932Y-144272440D01*
X267807399Y-144289602D01*
X267853196Y-144320203D01*
X267883799Y-144366003D01*
X268118983Y-144523148D01*
X268326375Y-144564401D01*
X268326380Y-144564401D01*
X268396400Y-144578329D01*
X268466421Y-144564401D01*
X269893764Y-144564401D01*
X269936422Y-144607059D01*
X270263167Y-144742401D01*
X270616833Y-144742401D01*
X270943578Y-144607059D01*
X270986236Y-144564401D01*
X271025828Y-144564401D01*
X271095849Y-144578329D01*
X271116030Y-144574315D01*
X271116030Y-144686030D01*
X271212703Y-144919419D01*
X271391332Y-145098047D01*
X271624721Y-145194720D01*
X271691975Y-145194720D01*
X271850725Y-145035970D01*
X271850725Y-144387000D01*
X271803420Y-144387000D01*
X271803420Y-144151335D01*
X271821755Y-144133000D01*
X271850725Y-144133000D01*
X271850725Y-144113000D01*
X272002750Y-144113000D01*
X272002750Y-144559720D01*
X272050115Y-144797842D01*
X272050115Y-145035970D01*
X272208865Y-145194720D01*
X272276119Y-145194720D01*
X272388128Y-145148324D01*
X272402425Y-145157877D01*
X272650190Y-145207160D01*
X273048970Y-145207160D01*
X273296735Y-145157877D01*
X273506779Y-145017529D01*
X273647127Y-144807485D01*
X273696410Y-144559720D01*
X273696410Y-144318345D01*
X273807316Y-144207440D01*
X274318935Y-144207440D01*
X274504731Y-144393236D01*
X274544398Y-144452602D01*
X274779582Y-144609747D01*
X274986974Y-144651000D01*
X274986979Y-144651000D01*
X275057000Y-144664928D01*
X275127021Y-144651000D01*
X278627979Y-144651000D01*
X278698000Y-144664928D01*
X278768021Y-144651000D01*
X278768026Y-144651000D01*
X278975418Y-144609747D01*
X279111848Y-144518587D01*
X279126342Y-144553578D01*
X279376422Y-144803658D01*
X279703167Y-144939000D01*
X280056833Y-144939000D01*
X280383578Y-144803658D01*
X280633658Y-144553578D01*
X280729398Y-144322440D01*
X280970000Y-144322440D01*
X281170000Y-144282658D01*
X281370000Y-144322440D01*
X281970000Y-144322440D01*
X282089395Y-144298691D01*
X282585000Y-144298691D01*
X282585000Y-144489250D01*
X282743750Y-144648000D01*
X283543000Y-144648000D01*
X283543000Y-143948750D01*
X283384250Y-143790000D01*
X283093690Y-143790000D01*
X282860301Y-143886673D01*
X282681673Y-144065302D01*
X282585000Y-144298691D01*
X282089395Y-144298691D01*
X282217765Y-144273157D01*
X282427809Y-144132809D01*
X282568157Y-143922765D01*
X282617440Y-143675000D01*
X282617440Y-143601000D01*
X282631626Y-143601000D01*
X282687235Y-143638157D01*
G36*
X288362750Y-144309720D02*
X288410115Y-144547842D01*
X288410115Y-144785970D01*
X288568865Y-144944720D01*
X288636119Y-144944720D01*
X288748128Y-144898324D01*
X288762425Y-144907877D01*
X289010190Y-144957160D01*
X289111000Y-144957160D01*
X289111000Y-145186833D01*
X289155804Y-145295000D01*
X284736903Y-145295000D01*
X284755000Y-145251309D01*
X284755000Y-145060750D01*
X284596250Y-144902000D01*
X284475115Y-144902000D01*
X284591145Y-144785970D01*
X284591145Y-144648000D01*
X284596250Y-144648000D01*
X284755000Y-144489250D01*
X284755000Y-144369194D01*
X284790535Y-144547842D01*
X284790535Y-144785970D01*
X284949285Y-144944720D01*
X285016539Y-144944720D01*
X285128548Y-144898324D01*
X285142845Y-144907877D01*
X285390610Y-144957160D01*
X285789390Y-144957160D01*
X286037155Y-144907877D01*
X286060210Y-144892472D01*
X286083265Y-144907877D01*
X286331030Y-144957160D01*
X286729810Y-144957160D01*
X286977575Y-144907877D01*
X286991872Y-144898324D01*
X287103881Y-144944720D01*
X287171135Y-144944720D01*
X287329885Y-144785970D01*
X287329885Y-144547842D01*
X287377250Y-144309720D01*
X287377250Y-144081000D01*
X287476030Y-144081000D01*
X287476030Y-144137002D01*
X287529275Y-144137002D01*
X287529275Y-144242505D01*
X287476030Y-144295750D01*
X287476030Y-144436030D01*
X287529275Y-144564575D01*
X287529275Y-144785970D01*
X287688025Y-144944720D01*
X287755279Y-144944720D01*
X287870000Y-144897201D01*
X287984721Y-144944720D01*
X288051975Y-144944720D01*
X288210725Y-144785970D01*
X288210725Y-144564575D01*
X288263970Y-144436030D01*
X288263970Y-144295750D01*
X288210725Y-144242505D01*
X288210725Y-144137000D01*
X288163420Y-144137000D01*
X288163420Y-144041537D01*
X288172418Y-144039747D01*
X288362750Y-143912571D01*
X288362750Y-144309720D01*
X288362750Y-144309720D01*
G37*
X288362750Y-144309720D02*
X288410115Y-144547842D01*
X288410115Y-144785970D01*
X288568865Y-144944720D01*
X288636119Y-144944720D01*
X288748128Y-144898324D01*
X288762425Y-144907877D01*
X289010190Y-144957160D01*
X289111000Y-144957160D01*
X289111000Y-145186833D01*
X289155804Y-145295000D01*
X284736903Y-145295000D01*
X284755000Y-145251309D01*
X284755000Y-145060750D01*
X284596250Y-144902000D01*
X284475115Y-144902000D01*
X284591145Y-144785970D01*
X284591145Y-144648000D01*
X284596250Y-144648000D01*
X284755000Y-144489250D01*
X284755000Y-144369194D01*
X284790535Y-144547842D01*
X284790535Y-144785970D01*
X284949285Y-144944720D01*
X285016539Y-144944720D01*
X285128548Y-144898324D01*
X285142845Y-144907877D01*
X285390610Y-144957160D01*
X285789390Y-144957160D01*
X286037155Y-144907877D01*
X286060210Y-144892472D01*
X286083265Y-144907877D01*
X286331030Y-144957160D01*
X286729810Y-144957160D01*
X286977575Y-144907877D01*
X286991872Y-144898324D01*
X287103881Y-144944720D01*
X287171135Y-144944720D01*
X287329885Y-144785970D01*
X287329885Y-144547842D01*
X287377250Y-144309720D01*
X287377250Y-144081000D01*
X287476030Y-144081000D01*
X287476030Y-144137002D01*
X287529275Y-144137002D01*
X287529275Y-144242505D01*
X287476030Y-144295750D01*
X287476030Y-144436030D01*
X287529275Y-144564575D01*
X287529275Y-144785970D01*
X287688025Y-144944720D01*
X287755279Y-144944720D01*
X287870000Y-144897201D01*
X287984721Y-144944720D01*
X288051975Y-144944720D01*
X288210725Y-144785970D01*
X288210725Y-144564575D01*
X288263970Y-144436030D01*
X288263970Y-144295750D01*
X288210725Y-144242505D01*
X288210725Y-144137000D01*
X288163420Y-144137000D01*
X288163420Y-144041537D01*
X288172418Y-144039747D01*
X288362750Y-143912571D01*
X288362750Y-144309720D01*
G36*
X284743170Y-144270131D02*
X284658327Y-144065302D01*
X284543840Y-143950814D01*
X284543840Y-143883000D01*
X284591145Y-143883000D01*
X284591145Y-143863000D01*
X284743170Y-143863000D01*
X284743170Y-144270131D01*
X284743170Y-144270131D01*
G37*
X284743170Y-144270131D02*
X284658327Y-144065302D01*
X284543840Y-143950814D01*
X284543840Y-143883000D01*
X284591145Y-143883000D01*
X284591145Y-143863000D01*
X284743170Y-143863000D01*
X284743170Y-144270131D01*
G36*
X279900000Y-138047440D02*
X280016401Y-138047440D01*
X280016401Y-138604946D01*
X279999483Y-138690000D01*
X280066507Y-139026959D01*
X280095267Y-139070001D01*
X280257381Y-139312620D01*
X280329486Y-139360800D01*
X281192560Y-140223874D01*
X281192560Y-140450000D01*
X281241843Y-140697765D01*
X281382191Y-140907809D01*
X281507513Y-140991547D01*
X281480581Y-141002703D01*
X281301953Y-141181332D01*
X281205280Y-141414721D01*
X281205280Y-141481975D01*
X281364030Y-141640725D01*
X282013000Y-141640725D01*
X282013000Y-141593420D01*
X282267000Y-141593420D01*
X282267000Y-141640725D01*
X282287000Y-141640725D01*
X282287000Y-141792750D01*
X281840280Y-141792750D01*
X281602158Y-141840115D01*
X281364030Y-141840115D01*
X281205280Y-141998865D01*
X281205280Y-142033199D01*
X281006833Y-141951000D01*
X280653167Y-141951000D01*
X280326422Y-142086342D01*
X280076342Y-142336422D01*
X279998929Y-142523314D01*
X279970000Y-142517560D01*
X279370000Y-142517560D01*
X279122235Y-142566843D01*
X278912191Y-142707191D01*
X278837310Y-142819257D01*
X278796145Y-142846763D01*
X278705398Y-142907398D01*
X278665732Y-142966762D01*
X278403495Y-143229000D01*
X278186835Y-143229000D01*
X279031867Y-142383968D01*
X279091233Y-142344301D01*
X279248378Y-142109117D01*
X279269028Y-142005303D01*
X279308445Y-142044720D01*
X279375699Y-142044720D01*
X279609088Y-141948047D01*
X279787717Y-141769419D01*
X279884390Y-141536030D01*
X279884390Y-141395750D01*
X279725640Y-141237000D01*
X279289631Y-141237000D01*
X279289631Y-141089156D01*
X279497155Y-141047877D01*
X279594250Y-140983000D01*
X279725640Y-140983000D01*
X279884390Y-140824250D01*
X279884390Y-140683970D01*
X279861316Y-140628264D01*
X279896830Y-140449720D01*
X279896830Y-139850280D01*
X279847547Y-139602515D01*
X279707199Y-139392471D01*
X279497155Y-139252123D01*
X279249390Y-139202840D01*
X278861840Y-139202840D01*
X278861840Y-138410360D01*
X278875768Y-138340339D01*
X278861840Y-138270318D01*
X278861840Y-138270314D01*
X278820587Y-138062922D01*
X278810242Y-138047440D01*
X278900000Y-138047440D01*
X279000000Y-138027549D01*
X279100000Y-138047440D01*
X279300000Y-138047440D01*
X279400000Y-138027549D01*
X279500000Y-138047440D01*
X279700000Y-138047440D01*
X279800000Y-138027549D01*
X279900000Y-138047440D01*
X279900000Y-138047440D01*
G37*
X279900000Y-138047440D02*
X280016401Y-138047440D01*
X280016401Y-138604946D01*
X279999483Y-138690000D01*
X280066507Y-139026959D01*
X280095267Y-139070001D01*
X280257381Y-139312620D01*
X280329486Y-139360800D01*
X281192560Y-140223874D01*
X281192560Y-140450000D01*
X281241843Y-140697765D01*
X281382191Y-140907809D01*
X281507513Y-140991547D01*
X281480581Y-141002703D01*
X281301953Y-141181332D01*
X281205280Y-141414721D01*
X281205280Y-141481975D01*
X281364030Y-141640725D01*
X282013000Y-141640725D01*
X282013000Y-141593420D01*
X282267000Y-141593420D01*
X282267000Y-141640725D01*
X282287000Y-141640725D01*
X282287000Y-141792750D01*
X281840280Y-141792750D01*
X281602158Y-141840115D01*
X281364030Y-141840115D01*
X281205280Y-141998865D01*
X281205280Y-142033199D01*
X281006833Y-141951000D01*
X280653167Y-141951000D01*
X280326422Y-142086342D01*
X280076342Y-142336422D01*
X279998929Y-142523314D01*
X279970000Y-142517560D01*
X279370000Y-142517560D01*
X279122235Y-142566843D01*
X278912191Y-142707191D01*
X278837310Y-142819257D01*
X278796145Y-142846763D01*
X278705398Y-142907398D01*
X278665732Y-142966762D01*
X278403495Y-143229000D01*
X278186835Y-143229000D01*
X279031867Y-142383968D01*
X279091233Y-142344301D01*
X279248378Y-142109117D01*
X279269028Y-142005303D01*
X279308445Y-142044720D01*
X279375699Y-142044720D01*
X279609088Y-141948047D01*
X279787717Y-141769419D01*
X279884390Y-141536030D01*
X279884390Y-141395750D01*
X279725640Y-141237000D01*
X279289631Y-141237000D01*
X279289631Y-141089156D01*
X279497155Y-141047877D01*
X279594250Y-140983000D01*
X279725640Y-140983000D01*
X279884390Y-140824250D01*
X279884390Y-140683970D01*
X279861316Y-140628264D01*
X279896830Y-140449720D01*
X279896830Y-139850280D01*
X279847547Y-139602515D01*
X279707199Y-139392471D01*
X279497155Y-139252123D01*
X279249390Y-139202840D01*
X278861840Y-139202840D01*
X278861840Y-138410360D01*
X278875768Y-138340339D01*
X278861840Y-138270318D01*
X278861840Y-138270314D01*
X278820587Y-138062922D01*
X278810242Y-138047440D01*
X278900000Y-138047440D01*
X279000000Y-138027549D01*
X279100000Y-138047440D01*
X279300000Y-138047440D01*
X279400000Y-138027549D01*
X279500000Y-138047440D01*
X279700000Y-138047440D01*
X279800000Y-138027549D01*
X279900000Y-138047440D01*
G36*
X273076843Y-142507765D02*
X273211973Y-142710000D01*
X273087160Y-142896795D01*
X273087160Y-142710190D01*
X273037877Y-142462425D01*
X273028324Y-142448128D01*
X273053089Y-142388342D01*
X273076843Y-142507765D01*
X273076843Y-142507765D01*
G37*
X273076843Y-142507765D02*
X273211973Y-142710000D01*
X273087160Y-142896795D01*
X273087160Y-142710190D01*
X273037877Y-142462425D01*
X273028324Y-142448128D01*
X273053089Y-142388342D01*
X273076843Y-142507765D01*
G36*
X277131655Y-142273170D02*
X277043000Y-142273170D01*
X277043000Y-142211000D01*
X277193825Y-142211000D01*
X277131655Y-142273170D01*
X277131655Y-142273170D01*
G37*
X277131655Y-142273170D02*
X277043000Y-142273170D01*
X277043000Y-142211000D01*
X277193825Y-142211000D01*
X277131655Y-142273170D01*
G36*
X267865250Y-142264500D02*
X267827002Y-142264500D01*
X267827002Y-142226252D01*
X267865250Y-142264500D01*
X267865250Y-142264500D01*
G37*
X267865250Y-142264500D02*
X267827002Y-142264500D01*
X267827002Y-142226252D01*
X267865250Y-142264500D01*
G36*
X268812998Y-142264500D02*
X268774750Y-142264500D01*
X268812998Y-142226252D01*
X268812998Y-142264500D01*
X268812998Y-142264500D01*
G37*
X268812998Y-142264500D02*
X268774750Y-142264500D01*
X268812998Y-142226252D01*
X268812998Y-142264500D01*
G36*
X267572998Y-142264500D02*
X267553000Y-142264500D01*
X267553000Y-142246250D01*
X267572998Y-142226252D01*
X267572998Y-142264500D01*
X267572998Y-142264500D01*
G37*
X267572998Y-142264500D02*
X267553000Y-142264500D01*
X267553000Y-142246250D01*
X267572998Y-142226252D01*
X267572998Y-142264500D01*
G36*
X269087000Y-142246250D02*
X269087000Y-142264500D01*
X269067002Y-142264500D01*
X269067002Y-142226252D01*
X269087000Y-142246250D01*
X269087000Y-142246250D01*
G37*
X269087000Y-142246250D02*
X269087000Y-142264500D01*
X269067002Y-142264500D01*
X269067002Y-142226252D01*
X269087000Y-142246250D01*
G36*
X271916030Y-139914250D02*
X272074780Y-140073000D01*
X272650725Y-140073000D01*
X272650725Y-140053000D01*
X272802750Y-140053000D01*
X272802750Y-140499720D01*
X272850115Y-140737842D01*
X272850115Y-140975970D01*
X273008865Y-141134720D01*
X273076119Y-141134720D01*
X273188128Y-141088324D01*
X273202425Y-141097877D01*
X273450190Y-141147160D01*
X273848970Y-141147160D01*
X274096735Y-141097877D01*
X274306779Y-140957529D01*
X274363596Y-140872496D01*
X274377418Y-140869747D01*
X274537157Y-140763012D01*
X274674030Y-140899885D01*
X274912158Y-140899885D01*
X274916944Y-140900837D01*
X274846763Y-140947731D01*
X274846761Y-140947733D01*
X274787398Y-140987398D01*
X274747732Y-141046762D01*
X274695219Y-141099275D01*
X274674030Y-141099275D01*
X274521633Y-141251672D01*
X274325000Y-141212560D01*
X273675000Y-141212560D01*
X273427235Y-141261843D01*
X273217191Y-141402191D01*
X273076843Y-141612235D01*
X273066414Y-141664668D01*
X272978047Y-141451332D01*
X272799419Y-141272703D01*
X272566030Y-141176030D01*
X272425750Y-141176030D01*
X272267000Y-141334780D01*
X272267000Y-141910725D01*
X272287000Y-141910725D01*
X272287000Y-142062750D01*
X271840280Y-142062750D01*
X271652431Y-142100115D01*
X271577842Y-142100115D01*
X271339720Y-142052750D01*
X270893000Y-142052750D01*
X270893000Y-141900725D01*
X270913000Y-141900725D01*
X270913000Y-141324780D01*
X271167000Y-141324780D01*
X271167000Y-141900725D01*
X271354030Y-141900725D01*
X271364030Y-141910725D01*
X272013000Y-141910725D01*
X272013000Y-141334780D01*
X271854250Y-141176030D01*
X271713970Y-141176030D01*
X271602071Y-141222380D01*
X271466030Y-141166030D01*
X271325750Y-141166030D01*
X271167000Y-141324780D01*
X270913000Y-141324780D01*
X270754250Y-141166030D01*
X270613970Y-141166030D01*
X270611000Y-141167260D01*
X270611000Y-140826236D01*
X270823658Y-140613578D01*
X270876606Y-140485750D01*
X271916030Y-140485750D01*
X271916030Y-140626030D01*
X272012703Y-140859419D01*
X272191332Y-141038047D01*
X272424721Y-141134720D01*
X272491975Y-141134720D01*
X272650725Y-140975970D01*
X272650725Y-140327000D01*
X272074780Y-140327000D01*
X271916030Y-140485750D01*
X270876606Y-140485750D01*
X270959000Y-140286833D01*
X270959000Y-139933167D01*
X270904658Y-139801974D01*
X271090500Y-139838940D01*
X271725500Y-139838940D01*
X271916030Y-139801042D01*
X271916030Y-139914250D01*
X271916030Y-139914250D01*
G37*
X271916030Y-139914250D02*
X272074780Y-140073000D01*
X272650725Y-140073000D01*
X272650725Y-140053000D01*
X272802750Y-140053000D01*
X272802750Y-140499720D01*
X272850115Y-140737842D01*
X272850115Y-140975970D01*
X273008865Y-141134720D01*
X273076119Y-141134720D01*
X273188128Y-141088324D01*
X273202425Y-141097877D01*
X273450190Y-141147160D01*
X273848970Y-141147160D01*
X274096735Y-141097877D01*
X274306779Y-140957529D01*
X274363596Y-140872496D01*
X274377418Y-140869747D01*
X274537157Y-140763012D01*
X274674030Y-140899885D01*
X274912158Y-140899885D01*
X274916944Y-140900837D01*
X274846763Y-140947731D01*
X274846761Y-140947733D01*
X274787398Y-140987398D01*
X274747732Y-141046762D01*
X274695219Y-141099275D01*
X274674030Y-141099275D01*
X274521633Y-141251672D01*
X274325000Y-141212560D01*
X273675000Y-141212560D01*
X273427235Y-141261843D01*
X273217191Y-141402191D01*
X273076843Y-141612235D01*
X273066414Y-141664668D01*
X272978047Y-141451332D01*
X272799419Y-141272703D01*
X272566030Y-141176030D01*
X272425750Y-141176030D01*
X272267000Y-141334780D01*
X272267000Y-141910725D01*
X272287000Y-141910725D01*
X272287000Y-142062750D01*
X271840280Y-142062750D01*
X271652431Y-142100115D01*
X271577842Y-142100115D01*
X271339720Y-142052750D01*
X270893000Y-142052750D01*
X270893000Y-141900725D01*
X270913000Y-141900725D01*
X270913000Y-141324780D01*
X271167000Y-141324780D01*
X271167000Y-141900725D01*
X271354030Y-141900725D01*
X271364030Y-141910725D01*
X272013000Y-141910725D01*
X272013000Y-141334780D01*
X271854250Y-141176030D01*
X271713970Y-141176030D01*
X271602071Y-141222380D01*
X271466030Y-141166030D01*
X271325750Y-141166030D01*
X271167000Y-141324780D01*
X270913000Y-141324780D01*
X270754250Y-141166030D01*
X270613970Y-141166030D01*
X270611000Y-141167260D01*
X270611000Y-140826236D01*
X270823658Y-140613578D01*
X270876606Y-140485750D01*
X271916030Y-140485750D01*
X271916030Y-140626030D01*
X272012703Y-140859419D01*
X272191332Y-141038047D01*
X272424721Y-141134720D01*
X272491975Y-141134720D01*
X272650725Y-140975970D01*
X272650725Y-140327000D01*
X272074780Y-140327000D01*
X271916030Y-140485750D01*
X270876606Y-140485750D01*
X270959000Y-140286833D01*
X270959000Y-139933167D01*
X270904658Y-139801974D01*
X271090500Y-139838940D01*
X271725500Y-139838940D01*
X271916030Y-139801042D01*
X271916030Y-139914250D01*
G36*
X269087000Y-141253750D02*
X269067002Y-141273748D01*
X269067002Y-141235500D01*
X269087000Y-141235500D01*
X269087000Y-141253750D01*
X269087000Y-141253750D01*
G37*
X269087000Y-141253750D02*
X269067002Y-141273748D01*
X269067002Y-141235500D01*
X269087000Y-141235500D01*
X269087000Y-141253750D01*
G36*
X268812998Y-141273748D02*
X268774750Y-141235500D01*
X268812998Y-141235500D01*
X268812998Y-141273748D01*
X268812998Y-141273748D01*
G37*
X268812998Y-141273748D02*
X268774750Y-141235500D01*
X268812998Y-141235500D01*
X268812998Y-141273748D01*
G36*
X267827002Y-141273748D02*
X267827002Y-141235500D01*
X267865250Y-141235500D01*
X267827002Y-141273748D01*
X267827002Y-141273748D01*
G37*
X267827002Y-141273748D02*
X267827002Y-141235500D01*
X267865250Y-141235500D01*
X267827002Y-141273748D01*
G36*
X267572998Y-141273748D02*
X267553000Y-141253750D01*
X267553000Y-141235500D01*
X267572998Y-141235500D01*
X267572998Y-141273748D01*
X267572998Y-141273748D01*
G37*
X267572998Y-141273748D02*
X267553000Y-141253750D01*
X267553000Y-141235500D01*
X267572998Y-141235500D01*
X267572998Y-141273748D01*
G36*
X283420280Y-137187670D02*
X283867000Y-137187670D01*
X283867000Y-137339695D01*
X283847000Y-137339695D01*
X283847000Y-137915640D01*
X284005750Y-138074390D01*
X284146030Y-138074390D01*
X284379419Y-137977717D01*
X284558047Y-137799088D01*
X284623598Y-137640834D01*
X284806422Y-137823658D01*
X285133167Y-137959000D01*
X285486833Y-137959000D01*
X285757684Y-137846810D01*
X286354520Y-137846810D01*
X286449990Y-137827820D01*
X286504640Y-137827820D01*
X286504640Y-138215370D01*
X286553923Y-138463135D01*
X286694271Y-138673179D01*
X286904315Y-138813527D01*
X287152080Y-138862810D01*
X287742630Y-138862810D01*
X287742630Y-138938002D01*
X287901378Y-138938002D01*
X287742630Y-139096750D01*
X287742630Y-139237030D01*
X287839303Y-139470419D01*
X288017932Y-139649047D01*
X288251321Y-139745720D01*
X288318575Y-139745720D01*
X288477325Y-139586970D01*
X288477325Y-138938000D01*
X288430020Y-138938000D01*
X288430020Y-138726980D01*
X288629350Y-138726980D01*
X288629350Y-139110720D01*
X288676715Y-139348842D01*
X288676715Y-139586970D01*
X288835465Y-139745720D01*
X288902719Y-139745720D01*
X289014728Y-139699324D01*
X289029025Y-139708877D01*
X289114236Y-139725826D01*
X289016422Y-139766342D01*
X288766342Y-140016422D01*
X288646867Y-140304862D01*
X288516833Y-140251000D01*
X288424720Y-140251000D01*
X288424720Y-140244721D01*
X288328047Y-140011332D01*
X288149419Y-139832703D01*
X287916030Y-139736030D01*
X287775750Y-139736030D01*
X287617000Y-139894780D01*
X287617000Y-140470725D01*
X287637000Y-140470725D01*
X287637000Y-140585764D01*
X287600014Y-140622750D01*
X287190280Y-140622750D01*
X286952158Y-140670115D01*
X286875077Y-140670115D01*
X286832765Y-140641843D01*
X286585000Y-140592560D01*
X285835000Y-140592560D01*
X285587235Y-140641843D01*
X285377191Y-140782191D01*
X285236843Y-140992235D01*
X285236580Y-140993555D01*
X285119698Y-140876673D01*
X284929740Y-140797990D01*
X284911750Y-140780000D01*
X284783209Y-140780000D01*
X284838157Y-140697765D01*
X284887440Y-140450000D01*
X284887440Y-140244721D01*
X286555280Y-140244721D01*
X286555280Y-140311975D01*
X286714030Y-140470725D01*
X287363000Y-140470725D01*
X287363000Y-139894780D01*
X287204250Y-139736030D01*
X287063970Y-139736030D01*
X286830581Y-139832703D01*
X286651953Y-140011332D01*
X286555280Y-140244721D01*
X284887440Y-140244721D01*
X284887440Y-139650000D01*
X284838157Y-139402235D01*
X284697809Y-139192191D01*
X284487765Y-139051843D01*
X284240000Y-139002560D01*
X283440000Y-139002560D01*
X283192235Y-139051843D01*
X283040000Y-139153564D01*
X282887765Y-139051843D01*
X282640000Y-139002560D01*
X282413874Y-139002560D01*
X281743600Y-138332287D01*
X281743600Y-137799579D01*
X281749353Y-137813468D01*
X281927981Y-137992097D01*
X282161370Y-138088770D01*
X282301650Y-138088770D01*
X282460400Y-137930020D01*
X282460400Y-137354075D01*
X282714400Y-137354075D01*
X282714400Y-137930020D01*
X282873150Y-138088770D01*
X283013430Y-138088770D01*
X283171058Y-138023478D01*
X283293970Y-138074390D01*
X283434250Y-138074390D01*
X283593000Y-137915640D01*
X283593000Y-137339695D01*
X282944030Y-137339695D01*
X282929650Y-137354075D01*
X282714400Y-137354075D01*
X282460400Y-137354075D01*
X282440400Y-137354075D01*
X282440400Y-137202050D01*
X282887120Y-137202050D01*
X283125242Y-137154685D01*
X283254451Y-137154685D01*
X283420280Y-137187670D01*
X283420280Y-137187670D01*
G37*
X283420280Y-137187670D02*
X283867000Y-137187670D01*
X283867000Y-137339695D01*
X283847000Y-137339695D01*
X283847000Y-137915640D01*
X284005750Y-138074390D01*
X284146030Y-138074390D01*
X284379419Y-137977717D01*
X284558047Y-137799088D01*
X284623598Y-137640834D01*
X284806422Y-137823658D01*
X285133167Y-137959000D01*
X285486833Y-137959000D01*
X285757684Y-137846810D01*
X286354520Y-137846810D01*
X286449990Y-137827820D01*
X286504640Y-137827820D01*
X286504640Y-138215370D01*
X286553923Y-138463135D01*
X286694271Y-138673179D01*
X286904315Y-138813527D01*
X287152080Y-138862810D01*
X287742630Y-138862810D01*
X287742630Y-138938002D01*
X287901378Y-138938002D01*
X287742630Y-139096750D01*
X287742630Y-139237030D01*
X287839303Y-139470419D01*
X288017932Y-139649047D01*
X288251321Y-139745720D01*
X288318575Y-139745720D01*
X288477325Y-139586970D01*
X288477325Y-138938000D01*
X288430020Y-138938000D01*
X288430020Y-138726980D01*
X288629350Y-138726980D01*
X288629350Y-139110720D01*
X288676715Y-139348842D01*
X288676715Y-139586970D01*
X288835465Y-139745720D01*
X288902719Y-139745720D01*
X289014728Y-139699324D01*
X289029025Y-139708877D01*
X289114236Y-139725826D01*
X289016422Y-139766342D01*
X288766342Y-140016422D01*
X288646867Y-140304862D01*
X288516833Y-140251000D01*
X288424720Y-140251000D01*
X288424720Y-140244721D01*
X288328047Y-140011332D01*
X288149419Y-139832703D01*
X287916030Y-139736030D01*
X287775750Y-139736030D01*
X287617000Y-139894780D01*
X287617000Y-140470725D01*
X287637000Y-140470725D01*
X287637000Y-140585764D01*
X287600014Y-140622750D01*
X287190280Y-140622750D01*
X286952158Y-140670115D01*
X286875077Y-140670115D01*
X286832765Y-140641843D01*
X286585000Y-140592560D01*
X285835000Y-140592560D01*
X285587235Y-140641843D01*
X285377191Y-140782191D01*
X285236843Y-140992235D01*
X285236580Y-140993555D01*
X285119698Y-140876673D01*
X284929740Y-140797990D01*
X284911750Y-140780000D01*
X284783209Y-140780000D01*
X284838157Y-140697765D01*
X284887440Y-140450000D01*
X284887440Y-140244721D01*
X286555280Y-140244721D01*
X286555280Y-140311975D01*
X286714030Y-140470725D01*
X287363000Y-140470725D01*
X287363000Y-139894780D01*
X287204250Y-139736030D01*
X287063970Y-139736030D01*
X286830581Y-139832703D01*
X286651953Y-140011332D01*
X286555280Y-140244721D01*
X284887440Y-140244721D01*
X284887440Y-139650000D01*
X284838157Y-139402235D01*
X284697809Y-139192191D01*
X284487765Y-139051843D01*
X284240000Y-139002560D01*
X283440000Y-139002560D01*
X283192235Y-139051843D01*
X283040000Y-139153564D01*
X282887765Y-139051843D01*
X282640000Y-139002560D01*
X282413874Y-139002560D01*
X281743600Y-138332287D01*
X281743600Y-137799579D01*
X281749353Y-137813468D01*
X281927981Y-137992097D01*
X282161370Y-138088770D01*
X282301650Y-138088770D01*
X282460400Y-137930020D01*
X282460400Y-137354075D01*
X282714400Y-137354075D01*
X282714400Y-137930020D01*
X282873150Y-138088770D01*
X283013430Y-138088770D01*
X283171058Y-138023478D01*
X283293970Y-138074390D01*
X283434250Y-138074390D01*
X283593000Y-137915640D01*
X283593000Y-137339695D01*
X282944030Y-137339695D01*
X282929650Y-137354075D01*
X282714400Y-137354075D01*
X282460400Y-137354075D01*
X282440400Y-137354075D01*
X282440400Y-137202050D01*
X282887120Y-137202050D01*
X283125242Y-137154685D01*
X283254451Y-137154685D01*
X283420280Y-137187670D01*
G36*
X271322582Y-132160253D02*
X271087398Y-132317398D01*
X271047731Y-132376764D01*
X271036762Y-132387733D01*
X270977398Y-132427399D01*
X270937733Y-132486762D01*
X270937732Y-132486763D01*
X270921404Y-132511200D01*
X270820253Y-132662583D01*
X270779000Y-132869975D01*
X270779000Y-132869979D01*
X270765072Y-132940000D01*
X270779000Y-133010021D01*
X270779000Y-133552560D01*
X270674135Y-133552560D01*
X270734720Y-133491975D01*
X270734720Y-133424721D01*
X270673000Y-133275716D01*
X270673000Y-132623750D01*
X270514250Y-132465000D01*
X270223691Y-132465000D01*
X269990302Y-132561673D01*
X269811673Y-132740301D01*
X269738884Y-132916030D01*
X269672998Y-132916030D01*
X269672998Y-133074778D01*
X269514250Y-132916030D01*
X269373970Y-132916030D01*
X269140581Y-133012703D01*
X268961953Y-133191332D01*
X268865280Y-133424721D01*
X268865280Y-133491975D01*
X269024030Y-133650725D01*
X269673000Y-133650725D01*
X269673000Y-133603420D01*
X269927000Y-133603420D01*
X269927000Y-133627000D01*
X269873750Y-133627000D01*
X269715000Y-133785750D01*
X269715000Y-133802750D01*
X269500280Y-133802750D01*
X269262158Y-133850115D01*
X269024030Y-133850115D01*
X268865280Y-134008865D01*
X268865280Y-134076119D01*
X268911676Y-134188128D01*
X268902123Y-134202425D01*
X268852840Y-134450190D01*
X268852840Y-134848970D01*
X268902123Y-135096735D01*
X269042471Y-135306779D01*
X269252515Y-135447127D01*
X269500280Y-135496410D01*
X269949961Y-135496410D01*
X270102235Y-135598157D01*
X270350000Y-135647440D01*
X270785500Y-135647440D01*
X270785500Y-135714250D01*
X270944250Y-135873000D01*
X271611000Y-135873000D01*
X271611000Y-135853000D01*
X271865000Y-135853000D01*
X271865000Y-135873000D01*
X271885000Y-135873000D01*
X271885000Y-136127000D01*
X271865000Y-136127000D01*
X271865000Y-136147000D01*
X271611000Y-136147000D01*
X271611000Y-136127000D01*
X270944250Y-136127000D01*
X270785500Y-136285750D01*
X270785500Y-136697810D01*
X270882173Y-136931199D01*
X270889839Y-136938865D01*
X270883590Y-136970280D01*
X270883590Y-137097491D01*
X270855734Y-137139181D01*
X270855732Y-137139183D01*
X270738254Y-137315002D01*
X270691191Y-137551602D01*
X270632691Y-137590691D01*
X270492343Y-137800735D01*
X270443060Y-138048500D01*
X270443060Y-139191500D01*
X270467074Y-139312227D01*
X270246833Y-139221000D01*
X269893167Y-139221000D01*
X269733296Y-139287221D01*
X269732972Y-139287004D01*
X269736410Y-139269720D01*
X269736410Y-138670280D01*
X269687127Y-138422515D01*
X269546779Y-138212471D01*
X269336735Y-138072123D01*
X269088970Y-138022840D01*
X268690190Y-138022840D01*
X268442425Y-138072123D01*
X268440000Y-138073743D01*
X268437575Y-138072123D01*
X268189810Y-138022840D01*
X267791030Y-138022840D01*
X267543265Y-138072123D01*
X267333221Y-138212471D01*
X267192873Y-138422515D01*
X267143590Y-138670280D01*
X267143590Y-138803677D01*
X267113988Y-138847980D01*
X267055817Y-139140420D01*
X267070501Y-139214239D01*
X267070501Y-139247351D01*
X266922235Y-139276843D01*
X266712191Y-139417191D01*
X266585000Y-139607544D01*
X266585000Y-132127000D01*
X271489755Y-132127000D01*
X271322582Y-132160253D01*
X271322582Y-132160253D01*
G37*
X271322582Y-132160253D02*
X271087398Y-132317398D01*
X271047731Y-132376764D01*
X271036762Y-132387733D01*
X270977398Y-132427399D01*
X270937733Y-132486762D01*
X270937732Y-132486763D01*
X270921404Y-132511200D01*
X270820253Y-132662583D01*
X270779000Y-132869975D01*
X270779000Y-132869979D01*
X270765072Y-132940000D01*
X270779000Y-133010021D01*
X270779000Y-133552560D01*
X270674135Y-133552560D01*
X270734720Y-133491975D01*
X270734720Y-133424721D01*
X270673000Y-133275716D01*
X270673000Y-132623750D01*
X270514250Y-132465000D01*
X270223691Y-132465000D01*
X269990302Y-132561673D01*
X269811673Y-132740301D01*
X269738884Y-132916030D01*
X269672998Y-132916030D01*
X269672998Y-133074778D01*
X269514250Y-132916030D01*
X269373970Y-132916030D01*
X269140581Y-133012703D01*
X268961953Y-133191332D01*
X268865280Y-133424721D01*
X268865280Y-133491975D01*
X269024030Y-133650725D01*
X269673000Y-133650725D01*
X269673000Y-133603420D01*
X269927000Y-133603420D01*
X269927000Y-133627000D01*
X269873750Y-133627000D01*
X269715000Y-133785750D01*
X269715000Y-133802750D01*
X269500280Y-133802750D01*
X269262158Y-133850115D01*
X269024030Y-133850115D01*
X268865280Y-134008865D01*
X268865280Y-134076119D01*
X268911676Y-134188128D01*
X268902123Y-134202425D01*
X268852840Y-134450190D01*
X268852840Y-134848970D01*
X268902123Y-135096735D01*
X269042471Y-135306779D01*
X269252515Y-135447127D01*
X269500280Y-135496410D01*
X269949961Y-135496410D01*
X270102235Y-135598157D01*
X270350000Y-135647440D01*
X270785500Y-135647440D01*
X270785500Y-135714250D01*
X270944250Y-135873000D01*
X271611000Y-135873000D01*
X271611000Y-135853000D01*
X271865000Y-135853000D01*
X271865000Y-135873000D01*
X271885000Y-135873000D01*
X271885000Y-136127000D01*
X271865000Y-136127000D01*
X271865000Y-136147000D01*
X271611000Y-136147000D01*
X271611000Y-136127000D01*
X270944250Y-136127000D01*
X270785500Y-136285750D01*
X270785500Y-136697810D01*
X270882173Y-136931199D01*
X270889839Y-136938865D01*
X270883590Y-136970280D01*
X270883590Y-137097491D01*
X270855734Y-137139181D01*
X270855732Y-137139183D01*
X270738254Y-137315002D01*
X270691191Y-137551602D01*
X270632691Y-137590691D01*
X270492343Y-137800735D01*
X270443060Y-138048500D01*
X270443060Y-139191500D01*
X270467074Y-139312227D01*
X270246833Y-139221000D01*
X269893167Y-139221000D01*
X269733296Y-139287221D01*
X269732972Y-139287004D01*
X269736410Y-139269720D01*
X269736410Y-138670280D01*
X269687127Y-138422515D01*
X269546779Y-138212471D01*
X269336735Y-138072123D01*
X269088970Y-138022840D01*
X268690190Y-138022840D01*
X268442425Y-138072123D01*
X268440000Y-138073743D01*
X268437575Y-138072123D01*
X268189810Y-138022840D01*
X267791030Y-138022840D01*
X267543265Y-138072123D01*
X267333221Y-138212471D01*
X267192873Y-138422515D01*
X267143590Y-138670280D01*
X267143590Y-138803677D01*
X267113988Y-138847980D01*
X267055817Y-139140420D01*
X267070501Y-139214239D01*
X267070501Y-139247351D01*
X266922235Y-139276843D01*
X266712191Y-139417191D01*
X266585000Y-139607544D01*
X266585000Y-132127000D01*
X271489755Y-132127000D01*
X271322582Y-132160253D01*
G36*
X274019001Y-139196580D02*
X273943000Y-139196580D01*
X273943000Y-139149275D01*
X273923000Y-139149275D01*
X273923000Y-138997250D01*
X274019001Y-138997250D01*
X274019001Y-139196580D01*
X274019001Y-139196580D01*
G37*
X274019001Y-139196580D02*
X273943000Y-139196580D01*
X273943000Y-139149275D01*
X273923000Y-139149275D01*
X273923000Y-138997250D01*
X274019001Y-138997250D01*
X274019001Y-139196580D01*
G36*
X289730960Y-136226000D02*
X289730960Y-136376000D01*
X289780688Y-136626000D01*
X289730960Y-136876000D01*
X289730960Y-137026000D01*
X289785952Y-137302466D01*
X289787632Y-137304980D01*
X288398960Y-137304980D01*
X288398960Y-136917430D01*
X288349677Y-136669665D01*
X288243660Y-136511000D01*
X288689979Y-136511000D01*
X288760000Y-136524928D01*
X288830021Y-136511000D01*
X288830026Y-136511000D01*
X289037418Y-136469747D01*
X289158264Y-136389000D01*
X289236833Y-136389000D01*
X289563578Y-136253658D01*
X289635091Y-136182145D01*
X289697418Y-136169747D01*
X289749006Y-136135277D01*
X289730960Y-136226000D01*
X289730960Y-136226000D01*
G37*
X289730960Y-136226000D02*
X289730960Y-136376000D01*
X289780688Y-136626000D01*
X289730960Y-136876000D01*
X289730960Y-137026000D01*
X289785952Y-137302466D01*
X289787632Y-137304980D01*
X288398960Y-137304980D01*
X288398960Y-136917430D01*
X288349677Y-136669665D01*
X288243660Y-136511000D01*
X288689979Y-136511000D01*
X288760000Y-136524928D01*
X288830021Y-136511000D01*
X288830026Y-136511000D01*
X289037418Y-136469747D01*
X289158264Y-136389000D01*
X289236833Y-136389000D01*
X289563578Y-136253658D01*
X289635091Y-136182145D01*
X289697418Y-136169747D01*
X289749006Y-136135277D01*
X289730960Y-136226000D01*
G36*
X286201800Y-136153150D02*
X285997318Y-136153150D01*
X286000689Y-136145010D01*
X286201800Y-136145010D01*
X286201800Y-136153150D01*
X286201800Y-136153150D01*
G37*
X286201800Y-136153150D02*
X285997318Y-136153150D01*
X286000689Y-136145010D01*
X286201800Y-136145010D01*
X286201800Y-136153150D01*
G36*
X276211250Y-132204250D02*
X277163750Y-132204250D01*
X277183750Y-132184250D01*
X277303750Y-132184250D01*
X277323750Y-132204250D01*
X278276250Y-132204250D01*
X278296250Y-132184250D01*
X278416250Y-132184250D01*
X278436250Y-132204250D01*
X279388750Y-132204250D01*
X279408750Y-132184250D01*
X279595750Y-132184250D01*
X279595750Y-132204250D01*
X279615750Y-132204250D01*
X279615750Y-132391250D01*
X279595750Y-132411250D01*
X279595750Y-133363750D01*
X279615750Y-133383750D01*
X279615750Y-133503750D01*
X279595750Y-133523750D01*
X279595750Y-134476250D01*
X279615750Y-134496250D01*
X279615750Y-134616250D01*
X279595750Y-134636250D01*
X279595750Y-135588750D01*
X279615750Y-135608750D01*
X279615750Y-135795750D01*
X279595750Y-135795750D01*
X279595750Y-135815750D01*
X279408750Y-135815750D01*
X279388750Y-135795750D01*
X278436250Y-135795750D01*
X278416250Y-135815750D01*
X278296250Y-135815750D01*
X278276250Y-135795750D01*
X277323750Y-135795750D01*
X277303750Y-135815750D01*
X277183750Y-135815750D01*
X277163750Y-135795750D01*
X276211250Y-135795750D01*
X276191250Y-135815750D01*
X276004250Y-135815750D01*
X276004250Y-135795750D01*
X275984250Y-135795750D01*
X275984250Y-135608750D01*
X276004250Y-135588750D01*
X276004250Y-134636250D01*
X275984250Y-134616250D01*
X275984250Y-134496250D01*
X276004250Y-134476250D01*
X276004250Y-133523750D01*
X275984250Y-133503750D01*
X275984250Y-133383750D01*
X276004250Y-133363750D01*
X276004250Y-132617000D01*
X276052500Y-132617000D01*
X276052500Y-133158000D01*
X276211250Y-133316750D01*
X276218725Y-133316750D01*
X276258250Y-133356276D01*
X276258250Y-133363750D01*
X276338250Y-133443750D01*
X276258250Y-133523750D01*
X276258250Y-133531224D01*
X276218725Y-133570750D01*
X276211250Y-133570750D01*
X276052500Y-133729500D01*
X276052500Y-134270500D01*
X276211250Y-134429250D01*
X276218725Y-134429250D01*
X276258250Y-134468776D01*
X276258250Y-134476250D01*
X276338250Y-134556250D01*
X276258250Y-134636250D01*
X276258250Y-134643724D01*
X276218725Y-134683250D01*
X276211250Y-134683250D01*
X276052500Y-134842000D01*
X276052500Y-135383000D01*
X276211250Y-135541750D01*
X276218725Y-135541750D01*
X276258250Y-135581276D01*
X276258250Y-135588750D01*
X276417000Y-135747500D01*
X276958000Y-135747500D01*
X277116750Y-135588750D01*
X277116750Y-135581276D01*
X277156275Y-135541750D01*
X277163750Y-135541750D01*
X277243750Y-135461750D01*
X277323750Y-135541750D01*
X277331225Y-135541750D01*
X277370750Y-135581276D01*
X277370750Y-135588750D01*
X277529500Y-135747500D01*
X278070500Y-135747500D01*
X278229250Y-135588750D01*
X278229250Y-135581276D01*
X278268775Y-135541750D01*
X278276250Y-135541750D01*
X278356250Y-135461750D01*
X278436250Y-135541750D01*
X278443725Y-135541750D01*
X278483250Y-135581276D01*
X278483250Y-135588750D01*
X278642000Y-135747500D01*
X279183000Y-135747500D01*
X279341750Y-135588750D01*
X279341750Y-135581276D01*
X279381275Y-135541750D01*
X279388750Y-135541750D01*
X279547500Y-135383000D01*
X279547500Y-134842000D01*
X279388750Y-134683250D01*
X279381275Y-134683250D01*
X279341750Y-134643724D01*
X279341750Y-134636250D01*
X279261750Y-134556250D01*
X279341750Y-134476250D01*
X279341750Y-134468776D01*
X279381275Y-134429250D01*
X279388750Y-134429250D01*
X279547500Y-134270500D01*
X279547500Y-133729500D01*
X279388750Y-133570750D01*
X279381275Y-133570750D01*
X279341750Y-133531224D01*
X279341750Y-133523750D01*
X279261750Y-133443750D01*
X279341750Y-133363750D01*
X279341750Y-133356276D01*
X279381275Y-133316750D01*
X279388750Y-133316750D01*
X279547500Y-133158000D01*
X279547500Y-132617000D01*
X279388750Y-132458250D01*
X279381275Y-132458250D01*
X279341750Y-132418724D01*
X279341750Y-132411250D01*
X279183000Y-132252500D01*
X278642000Y-132252500D01*
X278483250Y-132411250D01*
X278483250Y-132418724D01*
X278443725Y-132458250D01*
X278436250Y-132458250D01*
X278356250Y-132538250D01*
X278276250Y-132458250D01*
X278268775Y-132458250D01*
X278229250Y-132418724D01*
X278229250Y-132411250D01*
X278070500Y-132252500D01*
X277529500Y-132252500D01*
X277370750Y-132411250D01*
X277370750Y-132418724D01*
X277331225Y-132458250D01*
X277323750Y-132458250D01*
X277243750Y-132538250D01*
X277163750Y-132458250D01*
X277156275Y-132458250D01*
X277116750Y-132418724D01*
X277116750Y-132411250D01*
X276958000Y-132252500D01*
X276417000Y-132252500D01*
X276258250Y-132411250D01*
X276258250Y-132418724D01*
X276218725Y-132458250D01*
X276211250Y-132458250D01*
X276052500Y-132617000D01*
X276004250Y-132617000D01*
X276004250Y-132411250D01*
X275984250Y-132391250D01*
X275984250Y-132204250D01*
X276004250Y-132204250D01*
X276004250Y-132184250D01*
X276191250Y-132184250D01*
X276211250Y-132204250D01*
X276211250Y-132204250D01*
G37*
X276211250Y-132204250D02*
X277163750Y-132204250D01*
X277183750Y-132184250D01*
X277303750Y-132184250D01*
X277323750Y-132204250D01*
X278276250Y-132204250D01*
X278296250Y-132184250D01*
X278416250Y-132184250D01*
X278436250Y-132204250D01*
X279388750Y-132204250D01*
X279408750Y-132184250D01*
X279595750Y-132184250D01*
X279595750Y-132204250D01*
X279615750Y-132204250D01*
X279615750Y-132391250D01*
X279595750Y-132411250D01*
X279595750Y-133363750D01*
X279615750Y-133383750D01*
X279615750Y-133503750D01*
X279595750Y-133523750D01*
X279595750Y-134476250D01*
X279615750Y-134496250D01*
X279615750Y-134616250D01*
X279595750Y-134636250D01*
X279595750Y-135588750D01*
X279615750Y-135608750D01*
X279615750Y-135795750D01*
X279595750Y-135795750D01*
X279595750Y-135815750D01*
X279408750Y-135815750D01*
X279388750Y-135795750D01*
X278436250Y-135795750D01*
X278416250Y-135815750D01*
X278296250Y-135815750D01*
X278276250Y-135795750D01*
X277323750Y-135795750D01*
X277303750Y-135815750D01*
X277183750Y-135815750D01*
X277163750Y-135795750D01*
X276211250Y-135795750D01*
X276191250Y-135815750D01*
X276004250Y-135815750D01*
X276004250Y-135795750D01*
X275984250Y-135795750D01*
X275984250Y-135608750D01*
X276004250Y-135588750D01*
X276004250Y-134636250D01*
X275984250Y-134616250D01*
X275984250Y-134496250D01*
X276004250Y-134476250D01*
X276004250Y-133523750D01*
X275984250Y-133503750D01*
X275984250Y-133383750D01*
X276004250Y-133363750D01*
X276004250Y-132617000D01*
X276052500Y-132617000D01*
X276052500Y-133158000D01*
X276211250Y-133316750D01*
X276218725Y-133316750D01*
X276258250Y-133356276D01*
X276258250Y-133363750D01*
X276338250Y-133443750D01*
X276258250Y-133523750D01*
X276258250Y-133531224D01*
X276218725Y-133570750D01*
X276211250Y-133570750D01*
X276052500Y-133729500D01*
X276052500Y-134270500D01*
X276211250Y-134429250D01*
X276218725Y-134429250D01*
X276258250Y-134468776D01*
X276258250Y-134476250D01*
X276338250Y-134556250D01*
X276258250Y-134636250D01*
X276258250Y-134643724D01*
X276218725Y-134683250D01*
X276211250Y-134683250D01*
X276052500Y-134842000D01*
X276052500Y-135383000D01*
X276211250Y-135541750D01*
X276218725Y-135541750D01*
X276258250Y-135581276D01*
X276258250Y-135588750D01*
X276417000Y-135747500D01*
X276958000Y-135747500D01*
X277116750Y-135588750D01*
X277116750Y-135581276D01*
X277156275Y-135541750D01*
X277163750Y-135541750D01*
X277243750Y-135461750D01*
X277323750Y-135541750D01*
X277331225Y-135541750D01*
X277370750Y-135581276D01*
X277370750Y-135588750D01*
X277529500Y-135747500D01*
X278070500Y-135747500D01*
X278229250Y-135588750D01*
X278229250Y-135581276D01*
X278268775Y-135541750D01*
X278276250Y-135541750D01*
X278356250Y-135461750D01*
X278436250Y-135541750D01*
X278443725Y-135541750D01*
X278483250Y-135581276D01*
X278483250Y-135588750D01*
X278642000Y-135747500D01*
X279183000Y-135747500D01*
X279341750Y-135588750D01*
X279341750Y-135581276D01*
X279381275Y-135541750D01*
X279388750Y-135541750D01*
X279547500Y-135383000D01*
X279547500Y-134842000D01*
X279388750Y-134683250D01*
X279381275Y-134683250D01*
X279341750Y-134643724D01*
X279341750Y-134636250D01*
X279261750Y-134556250D01*
X279341750Y-134476250D01*
X279341750Y-134468776D01*
X279381275Y-134429250D01*
X279388750Y-134429250D01*
X279547500Y-134270500D01*
X279547500Y-133729500D01*
X279388750Y-133570750D01*
X279381275Y-133570750D01*
X279341750Y-133531224D01*
X279341750Y-133523750D01*
X279261750Y-133443750D01*
X279341750Y-133363750D01*
X279341750Y-133356276D01*
X279381275Y-133316750D01*
X279388750Y-133316750D01*
X279547500Y-133158000D01*
X279547500Y-132617000D01*
X279388750Y-132458250D01*
X279381275Y-132458250D01*
X279341750Y-132418724D01*
X279341750Y-132411250D01*
X279183000Y-132252500D01*
X278642000Y-132252500D01*
X278483250Y-132411250D01*
X278483250Y-132418724D01*
X278443725Y-132458250D01*
X278436250Y-132458250D01*
X278356250Y-132538250D01*
X278276250Y-132458250D01*
X278268775Y-132458250D01*
X278229250Y-132418724D01*
X278229250Y-132411250D01*
X278070500Y-132252500D01*
X277529500Y-132252500D01*
X277370750Y-132411250D01*
X277370750Y-132418724D01*
X277331225Y-132458250D01*
X277323750Y-132458250D01*
X277243750Y-132538250D01*
X277163750Y-132458250D01*
X277156275Y-132458250D01*
X277116750Y-132418724D01*
X277116750Y-132411250D01*
X276958000Y-132252500D01*
X276417000Y-132252500D01*
X276258250Y-132411250D01*
X276258250Y-132418724D01*
X276218725Y-132458250D01*
X276211250Y-132458250D01*
X276052500Y-132617000D01*
X276004250Y-132617000D01*
X276004250Y-132411250D01*
X275984250Y-132391250D01*
X275984250Y-132204250D01*
X276004250Y-132204250D01*
X276004250Y-132184250D01*
X276191250Y-132184250D01*
X276211250Y-132204250D01*
G36*
X277323750Y-134429250D02*
X277331225Y-134429250D01*
X277370750Y-134468776D01*
X277370750Y-134476250D01*
X277450750Y-134556250D01*
X277370750Y-134636250D01*
X277370750Y-134643724D01*
X277331225Y-134683250D01*
X277323750Y-134683250D01*
X277243750Y-134763250D01*
X277163750Y-134683250D01*
X277156275Y-134683250D01*
X277116750Y-134643724D01*
X277116750Y-134636250D01*
X277036750Y-134556250D01*
X277116750Y-134476250D01*
X277116750Y-134468776D01*
X277156275Y-134429250D01*
X277163750Y-134429250D01*
X277243750Y-134349250D01*
X277323750Y-134429250D01*
X277323750Y-134429250D01*
G37*
X277323750Y-134429250D02*
X277331225Y-134429250D01*
X277370750Y-134468776D01*
X277370750Y-134476250D01*
X277450750Y-134556250D01*
X277370750Y-134636250D01*
X277370750Y-134643724D01*
X277331225Y-134683250D01*
X277323750Y-134683250D01*
X277243750Y-134763250D01*
X277163750Y-134683250D01*
X277156275Y-134683250D01*
X277116750Y-134643724D01*
X277116750Y-134636250D01*
X277036750Y-134556250D01*
X277116750Y-134476250D01*
X277116750Y-134468776D01*
X277156275Y-134429250D01*
X277163750Y-134429250D01*
X277243750Y-134349250D01*
X277323750Y-134429250D01*
G36*
X278436250Y-134429250D02*
X278443725Y-134429250D01*
X278483250Y-134468776D01*
X278483250Y-134476250D01*
X278563250Y-134556250D01*
X278483250Y-134636250D01*
X278483250Y-134643724D01*
X278443725Y-134683250D01*
X278436250Y-134683250D01*
X278356250Y-134763250D01*
X278276250Y-134683250D01*
X278268775Y-134683250D01*
X278229250Y-134643724D01*
X278229250Y-134636250D01*
X278149250Y-134556250D01*
X278229250Y-134476250D01*
X278229250Y-134468776D01*
X278268775Y-134429250D01*
X278276250Y-134429250D01*
X278356250Y-134349250D01*
X278436250Y-134429250D01*
X278436250Y-134429250D01*
G37*
X278436250Y-134429250D02*
X278443725Y-134429250D01*
X278483250Y-134468776D01*
X278483250Y-134476250D01*
X278563250Y-134556250D01*
X278483250Y-134636250D01*
X278483250Y-134643724D01*
X278443725Y-134683250D01*
X278436250Y-134683250D01*
X278356250Y-134763250D01*
X278276250Y-134683250D01*
X278268775Y-134683250D01*
X278229250Y-134643724D01*
X278229250Y-134636250D01*
X278149250Y-134556250D01*
X278229250Y-134476250D01*
X278229250Y-134468776D01*
X278268775Y-134429250D01*
X278276250Y-134429250D01*
X278356250Y-134349250D01*
X278436250Y-134429250D01*
G36*
X278436250Y-133316750D02*
X278443725Y-133316750D01*
X278483250Y-133356276D01*
X278483250Y-133363750D01*
X278563250Y-133443750D01*
X278483250Y-133523750D01*
X278483250Y-133531224D01*
X278443725Y-133570750D01*
X278436250Y-133570750D01*
X278356250Y-133650750D01*
X278276250Y-133570750D01*
X278268775Y-133570750D01*
X278229250Y-133531224D01*
X278229250Y-133523750D01*
X278149250Y-133443750D01*
X278229250Y-133363750D01*
X278229250Y-133356276D01*
X278268775Y-133316750D01*
X278276250Y-133316750D01*
X278356250Y-133236750D01*
X278436250Y-133316750D01*
X278436250Y-133316750D01*
G37*
X278436250Y-133316750D02*
X278443725Y-133316750D01*
X278483250Y-133356276D01*
X278483250Y-133363750D01*
X278563250Y-133443750D01*
X278483250Y-133523750D01*
X278483250Y-133531224D01*
X278443725Y-133570750D01*
X278436250Y-133570750D01*
X278356250Y-133650750D01*
X278276250Y-133570750D01*
X278268775Y-133570750D01*
X278229250Y-133531224D01*
X278229250Y-133523750D01*
X278149250Y-133443750D01*
X278229250Y-133363750D01*
X278229250Y-133356276D01*
X278268775Y-133316750D01*
X278276250Y-133316750D01*
X278356250Y-133236750D01*
X278436250Y-133316750D01*
G36*
X277323750Y-133316750D02*
X277331225Y-133316750D01*
X277370750Y-133356276D01*
X277370750Y-133363750D01*
X277450750Y-133443750D01*
X277370750Y-133523750D01*
X277370750Y-133531224D01*
X277331225Y-133570750D01*
X277323750Y-133570750D01*
X277243750Y-133650750D01*
X277163750Y-133570750D01*
X277156275Y-133570750D01*
X277116750Y-133531224D01*
X277116750Y-133523750D01*
X277036750Y-133443750D01*
X277116750Y-133363750D01*
X277116750Y-133356276D01*
X277156275Y-133316750D01*
X277163750Y-133316750D01*
X277243750Y-133236750D01*
X277323750Y-133316750D01*
X277323750Y-133316750D01*
G37*
X277323750Y-133316750D02*
X277331225Y-133316750D01*
X277370750Y-133356276D01*
X277370750Y-133363750D01*
X277450750Y-133443750D01*
X277370750Y-133523750D01*
X277370750Y-133531224D01*
X277331225Y-133570750D01*
X277323750Y-133570750D01*
X277243750Y-133650750D01*
X277163750Y-133570750D01*
X277156275Y-133570750D01*
X277116750Y-133531224D01*
X277116750Y-133523750D01*
X277036750Y-133443750D01*
X277116750Y-133363750D01*
X277116750Y-133356276D01*
X277156275Y-133316750D01*
X277163750Y-133316750D01*
X277243750Y-133236750D01*
X277323750Y-133316750D01*
G36*
X272900280Y-134497250D02*
X273347000Y-134497250D01*
X273347000Y-134649275D01*
X273327000Y-134649275D01*
X273327000Y-134696580D01*
X273073000Y-134696580D01*
X273073000Y-134649275D01*
X272424030Y-134649275D01*
X272346305Y-134727000D01*
X272327000Y-134727000D01*
X272327000Y-134746305D01*
X272326305Y-134747000D01*
X272073000Y-134747000D01*
X272073000Y-134727000D01*
X272066481Y-134727000D01*
X272159747Y-134587418D01*
X272167699Y-134547440D01*
X272650000Y-134547440D01*
X272897765Y-134498157D01*
X272899388Y-134497073D01*
X272900280Y-134497250D01*
X272900280Y-134497250D01*
G37*
X272900280Y-134497250D02*
X273347000Y-134497250D01*
X273347000Y-134649275D01*
X273327000Y-134649275D01*
X273327000Y-134696580D01*
X273073000Y-134696580D01*
X273073000Y-134649275D01*
X272424030Y-134649275D01*
X272346305Y-134727000D01*
X272327000Y-134727000D01*
X272327000Y-134746305D01*
X272326305Y-134747000D01*
X272073000Y-134747000D01*
X272073000Y-134727000D01*
X272066481Y-134727000D01*
X272159747Y-134587418D01*
X272167699Y-134547440D01*
X272650000Y-134547440D01*
X272897765Y-134498157D01*
X272899388Y-134497073D01*
X272900280Y-134497250D01*
G36*
X288553150Y-134373546D02*
X288553150Y-134462200D01*
X288424360Y-134462200D01*
X288424360Y-134244756D01*
X288553150Y-134373546D01*
X288553150Y-134373546D01*
G37*
X288553150Y-134373546D02*
X288553150Y-134462200D01*
X288424360Y-134462200D01*
X288424360Y-134244756D01*
X288553150Y-134373546D01*
G36*
X295642425Y-131947877D02*
X295821000Y-131983397D01*
X295821000Y-132136833D01*
X295883360Y-132287383D01*
X295776934Y-132308552D01*
X295542558Y-132465158D01*
X295385952Y-132699534D01*
X295330960Y-132976000D01*
X295330960Y-133126000D01*
X295380688Y-133376000D01*
X295330960Y-133626000D01*
X295330960Y-133776000D01*
X295380688Y-134026000D01*
X295335933Y-134251000D01*
X295241000Y-134251000D01*
X295241000Y-131997160D01*
X295389810Y-131997160D01*
X295637575Y-131947877D01*
X295640000Y-131946257D01*
X295642425Y-131947877D01*
X295642425Y-131947877D01*
G37*
X295642425Y-131947877D02*
X295821000Y-131983397D01*
X295821000Y-132136833D01*
X295883360Y-132287383D01*
X295776934Y-132308552D01*
X295542558Y-132465158D01*
X295385952Y-132699534D01*
X295330960Y-132976000D01*
X295330960Y-133126000D01*
X295380688Y-133376000D01*
X295330960Y-133626000D01*
X295330960Y-133776000D01*
X295380688Y-134026000D01*
X295335933Y-134251000D01*
X295241000Y-134251000D01*
X295241000Y-131997160D01*
X295389810Y-131997160D01*
X295637575Y-131947877D01*
X295640000Y-131946257D01*
X295642425Y-131947877D01*
G36*
X287220000Y-131804870D02*
X287220000Y-131600000D01*
X287304860Y-131600000D01*
X287220000Y-131804870D01*
X287220000Y-131804870D01*
G37*
X287220000Y-131804870D02*
X287220000Y-131600000D01*
X287304860Y-131600000D01*
X287220000Y-131804870D01*
G36*
X273202750Y-129749720D02*
X273250115Y-129987842D01*
X273250115Y-130225970D01*
X273400422Y-130376277D01*
X272677000Y-131110942D01*
X272677000Y-130323532D01*
X272824721Y-130384720D01*
X272891975Y-130384720D01*
X273050725Y-130225970D01*
X273050725Y-129577000D01*
X273003420Y-129577000D01*
X273003420Y-129323000D01*
X273050725Y-129323000D01*
X273050725Y-129303000D01*
X273202750Y-129303000D01*
X273202750Y-129749720D01*
X273202750Y-129749720D01*
G37*
X273202750Y-129749720D02*
X273250115Y-129987842D01*
X273250115Y-130225970D01*
X273400422Y-130376277D01*
X272677000Y-131110942D01*
X272677000Y-130323532D01*
X272824721Y-130384720D01*
X272891975Y-130384720D01*
X273050725Y-130225970D01*
X273050725Y-129577000D01*
X273003420Y-129577000D01*
X273003420Y-129323000D01*
X273050725Y-129323000D01*
X273050725Y-129303000D01*
X273202750Y-129303000D01*
X273202750Y-129749720D01*
G36*
X287552328Y-130817574D02*
X287572000Y-130916473D01*
X287572000Y-130965000D01*
X287400000Y-130965000D01*
X287400000Y-130895750D01*
X287318000Y-130813750D01*
X287318000Y-130685000D01*
X287552328Y-130685000D01*
X287552328Y-130817574D01*
X287552328Y-130817574D01*
G37*
X287552328Y-130817574D02*
X287572000Y-130916473D01*
X287572000Y-130965000D01*
X287400000Y-130965000D01*
X287400000Y-130895750D01*
X287318000Y-130813750D01*
X287318000Y-130685000D01*
X287552328Y-130685000D01*
X287552328Y-130817574D01*
G36*
X285218750Y-129413000D02*
X286171250Y-129413000D01*
X286191250Y-129393000D01*
X286357000Y-129393000D01*
X286357000Y-129413000D01*
X286377000Y-129413000D01*
X286377000Y-129578750D01*
X286357000Y-129598750D01*
X286357000Y-130551250D01*
X286435777Y-130630027D01*
X286433621Y-130635121D01*
X286486046Y-130680296D01*
X286503748Y-130697998D01*
X286410000Y-130697998D01*
X286410000Y-130737000D01*
X286357000Y-130737000D01*
X286357000Y-130757000D01*
X286191250Y-130757000D01*
X286171250Y-130737000D01*
X285218750Y-130737000D01*
X285198750Y-130757000D01*
X285033000Y-130757000D01*
X285033000Y-130737000D01*
X285013000Y-130737000D01*
X285013000Y-130571250D01*
X285033000Y-130551250D01*
X285033000Y-129825750D01*
X285060000Y-129825750D01*
X285060000Y-130324250D01*
X285146932Y-130411182D01*
X285156673Y-130434699D01*
X285335302Y-130613327D01*
X285358817Y-130623067D01*
X285445750Y-130710000D01*
X285944250Y-130710000D01*
X286031183Y-130623067D01*
X286054698Y-130613327D01*
X286233327Y-130434699D01*
X286243068Y-130411182D01*
X286330000Y-130324250D01*
X286330000Y-129825750D01*
X286243068Y-129738818D01*
X286233327Y-129715301D01*
X286054698Y-129536673D01*
X286031183Y-129526933D01*
X285944250Y-129440000D01*
X285445750Y-129440000D01*
X285358817Y-129526933D01*
X285335302Y-129536673D01*
X285156673Y-129715301D01*
X285146932Y-129738818D01*
X285060000Y-129825750D01*
X285033000Y-129825750D01*
X285033000Y-129598750D01*
X285013000Y-129578750D01*
X285013000Y-129413000D01*
X285033000Y-129413000D01*
X285033000Y-129393000D01*
X285198750Y-129393000D01*
X285218750Y-129413000D01*
X285218750Y-129413000D01*
G37*
X285218750Y-129413000D02*
X286171250Y-129413000D01*
X286191250Y-129393000D01*
X286357000Y-129393000D01*
X286357000Y-129413000D01*
X286377000Y-129413000D01*
X286377000Y-129578750D01*
X286357000Y-129598750D01*
X286357000Y-130551250D01*
X286435777Y-130630027D01*
X286433621Y-130635121D01*
X286486046Y-130680296D01*
X286503748Y-130697998D01*
X286410000Y-130697998D01*
X286410000Y-130737000D01*
X286357000Y-130737000D01*
X286357000Y-130757000D01*
X286191250Y-130757000D01*
X286171250Y-130737000D01*
X285218750Y-130737000D01*
X285198750Y-130757000D01*
X285033000Y-130757000D01*
X285033000Y-130737000D01*
X285013000Y-130737000D01*
X285013000Y-130571250D01*
X285033000Y-130551250D01*
X285033000Y-129825750D01*
X285060000Y-129825750D01*
X285060000Y-130324250D01*
X285146932Y-130411182D01*
X285156673Y-130434699D01*
X285335302Y-130613327D01*
X285358817Y-130623067D01*
X285445750Y-130710000D01*
X285944250Y-130710000D01*
X286031183Y-130623067D01*
X286054698Y-130613327D01*
X286233327Y-130434699D01*
X286243068Y-130411182D01*
X286330000Y-130324250D01*
X286330000Y-129825750D01*
X286243068Y-129738818D01*
X286233327Y-129715301D01*
X286054698Y-129536673D01*
X286031183Y-129526933D01*
X285944250Y-129440000D01*
X285445750Y-129440000D01*
X285358817Y-129526933D01*
X285335302Y-129536673D01*
X285156673Y-129715301D01*
X285146932Y-129738818D01*
X285060000Y-129825750D01*
X285033000Y-129825750D01*
X285033000Y-129598750D01*
X285013000Y-129578750D01*
X285013000Y-129413000D01*
X285033000Y-129413000D01*
X285033000Y-129393000D01*
X285198750Y-129393000D01*
X285218750Y-129413000D01*
G36*
X276652500Y-128627002D02*
X276759248Y-128627002D01*
X276656053Y-128730198D01*
X276615970Y-128690115D01*
X276377842Y-128690115D01*
X276161891Y-128647160D01*
X276248970Y-128647160D01*
X276496735Y-128597877D01*
X276548034Y-128563600D01*
X276652500Y-128563600D01*
X276652500Y-128627002D01*
X276652500Y-128627002D01*
G37*
X276652500Y-128627002D02*
X276759248Y-128627002D01*
X276656053Y-128730198D01*
X276615970Y-128690115D01*
X276377842Y-128690115D01*
X276161891Y-128647160D01*
X276248970Y-128647160D01*
X276496735Y-128597877D01*
X276548034Y-128563600D01*
X276652500Y-128563600D01*
X276652500Y-128627002D01*
G36*
X275828019Y-128642750D02*
X275693000Y-128642750D01*
X275693000Y-128615893D01*
X275828019Y-128642750D01*
X275828019Y-128642750D01*
G37*
X275828019Y-128642750D02*
X275693000Y-128642750D01*
X275693000Y-128615893D01*
X275828019Y-128642750D01*
G36*
X298575001Y-125373000D02*
X298100000Y-125373000D01*
X298051399Y-125382667D01*
X298010197Y-125410197D01*
X297982667Y-125451399D01*
X297973000Y-125499707D01*
X297972076Y-125900770D01*
X297937000Y-125919181D01*
X297937000Y-127113000D01*
X297957000Y-127113000D01*
X297957000Y-127367000D01*
X297937000Y-127367000D01*
X297937000Y-127387000D01*
X297683000Y-127387000D01*
X297683000Y-127367000D01*
X296489845Y-127367000D01*
X296368524Y-127596890D01*
X296538355Y-128006924D01*
X296815708Y-128311261D01*
X296712235Y-128331843D01*
X296504292Y-128470787D01*
X295037829Y-127004324D01*
X295063578Y-126993658D01*
X295313658Y-126743578D01*
X295449000Y-126416833D01*
X295449000Y-126382940D01*
X295490000Y-126382940D01*
X295590000Y-126363049D01*
X295690000Y-126382940D01*
X296140000Y-126382940D01*
X296240000Y-126363049D01*
X296340000Y-126382940D01*
X296620499Y-126382940D01*
X296538355Y-126473076D01*
X296368524Y-126883110D01*
X296489845Y-127113000D01*
X297683000Y-127113000D01*
X297683000Y-125919181D01*
X297453108Y-125798514D01*
X297422000Y-125813123D01*
X297437440Y-125735500D01*
X297437440Y-124260500D01*
X297388157Y-124012735D01*
X297247809Y-123802691D01*
X297189941Y-123764025D01*
X297117269Y-123655263D01*
X297117265Y-123655259D01*
X297077601Y-123595898D01*
X297018241Y-123556235D01*
X294840557Y-121378552D01*
X294800891Y-121319187D01*
X294565707Y-121162042D01*
X294358315Y-121120789D01*
X294358310Y-121120789D01*
X294288289Y-121106861D01*
X294218268Y-121120789D01*
X291879156Y-121120789D01*
X291837877Y-120913265D01*
X291697529Y-120703221D01*
X291487485Y-120562873D01*
X291239720Y-120513590D01*
X291098675Y-120513590D01*
X290952269Y-120367184D01*
X290912602Y-120307818D01*
X290788932Y-120225184D01*
X290747529Y-120163221D01*
X290537485Y-120022873D01*
X290289720Y-119973590D01*
X289690280Y-119973590D01*
X289442515Y-120022873D01*
X289312989Y-120109420D01*
X284530208Y-120109420D01*
X284460187Y-120095492D01*
X284390166Y-120109420D01*
X284390162Y-120109420D01*
X284182770Y-120150673D01*
X284182768Y-120150674D01*
X284182769Y-120150674D01*
X284026634Y-120255000D01*
X283947586Y-120307818D01*
X283907920Y-120367182D01*
X283349401Y-120925702D01*
X283349401Y-118436741D01*
X283359792Y-118384500D01*
X291142560Y-118384500D01*
X291142560Y-119859500D01*
X291191843Y-120107265D01*
X291332191Y-120317309D01*
X291542235Y-120457657D01*
X291790000Y-120506940D01*
X292240000Y-120506940D01*
X292340000Y-120487049D01*
X292440000Y-120506940D01*
X292890000Y-120506940D01*
X292990000Y-120487049D01*
X293090000Y-120506940D01*
X293540000Y-120506940D01*
X293640000Y-120487049D01*
X293740000Y-120506940D01*
X294190000Y-120506940D01*
X294260074Y-120493002D01*
X294263691Y-120494500D01*
X294343750Y-120494500D01*
X294366397Y-120471853D01*
X294437765Y-120457657D01*
X294619020Y-120336545D01*
X294680302Y-120397827D01*
X294866846Y-120475096D01*
X294886250Y-120494500D01*
X294993750Y-120494500D01*
X295013154Y-120475096D01*
X295199698Y-120397827D01*
X295265000Y-120332525D01*
X295330302Y-120397827D01*
X295516846Y-120475096D01*
X295536250Y-120494500D01*
X295643750Y-120494500D01*
X295663154Y-120475096D01*
X295849698Y-120397827D01*
X295915000Y-120332525D01*
X295980302Y-120397827D01*
X296166846Y-120475096D01*
X296186250Y-120494500D01*
X296293750Y-120494500D01*
X296313154Y-120475096D01*
X296499698Y-120397827D01*
X296677500Y-120220026D01*
X296677500Y-120335750D01*
X296836250Y-120494500D01*
X296916309Y-120494500D01*
X297149698Y-120397827D01*
X297328327Y-120219199D01*
X297425000Y-119985810D01*
X297425000Y-119407750D01*
X297266250Y-119249000D01*
X296677500Y-119249000D01*
X296677500Y-119310250D01*
X296616250Y-119249000D01*
X295118000Y-119249000D01*
X295118000Y-118995000D01*
X296616250Y-118995000D01*
X296677500Y-118933750D01*
X296677500Y-118995000D01*
X297266250Y-118995000D01*
X297425000Y-118836250D01*
X297425000Y-118258190D01*
X297328327Y-118024801D01*
X297149698Y-117846173D01*
X296916309Y-117749500D01*
X296836250Y-117749500D01*
X296677500Y-117908250D01*
X296677500Y-118023974D01*
X296499698Y-117846173D01*
X296313154Y-117768904D01*
X296293750Y-117749500D01*
X296186250Y-117749500D01*
X296166846Y-117768904D01*
X295980302Y-117846173D01*
X295915000Y-117911475D01*
X295849698Y-117846173D01*
X295663154Y-117768904D01*
X295643750Y-117749500D01*
X295536250Y-117749500D01*
X295516846Y-117768904D01*
X295330302Y-117846173D01*
X295265000Y-117911475D01*
X295199698Y-117846173D01*
X295013154Y-117768904D01*
X294993750Y-117749500D01*
X294886250Y-117749500D01*
X294866846Y-117768904D01*
X294680302Y-117846173D01*
X294619020Y-117907455D01*
X294437765Y-117786343D01*
X294366397Y-117772147D01*
X294343750Y-117749500D01*
X294263691Y-117749500D01*
X294260074Y-117750998D01*
X294190000Y-117737060D01*
X293740000Y-117737060D01*
X293640000Y-117756951D01*
X293540000Y-117737060D01*
X293090000Y-117737060D01*
X292990000Y-117756951D01*
X292890000Y-117737060D01*
X292440000Y-117737060D01*
X292340000Y-117756951D01*
X292240000Y-117737060D01*
X291790000Y-117737060D01*
X291542235Y-117786343D01*
X291332191Y-117926691D01*
X291191843Y-118136735D01*
X291142560Y-118384500D01*
X283359792Y-118384500D01*
X283363329Y-118366720D01*
X283349401Y-118296699D01*
X283349401Y-118296695D01*
X283308148Y-118089303D01*
X283217534Y-117953690D01*
X283190669Y-117913483D01*
X283190666Y-117913480D01*
X283151002Y-117854119D01*
X283091642Y-117814456D01*
X282440644Y-117163458D01*
X282427894Y-110665000D01*
X298575001Y-110665000D01*
X298575001Y-125373000D01*
X298575001Y-125373000D01*
G37*
X298575001Y-125373000D02*
X298100000Y-125373000D01*
X298051399Y-125382667D01*
X298010197Y-125410197D01*
X297982667Y-125451399D01*
X297973000Y-125499707D01*
X297972076Y-125900770D01*
X297937000Y-125919181D01*
X297937000Y-127113000D01*
X297957000Y-127113000D01*
X297957000Y-127367000D01*
X297937000Y-127367000D01*
X297937000Y-127387000D01*
X297683000Y-127387000D01*
X297683000Y-127367000D01*
X296489845Y-127367000D01*
X296368524Y-127596890D01*
X296538355Y-128006924D01*
X296815708Y-128311261D01*
X296712235Y-128331843D01*
X296504292Y-128470787D01*
X295037829Y-127004324D01*
X295063578Y-126993658D01*
X295313658Y-126743578D01*
X295449000Y-126416833D01*
X295449000Y-126382940D01*
X295490000Y-126382940D01*
X295590000Y-126363049D01*
X295690000Y-126382940D01*
X296140000Y-126382940D01*
X296240000Y-126363049D01*
X296340000Y-126382940D01*
X296620499Y-126382940D01*
X296538355Y-126473076D01*
X296368524Y-126883110D01*
X296489845Y-127113000D01*
X297683000Y-127113000D01*
X297683000Y-125919181D01*
X297453108Y-125798514D01*
X297422000Y-125813123D01*
X297437440Y-125735500D01*
X297437440Y-124260500D01*
X297388157Y-124012735D01*
X297247809Y-123802691D01*
X297189941Y-123764025D01*
X297117269Y-123655263D01*
X297117265Y-123655259D01*
X297077601Y-123595898D01*
X297018241Y-123556235D01*
X294840557Y-121378552D01*
X294800891Y-121319187D01*
X294565707Y-121162042D01*
X294358315Y-121120789D01*
X294358310Y-121120789D01*
X294288289Y-121106861D01*
X294218268Y-121120789D01*
X291879156Y-121120789D01*
X291837877Y-120913265D01*
X291697529Y-120703221D01*
X291487485Y-120562873D01*
X291239720Y-120513590D01*
X291098675Y-120513590D01*
X290952269Y-120367184D01*
X290912602Y-120307818D01*
X290788932Y-120225184D01*
X290747529Y-120163221D01*
X290537485Y-120022873D01*
X290289720Y-119973590D01*
X289690280Y-119973590D01*
X289442515Y-120022873D01*
X289312989Y-120109420D01*
X284530208Y-120109420D01*
X284460187Y-120095492D01*
X284390166Y-120109420D01*
X284390162Y-120109420D01*
X284182770Y-120150673D01*
X284182768Y-120150674D01*
X284182769Y-120150674D01*
X284026634Y-120255000D01*
X283947586Y-120307818D01*
X283907920Y-120367182D01*
X283349401Y-120925702D01*
X283349401Y-118436741D01*
X283359792Y-118384500D01*
X291142560Y-118384500D01*
X291142560Y-119859500D01*
X291191843Y-120107265D01*
X291332191Y-120317309D01*
X291542235Y-120457657D01*
X291790000Y-120506940D01*
X292240000Y-120506940D01*
X292340000Y-120487049D01*
X292440000Y-120506940D01*
X292890000Y-120506940D01*
X292990000Y-120487049D01*
X293090000Y-120506940D01*
X293540000Y-120506940D01*
X293640000Y-120487049D01*
X293740000Y-120506940D01*
X294190000Y-120506940D01*
X294260074Y-120493002D01*
X294263691Y-120494500D01*
X294343750Y-120494500D01*
X294366397Y-120471853D01*
X294437765Y-120457657D01*
X294619020Y-120336545D01*
X294680302Y-120397827D01*
X294866846Y-120475096D01*
X294886250Y-120494500D01*
X294993750Y-120494500D01*
X295013154Y-120475096D01*
X295199698Y-120397827D01*
X295265000Y-120332525D01*
X295330302Y-120397827D01*
X295516846Y-120475096D01*
X295536250Y-120494500D01*
X295643750Y-120494500D01*
X295663154Y-120475096D01*
X295849698Y-120397827D01*
X295915000Y-120332525D01*
X295980302Y-120397827D01*
X296166846Y-120475096D01*
X296186250Y-120494500D01*
X296293750Y-120494500D01*
X296313154Y-120475096D01*
X296499698Y-120397827D01*
X296677500Y-120220026D01*
X296677500Y-120335750D01*
X296836250Y-120494500D01*
X296916309Y-120494500D01*
X297149698Y-120397827D01*
X297328327Y-120219199D01*
X297425000Y-119985810D01*
X297425000Y-119407750D01*
X297266250Y-119249000D01*
X296677500Y-119249000D01*
X296677500Y-119310250D01*
X296616250Y-119249000D01*
X295118000Y-119249000D01*
X295118000Y-118995000D01*
X296616250Y-118995000D01*
X296677500Y-118933750D01*
X296677500Y-118995000D01*
X297266250Y-118995000D01*
X297425000Y-118836250D01*
X297425000Y-118258190D01*
X297328327Y-118024801D01*
X297149698Y-117846173D01*
X296916309Y-117749500D01*
X296836250Y-117749500D01*
X296677500Y-117908250D01*
X296677500Y-118023974D01*
X296499698Y-117846173D01*
X296313154Y-117768904D01*
X296293750Y-117749500D01*
X296186250Y-117749500D01*
X296166846Y-117768904D01*
X295980302Y-117846173D01*
X295915000Y-117911475D01*
X295849698Y-117846173D01*
X295663154Y-117768904D01*
X295643750Y-117749500D01*
X295536250Y-117749500D01*
X295516846Y-117768904D01*
X295330302Y-117846173D01*
X295265000Y-117911475D01*
X295199698Y-117846173D01*
X295013154Y-117768904D01*
X294993750Y-117749500D01*
X294886250Y-117749500D01*
X294866846Y-117768904D01*
X294680302Y-117846173D01*
X294619020Y-117907455D01*
X294437765Y-117786343D01*
X294366397Y-117772147D01*
X294343750Y-117749500D01*
X294263691Y-117749500D01*
X294260074Y-117750998D01*
X294190000Y-117737060D01*
X293740000Y-117737060D01*
X293640000Y-117756951D01*
X293540000Y-117737060D01*
X293090000Y-117737060D01*
X292990000Y-117756951D01*
X292890000Y-117737060D01*
X292440000Y-117737060D01*
X292340000Y-117756951D01*
X292240000Y-117737060D01*
X291790000Y-117737060D01*
X291542235Y-117786343D01*
X291332191Y-117926691D01*
X291191843Y-118136735D01*
X291142560Y-118384500D01*
X283359792Y-118384500D01*
X283363329Y-118366720D01*
X283349401Y-118296699D01*
X283349401Y-118296695D01*
X283308148Y-118089303D01*
X283217534Y-117953690D01*
X283190669Y-117913483D01*
X283190666Y-117913480D01*
X283151002Y-117854119D01*
X283091642Y-117814456D01*
X282440644Y-117163458D01*
X282427894Y-110665000D01*
X298575001Y-110665000D01*
X298575001Y-125373000D01*
G36*
X289187866Y-122310023D02*
X289141000Y-122423167D01*
X289141000Y-122776833D01*
X289276342Y-123103578D01*
X289526422Y-123353658D01*
X289853167Y-123489000D01*
X290206833Y-123489000D01*
X290533578Y-123353658D01*
X290568492Y-123318744D01*
X290599580Y-123324928D01*
X290669601Y-123311000D01*
X290669606Y-123311000D01*
X290876998Y-123269747D01*
X291112182Y-123112602D01*
X291116319Y-123106410D01*
X291239720Y-123106410D01*
X291487485Y-123057127D01*
X291617011Y-122970580D01*
X293771575Y-122970580D01*
X294414055Y-123613060D01*
X294390000Y-123613060D01*
X294319926Y-123626998D01*
X294316309Y-123625500D01*
X294236250Y-123625500D01*
X294213603Y-123648147D01*
X294142235Y-123662343D01*
X293965000Y-123780769D01*
X293787765Y-123662343D01*
X293716397Y-123648147D01*
X293693750Y-123625500D01*
X293613691Y-123625500D01*
X293610074Y-123626998D01*
X293540000Y-123613060D01*
X293090000Y-123613060D01*
X292990000Y-123632951D01*
X292890000Y-123613060D01*
X292440000Y-123613060D01*
X292340000Y-123632951D01*
X292240000Y-123613060D01*
X291790000Y-123613060D01*
X291542235Y-123662343D01*
X291332191Y-123802691D01*
X291191843Y-124012735D01*
X291142560Y-124260500D01*
X291142560Y-125735500D01*
X291191843Y-125983265D01*
X291332191Y-126193309D01*
X291542235Y-126333657D01*
X291790000Y-126382940D01*
X291954001Y-126382940D01*
X291954001Y-126820493D01*
X291363495Y-127411000D01*
X291303167Y-127411000D01*
X291038126Y-127520784D01*
X291039425Y-127518839D01*
X291088708Y-127271074D01*
X291088708Y-126621074D01*
X291039425Y-126373309D01*
X290990768Y-126300489D01*
X290990768Y-126259244D01*
X291027258Y-126075794D01*
X291027258Y-125476354D01*
X290977975Y-125228589D01*
X290837627Y-125018545D01*
X290627583Y-124878197D01*
X290379818Y-124828914D01*
X289981038Y-124828914D01*
X289733273Y-124878197D01*
X289718976Y-124887750D01*
X289606967Y-124841354D01*
X289539713Y-124841354D01*
X289380963Y-125000104D01*
X289380963Y-125238232D01*
X289333598Y-125476354D01*
X289333598Y-125923074D01*
X289181573Y-125923074D01*
X289181573Y-125903074D01*
X289134268Y-125903074D01*
X289134268Y-125649074D01*
X289181573Y-125649074D01*
X289181573Y-125000104D01*
X289177160Y-124995691D01*
X289177160Y-124980610D01*
X289127877Y-124732845D01*
X289126257Y-124730420D01*
X289127877Y-124727995D01*
X289177160Y-124480230D01*
X289177160Y-124081450D01*
X289127877Y-123833685D01*
X288987529Y-123623641D01*
X288944401Y-123594824D01*
X288944401Y-122219000D01*
X289127046Y-122219000D01*
X289187866Y-122310023D01*
X289187866Y-122310023D01*
G37*
X289187866Y-122310023D02*
X289141000Y-122423167D01*
X289141000Y-122776833D01*
X289276342Y-123103578D01*
X289526422Y-123353658D01*
X289853167Y-123489000D01*
X290206833Y-123489000D01*
X290533578Y-123353658D01*
X290568492Y-123318744D01*
X290599580Y-123324928D01*
X290669601Y-123311000D01*
X290669606Y-123311000D01*
X290876998Y-123269747D01*
X291112182Y-123112602D01*
X291116319Y-123106410D01*
X291239720Y-123106410D01*
X291487485Y-123057127D01*
X291617011Y-122970580D01*
X293771575Y-122970580D01*
X294414055Y-123613060D01*
X294390000Y-123613060D01*
X294319926Y-123626998D01*
X294316309Y-123625500D01*
X294236250Y-123625500D01*
X294213603Y-123648147D01*
X294142235Y-123662343D01*
X293965000Y-123780769D01*
X293787765Y-123662343D01*
X293716397Y-123648147D01*
X293693750Y-123625500D01*
X293613691Y-123625500D01*
X293610074Y-123626998D01*
X293540000Y-123613060D01*
X293090000Y-123613060D01*
X292990000Y-123632951D01*
X292890000Y-123613060D01*
X292440000Y-123613060D01*
X292340000Y-123632951D01*
X292240000Y-123613060D01*
X291790000Y-123613060D01*
X291542235Y-123662343D01*
X291332191Y-123802691D01*
X291191843Y-124012735D01*
X291142560Y-124260500D01*
X291142560Y-125735500D01*
X291191843Y-125983265D01*
X291332191Y-126193309D01*
X291542235Y-126333657D01*
X291790000Y-126382940D01*
X291954001Y-126382940D01*
X291954001Y-126820493D01*
X291363495Y-127411000D01*
X291303167Y-127411000D01*
X291038126Y-127520784D01*
X291039425Y-127518839D01*
X291088708Y-127271074D01*
X291088708Y-126621074D01*
X291039425Y-126373309D01*
X290990768Y-126300489D01*
X290990768Y-126259244D01*
X291027258Y-126075794D01*
X291027258Y-125476354D01*
X290977975Y-125228589D01*
X290837627Y-125018545D01*
X290627583Y-124878197D01*
X290379818Y-124828914D01*
X289981038Y-124828914D01*
X289733273Y-124878197D01*
X289718976Y-124887750D01*
X289606967Y-124841354D01*
X289539713Y-124841354D01*
X289380963Y-125000104D01*
X289380963Y-125238232D01*
X289333598Y-125476354D01*
X289333598Y-125923074D01*
X289181573Y-125923074D01*
X289181573Y-125903074D01*
X289134268Y-125903074D01*
X289134268Y-125649074D01*
X289181573Y-125649074D01*
X289181573Y-125000104D01*
X289177160Y-124995691D01*
X289177160Y-124980610D01*
X289127877Y-124732845D01*
X289126257Y-124730420D01*
X289127877Y-124727995D01*
X289177160Y-124480230D01*
X289177160Y-124081450D01*
X289127877Y-123833685D01*
X288987529Y-123623641D01*
X288944401Y-123594824D01*
X288944401Y-122219000D01*
X289127046Y-122219000D01*
X289187866Y-122310023D01*
G36*
X285410280Y-126976830D02*
X285857000Y-126976830D01*
X285857000Y-127128855D01*
X285837000Y-127128855D01*
X285837000Y-127176160D01*
X285583000Y-127176160D01*
X285583000Y-127128855D01*
X285287075Y-127128855D01*
X285245222Y-127087002D01*
X285403970Y-127087002D01*
X285403970Y-126975575D01*
X285410280Y-126976830D01*
X285410280Y-126976830D01*
G37*
X285410280Y-126976830D02*
X285857000Y-126976830D01*
X285857000Y-127128855D01*
X285837000Y-127128855D01*
X285837000Y-127176160D01*
X285583000Y-127176160D01*
X285583000Y-127128855D01*
X285287075Y-127128855D01*
X285245222Y-127087002D01*
X285403970Y-127087002D01*
X285403970Y-126975575D01*
X285410280Y-126976830D01*
G36*
X284716580Y-127087000D02*
X284669275Y-127087000D01*
X284669275Y-127107000D01*
X284517250Y-127107000D01*
X284517250Y-127099986D01*
X284716580Y-126900656D01*
X284716580Y-127087000D01*
X284716580Y-127087000D01*
G37*
X284716580Y-127087000D02*
X284669275Y-127087000D01*
X284669275Y-127107000D01*
X284517250Y-127107000D01*
X284517250Y-127099986D01*
X284716580Y-126900656D01*
X284716580Y-127087000D01*
G36*
X288743828Y-127073074D02*
X288648509Y-127073074D01*
X288633277Y-127057842D01*
X288743828Y-127057842D01*
X288743828Y-127073074D01*
X288743828Y-127073074D01*
G37*
X288743828Y-127073074D02*
X288648509Y-127073074D01*
X288633277Y-127057842D01*
X288743828Y-127057842D01*
X288743828Y-127073074D01*
G36*
X287957000Y-126831145D02*
X287977000Y-126831145D01*
X287977000Y-126983170D01*
X287730406Y-126983170D01*
X287683000Y-126935764D01*
X287683000Y-126831145D01*
X287703000Y-126831145D01*
X287703000Y-126783840D01*
X287957000Y-126783840D01*
X287957000Y-126831145D01*
X287957000Y-126831145D01*
G37*
X287957000Y-126831145D02*
X287977000Y-126831145D01*
X287977000Y-126983170D01*
X287730406Y-126983170D01*
X287683000Y-126935764D01*
X287683000Y-126831145D01*
X287703000Y-126831145D01*
X287703000Y-126783840D01*
X287957000Y-126783840D01*
X287957000Y-126831145D01*
G36*
X286707560Y-122035000D02*
X286734936Y-122172631D01*
X286720000Y-122208690D01*
X286720000Y-122263750D01*
X286757000Y-122300750D01*
X286757000Y-122719250D01*
X286720000Y-122756250D01*
X286720000Y-122811310D01*
X286734936Y-122847369D01*
X286707560Y-122985000D01*
X286707560Y-123057000D01*
X286552440Y-123057000D01*
X286552440Y-122985000D01*
X286522603Y-122835000D01*
X286552440Y-122685000D01*
X286552440Y-122335000D01*
X286525064Y-122197369D01*
X286540000Y-122161310D01*
X286540000Y-122106250D01*
X286503000Y-122069250D01*
X286503000Y-122033750D01*
X286483000Y-122013750D01*
X286483000Y-121983000D01*
X286503000Y-121983000D01*
X286503000Y-121963000D01*
X286707560Y-121963000D01*
X286707560Y-122035000D01*
X286707560Y-122035000D01*
G37*
X286707560Y-122035000D02*
X286734936Y-122172631D01*
X286720000Y-122208690D01*
X286720000Y-122263750D01*
X286757000Y-122300750D01*
X286757000Y-122719250D01*
X286720000Y-122756250D01*
X286720000Y-122811310D01*
X286734936Y-122847369D01*
X286707560Y-122985000D01*
X286707560Y-123057000D01*
X286552440Y-123057000D01*
X286552440Y-122985000D01*
X286522603Y-122835000D01*
X286552440Y-122685000D01*
X286552440Y-122335000D01*
X286525064Y-122197369D01*
X286540000Y-122161310D01*
X286540000Y-122106250D01*
X286503000Y-122069250D01*
X286503000Y-122033750D01*
X286483000Y-122013750D01*
X286483000Y-121983000D01*
X286503000Y-121983000D01*
X286503000Y-121963000D01*
X286707560Y-121963000D01*
X286707560Y-122035000D01*
G04 #@! TD*
M02*
